<svg width="26" height="30" viewBox="0 0 26 30" fill="none" xmlns="http://www.w3.org/2000/svg">
<g clip-path="url(#clip0_17_17512)" filter="url(#filter0_d_17_17512)">
<path d="M7.28998 14.29L9.99998 17V21C9.99998 21.55 10.45 22 11 22H15C15.55 22 16 21.55 16 21V17L18.71 14.29C18.9 14.1 19 13.85 19 13.58V10C19 9.45 18.55 9 18 9H7.99998C7.44998 9 6.99998 9.45 6.99998 10V13.59C6.99998 13.85 7.10998 14.11 7.28998 14.29ZM13 2C13.55 2 14 2.45 14 3V4C14 4.55 13.55 5 13 5C12.45 5 12 4.55 12 4V3C12 2.45 12.45 2 13 2ZM5.20998 5.17C5.59998 4.78 6.22998 4.78 6.62998 5.17L7.33998 5.88C7.72998 6.27 7.72998 6.9 7.33998 7.29C6.94998 7.68 6.31998 7.68 5.92998 7.29L5.20998 6.58C4.81998 6.19 4.81998 5.56 5.20998 5.17ZM18.67 5.88L19.38 5.17C19.77 4.78 20.4 4.78 20.79 5.17C21.18 5.56 21.18 6.19 20.79 6.58L20.08 7.29C19.69 7.68 19.06 7.68 18.67 7.29C18.28 6.9 18.28 6.27 18.67 5.88Z" fill="#323232"/>
</g>
<defs>
<filter id="filter0_d_17_17512" x="-3" y="0" width="32" height="32" filterUnits="userSpaceOnUse" color-interpolation-filters="sRGB">
<feFlood flood-opacity="0" result="BackgroundImageFix"/>
<feColorMatrix in="SourceAlpha" type="matrix" values="0 0 0 0 0 0 0 0 0 0 0 0 0 0 0 0 0 0 127 0" result="hardAlpha"/>
<feOffset dy="4"/>
<feGaussianBlur stdDeviation="2"/>
<feComposite in2="hardAlpha" operator="out"/>
<feColorMatrix type="matrix" values="0 0 0 0 0 0 0 0 0 0 0 0 0 0 0 0 0 0 0.25 0"/>
<feBlend mode="normal" in2="BackgroundImageFix" result="effect1_dropShadow_17_17512"/>
<feBlend mode="normal" in="SourceGraphic" in2="effect1_dropShadow_17_17512" result="shape"/>
</filter>
<clipPath id="clip0_17_17512">
<rect width="24" height="24" fill="white" transform="translate(1)"/>
</clipPath>
</defs>
</svg>
