<?xml version="1.0" encoding="UTF-8" standalone="no"?>
<svg width="300" height="300" viewBox="0 0 300 300" fill="none" xmlns="http://www.w3.org/2000/svg">
  <!-- Person sitting -->
  <path d="M150 100C150 100 140 110 140 120C140 130 145 140 150 140C155 140 160 130 160 120C160 110 150 100 150 100Z" fill="#FFC0CB"/>
  <path d="M150 140C150 140 140 150 130 160C120 170 120 190 120 200C120 210 130 220 140 220C150 220 150 210 150 200L150 140Z" fill="#FFC0CB"/>
  <path d="M150 140C150 140 160 150 170 160C180 170 180 190 180 200C180 210 170 220 160 220C150 220 150 210 150 200L150 140Z" fill="#FFC0CB"/>
  <circle cx="150" cy="90" r="20" fill="#FFC0CB"/>
  
  <!-- Coins stack -->
  <circle cx="210" cy="180" r="25" fill="#9370DB" stroke="white" stroke-width="2"/>
  <circle cx="210" cy="170" r="25" fill="#9370DB" stroke="white" stroke-width="2"/>
  <circle cx="210" cy="160" r="25" fill="#9370DB" stroke="white" stroke-width="2"/>
  <circle cx="210" cy="150" r="25" fill="#9370DB" stroke="white" stroke-width="2"/>
  <circle cx="210" cy="140" r="25" fill="#9370DB" stroke="white" stroke-width="2"/>
  
  <!-- Dollar sign -->
  <path d="M210 125L210 165" stroke="white" stroke-width="4" stroke-linecap="round"/>
  <path d="M205 130C205 130 210 125 215 130C220 135 205 145 210 150C215 155 220 150 220 150" stroke="white" stroke-width="4" stroke-linecap="round"/>
  
  <!-- Credit cards -->
  <rect x="230" y="170" width="50" height="35" rx="5" transform="rotate(-10 230 170)" fill="#6A0DAD" stroke="white" stroke-width="2"/>
  <rect x="240" y="160" width="50" height="35" rx="5" transform="rotate(-5 240 160)" fill="#6A0DAD" stroke="white" stroke-width="2"/>
  <rect x="250" y="150" width="50" height="35" rx="5" fill="#6A0DAD" stroke="white" stroke-width="2"/>
  
  <!-- Decorative leaves/elements -->
  <path d="M50 180C50 180 70 150 100 170C100 170 80 200 50 180Z" fill="#FF6B6B"/>
  <path d="M70 200C70 200 90 170 120 190C120 190 100 220 70 200Z" fill="#FF6B6B"/>
</svg>
