<svg width="688" height="184" viewBox="0 0 688 184" fill="none" xmlns="http://www.w3.org/2000/svg">
<rect x="0.5" y="0.5" width="687" height="183" rx="31.5" stroke="#CCCCCC"/>
<path d="M92 103C93.1 103 93.99 102.11 93.99 101.01H90.01C90.01 102.11 90.9 103 92 103ZM99 97V91C99 87.65 96.64 84.85 93.5 84.17V83C93.5 82.17 92.83 81.5 92 81.5C91.17 81.5 90.5 82.17 90.5 83V84.17C87.36 84.85 85 87.65 85 91V97L83.71 98.29C83.08 98.92 83.52 100 84.41 100H99.58C100.47 100 100.92 98.92 100.29 98.29L99 97ZM95 93.01H93V95.01C93 95.56 92.55 96.01 92 96.01C91.45 96.01 91 95.56 91 95.01V93.01H89C88.45 93.01 88 92.56 88 92.01V92C88 91.45 88.45 91 89 91H91V89C91 88.45 91.45 88 92 88C92.55 88 93 88.45 93 89V91H95C95.55 91 96 91.45 96 92V92.01C96 92.56 95.55 93.01 95 93.01Z" fill="#323232"/>
<g clip-path="url(#clip0_17_17126)">
<path d="M152 89C151.3 89 150.63 89.1 150 89.29V87C150 85.9 149.1 85 148 85H140C138.9 85 138 85.9 138 87V97C138 98.1 138.9 99 140 99H145.68C146.8 101.36 149.21 103 152 103C155.87 103 159 99.87 159 96C159 92.13 155.87 89 152 89ZM152 101C149.24 101 147 98.76 147 96C147 93.24 149.24 91 152 91C154.76 91 157 93.24 157 96C157 98.76 154.76 101 152 101Z" fill="#323232"/>
<path d="M150 84C150.55 84 151 83.55 151 83C151 82.45 150.55 82 150 82H147.5L146.79 81.29C146.61 81.11 146.35 81 146.09 81H141.91C141.65 81 141.39 81.11 141.21 81.29L140.5 82H138C137.45 82 137 82.45 137 83C137 83.55 137.45 84 138 84H150Z" fill="#323232"/>
<path d="M151.75 92C151.34 92 151 92.34 151 92.75V96.43C151 96.79 151.19 97.11 151.5 97.29L154.02 98.76C154.35 98.95 154.77 98.85 154.98 98.54C155.21 98.2 155.1 97.73 154.74 97.52L152.5 96.2V92.75C152.5 92.34 152.16 92 151.75 92Z" fill="#323232"/>
</g>
<path d="M204 82C198.48 82 194 86.48 194 92C194 97.52 198.48 102 204 102C209.52 102 214 97.52 214 92C214 86.48 209.52 82 204 82ZM204 93C203.45 93 203 92.55 203 92V88C203 87.45 203.45 87 204 87C204.55 87 205 87.45 205 88V92C205 92.55 204.55 93 204 93ZM205 97H203V95H205V97Z" fill="#323232"/>
<path d="M260 87C260.55 87 261 87.45 261 88V92C261 92.55 260.55 93 260 93C259.45 93 259 92.55 259 92V88C259 87.45 259.45 87 260 87ZM259.99 82C254.47 82 250 86.48 250 92C250 97.52 254.47 102 259.99 102C265.52 102 270 97.52 270 92C270 86.48 265.52 82 259.99 82ZM260 100C255.58 100 252 96.42 252 92C252 87.58 255.58 84 260 84C264.42 84 268 87.58 268 92C268 96.42 264.42 100 260 100ZM261 97H259V95H261V97Z" fill="#323232"/>
<path d="M316 103C317.1 103 317.99 102.11 317.99 101.01H314.01C314.01 102.11 314.9 103 316 103ZM324.29 98.29L323 97V91C323 87.65 320.64 84.85 317.5 84.17V83C317.5 82.17 316.83 81.5 316 81.5C315.17 81.5 314.5 82.17 314.5 83V84.17C311.36 84.85 309 87.65 309 91V97L307.71 98.29C307.08 98.92 307.52 100 308.41 100H323.58C324.48 100 324.92 98.92 324.29 98.29ZM317 96H315V94H317V96ZM317 91C317 91.55 316.55 92 316 92C315.45 92 315 91.55 315 91V89C315 88.45 315.45 88 316 88C316.55 88 317 88.45 317 89V91Z" fill="#323232"/>
<path d="M364.47 101H379.53C381.07 101 382.03 99.33 381.26 98L373.73 84.99C372.96 83.66 371.04 83.66 370.27 84.99L362.74 98C361.97 99.33 362.93 101 364.47 101ZM372 94C371.45 94 371 93.55 371 93V91C371 90.45 371.45 90 372 90C372.55 90 373 90.45 373 91V93C373 93.55 372.55 94 372 94ZM373 98H371V96H373V98Z" fill="#323232"/>
<path d="M428 85.99L435.53 99H420.47L428 85.99ZM418.74 98C417.97 99.33 418.93 101 420.47 101H435.53C437.07 101 438.03 99.33 437.26 98L429.73 84.99C428.96 83.66 427.04 83.66 426.27 84.99L418.74 98ZM427 91V93C427 93.55 427.45 94 428 94C428.55 94 429 93.55 429 93V91C429 90.45 428.55 90 428 90C427.45 90 427 90.45 427 91ZM427 96H429V98H427V96Z" fill="#323232"/>
<defs>
<clipPath id="clip0_17_17126">
<rect width="24" height="24" fill="white" transform="translate(136 80)"/>
</clipPath>
</defs>
</svg>
