<svg width="688" height="632" viewBox="0 0 688 632" fill="none" xmlns="http://www.w3.org/2000/svg">
<rect x="0.5" y="0.5" width="687" height="631" rx="31.5" stroke="#CCCCCC"/>
<path d="M99 83H85C83.9 83 83 83.9 83 85V99C83 100.1 83.89 101 85 101H99C100.1 101 101 100.1 101 99V85C101 83.9 100.11 83 99 83ZM92 92.76C92 93.17 91.66 93.51 91.25 93.51H91V94.25C91 94.66 90.66 95 90.25 95C89.84 95 89.5 94.66 89.5 94.25V93.5H87.5C86.95 93.5 86.5 93.05 86.5 92.5V89.75C86.5 89.34 86.84 89 87.25 89C87.66 89 88 89.34 88 89.75V92H89.5V89.75C89.5 89.34 89.84 89 90.25 89C90.66 89 91 89.34 91 89.75V92H91.25C91.66 92 92 92.34 92 92.75V92.76ZM97.47 93.9C97.69 94.23 97.6 94.67 97.27 94.88C97.15 94.96 97.01 95 96.88 95C96.65 95 96.43 94.89 96.29 94.68L94.5 92V94.24C94.5 94.65 94.16 94.99 93.75 94.99C93.34 95 93 94.66 93 94.25V89.75C93 89.34 93.34 89 93.75 89C94.16 89 94.5 89.34 94.5 89.75V91.99L96.29 89.31C96.51 88.98 96.95 88.9 97.27 89.11C97.6 89.33 97.68 89.77 97.47 90.09L96.2 92L97.47 93.9Z" fill="#323232"/>
<g clip-path="url(#clip0_17_17218)">
<path d="M154 93H155V95H150V89H156C156.55 89 157 88.55 157 88C157 87.45 156.55 87 156 87H150C148.9 87 148 87.9 148 89V95C148 96.1 148.9 97 150 97H155C156.1 97 157 96.1 157 95V92C157 91.45 156.55 91 156 91H154C153.45 91 153 91.45 153 92C153 92.55 153.45 93 154 93Z" fill="#323232"/>
<path d="M140 93H144V95H140C139.45 95 139 95.45 139 96C139 96.55 139.45 97 140 97H144C145.1 97 146 96.1 146 95V93C146 91.9 145.1 91 144 91H141V89H145C145.55 89 146 88.55 146 88C146 87.45 145.55 87 145 87H140C139.45 87 139 87.45 139 88V92C139 92.55 139.45 93 140 93Z" fill="#323232"/>
</g>
<path d="M213 83H195C193.9 83 193 83.9 193 85V97C193 98.1 193.9 99 195 99H200V100C200 100.55 200.45 101 201 101H207C207.55 101 208 100.55 208 100V99H213C214.1 99 215 98.1 215 97V85C215 83.89 214.1 83 213 83ZM212 97H196C195.45 97 195 96.55 195 96V86C195 85.45 195.45 85 196 85H212C212.55 85 213 85.45 213 86V96C213 96.55 212.55 97 212 97ZM208 91C208 91.55 207.55 92 207 92H205V94C205 94.55 204.55 95 204 95C203.45 95 203 94.55 203 94V92H201C200.45 92 200 91.55 200 91C200 90.45 200.45 90 201 90H203V88C203 87.45 203.45 87 204 87C204.55 87 205 87.45 205 88V90H207C207.55 90 208 90.45 208 91Z" fill="#323232"/>
<path d="M256.41 102H263.58C264.47 102 264.92 100.92 264.29 100.29L260.7 96.7C260.31 96.31 259.68 96.31 259.29 96.7L255.7 100.29C255.08 100.92 255.52 102 256.41 102ZM269 83H251C249.9 83 249 83.9 249 85V97C249 98.1 249.9 99 251 99H254C254.55 99 255 98.55 255 98C255 97.45 254.55 97 254 97H252C251.45 97 251 96.55 251 96V86C251 85.45 251.45 85 252 85H268C268.55 85 269 85.45 269 86V96C269 96.55 268.55 97 268 97H266C265.45 97 265 97.45 265 98C265 98.55 265.45 99 266 99H269C270.1 99 271 98.1 271 97V85C271 83.9 270.1 83 269 83Z" fill="#323232"/>
<path d="M316 82C310.48 82 306 86.48 306 92C306 97.52 310.48 102 316 102C321.52 102 326 97.52 326 92C326 86.48 321.52 82 316 82ZM316 96.5C313.51 96.5 311.5 94.49 311.5 92C311.5 89.51 313.51 87.5 316 87.5C318.49 87.5 320.5 89.51 320.5 92C320.5 94.49 318.49 96.5 316 96.5ZM316 91C315.45 91 315 91.45 315 92C315 92.55 315.45 93 316 93C316.55 93 317 92.55 317 92C317 91.45 316.55 91 316 91Z" fill="#323232"/>
<path d="M381 93H375C374.45 93 374 92.55 374 92C374 91.45 374.45 91 375 91H381C381.55 91 382 91.45 382 92C382 92.55 381.55 93 381 93ZM381 87H375C374.45 87 374 87.45 374 88C374 88.55 374.45 89 375 89H381C381.55 89 382 88.55 382 88C382 87.45 381.55 87 381 87ZM375 97H381C381.55 97 382 96.55 382 96C382 95.45 381.55 95 381 95H375C374.45 95 374 95.45 374 96C374 96.55 374.45 97 375 97ZM372 89V95C372 96.1 371.1 97 370 97H364C362.9 97 362 96.1 362 95V89C362 87.9 362.9 87 364 87H370C371.1 87 372 87.9 372 89ZM369.9 94.2L368.64 92.52C368.44 92.26 368.05 92.25 367.84 92.51L366.5 94.26L365.65 93.23C365.45 92.98 365.07 92.99 364.87 93.24L364.13 94.19C363.87 94.52 364.11 95 364.52 95H369.5C369.91 95 370.15 94.53 369.9 94.2Z" fill="#323232"/>
<path d="M428 98C428.552 98 429 97.5523 429 97C429 96.4477 428.552 96 428 96C427.448 96 427 96.4477 427 97C427 97.5523 427.448 98 428 98Z" fill="#323232"/>
<path d="M423 93C423.552 93 424 92.5523 424 92C424 91.4477 423.552 91 423 91C422.448 91 422 91.4477 422 92C422 92.5523 422.448 93 423 93Z" fill="#323232"/>
<path d="M433 93C433.552 93 434 92.5523 434 92C434 91.4477 433.552 91 433 91C432.448 91 432 91.4477 432 92C432 92.5523 432.448 93 433 93Z" fill="#323232"/>
<path d="M428 83C427.45 83 427 83.45 427 84V86C427 86.55 427.45 87 428 87C428.55 87 429 86.55 429 86V85.08C432.31 85.56 434.87 88.33 435 91.74C435.14 95.59 431.97 98.94 428.12 99C424.19 99.06 421 95.91 421 92C421 90.32 421.59 88.78 422.58 87.58L427.29 92.3C427.68 92.69 428.31 92.69 428.7 92.3C429.09 91.91 429.09 91.28 428.7 90.89L423.26 85.46C422.88 85.08 422.26 85.07 421.86 85.44C420.1 87.07 419 89.4 419 92C419 97.04 423.14 101.12 428.21 101C432.91 100.89 436.84 96.99 436.99 92.29C437.16 87.19 433.07 83 428 83Z" fill="#323232"/>
<path d="M493 83H475C473.9 83 473 83.9 473 85V99C473 100.1 473.9 101 475 101H493C494.1 101 495 100.1 495 99V85C495 83.9 494.1 83 493 83ZM492 99H485C484.45 99 484 98.55 484 98V94C484 93.45 484.45 93 485 93H492C492.55 93 493 93.45 493 94V98C493 98.55 492.55 99 492 99Z" fill="#323232"/>
<path d="M549 83H531C529.9 83 529 83.9 529 85V99C529 100.1 529.9 101 531 101H549C550.1 101 551 100.1 551 99V85C551 83.9 550.1 83 549 83ZM548 99H532C531.45 99 531 98.55 531 98V97C531 96.45 531.45 96 532 96H548C548.55 96 549 96.45 549 97V98C549 98.55 548.55 99 548 99Z" fill="#323232"/>
<path d="M603 84H589C587.89 84 587 84.9 587 86V98C587 99.1 587.89 100 589 100H603C604.1 100 605 99.1 605 98V86C605 84.9 604.1 84 603 84ZM595 90.5C595 90.78 594.78 91 594.5 91H594C593.72 91 593.5 90.78 593.5 90.5H591.5V93.5H593.5C593.5 93.22 593.72 93 594 93H594.5C594.78 93 595 93.22 595 93.5V94C595 94.55 594.55 95 594 95H591C590.45 95 590 94.55 590 94V90C590 89.45 590.45 89 591 89H594C594.55 89 595 89.45 595 90V90.5ZM602 90.5C602 90.78 601.78 91 601.5 91H601C600.72 91 600.5 90.78 600.5 90.5H598.5V93.5H600.5C600.5 93.22 600.72 93 601 93H601.5C601.78 93 602 93.22 602 93.5V94C602 94.55 601.55 95 601 95H598C597.45 95 597 94.55 597 94V90C597 89.45 597.45 89 598 89H601C601.55 89 602 89.45 602 90V90.5Z" fill="#323232"/>
<g clip-path="url(#clip1_17_17218)">
<path d="M86.83 140H99C100.1 140 101 140.9 101 142V154C101 154.05 100.99 154.1 100.98 154.16L97.6 150.78C97.84 150.59 98 150.32 98 150V149.5C98 149.22 97.78 149 97.5 149H97C96.72 149 96.5 149.22 96.5 149.5H96.33L94.5 147.67V146.5H96.5C96.5 146.78 96.72 147 97 147H97.5C97.78 147 98 146.78 98 146.5V146C98 145.45 97.55 145 97 145H94C93.45 145 93 145.45 93 146V146.17L86.83 140ZM100.49 157.9C100.1 158.29 99.47 158.29 99.08 157.9L97.18 156H85C83.89 156 83 155.1 83 154V142C83 141.95 83.02 141.9 83.02 141.85L82.1 140.93C81.71 140.54 81.71 139.91 82.1 139.52C82.49 139.13 83.12 139.13 83.51 139.52L100.48 156.49C100.88 156.88 100.88 157.51 100.49 157.9ZM91 149.83L90.17 149H90C89.72 149 89.5 149.22 89.5 149.5H87.5V146.5H87.67L86.4 145.22C86.16 145.41 86 145.68 86 146V150C86 150.55 86.45 151 87 151H90C90.55 151 91 150.55 91 150V149.83Z" fill="#323232"/>
</g>
<path d="M140.65 145.35L138.7 147.3C138.31 147.69 138.31 148.32 138.7 148.71L140.65 150.66C141.14 151.15 141.93 151.15 142.42 150.66C142.9 150.17 142.9 149.39 142.42 148.9L141.54 148L142.42 147.11C142.9 146.62 142.9 145.84 142.42 145.35C141.94 144.86 141.14 144.86 140.65 145.35ZM153.58 145.35C153.1 145.84 153.1 146.62 153.58 147.11L154.46 148L153.58 148.89C153.1 149.38 153.1 150.16 153.58 150.65C154.07 151.14 154.86 151.14 155.35 150.65L157.3 148.7C157.69 148.31 157.69 147.68 157.3 147.29L155.35 145.34C154.86 144.86 154.06 144.86 153.58 145.35ZM148 154.46L147.11 153.58C146.62 153.1 145.84 153.1 145.35 153.58C144.86 154.07 144.86 154.86 145.35 155.35L147.3 157.3C147.69 157.69 148.32 157.69 148.71 157.3L150.66 155.35C151.15 154.86 151.15 154.07 150.66 153.58C150.17 153.1 149.39 153.1 148.9 153.58L148 154.46ZM145.35 142.42C145.84 142.9 146.62 142.9 147.11 142.42L148 141.54L148.89 142.42C149.38 142.9 150.16 142.9 150.65 142.42C151.14 141.93 151.14 141.14 150.65 140.65L148.7 138.7C148.31 138.31 147.68 138.31 147.29 138.7L145.35 140.65C144.86 141.14 144.86 141.94 145.35 142.42Z" fill="#323232"/>
<path d="M148 151C149.657 151 151 149.657 151 148C151 146.343 149.657 145 148 145C146.343 145 145 146.343 145 148C145 149.657 146.343 151 148 151Z" fill="#323232"/>
<path d="M204 156C205.1 156 206 155.1 206 154V142C206 140.9 205.1 140 204 140C202.9 140 202 140.9 202 142V154C202 155.1 202.9 156 204 156ZM198 156C199.1 156 200 155.1 200 154V150C200 148.9 199.1 148 198 148C196.9 148 196 148.9 196 150V154C196 155.1 196.9 156 198 156ZM208 147V154C208 155.1 208.9 156 210 156C211.1 156 212 155.1 212 154V147C212 145.9 211.1 145 210 145C208.9 145 208 145.9 208 147Z" fill="#323232"/>
<path d="M267 139H253C251.9 139 251 139.9 251 141V155C251 156.1 251.9 157 253 157H267C268.1 157 269 156.1 269 155V141C269 139.9 268.1 139 267 139ZM262 145H259V147H262C262.55 147 263 147.45 263 148C263 148.55 262.55 149 262 149H259V151H262C262.55 151 263 151.45 263 152C263 152.55 262.55 153 262 153H258C257.45 153 257 152.55 257 152V144C257 143.45 257.45 143 258 143H262C262.55 143 263 143.45 263 144C263 144.55 262.55 145 262 145Z" fill="#323232"/>
<path d="M309.58 152.89L315.35 148.82C315.91 148.42 315.91 147.58 315.35 147.19L309.58 143.11C308.91 142.65 308 143.12 308 143.93V152.07C308 152.88 308.91 153.35 309.58 152.89ZM317 143.93V152.07C317 152.88 317.91 153.35 318.58 152.89L324.35 148.82C324.91 148.42 324.91 147.58 324.35 147.19L318.58 143.12C317.91 142.65 317 143.12 317 143.93Z" fill="#323232"/>
<path d="M371 152.07V143.93C371 143.12 370.09 142.65 369.42 143.11L363.65 147.18C363.09 147.58 363.09 148.42 363.65 148.81L369.42 152.88C370.09 153.35 371 152.88 371 152.07ZM372.66 148.82L378.43 152.89C379.09 153.36 380.01 152.88 380.01 152.07V143.93C380.01 143.12 379.1 142.65 378.43 143.11L372.66 147.18C372.09 147.58 372.09 148.42 372.66 148.82Z" fill="#323232"/>
<path d="M437 139H419C417.9 139 417 139.9 417 141V155C417 156.1 417.9 157 419 157H437C438.1 157 439 156.1 439 155V141C439 139.9 438.1 139 437 139ZM427 147H420C419.45 147 419 146.55 419 146C419 145.45 419.45 145 420 145H427C427.55 145 428 145.45 428 146C428 146.55 427.55 147 427 147ZM427 143H420C419.45 143 419 142.55 419 142C419 141.45 419.45 141 420 141H427C427.55 141 428 141.45 428 142C428 142.55 427.55 143 427 143Z" fill="#323232"/>
<path d="M493 139H475C473.9 139 473 139.9 473 141V155C473 156.1 473.9 157 475 157H493C494.1 157 495 156.1 495 155V141C495 139.9 494.1 139 493 139ZM483 148H476C475.45 148 475 147.55 475 147V142C475 141.45 475.45 141 476 141H483C483.55 141 484 141.45 484 142V147C484 147.55 483.55 148 483 148Z" fill="#323232"/>
<path d="M532.5 146.5H534.5V149.5H532.5V146.5ZM545.5 146.5H547.5V147.5H545.5V146.5ZM549 139H531C529.89 139 529 139.89 529 141V155C529 156.1 529.89 157 531 157H549C550.11 157 551 156.1 551 155V141C551 139.89 550.11 139 549 139ZM536 149.5C536 150.33 535.33 151 534.5 151H531.5C531.22 151 531 150.78 531 150.5V145.5C531 145.22 531.22 145 531.5 145H534.5C535.33 145 536 145.67 536 146.5V149.5ZM542.1 145.92L540.83 150.28C540.71 150.71 540.31 151 539.87 151C539.43 151 539.03 150.71 538.91 150.28L537.64 145.92C537.5 145.46 537.85 145 538.33 145C538.65 145 538.93 145.21 539.02 145.52L539.87 148.43L540.72 145.52C540.81 145.21 541.09 145 541.41 145C541.89 145 542.24 145.46 542.1 145.92ZM549 147.5C549 148.1 548.6 148.65 548.1 148.9L548.73 150.38C548.92 150.83 548.59 151.34 548.1 151.34C547.82 151.34 547.57 151.18 547.47 150.92L546.65 149H545.5V150.31C545.5 150.69 545.19 151 544.81 151H544.69C544.31 151 544 150.69 544 150.31V145.64C544 145.29 544.29 145 544.64 145H547.5C548.33 145 549 145.67 549 146.5V147.5Z" fill="#323232"/>
<path d="M596 156C600.418 156 604 152.418 604 148C604 143.582 600.418 140 596 140C591.582 140 588 143.582 588 148C588 152.418 591.582 156 596 156Z" fill="#323232"/>
<path d="M100 196H84C82.89 196 82.01 196.89 82.01 198L82 210C82 211.11 82.89 212 84 212H100C101.11 212 102 211.11 102 210V198C102 196.89 101.11 196 100 196ZM88.5 206.21C88.5 206.64 88.14 207 87.71 207C87.46 207 87.22 206.88 87.07 206.67L84.75 203.5V206.38C84.75 206.73 84.47 207 84.13 207C83.79 207 83.5 206.72 83.5 206.38V201.79C83.5 201.36 83.86 201 84.29 201H84.34C84.6 201 84.84 201.12 84.99 201.33L87.25 204.5V201.62C87.25 201.28 87.53 201 87.88 201C88.23 201 88.5 201.28 88.5 201.62V206.21ZM93.5 201.64C93.5 201.99 93.22 202.26 92.88 202.26H91V203.38H92.88C93.23 203.38 93.5 203.66 93.5 204V204.01C93.5 204.36 93.22 204.63 92.88 204.63H91V205.74H92.88C93.23 205.74 93.5 206.02 93.5 206.36C93.5 206.71 93.22 206.98 92.88 206.98H90.35C89.88 206.98 89.5 206.6 89.5 206.13V201.83C89.5 201.38 89.88 201 90.35 201H92.88C93.23 201 93.5 201.28 93.5 201.62V201.64ZM100.5 206C100.5 206.55 100.05 207 99.5 207H95.5C94.95 207 94.5 206.55 94.5 206V201.62C94.5 201.28 94.78 201 95.12 201C95.46 201 95.74 201.28 95.74 201.62V205.51H96.87V202.61C96.87 202.26 97.15 201.99 97.49 201.99C97.83 201.99 98.11 202.27 98.11 202.61V205.5H99.23V201.62C99.23 201.27 99.51 201 99.85 201C100.19 201 100.47 201.28 100.47 201.62V206H100.5Z" fill="#323232"/>
<path d="M156 196H140C138.89 196 138.01 196.89 138.01 198L138 210C138 211.11 138.89 212 140 212H156C157.11 212 158 211.11 158 210V198C158 196.89 157.11 196 156 196ZM145 203.5C145 204.33 144.33 205 143.5 205H141.5V206.25C141.5 206.66 141.16 207 140.75 207C140.34 207 140 206.66 140 206.25V202C140 201.45 140.45 201 141 201H143.5C144.33 201 145 201.67 145 202.5V203.5ZM148.5 206.25C148.5 206.66 148.16 207 147.75 207C147.34 207 147 206.66 147 206.25V201.75C147 201.34 147.34 201 147.75 201C148.16 201 148.5 201.34 148.5 201.75V206.25ZM156 206.21C156 206.65 155.65 207 155.21 207C154.96 207 154.72 206.88 154.57 206.67L152.26 203.5V206.38C152.26 206.72 151.98 207 151.64 207H151.63C151.28 207 151 206.72 151 206.38V201.83C151 201.37 151.37 201 151.83 201C152.1 201 152.35 201.13 152.5 201.35L154.75 204.5V201.62C154.75 201.28 155.03 201 155.37 201H155.38C155.72 201 156 201.28 156 201.62V206.21ZM141.5 202.5H143.5V203.5H141.5V202.5Z" fill="#323232"/>
<path d="M201 212C205.418 212 209 208.418 209 204C209 199.582 205.418 196 201 196C196.582 196 193 199.582 193 204C193 208.418 196.582 212 201 212Z" fill="#323232"/>
<path d="M209 197.55V197.73C209 198.1 209.23 198.42 209.57 198.58C211.6 199.54 213 201.61 213 204C213 206.39 211.6 208.46 209.57 209.42C209.23 209.58 209 209.89 209 210.26V210.44C209 211.12 209.71 211.55 210.32 211.26C213.08 210.01 215 207.23 215 204C215 200.77 213.08 197.99 210.32 196.73C209.71 196.45 209 196.87 209 197.55Z" fill="#323232"/>
<path d="M266.92 205C266.42 205 266.01 205.37 265.94 205.86C265.46 209.23 262.17 211.7 258.52 210.82C256.27 210.28 254.61 208.55 254.13 206.29C253.32 202.42 256.27 199 260 199V201.79C260 202.24 260.54 202.46 260.85 202.14L264.64 198.35C264.84 198.15 264.84 197.84 264.64 197.64L260.85 193.85C260.54 193.54 260 193.76 260 194.21V197C255.06 197 251.16 201.48 252.16 206.6C252.76 209.71 255.06 212.1 258.15 212.79C262.98 213.87 267.3 210.59 267.92 206.12C268.01 205.53 267.52 205 266.92 205ZM258.9 208V203.73H258.81L257.04 204.36V205.05L258.05 204.74V208H258.9ZM262.32 203.78C262.14 203.71 261.95 203.68 261.73 203.68C261.51 203.68 261.32 203.71 261.14 203.78C260.96 203.85 260.81 203.96 260.69 204.11C260.57 204.26 260.46 204.45 260.4 204.68C260.34 204.91 260.3 205.18 260.3 205.5V206.24C260.3 206.56 260.34 206.84 260.41 207.06C260.48 207.28 260.58 207.48 260.71 207.63C260.84 207.78 260.99 207.89 261.17 207.96C261.35 208.03 261.54 208.06 261.76 208.06C261.98 208.06 262.17 208.03 262.35 207.96C262.53 207.89 262.68 207.78 262.8 207.63C262.92 207.48 263.02 207.29 263.09 207.06C263.16 206.83 263.19 206.56 263.19 206.24V205.5C263.19 205.18 263.15 204.9 263.08 204.68C263.01 204.46 262.91 204.26 262.78 204.11C262.65 203.96 262.49 203.85 262.32 203.78ZM262.33 206.35C262.33 206.54 262.32 206.7 262.29 206.83C262.26 206.96 262.23 207.07 262.18 207.15C262.13 207.23 262.07 207.29 261.99 207.32C261.91 207.35 261.83 207.37 261.74 207.37C261.65 207.37 261.56 207.35 261.49 207.32C261.42 207.29 261.35 207.23 261.3 207.15C261.25 207.07 261.21 206.96 261.18 206.83C261.15 206.7 261.14 206.54 261.14 206.35V205.38C261.14 205.19 261.15 205.03 261.18 204.9C261.21 204.77 261.24 204.67 261.3 204.59C261.36 204.51 261.41 204.45 261.49 204.42C261.57 204.39 261.65 204.37 261.74 204.37C261.83 204.37 261.92 204.39 261.99 204.42C262.06 204.45 262.13 204.51 262.18 204.59C262.23 204.67 262.27 204.77 262.3 204.9C262.33 205.03 262.34 205.19 262.34 205.38V206.35H262.33Z" fill="#323232"/>
<path d="M322.92 205C322.42 205 322.01 205.37 321.94 205.86C321.46 209.23 318.17 211.7 314.52 210.82C312.27 210.28 310.61 208.55 310.13 206.29C309.32 202.42 312.27 199 316 199V201.79C316 202.24 316.54 202.46 316.85 202.14L320.64 198.35C320.84 198.15 320.84 197.84 320.64 197.64L316.85 193.85C316.54 193.54 316 193.76 316 194.21V197C311.06 197 307.16 201.48 308.16 206.6C308.76 209.71 311.06 212.1 314.15 212.79C318.98 213.87 323.3 210.59 323.92 206.12C324.01 205.53 323.52 205 322.92 205ZM314.54 207.22C314.48 207.27 314.42 207.31 314.34 207.34C314.26 207.37 314.17 207.38 314.07 207.38C313.98 207.38 313.9 207.37 313.82 207.34C313.74 207.31 313.68 207.28 313.62 207.23C313.56 207.18 313.52 207.13 313.49 207.06C313.46 206.99 313.44 206.92 313.44 206.84H312.59C312.59 207.05 312.63 207.23 312.71 207.39C312.79 207.55 312.9 207.67 313.04 207.77C313.18 207.87 313.33 207.95 313.5 208C313.67 208.05 313.85 208.07 314.03 208.07C314.24 208.07 314.44 208.04 314.63 207.99C314.82 207.94 314.97 207.85 315.11 207.75C315.25 207.65 315.35 207.51 315.43 207.36C315.51 207.21 315.55 207.03 315.55 206.83C315.55 206.6 315.49 206.39 315.37 206.22C315.25 206.05 315.07 205.92 314.83 205.83C314.93 205.78 315.03 205.73 315.11 205.66C315.19 205.59 315.26 205.52 315.31 205.44C315.36 205.36 315.41 205.28 315.44 205.19C315.47 205.1 315.48 205.01 315.48 204.92C315.48 204.72 315.44 204.55 315.37 204.39C315.3 204.23 315.2 204.11 315.07 204.01C314.94 203.91 314.79 203.83 314.61 203.78C314.43 203.73 314.24 203.7 314.02 203.7C313.83 203.7 313.64 203.73 313.48 203.78C313.32 203.83 313.16 203.91 313.04 204.01C312.92 204.11 312.81 204.23 312.74 204.38C312.67 204.53 312.63 204.68 312.63 204.86H313.48C313.48 204.79 313.5 204.72 313.53 204.66C313.56 204.6 313.6 204.55 313.65 204.51C313.7 204.47 313.76 204.44 313.83 204.41C313.9 204.38 313.97 204.38 314.05 204.38C314.15 204.38 314.23 204.39 314.3 204.42C314.37 204.45 314.43 204.48 314.48 204.53C314.53 204.58 314.56 204.64 314.59 204.7C314.62 204.76 314.63 204.84 314.63 204.92C314.63 205.1 314.58 205.24 314.47 205.35C314.36 205.46 314.21 205.51 313.99 205.51H313.56V206.17H314.01C314.12 206.17 314.21 206.18 314.3 206.21C314.39 206.24 314.46 206.27 314.52 206.32C314.58 206.37 314.63 206.44 314.66 206.52C314.69 206.6 314.71 206.7 314.71 206.81C314.71 206.9 314.7 206.98 314.67 207.05C314.64 207.12 314.59 207.16 314.54 207.22ZM318.44 203.78C318.26 203.71 318.07 203.68 317.85 203.68C317.63 203.68 317.44 203.71 317.26 203.78C317.08 203.85 316.93 203.96 316.81 204.11C316.69 204.26 316.58 204.45 316.52 204.68C316.46 204.91 316.42 205.18 316.42 205.5V206.24C316.42 206.56 316.46 206.84 316.53 207.06C316.6 207.28 316.7 207.48 316.83 207.63C316.96 207.78 317.11 207.89 317.29 207.96C317.47 208.03 317.66 208.06 317.88 208.06C318.1 208.06 318.29 208.03 318.47 207.96C318.65 207.89 318.8 207.78 318.92 207.63C319.04 207.48 319.14 207.29 319.21 207.06C319.28 206.83 319.31 206.56 319.31 206.24V205.5C319.31 205.18 319.27 204.9 319.2 204.68C319.13 204.46 319.03 204.26 318.9 204.11C318.77 203.96 318.62 203.85 318.44 203.78ZM318.45 206.35C318.45 206.54 318.44 206.7 318.41 206.83C318.38 206.96 318.35 207.07 318.3 207.15C318.25 207.23 318.19 207.29 318.11 207.32C318.03 207.35 317.95 207.37 317.86 207.37C317.77 207.37 317.68 207.35 317.61 207.32C317.54 207.29 317.47 207.23 317.42 207.15C317.37 207.07 317.33 206.96 317.3 206.83C317.27 206.7 317.26 206.54 317.26 206.35V205.38C317.26 205.19 317.27 205.03 317.3 204.9C317.33 204.77 317.36 204.67 317.42 204.59C317.48 204.51 317.53 204.45 317.61 204.42C317.69 204.39 317.77 204.37 317.86 204.37C317.95 204.37 318.04 204.39 318.11 204.42C318.18 204.45 318.25 204.51 318.3 204.59C318.35 204.67 318.39 204.77 318.42 204.9C318.45 205.03 318.46 205.19 318.46 205.38V206.35H318.45Z" fill="#323232"/>
<path d="M378.87 205C378.37 205 377.96 205.37 377.89 205.86C377.41 209.23 374.12 211.7 370.47 210.82C368.22 210.28 366.56 208.55 366.08 206.29C365.27 202.42 368.22 199 371.95 199V201.79C371.95 202.24 372.49 202.46 372.8 202.14L376.59 198.35C376.79 198.15 376.79 197.84 376.59 197.64L372.8 193.85C372.49 193.54 371.95 193.76 371.95 194.2V197C367.01 197 363.11 201.48 364.11 206.6C364.71 209.71 367.01 212.1 370.1 212.79C374.93 213.87 379.25 210.59 379.87 206.12C379.96 205.53 379.47 205 378.87 205ZM372.43 207.15C372.38 207.22 372.32 207.28 372.25 207.32C372.18 207.36 372.08 207.38 371.98 207.38C371.81 207.38 371.67 207.33 371.56 207.23C371.45 207.13 371.39 206.99 371.37 206.82H370.53C370.54 207.02 370.58 207.19 370.66 207.35C370.74 207.51 370.85 207.63 370.98 207.74C371.11 207.85 371.27 207.93 371.44 207.98C371.61 208.03 371.79 208.06 371.97 208.06C372.21 208.06 372.43 208.02 372.61 207.94C372.79 207.86 372.94 207.76 373.06 207.63C373.18 207.5 373.27 207.35 373.33 207.18C373.39 207.01 373.42 206.83 373.42 206.64C373.42 206.42 373.39 206.21 373.33 206.04C373.27 205.87 373.19 205.71 373.08 205.59C372.97 205.47 372.83 205.37 372.67 205.31C372.51 205.25 372.33 205.21 372.12 205.21C372.05 205.21 371.98 205.22 371.92 205.23C371.86 205.24 371.79 205.25 371.74 205.27C371.69 205.29 371.64 205.3 371.59 205.32C371.54 205.34 371.51 205.36 371.48 205.37L371.59 204.45H373.29V203.74H370.9L370.65 205.91L371.32 206.08C371.35 206.05 371.38 206.02 371.42 205.99C371.46 205.96 371.49 205.94 371.54 205.92C371.59 205.9 371.64 205.88 371.69 205.87C371.74 205.86 371.82 205.85 371.89 205.85C372.01 205.85 372.11 205.87 372.19 205.9C372.27 205.93 372.35 205.99 372.4 206.05C372.45 206.11 372.5 206.19 372.53 206.29C372.56 206.39 372.57 206.48 372.57 206.6C372.57 206.72 372.56 206.82 372.54 206.91C372.52 207 372.48 207.08 372.43 207.15Z" fill="#323232"/>
<path d="M431 199.29V195C431 194.45 430.55 194 430 194H426C425.45 194 425 194.45 425 195V199.29C425 199.42 425.05 199.55 425.15 199.64L427.65 202.14C427.85 202.34 428.16 202.34 428.36 202.14L430.86 199.64C430.95 199.55 431 199.43 431 199.29ZM423.29 201H419C418.45 201 418 201.45 418 202V206C418 206.55 418.45 207 419 207H423.29C423.42 207 423.55 206.95 423.64 206.85L426.14 204.35C426.34 204.15 426.34 203.84 426.14 203.64L423.64 201.14C423.55 201.05 423.43 201 423.29 201ZM425 208.71V213C425 213.55 425.45 214 426 214H430C430.55 214 431 213.55 431 213V208.71C431 208.58 430.95 208.45 430.85 208.36L428.35 205.86C428.15 205.66 427.84 205.66 427.64 205.86L425.14 208.36C425.05 208.45 425 208.57 425 208.71ZM432.35 201.15L429.85 203.65C429.65 203.85 429.65 204.16 429.85 204.36L432.35 206.86C432.44 206.95 432.57 207.01 432.7 207.01H437C437.55 207.01 438 206.56 438 206.01V202.01C438 201.46 437.55 201.01 437 201.01H432.71C432.57 201 432.45 201.05 432.35 201.15Z" fill="#323232"/>
<path d="M491 195H477C475.89 195 475 195.9 475 197V211C475 212.1 475.89 213 477 213H491C492.1 213 493 212.1 493 211V197C493 195.9 492.1 195 491 195ZM482.25 207C481.84 207 481.5 206.66 481.5 206.25V205H479.5V206.25C479.5 206.66 479.16 207 478.75 207C478.34 207 478 206.66 478 206.25V201.75C478 201.34 478.34 201 478.75 201C479.16 201 479.5 201.34 479.5 201.75V203.5H481.5V201.75C481.5 201.34 481.84 201 482.25 201C482.66 201 483 201.34 483 201.75V206.25C483 206.66 482.66 207 482.25 207ZM485.5 201H489C489.55 201 490 201.45 490 202V206C490 206.55 489.55 207 489 207H485.5C485.22 207 485 206.78 485 206.5V201.5C485 201.22 485.22 201 485.5 201ZM486.5 205.5H488.5V202.5H486.5V205.5Z" fill="#323232"/>
<path d="M545 212C544.71 212 544.44 211.94 544.24 211.85C543.53 211.48 543.03 210.97 542.53 209.47C542.02 207.91 541.06 207.18 540.14 206.47C539.35 205.86 538.53 205.23 537.82 203.94C537.29 202.98 537 201.93 537 201C537 198.2 539.2 196 542 196C544.56 196 546.63 197.85 546.95 200.31C547.01 200.71 547.36 201 547.77 201H548.11C548.61 201 549 200.56 548.94 200.06C548.49 196.59 545.61 194 542 194C538.07 194 535 197.07 535 201C535 202.26 535.38 203.65 536.07 204.9C536.98 206.55 538.05 207.38 538.92 208.05C539.73 208.67 540.31 209.12 540.63 210.1C541.23 211.92 542 212.94 543.36 213.65C543.87 213.88 544.43 214 545 214C546.84 214 548.39 212.76 548.86 211.07C549 210.53 548.61 210 548.05 210H547.7C547.32 210 547.02 210.27 546.89 210.63C546.63 211.42 545.88 212 545 212ZM534.97 193.97C534.54 193.54 533.85 193.58 533.47 194.04C531.93 195.94 531 198.36 531 201C531 203.64 531.93 206.06 533.47 207.95C533.85 208.41 534.54 208.45 534.96 208.03C535.32 207.67 535.35 207.1 535.03 206.71C533.77 205.16 533 203.17 533 201C533 198.83 533.77 196.84 535.04 195.3C535.37 194.9 535.33 194.33 534.97 193.97ZM539.5 201C539.5 202.38 540.62 203.5 542 203.5C543.38 203.5 544.5 202.38 544.5 201C544.5 199.62 543.38 198.5 542 198.5C540.62 198.5 539.5 199.62 539.5 201Z" fill="#323232"/>
<g clip-path="url(#clip2_17_17218)">
<path d="M600.96 195.3C600.64 194.91 600.67 194.34 601.03 193.98L601.04 193.97C601.46 193.55 602.16 193.59 602.53 194.05C604.07 195.94 605 198.36 605 201C605 203.57 604.11 205.94 602.64 207.81L601.21 206.38C602.33 204.88 603 203.02 603 201C603 198.83 602.23 196.84 600.96 195.3ZM591.49 196.66C592.23 196.24 593.08 196 594 196C596.8 196 599 198.2 599 201C599 201.8 598.77 202.69 598.37 203.54L599.85 205.02C599.87 204.98 599.9 204.94 599.93 204.89C600.62 203.65 601 202.26 601 201C601 197.07 597.93 194 594 194C592.51 194 591.15 194.44 590.03 195.2L591.49 196.66ZM594 198.5C593.79 198.5 593.6 198.53 593.41 198.58L596.42 201.59C596.47 201.4 596.5 201.21 596.5 201C596.5 199.62 595.38 198.5 594 198.5ZM604.49 212.49L587.51 195.51C587.12 195.12 586.49 195.12 586.1 195.51C585.71 195.9 585.71 196.53 586.1 196.92L587.52 198.34C587.32 198.83 587.17 199.34 587.09 199.88C586.99 200.47 587.47 201 588.06 201H588.1C588.58 201 588.99 200.65 589.06 200.18C589.08 200.1 589.1 200.02 589.12 199.95L595.74 206.57C594.86 207.25 593.96 207.98 593.47 209.47C592.97 210.97 592.47 211.48 591.76 211.85C591.56 211.94 591.29 212 591 212C590.12 212 589.37 211.42 589.1 210.63C588.97 210.24 588.57 210 588.15 210C587.49 210 587 210.64 587.2 211.26C587.73 212.85 589.23 214 591 214C591.57 214 592.13 213.88 592.64 213.65C594 212.94 594.77 211.92 595.37 210.1C595.69 209.12 596.27 208.67 597.08 208.05C597.11 208.03 597.13 208.01 597.16 207.99L603.07 213.9C603.46 214.29 604.09 214.29 604.48 213.9C604.88 213.51 604.88 212.88 604.49 212.49Z" fill="#323232"/>
</g>
<path d="M99 252H85C83.89 252 83 252.9 83 254V266C83 267.1 83.89 268 85 268H99C100.1 268 101 267.1 101 266V254C101 252.9 100.1 252 99 252ZM90.25 263C89.84 263 89.5 262.66 89.5 262.25V261H87.5V262.25C87.5 262.66 87.16 263 86.75 263C86.34 263 86 262.66 86 262.25V257.75C86 257.34 86.34 257 86.75 257C87.16 257 87.5 257.34 87.5 257.75V259.5H89.5V257.75C89.5 257.34 89.84 257 90.25 257C90.66 257 91 257.34 91 257.75V262.25C91 262.66 90.66 263 90.25 263ZM98 262C98 262.55 97.55 263 97 263H96.25V263.75C96.25 264.16 95.91 264.5 95.5 264.5C95.09 264.5 94.75 264.16 94.75 263.75V263H94C93.45 263 93 262.55 93 262V258C93 257.45 93.45 257 94 257H97C97.55 257 98 257.45 98 258V262ZM94.5 261.5H96.5V258.5H94.5V261.5Z" fill="#323232"/>
<path d="M139 254C138.45 254 138 254.45 138 255V268C138 269.1 138.9 270 140 270H153C153.55 270 154 269.55 154 269C154 268.45 153.55 268 153 268H141C140.45 268 140 267.55 140 267V255C140 254.45 139.55 254 139 254ZM156 250H144C142.9 250 142 250.9 142 252V264C142 265.1 142.9 266 144 266H156C157.1 266 158 265.1 158 264V252C158 250.9 157.1 250 156 250ZM154 259H151V262C151 262.55 150.55 263 150 263C149.45 263 149 262.55 149 262V259H146C145.45 259 145 258.55 145 258C145 257.45 145.45 257 146 257H149V254C149 253.45 149.45 253 150 253C150.55 253 151 253.45 151 254V257H154C154.55 257 155 257.45 155 258C155 258.55 154.55 259 154 259Z" fill="#323232"/>
<g clip-path="url(#clip3_17_17218)">
<path d="M212 250H200C198.9 250 198 250.9 198 252V264C198 265.1 198.9 266 200 266H212C213.1 266 214 265.1 214 264V252C214 250.9 213.1 250 212 250ZM203.76 261.28L201.69 259.2C201.31 258.81 201.31 258.19 201.69 257.8C202.08 257.41 202.71 257.41 203.1 257.8L204.46 259.17L208.88 254.71C209.27 254.32 209.9 254.32 210.29 254.71C210.67 255.1 210.67 255.72 210.29 256.11L205.16 261.28C204.79 261.68 204.15 261.68 203.76 261.28ZM195 254C194.45 254 194 254.45 194 255V268C194 269.1 194.9 270 196 270H209C209.55 270 210 269.55 210 269C210 268.45 209.55 268 209 268H197C196.45 268 196 267.55 196 267V255C196 254.45 195.55 254 195 254Z" fill="#323232"/>
</g>
<path d="M251 254C250.45 254 250 254.45 250 255V268C250 269.1 250.9 270 252 270H265C265.55 270 266 269.55 266 269C266 268.45 265.55 268 265 268H253C252.45 268 252 267.55 252 267V255C252 254.45 251.55 254 251 254ZM268 250H256C254.9 250 254 250.9 254 252V264C254 265.1 254.9 266 256 266H268C269.1 266 270 265.1 270 264V252C270 250.9 269.1 250 268 250ZM266 259H258C257.45 259 257 258.55 257 258C257 257.45 257.45 257 258 257H266C266.55 257 267 257.45 267 258C267 258.55 266.55 259 266 259ZM262 263H258C257.45 263 257 262.55 257 262C257 261.45 257.45 261 258 261H262C262.55 261 263 261.45 263 262C263 262.55 262.55 263 262 263ZM266 255H258C257.45 255 257 254.55 257 254C257 253.45 257.45 253 258 253H266C266.55 253 267 253.45 267 254C267 254.55 266.55 255 266 255Z" fill="#323232"/>
<path d="M324 250H312C310.9 250 310 250.9 310 252V264C310 265.1 310.9 266 312 266H324C325.1 266 326 265.1 326 264V252C326 250.9 325.1 250 324 250ZM321 255H319V260.37C319 261.64 318.1 262.81 316.84 262.97C315.15 263.2 313.73 261.72 314.04 260.02C314.24 258.92 315.22 258.07 316.34 258C316.97 257.96 317.54 258.16 318 258.51V254C318 253.45 318.45 253 319 253H321C321.55 253 322 253.45 322 254C322 254.55 321.55 255 321 255ZM307 254C306.45 254 306 254.45 306 255V268C306 269.1 306.9 270 308 270H321C321.55 270 322 269.55 322 269C322 268.45 321.55 268 321 268H309C308.45 268 308 267.55 308 267V255C308 254.45 307.55 254 307 254Z" fill="#323232"/>
<path d="M372 252V250.21C372 249.76 371.46 249.54 371.15 249.86L368.35 252.65C368.15 252.85 368.15 253.16 368.35 253.36L371.14 256.15C371.46 256.46 372 256.24 372 255.79V254C375.31 254 378 256.69 378 260C378 260.79 377.85 261.56 377.56 262.25C377.41 262.61 377.52 263.02 377.79 263.29C378.3 263.8 379.16 263.62 379.43 262.95C379.8 262.04 380 261.04 380 260C380 255.58 376.42 252 372 252ZM372 266C368.69 266 366 263.31 366 260C366 259.21 366.15 258.44 366.44 257.75C366.59 257.39 366.48 256.98 366.21 256.71C365.7 256.2 364.84 256.38 364.57 257.05C364.2 257.96 364 258.96 364 260C364 264.42 367.58 268 372 268V269.79C372 270.24 372.54 270.46 372.85 270.14L375.64 267.35C375.84 267.15 375.84 266.84 375.64 266.64L372.85 263.85C372.54 263.54 372 263.76 372 264.21V266Z" fill="#323232"/>
<path d="M428 262C429.66 262 431 260.66 431 259V253C431 251.34 429.66 250 428 250C426.34 250 425 251.34 425 253V259C425 260.66 426.34 262 428 262ZM433.91 259C433.42 259 433.01 259.36 432.93 259.85C432.52 262.2 430.47 264 428 264C425.53 264 423.48 262.2 423.07 259.85C422.99 259.36 422.58 259 422.09 259C421.48 259 421 259.54 421.09 260.14C421.58 263.14 423.98 265.49 427 265.92V268C427 268.55 427.45 269 428 269C428.55 269 429 268.55 429 268V265.92C432.02 265.49 434.42 263.14 434.91 260.14C435.01 259.54 434.52 259 433.91 259Z" fill="#323232"/>
<path d="M484 262C485.66 262 487 260.66 487 259V253C487 251.34 485.66 250 484 250C482.34 250 481 251.34 481 253V259C481 260.66 482.34 262 484 262ZM483 253C483 252.45 483.45 252 484 252C484.55 252 485 252.45 485 253V259C485 259.55 484.55 260 484 260C483.45 260 483 259.55 483 259V253ZM489.91 259C489.42 259 489.01 259.36 488.93 259.85C488.52 262.2 486.47 264 484 264C481.53 264 479.48 262.2 479.07 259.85C478.99 259.36 478.58 259 478.09 259C477.48 259 477 259.54 477.09 260.14C477.58 263.14 479.98 265.49 483 265.92V268C483 268.55 483.45 269 484 269C484.55 269 485 268.55 485 268V265.92C488.02 265.49 490.42 263.14 490.91 260.14C491.01 259.54 490.52 259 489.91 259Z" fill="#323232"/>
<path d="M543 258.6V253C543 251.34 541.66 250 540 250C538.46 250 537.21 251.16 537.04 252.65L543 258.6ZM546.08 259C545.67 259 545.31 259.3 545.25 259.71C545.2 260.03 545.13 260.35 545.03 260.64L546.3 261.91C546.6 261.31 546.82 260.66 546.93 259.97C547 259.46 546.6 259 546.08 259ZM531.71 251.56C531.32 251.95 531.32 252.58 531.71 252.97L537 258.27V258.7C537 259.89 537.6 261.02 538.63 261.61C539.38 262.04 540.04 262.05 540.65 261.92L542.31 263.58C541.6 263.91 540.81 264.1 540 264.1C537.46 264.1 535.12 262.33 534.75 259.71C534.69 259.3 534.33 259 533.92 259C533.4 259 533 259.46 533.07 259.97C533.53 262.93 536.03 265.27 539 265.72V268C539 268.55 539.45 269 540 269C540.55 269 541 268.55 541 268V265.72C541.91 265.59 542.77 265.27 543.55 264.82L547.04 268.31C547.43 268.7 548.06 268.7 548.45 268.31C548.84 267.92 548.84 267.29 548.45 266.9L533.12 251.56C532.73 251.17 532.1 251.17 531.71 251.56Z" fill="#323232"/>
<path d="M601 258.5V255C601 254.45 600.55 254 600 254H588C587.45 254 587 254.45 587 255V265C587 265.55 587.45 266 588 266H600C600.55 266 601 265.55 601 265V261.5L603.29 263.79C603.92 264.42 605 263.97 605 263.08V256.91C605 256.02 603.92 255.57 603.29 256.2L601 258.5ZM594.71 262.29C594.32 262.68 593.69 262.68 593.3 262.29L590.12 259.11V261.66H589V257.72C589 257.44 589.22 257.22 589.5 257.22H593.44V258.33H590.89L594 261.43L598.22 257.21L599 258L594.71 262.29Z" fill="#323232"/>
<path d="M98 308L99.82 311.64C99.9 311.8 99.78 312 99.6 312H97.62C97.24 312 96.89 311.79 96.73 311.45L95 308H93L94.82 311.64C94.9 311.8 94.78 312 94.6 312H92.62C92.24 312 91.89 311.79 91.73 311.45L90 308H88L89.82 311.64C89.9 311.8 89.78 312 89.6 312H87.62C87.24 312 86.89 311.79 86.72 311.45L85 308H84C82.9 308 82 308.9 82 310V322C82 323.1 82.9 324 84 324H100C101.1 324 102 323.1 102 322V309C102 308.45 101.55 308 101 308H98Z" fill="#323232"/>
<path d="M157 307H139C137.9 307 137 307.9 137 309V323C137 324.1 137.9 325 139 325H157C158.1 325 159 324.1 159 323V309C159 307.9 158.1 307 157 307ZM156 323H140C139.45 323 139 322.55 139 322V310C139 309.45 139.45 309 140 309H156C156.55 309 157 309.45 157 310V322C157 322.55 156.55 323 156 323ZM144.05 319.54C143.72 317.64 145.16 316 147 316C147.35 316 147.69 316.07 148 316.18V312C148 310.9 148.9 310 150 310H152C152.55 310 153 310.45 153 311C153 311.55 152.55 312 152 312H150V319.03C149.98 320.85 148.34 322.29 146.45 321.95C145.24 321.74 144.25 320.75 144.05 319.54Z" fill="#323232"/>
<path d="M214.42 315.34L212.56 313.22L212.82 310.41C212.87 309.91 212.53 309.45 212.05 309.34L209.29 308.71L207.85 306.28C207.59 305.85 207.06 305.67 206.6 305.87L204 307L201.41 305.89C200.95 305.69 200.41 305.87 200.16 306.3L198.71 308.72L195.96 309.34C195.47 309.45 195.13 309.9 195.18 310.41L195.44 313.21L193.58 315.34C193.25 315.72 193.25 316.28 193.58 316.66L195.44 318.78L195.18 321.6C195.13 322.1 195.47 322.56 195.95 322.67L198.71 323.3L200.15 325.72C200.41 326.15 200.94 326.33 201.41 326.13L204 325L206.59 326.11C207.05 326.31 207.59 326.13 207.84 325.7L209.28 323.27L212.04 322.64C212.53 322.53 212.86 322.07 212.81 321.57L212.55 318.76L214.41 316.64C214.75 316.28 214.75 315.72 214.42 315.34ZM205 321H203V319H205V321ZM204 317C203.45 317 203 316.55 203 316V312C203 311.45 203.45 311 204 311C204.55 311 205 311.45 205 312V316C205 316.55 204.55 317 204 317Z" fill="#323232"/>
<path d="M269.41 313.41L264.58 308.58C264.21 308.21 263.7 308 263.17 308H252C250.9 308 250 308.9 250 310V322.01C250 323.11 250.89 324 251.99 324H268C269.1 324 270 323.1 270 322V314.83C270 314.3 269.79 313.79 269.41 313.41ZM263 309.5L268.5 315H264C263.45 315 263 314.55 263 314V309.5Z" fill="#323232"/>
<path d="M316 306C310.48 306 306 310.48 306 316C306 321.52 310.48 326 316 326C321.52 326 326 321.52 326 316C326 310.48 321.52 306 316 306ZM316 324C311.58 324 308 320.42 308 316C308 314.15 308.63 312.45 309.69 311.1L320.9 322.31C319.55 323.37 317.85 324 316 324ZM322.31 320.9L311.1 309.69C312.45 308.63 314.15 308 316 308C320.42 308 324 311.58 324 316C324 317.85 323.37 319.55 322.31 320.9Z" fill="#323232"/>
<path d="M368 323C369.1 323 370 322.1 370 321V311C370 309.9 369.1 309 368 309C366.9 309 366 309.9 366 311V321C366 322.1 366.9 323 368 323ZM374 311V321C374 322.1 374.9 323 376 323C377.1 323 378 322.1 378 321V311C378 309.9 377.1 309 376 309C374.9 309 374 309.9 374 311Z" fill="#323232"/>
<path d="M428 306C422.48 306 418 310.48 418 316C418 321.52 422.48 326 428 326C433.52 326 438 321.52 438 316C438 310.48 433.52 306 428 306ZM426 320C425.45 320 425 319.55 425 319V313C425 312.45 425.45 312 426 312C426.55 312 427 312.45 427 313V319C427 319.55 426.55 320 426 320ZM430 320C429.45 320 429 319.55 429 319V313C429 312.45 429.45 312 430 312C430.55 312 431 312.45 431 313V319C431 319.55 430.55 320 430 320Z" fill="#323232"/>
<path d="M482 320C482.55 320 483 319.55 483 319V313C483 312.45 482.55 312 482 312C481.45 312 481 312.45 481 313V319C481 319.55 481.45 320 482 320ZM484 306C478.48 306 474 310.48 474 316C474 321.52 478.48 326 484 326C489.52 326 494 321.52 494 316C494 310.48 489.52 306 484 306ZM484 324C479.59 324 476 320.41 476 316C476 311.59 479.59 308 484 308C488.41 308 492 311.59 492 316C492 320.41 488.41 324 484 324ZM486 320C486.55 320 487 319.55 487 319V313C487 312.45 486.55 312 486 312C485.45 312 485 312.45 485 313V319C485 319.55 485.45 320 486 320Z" fill="#323232"/>
<path d="M541 314H531C530.45 314 530 314.45 530 315C530 315.55 530.45 316 531 316H541C541.55 316 542 315.55 542 315C542 314.45 541.55 314 541 314ZM541 310H531C530.45 310 530 310.45 530 311C530 311.55 530.45 312 531 312H541C541.55 312 542 311.55 542 311C542 310.45 541.55 310 541 310ZM546 318V315C546 314.45 545.55 314 545 314C544.45 314 544 314.45 544 315V318H541C540.45 318 540 318.45 540 319C540 319.55 540.45 320 541 320H544V323C544 323.55 544.45 324 545 324C545.55 324 546 323.55 546 323V320H549C549.55 320 550 319.55 550 319C550 318.45 549.55 318 549 318H546ZM531 320H537C537.55 320 538 319.55 538 319C538 318.45 537.55 318 537 318H531C530.45 318 530 318.45 530 319C530 319.55 530.45 320 531 320Z" fill="#323232"/>
<path d="M597 314H587C586.45 314 586 314.45 586 315C586 315.55 586.45 316 587 316H597C597.55 316 598 315.55 598 315C598 314.45 597.55 314 597 314ZM597 310H587C586.45 310 586 310.45 586 311C586 311.55 586.45 312 587 312H597C597.55 312 598 311.55 598 311C598 310.45 597.55 310 597 310ZM587 320H593C593.55 320 594 319.55 594 319C594 318.45 593.55 318 593 318H587C586.45 318 586 318.45 586 319C586 319.55 586.45 320 587 320ZM606.21 316.21L606.3 316.3C606.69 316.69 606.69 317.32 606.3 317.71L600.72 323.3C600.33 323.69 599.7 323.69 599.31 323.3L596.22 320.21C595.83 319.82 595.83 319.19 596.22 318.8L596.31 318.71C596.7 318.32 597.33 318.32 597.72 318.71L600.02 321.01L604.8 316.22C605.18 315.82 605.82 315.82 606.21 316.21Z" fill="#323232"/>
<path d="M85 370H95C95.55 370 96 370.45 96 371C96 371.55 95.55 372 95 372H85C84.45 372 84 371.55 84 371C84 370.45 84.45 370 85 370ZM85 366H95C95.55 366 96 366.45 96 367C96 367.55 95.55 368 95 368H85C84.45 368 84 367.55 84 367C84 366.45 84.45 366 85 366ZM85 374H91C91.55 374 92 374.45 92 375C92 375.55 91.55 376 91 376H85C84.45 376 84 375.55 84 375C84 374.45 84.45 374 85 374ZM94 374.88V379.11C94 379.5 94.42 379.74 94.76 379.54L98.29 377.42C98.61 377.23 98.61 376.76 98.29 376.56L94.76 374.44C94.42 374.25 94 374.49 94 374.88Z" fill="#323232"/>
<path d="M144 366.82V377.18C144 377.97 144.87 378.45 145.54 378.02L153.68 372.84C154.3 372.45 154.3 371.55 153.68 371.15L145.54 365.98C144.87 365.55 144 366.03 144 366.82Z" fill="#323232"/>
<path d="M204 362C198.48 362 194 366.48 194 372C194 377.52 198.48 382 204 382C209.52 382 214 377.52 214 372C214 366.48 209.52 362 204 362ZM202 375.5V368.5C202 368.09 202.47 367.85 202.8 368.1L207.47 371.6C207.74 371.8 207.74 372.2 207.47 372.4L202.8 375.9C202.47 376.15 202 375.91 202 375.5Z" fill="#323232"/>
<path d="M258.8 375.9L263.47 372.4C263.74 372.2 263.74 371.8 263.47 371.6L258.8 368.1C258.47 367.85 258 368.09 258 368.5V375.5C258 375.91 258.47 376.15 258.8 375.9ZM260 362C254.48 362 250 366.48 250 372C250 377.52 254.48 382 260 382C265.52 382 270 377.52 270 372C270 366.48 265.52 362 260 362ZM260 380C255.59 380 252 376.41 252 372C252 367.59 255.59 364 260 364C264.41 364 268 367.59 268 372C268 376.41 264.41 380 260 380Z" fill="#323232"/>
<path d="M307 366C306.45 366 306 366.45 306 367V380C306 381.1 306.9 382 308 382H321C321.55 382 322 381.55 322 381C322 380.45 321.55 380 321 380H309C308.45 380 308 379.55 308 379V367C308 366.45 307.55 366 307 366ZM324 362H312C310.9 362 310 362.9 310 364V376C310 377.1 310.9 378 312 378H324C325.1 378 326 377.1 326 376V364C326 362.9 325.1 362 324 362ZM322 371H319V374C319 374.55 318.55 375 318 375C317.45 375 317 374.55 317 374V371H314C313.45 371 313 370.55 313 370C313 369.45 313.45 369 314 369H317V366C317 365.45 317.45 365 318 365C318.55 365 319 365.45 319 366V369H322C322.55 369 323 369.45 323 370C323 370.55 322.55 371 322 371Z" fill="#323232"/>
<path d="M374 366H364C363.45 366 363 366.45 363 367C363 367.55 363.45 368 364 368H374C374.55 368 375 367.55 375 367C375 366.45 374.55 366 374 366ZM374 370H364C363.45 370 363 370.45 363 371C363 371.55 363.45 372 364 372H374C374.55 372 375 371.55 375 371C375 370.45 374.55 370 374 370ZM364 376H370C370.55 376 371 375.55 371 375C371 374.45 370.55 374 370 374H364C363.45 374 363 374.45 363 375C363 375.55 363.45 376 364 376ZM379 366C377.9 366 377 366.9 377 368V374.18C376.69 374.07 376.35 374 376 374C374.16 374 372.72 375.64 373.05 377.54C373.26 378.75 374.25 379.74 375.46 379.95C377.36 380.28 379 378.84 379 377V368H381C381.55 368 382 367.55 382 367C382 366.45 381.55 366 381 366H379Z" fill="#323232"/>
<path d="M437 363H419C417.9 363 417 363.9 417 365V377C417 378.1 417.9 379 419 379H424V380C424 380.55 424.45 381 425 381H431C431.55 381 432 380.55 432 380V379H433C433.55 379 434 378.55 434 378C434 377.45 433.55 377 433 377H420C419.45 377 419 376.55 419 376V366C419 365.45 419.45 365 420 365H436C436.55 365 437 365.45 437 366V372C437 372.55 437.45 373 438 373C438.55 373 439 372.55 439 372V365C439 363.9 438.1 363 437 363ZM429 370V368C429 367.45 428.55 367 428 367C427.45 367 427 367.45 427 368V370H425C424.45 370 424 370.45 424 371C424 371.55 424.45 372 425 372H427V374C427 374.55 427.45 375 428 375C428.55 375 429 374.55 429 374V372H431C431.55 372 432 371.55 432 371C432 370.45 431.55 370 431 370H429ZM439.29 378.71L436.25 381.75C435.84 382.16 435.16 382.16 434.75 381.75C434.34 381.34 434.34 380.66 434.75 380.25L437 378L434.75 375.75C434.34 375.34 434.34 374.66 434.75 374.25C435.16 373.84 435.84 373.84 436.25 374.25L439.29 377.29C439.68 377.68 439.68 378.32 439.29 378.71Z" fill="#323232"/>
<path d="M475.24 366.15C474.51 366.43 474 367.17 474 368V380C474 381.1 474.9 382 476 382H492C493.11 382 494 381.1 494 380V368C494 366.9 493.1 366 492 366H480.3L487.73 363C488.19 362.81 488.41 362.29 488.22 361.83C488.03 361.37 487.51 361.15 487.05 361.34L475.24 366.15ZM479 380C477.34 380 476 378.66 476 377C476 375.34 477.34 374 479 374C480.66 374 482 375.34 482 377C482 378.66 480.66 380 479 380ZM492 372H490V371C490 370.45 489.55 370 489 370C488.45 370 488 370.45 488 371V372H476V369C476 368.45 476.45 368 477 368H491C491.55 368 492 368.45 492 369V372Z" fill="#323232"/>
<path d="M549 366V378C549 378.55 549.45 379 550 379C550.55 379 551 378.55 551 378V366C551 365.45 550.55 365 550 365C549.45 365 549 365.45 549 366ZM546 379C546.55 379 547 378.55 547 378V366C547 365.45 546.55 365 546 365C545.45 365 545 365.45 545 366V378C545 378.55 545.45 379 546 379ZM542 365H530C529.45 365 529 365.45 529 366V378C529 378.55 529.45 379 530 379H542C542.55 379 543 378.55 543 378V366C543 365.45 542.55 365 542 365ZM536 367.75C537.24 367.75 538.25 368.76 538.25 370C538.25 371.24 537.24 372.25 536 372.25C534.76 372.25 533.75 371.24 533.75 370C533.75 368.76 534.76 367.75 536 367.75ZM540.5 377H531.5V376.25C531.5 374.75 534.5 374 536 374C537.5 374 540.5 374.75 540.5 376.25V377Z" fill="#323232"/>
<path d="M605 363H587C585.9 363 585 363.9 585 365V377C585 378.1 585.9 379 587 379H592V380C592 380.55 592.45 381 593 381H599C599.55 381 600 380.55 600 380V379H605C606.1 379 607 378.1 607 377V365C607 363.89 606.1 363 605 363ZM604 377H588C587.45 377 587 376.55 587 376V366C587 365.45 587.45 365 588 365H604C604.55 365 605 365.45 605 366V376C605 376.55 604.55 377 604 377ZM600 371C600 371.55 599.55 372 599 372H593C592.45 372 592 371.55 592 371C592 370.45 592.45 370 593 370H599C599.55 370 600 370.45 600 371Z" fill="#323232"/>
<path d="M87 423H97V424.79C97 425.24 97.54 425.46 97.85 425.14L100.64 422.35C100.84 422.15 100.84 421.84 100.64 421.64L97.85 418.85C97.54 418.54 97 418.76 97 419.21V421H86C85.45 421 85 421.45 85 422V426C85 426.55 85.45 427 86 427C86.55 427 87 426.55 87 426V423ZM97 433H87V431.21C87 430.76 86.46 430.54 86.15 430.86L83.36 433.65C83.16 433.85 83.16 434.16 83.36 434.36L86.15 437.15C86.46 437.46 87 437.24 87 436.79V435H98C98.55 435 99 434.55 99 434V430C99 429.45 98.55 429 98 429C97.45 429 97 429.45 97 430V433Z" fill="#323232"/>
<path d="M143 423H153V424.79C153 425.24 153.54 425.46 153.85 425.14L156.64 422.35C156.84 422.15 156.84 421.84 156.64 421.64L153.85 418.85C153.54 418.54 153 418.76 153 419.21V421H142C141.45 421 141 421.45 141 422V426C141 426.55 141.45 427 142 427C142.55 427 143 426.55 143 426V423ZM153 433H143V431.21C143 430.76 142.46 430.54 142.15 430.86L139.36 433.65C139.16 433.85 139.16 434.16 139.36 434.36L142.15 437.15C142.46 437.46 143 437.24 143 436.79V435H154C154.55 435 155 434.55 155 434V430C155 429.45 154.55 429 154 429C153.45 429 153 429.45 153 430V433ZM149 430.25V425.81C149 425.36 148.64 425 148.19 425C148.06 425 147.94 425.03 147.83 425.09L146.34 425.83C146.13 425.93 146 426.15 146 426.38C146 426.72 146.28 427 146.62 427H147.5V430.25C147.5 430.66 147.84 431 148.25 431C148.66 431 149 430.66 149 430.25Z" fill="#323232"/>
<path d="M204 421V418.21C204 417.76 203.46 417.54 203.15 417.86L199.35 421.65C199.15 421.85 199.15 422.16 199.35 422.36L203.14 426.15C203.46 426.46 204 426.24 204 425.79V423C207.73 423 210.68 426.42 209.86 430.29C209.39 432.56 207.55 434.39 205.29 434.86C201.72 435.61 198.54 433.16 198.06 429.85C197.99 429.37 197.57 429 197.08 429C196.48 429 196 429.53 196.08 430.13C196.7 434.52 200.88 437.77 205.61 436.85C208.73 436.24 211.24 433.73 211.85 430.61C212.84 425.48 208.94 421 204 421Z" fill="#323232"/>
<path d="M259.99 421V418.21C259.99 417.76 259.45 417.54 259.14 417.86L255.35 421.65C255.15 421.85 255.15 422.16 255.35 422.36L259.14 426.15C259.45 426.46 259.99 426.24 259.99 425.8V423C263.72 423 266.67 426.42 265.85 430.29C265.38 432.56 263.54 434.39 261.28 434.86C257.71 435.61 254.53 433.16 254.05 429.85C253.99 429.37 253.57 429 253.07 429C252.47 429 251.99 429.53 252.07 430.13C252.69 434.52 256.87 437.77 261.6 436.85C264.72 436.24 267.23 433.73 267.84 430.61C268.83 425.48 264.94 421 259.99 421ZM258.89 432H258.04V428.74L257.03 429.05V428.36L258.8 427.73H258.89V432ZM263.17 430.24C263.17 430.56 263.14 430.84 263.07 431.06C263 431.28 262.9 431.48 262.78 431.63C262.66 431.78 262.5 431.89 262.33 431.96C262.16 432.03 261.96 432.06 261.74 432.06C261.52 432.06 261.33 432.03 261.15 431.96C260.97 431.89 260.82 431.78 260.69 431.63C260.56 431.48 260.46 431.29 260.39 431.06C260.32 430.83 260.28 430.56 260.28 430.24V429.5C260.28 429.18 260.31 428.9 260.38 428.68C260.45 428.46 260.55 428.26 260.67 428.11C260.79 427.96 260.95 427.85 261.12 427.78C261.29 427.71 261.49 427.68 261.71 427.68C261.93 427.68 262.12 427.71 262.3 427.78C262.48 427.85 262.63 427.96 262.76 428.11C262.89 428.26 262.99 428.45 263.06 428.68C263.13 428.91 263.17 429.18 263.17 429.5V430.24ZM262.32 429.38C262.32 429.19 262.31 429.03 262.28 428.9C262.25 428.77 262.21 428.67 262.16 428.59C262.11 428.51 262.05 428.45 261.97 428.42C261.89 428.39 261.81 428.37 261.72 428.37C261.63 428.37 261.54 428.39 261.47 428.42C261.4 428.45 261.33 428.51 261.28 428.59C261.23 428.67 261.19 428.77 261.16 428.9C261.13 429.03 261.12 429.19 261.12 429.38V430.35C261.12 430.54 261.13 430.7 261.16 430.83C261.19 430.96 261.23 431.07 261.28 431.15C261.33 431.23 261.39 431.29 261.47 431.32C261.55 431.35 261.63 431.37 261.72 431.37C261.81 431.37 261.9 431.35 261.97 431.32C262.04 431.29 262.11 431.23 262.16 431.15C262.21 431.07 262.25 430.96 262.27 430.83C262.29 430.7 262.31 430.54 262.31 430.35V429.38H262.32Z" fill="#323232"/>
<path d="M316 421V418.21C316 417.76 315.46 417.54 315.15 417.86L311.35 421.65C311.15 421.85 311.15 422.16 311.35 422.36L315.14 426.15C315.46 426.46 316 426.24 316 425.79V423C319.73 423 322.68 426.42 321.86 430.29C321.39 432.56 319.55 434.39 317.29 434.86C313.72 435.61 310.54 433.16 310.06 429.85C309.99 429.37 309.57 429 309.08 429C308.48 429 308 429.53 308.08 430.13C308.7 434.52 312.88 437.77 317.61 436.85C320.73 436.24 323.24 433.73 323.85 430.61C324.84 425.48 320.94 421 316 421ZM313.56 429.49H314.01C314.22 429.49 314.38 429.44 314.49 429.33C314.6 429.22 314.65 429.08 314.65 428.9C314.65 428.82 314.64 428.75 314.61 428.68C314.58 428.61 314.55 428.56 314.5 428.51C314.45 428.46 314.39 428.42 314.32 428.4C314.25 428.38 314.16 428.36 314.07 428.36C313.99 428.36 313.92 428.37 313.85 428.39C313.78 428.41 313.72 428.44 313.67 428.49C313.62 428.54 313.58 428.58 313.55 428.64C313.52 428.7 313.5 428.77 313.5 428.84H312.65C312.65 428.66 312.69 428.5 312.76 428.36C312.83 428.22 312.93 428.09 313.06 427.99C313.19 427.89 313.33 427.81 313.5 427.76C313.67 427.71 313.85 427.68 314.04 427.68C314.25 427.68 314.45 427.71 314.63 427.76C314.81 427.81 314.96 427.89 315.09 427.99C315.22 428.09 315.32 428.22 315.39 428.37C315.46 428.52 315.5 428.7 315.5 428.9C315.5 428.99 315.49 429.08 315.46 429.17C315.43 429.26 315.39 429.34 315.33 429.42C315.27 429.5 315.21 429.57 315.13 429.64C315.05 429.71 314.96 429.76 314.85 429.81C315.09 429.9 315.27 430.02 315.39 430.2C315.51 430.38 315.57 430.58 315.57 430.81C315.57 431.01 315.53 431.19 315.45 431.34C315.37 431.49 315.27 431.63 315.13 431.73C314.99 431.83 314.84 431.92 314.65 431.97C314.46 432.02 314.27 432.05 314.05 432.05C313.87 432.05 313.69 432.03 313.52 431.98C313.35 431.93 313.19 431.86 313.06 431.75C312.93 431.64 312.81 431.52 312.73 431.37C312.65 431.22 312.61 431.03 312.61 430.82H313.46C313.46 430.9 313.48 430.97 313.51 431.04C313.54 431.11 313.58 431.16 313.64 431.21C313.7 431.26 313.76 431.3 313.84 431.32C313.92 431.34 314 431.36 314.09 431.36C314.19 431.36 314.28 431.35 314.36 431.32C314.44 431.29 314.51 431.25 314.56 431.2C314.61 431.15 314.66 431.09 314.69 431.02C314.72 430.95 314.73 430.87 314.73 430.78C314.73 430.67 314.71 430.57 314.68 430.49C314.65 430.41 314.6 430.34 314.54 430.29C314.48 430.24 314.41 430.2 314.32 430.18C314.23 430.16 314.14 430.14 314.03 430.14H313.56V429.49ZM319.3 430.24C319.3 430.56 319.27 430.84 319.2 431.06C319.13 431.28 319.03 431.48 318.91 431.63C318.79 431.78 318.63 431.89 318.46 431.96C318.29 432.03 318.09 432.06 317.87 432.06C317.65 432.06 317.46 432.03 317.28 431.96C317.1 431.89 316.95 431.78 316.82 431.63C316.69 431.48 316.59 431.29 316.52 431.06C316.45 430.83 316.41 430.56 316.41 430.24V429.5C316.41 429.18 316.44 428.9 316.51 428.68C316.58 428.46 316.68 428.26 316.8 428.11C316.92 427.96 317.08 427.85 317.25 427.78C317.42 427.71 317.62 427.68 317.84 427.68C318.06 427.68 318.25 427.71 318.43 427.78C318.61 427.85 318.76 427.96 318.89 428.11C319.02 428.26 319.12 428.45 319.19 428.68C319.26 428.91 319.3 429.18 319.3 429.5V430.24ZM318.45 429.38C318.45 429.19 318.44 429.03 318.41 428.9C318.38 428.77 318.34 428.67 318.29 428.59C318.24 428.51 318.18 428.45 318.1 428.42C318.02 428.39 317.94 428.37 317.85 428.37C317.76 428.37 317.67 428.39 317.6 428.42C317.53 428.45 317.46 428.51 317.41 428.59C317.36 428.67 317.32 428.77 317.29 428.9C317.26 429.03 317.25 429.19 317.25 429.38V430.35C317.25 430.54 317.26 430.7 317.29 430.83C317.32 430.96 317.36 431.07 317.41 431.15C317.46 431.23 317.52 431.29 317.6 431.32C317.68 431.35 317.76 431.37 317.85 431.37C317.94 431.37 318.03 431.35 318.1 431.32C318.17 431.29 318.24 431.23 318.29 431.15C318.34 431.07 318.38 430.96 318.4 430.83C318.43 430.7 318.44 430.54 318.44 430.35V429.38H318.45Z" fill="#323232"/>
<path d="M372 421V418.21C372 417.76 371.46 417.54 371.15 417.86L367.35 421.65C367.15 421.85 367.15 422.16 367.35 422.36L371.14 426.15C371.46 426.46 372 426.24 372 425.79V423C375.73 423 378.68 426.42 377.86 430.29C377.39 432.55 375.72 434.28 373.47 434.82C369.83 435.7 366.54 433.22 366.05 429.86C365.99 429.37 365.57 429 365.08 429C364.48 429 364 429.53 364.08 430.13C364.71 434.6 369.02 437.88 373.85 436.8C376.94 436.11 379.24 433.72 379.84 430.61C380.84 425.48 376.94 421 372 421ZM370.69 429.9L370.94 427.73H373.33V428.44H371.63L371.52 429.36C371.55 429.34 371.59 429.33 371.63 429.31C371.67 429.29 371.72 429.27 371.78 429.26C371.84 429.25 371.9 429.23 371.96 429.22C372.02 429.21 372.09 429.2 372.16 429.2C372.37 429.2 372.55 429.23 372.71 429.3C372.87 429.37 373.01 429.46 373.12 429.58C373.23 429.7 373.32 429.85 373.37 430.03C373.42 430.21 373.46 430.41 373.46 430.63C373.46 430.82 373.43 431 373.37 431.17C373.31 431.34 373.22 431.49 373.1 431.62C372.98 431.75 372.83 431.86 372.65 431.93C372.47 432 372.26 432.05 372.01 432.05C371.83 432.05 371.65 432.02 371.48 431.97C371.31 431.92 371.16 431.83 371.02 431.73C370.88 431.63 370.78 431.49 370.7 431.34C370.62 431.19 370.57 431.01 370.57 430.81H371.41C371.43 430.99 371.49 431.13 371.6 431.22C371.71 431.31 371.85 431.37 372.02 431.37C372.13 431.37 372.22 431.35 372.29 431.31C372.36 431.27 372.43 431.21 372.47 431.14C372.51 431.07 372.55 430.99 372.58 430.89C372.61 430.79 372.61 430.69 372.61 430.58C372.61 430.47 372.6 430.37 372.57 430.27C372.54 430.17 372.5 430.1 372.44 430.03C372.38 429.96 372.31 429.91 372.23 429.88C372.15 429.85 372.04 429.83 371.93 429.83C371.85 429.83 371.78 429.84 371.73 429.85C371.68 429.86 371.62 429.88 371.58 429.9C371.54 429.92 371.5 429.95 371.46 429.97C371.42 429.99 371.39 430.03 371.36 430.06L370.69 429.9Z" fill="#323232"/>
<path d="M426.59 425.17L422.12 420.7C421.73 420.31 421.1 420.31 420.71 420.7C420.32 421.09 420.32 421.72 420.71 422.11L425.17 426.57L426.59 425.17ZM431.35 420.85L432.54 422.04L420.7 433.88C420.31 434.27 420.31 434.9 420.7 435.29C421.09 435.68 421.72 435.68 422.11 435.29L433.96 423.46L435.15 424.65C435.46 424.96 436 424.74 436 424.29V420.5C436 420.22 435.78 420 435.5 420H431.71C431.26 420 431.04 420.54 431.35 420.85ZM430.83 429.41L429.42 430.82L432.55 433.95L431.35 435.15C431.04 435.46 431.26 436 431.71 436H435.5C435.78 436 436 435.78 436 435.5V431.71C436 431.26 435.46 431.04 435.15 431.36L433.96 432.55L430.83 429.41Z" fill="#323232"/>
<path d="M479.58 432.89L485.35 428.82C485.91 428.42 485.91 427.58 485.35 427.19L479.58 423.11C478.91 422.65 478 423.12 478 423.93V432.07C478 432.88 478.91 433.35 479.58 432.89ZM488 423V433C488 433.55 488.45 434 489 434C489.55 434 490 433.55 490 433V423C490 422.45 489.55 422 489 422C488.45 422 488 422.45 488 423Z" fill="#323232"/>
<path d="M535 422C535.55 422 536 422.45 536 423V433C536 433.55 535.55 434 535 434C534.45 434 534 433.55 534 433V423C534 422.45 534.45 422 535 422ZM538.66 428.82L544.43 432.89C545.09 433.36 546.01 432.88 546.01 432.07V423.93C546.01 423.12 545.1 422.65 544.43 423.11L538.66 427.18C538.09 427.58 538.09 428.42 538.66 428.82Z" fill="#323232"/>
<path d="M594 424.5V431.5C594 431.91 594.47 432.15 594.8 431.9L599.47 428.4C599.74 428.2 599.74 427.8 599.47 427.6L594.8 424.1C594.47 423.85 594 424.09 594 424.5ZM595 419.23C595 418.59 594.41 418.1 593.79 418.24C592.67 418.5 591.61 418.94 590.67 419.54C590.14 419.88 590.06 420.64 590.51 421.09C590.83 421.41 591.34 421.49 591.72 421.25C592.49 420.76 593.34 420.4 594.26 420.2C594.7 420.1 595 419.69 595 419.23ZM589.1 422.51C588.64 422.06 587.89 422.13 587.55 422.67C586.95 423.61 586.51 424.67 586.25 425.79C586.11 426.41 586.59 427 587.23 427C587.68 427 588.1 426.7 588.19 426.26C588.39 425.35 588.76 424.49 589.24 423.73C589.5 423.34 589.42 422.83 589.1 422.51ZM587.23 429C586.59 429 586.1 429.59 586.24 430.21C586.5 431.33 586.94 432.38 587.54 433.33C587.88 433.87 588.64 433.94 589.09 433.49C589.41 433.17 589.49 432.66 589.24 432.28C588.75 431.52 588.39 430.67 588.19 429.75C588.1 429.3 587.69 429 587.23 429ZM590.67 436.45C591.62 437.05 592.67 437.49 593.79 437.75C594.41 437.89 595 437.4 595 436.77C595 436.32 594.7 435.9 594.26 435.81C593.35 435.61 592.49 435.24 591.73 434.76C591.34 434.52 590.84 434.59 590.52 434.92C590.06 435.36 590.13 436.11 590.67 436.45ZM606 428C606 432.73 602.7 436.71 598.27 437.74C597.65 437.89 597.05 437.4 597.05 436.76C597.05 436.3 597.36 435.9 597.8 435.79C601.35 434.97 604 431.79 604 428C604 424.21 601.35 421.03 597.8 420.21C597.36 420.11 597.05 419.7 597.05 419.24C597.05 418.6 597.65 418.11 598.27 418.26C602.7 419.29 606 423.27 606 428Z" fill="#323232"/>
<path d="M90 483H92.63L88.91 487.35C88.36 488 88.82 489 89.67 489H94C94.55 489 95 488.55 95 488C95 487.45 94.55 487 94 487H91.37L95.09 482.65C95.64 482 95.18 481 94.33 481H90C89.45 481 89 481.45 89 482C89 482.55 89.45 483 90 483ZM101.3 478.42C100.95 478.84 100.32 478.9 99.89 478.55L96.82 475.99C96.4 475.63 96.34 475 96.7 474.58C97.05 474.16 97.68 474.1 98.11 474.45L101.18 477.01C101.6 477.37 101.66 478 101.3 478.42ZM82.7 478.42C83.05 478.85 83.68 478.9 84.1 478.55L87.17 475.99C87.6 475.63 87.66 475 87.3 474.58C86.95 474.15 86.32 474.1 85.9 474.45L82.82 477.01C82.4 477.37 82.34 478 82.7 478.42ZM92 478C95.86 478 99 481.14 99 485C99 488.86 95.86 492 92 492C88.14 492 85 488.86 85 485C85 481.14 88.14 478 92 478ZM92 476C87.03 476 83 480.03 83 485C83 489.97 87.03 494 92 494C96.97 494 101 489.97 101 485C101 480.03 96.97 476 92 476Z" fill="#323232"/>
<path d="M148.93 474.65C148.73 474.45 148.42 474.45 148.22 474.65L146.21 476.66H150.93L148.93 474.65ZM148.23 493.35C148.43 493.55 148.74 493.55 148.94 493.35L150.92 491.37H146.26L148.23 493.35ZM146.98 489.73C147.58 489.73 147.99 489.13 147.77 488.57L144.04 479.03C143.86 478.57 143.41 478.27 142.92 478.27C142.43 478.27 141.98 478.57 141.8 479.03L138.06 488.56C137.84 489.12 138.25 489.72 138.85 489.72C139.2 489.72 139.52 489.5 139.65 489.17L140.36 487.27H145.47L146.18 489.17C146.31 489.51 146.63 489.73 146.98 489.73ZM140.97 485.64L142.91 480.46L144.85 485.64H140.97ZM157.05 488.14H151.72L157.44 479.85C157.9 479.19 157.42 478.28 156.62 478.28H150.14C149.7 478.28 149.35 478.64 149.35 479.08V479.09C149.35 479.53 149.71 479.89 150.14 479.89H155.23L149.5 488.17C149.04 488.83 149.52 489.74 150.32 489.74H157.04C157.48 489.74 157.83 489.38 157.83 488.95C157.85 488.5 157.49 488.14 157.05 488.14Z" fill="#323232"/>
<g clip-path="url(#clip4_17_17218)">
<path d="M211.46 482C211.361 482.146 211.303 482.315 211.291 482.491C211.278 482.666 211.313 482.842 211.39 483C211.638 483.579 211.813 484.187 211.91 484.81C212.167 486.42 211.927 488.071 211.22 489.54C211.134 489.701 211.006 489.836 210.849 489.929C210.692 490.023 210.513 490.071 210.33 490.07H197.68C197.496 490.07 197.316 490.02 197.159 489.925C197.002 489.83 196.874 489.693 196.79 489.53C196.15 488.231 195.874 486.784 195.992 485.341C196.11 483.898 196.618 482.514 197.46 481.337C198.303 480.159 199.449 479.233 200.777 478.656C202.105 478.079 203.564 477.873 205 478.06C205.726 478.145 206.437 478.334 207.11 478.62C207.268 478.697 207.444 478.732 207.619 478.719C207.795 478.707 207.964 478.649 208.11 478.55C208.262 478.45 208.384 478.31 208.462 478.146C208.54 477.982 208.573 477.8 208.555 477.619C208.538 477.438 208.471 477.265 208.363 477.119C208.254 476.973 208.108 476.859 207.94 476.79C206.008 475.962 203.865 475.763 201.813 476.223C199.762 476.682 197.908 477.776 196.514 479.349C195.12 480.922 194.258 482.895 194.049 484.986C193.84 487.078 194.295 489.182 195.35 491C195.525 491.302 195.775 491.554 196.077 491.729C196.379 491.904 196.721 491.998 197.07 492H210.92C211.272 492.001 211.619 491.91 211.925 491.734C212.23 491.558 212.484 491.305 212.66 491C213.432 489.661 213.884 488.162 213.979 486.62C214.075 485.077 213.811 483.534 213.21 482.11C213.134 481.948 213.015 481.809 212.867 481.708C212.719 481.607 212.546 481.548 212.368 481.537C212.189 481.526 212.01 481.563 211.85 481.644C211.691 481.726 211.556 481.849 211.46 482Z" fill="#323232"/>
<path d="M202.59 484.59C202.215 484.965 202.004 485.474 202.004 486.005C202.004 486.268 202.056 486.528 202.156 486.771C202.257 487.014 202.404 487.234 202.59 487.42C202.776 487.606 202.996 487.753 203.239 487.854C203.482 487.954 203.742 488.006 204.005 488.006C204.536 488.006 205.045 487.795 205.42 487.42L211.08 478.93L202.59 484.59Z" fill="#323232"/>
</g>
<path d="M256 478H264C265.1 478 266 478.9 266 480V488C266 489.1 265.1 490 264 490H256C254.9 490 254 489.1 254 488V480C254 478.9 254.9 478 256 478Z" fill="#323232"/>
<g clip-path="url(#clip5_17_17218)">
<path fill-rule="evenodd" clip-rule="evenodd" d="M313 488H319C319.55 488 320 487.55 320 487V481C320 480.45 319.55 480 319 480H313C312.45 480 312 480.45 312 481V487C312 487.55 312.45 488 313 488ZM316 474C310.48 474 306 478.48 306 484C306 489.52 310.48 494 316 494C321.52 494 326 489.52 326 484C326 478.48 321.52 474 316 474Z" fill="#323232"/>
</g>
<path d="M379 480H365C364.45 480 364 479.55 364 479C364 478.45 364.45 478 365 478H379C379.55 478 380 478.45 380 479C380 479.55 379.55 480 379 480ZM377 474H367C366.45 474 366 474.45 366 475C366 475.55 366.45 476 367 476H377C377.55 476 378 475.55 378 475C378 474.45 377.55 474 377 474ZM382 484V492C382 493.1 381.1 494 380 494H364C362.9 494 362 493.1 362 492V484C362 482.9 362.9 482 364 482H380C381.1 482 382 482.9 382 484ZM375.19 487.56L370 484.73V491.26L375.19 488.44C375.54 488.25 375.54 487.75 375.19 487.56Z" fill="#323232"/>
<path d="M436 476H420C418.9 476 418 476.9 418 478V490C418 491.1 418.9 492 420 492H436C437.1 492 438 491.1 438 490V478C438 476.9 437.1 476 436 476ZM421 484H423C423.55 484 424 484.45 424 485C424 485.55 423.55 486 423 486H421C420.45 486 420 485.55 420 485C420 484.45 420.45 484 421 484ZM429 490H421C420.45 490 420 489.55 420 489C420 488.45 420.45 488 421 488H429C429.55 488 430 488.45 430 489C430 489.55 429.55 490 429 490ZM435 490H433C432.45 490 432 489.55 432 489C432 488.45 432.45 488 433 488H435C435.55 488 436 488.45 436 489C436 489.55 435.55 490 435 490ZM435 486H427C426.45 486 426 485.55 426 485C426 484.45 426.45 484 427 484H435C435.55 484 436 484.45 436 485C436 485.55 435.55 486 435 486Z" fill="#323232"/>
<path d="M492 476H476C474.9 476 474 476.9 474 478V490C474 491.1 474.9 492 476 492H492C493.1 492 494 491.1 494 490V478C494 476.9 493.1 476 492 476ZM479.11 488.89C478.68 489.32 477.97 489.28 477.6 488.8C476.53 487.39 476 485.69 476 484C476 482.31 476.53 480.62 477.59 479.2C477.96 478.72 478.67 478.67 479.1 479.1C479.45 479.45 479.49 480 479.2 480.39C478.4 481.46 478 482.73 478 484C478 485.27 478.4 486.53 479.2 487.6C479.5 487.99 479.46 488.54 479.11 488.89ZM484 488C481.79 488 480 486.21 480 484C480 481.79 481.79 480 484 480C486.21 480 488 481.79 488 484C488 486.21 486.21 488 484 488ZM488.9 488.9C488.55 488.55 488.51 488 488.81 487.61C489.6 486.54 490 485.27 490 484C490 482.73 489.6 481.47 488.8 480.4C488.5 480.01 488.54 479.45 488.89 479.1C489.32 478.67 490.03 478.71 490.4 479.19C491.47 480.6 492 482.29 492 483.99C492 485.68 491.47 487.37 490.41 488.79C490.04 489.28 489.33 489.33 488.9 488.9ZM484 482C482.9 482 482 482.9 482 484C482 485.1 482.9 486 484 486C485.1 486 486 485.1 486 484C486 482.9 485.1 482 484 482Z" fill="#323232"/>
<path d="M545 482.5V479C545 478.45 544.55 478 544 478H532C531.45 478 531 478.45 531 479V489C531 489.55 531.45 490 532 490H544C544.55 490 545 489.55 545 489V485.5L547.29 487.79C547.92 488.42 549 487.97 549 487.08V480.91C549 480.02 547.92 479.57 547.29 480.2L545 482.5Z" fill="#323232"/>
<path d="M605 486.2V480.91C605 480.02 603.92 479.57 603.29 480.2L601 482.5V479C601 478.45 600.55 478 600 478H594.39L603.3 486.91C603.92 487.54 605 487.09 605 486.2ZM586.71 474.56C586.32 474.95 586.32 475.58 586.71 475.97L588.73 478H588C587.45 478 587 478.45 587 479V489C587 489.55 587.45 490 588 490H600C600.21 490 600.39 489.92 600.55 489.82L603.03 492.3C603.42 492.69 604.05 492.69 604.44 492.3C604.83 491.91 604.83 491.28 604.44 490.89L588.12 474.56C587.73 474.17 587.1 474.17 586.71 474.56Z" fill="#323232"/>
<path d="M97 538.5V535C97 534.45 96.55 534 96 534H84C83.45 534 83 534.45 83 535V545C83 545.55 83.45 546 84 546H96C96.55 546 97 545.55 97 545V541.5L99.29 543.79C99.92 544.42 101 543.97 101 543.08V536.91C101 536.02 99.92 535.57 99.29 536.2L97 538.5ZM93 541H91V543C91 543.55 90.55 544 90 544C89.45 544 89 543.55 89 543V541H87C86.45 541 86 540.55 86 540C86 539.45 86.45 539 87 539H89V537C89 536.45 89.45 536 90 536C90.55 536 91 536.45 91 537V539H93C93.55 539 94 539.45 94 540C94 540.55 93.55 541 93 541Z" fill="#323232"/>
<path d="M157 531H139C137.9 531 137 531.9 137 533V547C137 548.1 137.9 549 139 549H157C158.1 549 159 548.1 159 547V533C159 531.9 158.1 531 157 531ZM157 544H139V534C139 533.45 139.45 533 140 533H156C156.55 533 157 533.45 157 534V544Z" fill="#323232"/>
<path d="M195 534C194.45 534 194 534.45 194 535V548C194 549.1 194.9 550 196 550H209C209.55 550 210 549.55 210 549C210 548.45 209.55 548 209 548H197C196.45 548 196 547.55 196 547V535C196 534.45 195.55 534 195 534ZM212 530H200C198.9 530 198 530.9 198 532V544C198 545.1 198.9 546 200 546H212C213.1 546 214 545.1 214 544V532C214 530.9 213.1 530 212 530ZM204 542.5V533.5L209.47 537.6C209.74 537.8 209.74 538.2 209.47 538.4L204 542.5Z" fill="#323232"/>
<g clip-path="url(#clip6_17_17218)">
<path d="M252 534H268C268.55 534 269 534.45 269 535V539H271V534C271 532.9 270.1 532 269 532H251C249.9 532 249 532.9 249 534V546C249 547.1 249.9 548 251 548H260V546H252C251.45 546 251 545.55 251 545V535C251 534.45 251.45 534 252 534Z" fill="#323232"/>
<path d="M263 540L257 536V544L263 540Z" fill="#323232"/>
<path d="M270.71 546.43C270.74 546.14 270.75 545.85 270.72 545.57L271.79 544.72C271.89 544.64 271.91 544.51 271.85 544.4L270.82 542.61C270.76 542.5 270.63 542.46 270.51 542.5L269.23 543C269 542.83 268.75 542.69 268.48 542.58L268.28 541.22C268.26 541.09 268.16 541 268.03 541H265.96C265.84 541 265.73 541.09 265.71 541.21L265.51 542.57C265.25 542.68 265 542.83 264.77 542.99L263.49 542.49C263.37 542.44 263.24 542.49 263.18 542.6L262.15 544.39C262.09 544.5 262.11 544.63 262.21 544.71L263.28 545.57C263.25 545.86 263.24 546.15 263.27 546.43L262.2 547.28C262.1 547.36 262.08 547.49 262.14 547.6L263.17 549.39C263.23 549.5 263.36 549.54 263.48 549.5L264.75 549C264.98 549.17 265.23 549.31 265.5 549.42L265.7 550.78C265.72 550.9 265.82 550.99 265.95 550.99H268.02C268.14 550.99 268.25 550.9 268.27 550.78L268.47 549.42C268.73 549.31 268.98 549.16 269.21 549L270.49 549.5C270.61 549.55 270.74 549.5 270.8 549.39L271.83 547.6C271.89 547.49 271.87 547.36 271.77 547.28L270.71 546.43ZM267 547.5C266.17 547.5 265.5 546.83 265.5 546C265.5 545.17 266.17 544.5 267 544.5C267.83 544.5 268.5 545.17 268.5 546C268.5 546.83 267.83 547.5 267 547.5Z" fill="#323232"/>
</g>
<path d="M322.5 540C322.5 538.23 321.48 536.71 320 535.97V544.02C321.48 543.29 322.5 541.77 322.5 540ZM309 538V542C309 542.55 309.45 543 310 543H313L316.29 546.29C316.92 546.92 318 546.47 318 545.58V534.41C318 533.52 316.92 533.07 316.29 533.7L313 537H310C309.45 537 309 537.45 309 538Z" fill="#323232"/>
<path d="M367 538V542C367 542.55 367.45 543 368 543H371L374.29 546.29C374.92 546.92 376 546.47 376 545.58V534.41C376 533.52 374.92 533.07 374.29 533.7L371 537H368C367.45 537 367 537.45 367 538Z" fill="#323232"/>
<path d="M419.63 531.63C419.24 532.02 419.24 532.65 419.63 533.04L423.29 536.7L423 537H420C419.45 537 419 537.45 419 538V542C419 542.55 419.45 543 420 543H423L426.29 546.29C426.92 546.92 428 546.47 428 545.58V541.41L432.18 545.59C431.69 545.96 431.16 546.27 430.58 546.5C430.22 546.65 430 547.03 430 547.42C430 548.14 430.73 548.6 431.39 548.33C432.19 548 432.94 547.56 433.61 547.02L434.95 548.36C435.34 548.75 435.97 548.75 436.36 548.36C436.75 547.97 436.75 547.34 436.36 546.95L421.05 531.63C420.66 531.24 420.03 531.24 419.63 531.63ZM435 540C435 540.82 434.85 541.61 434.59 542.34L436.12 543.87C436.68 542.7 437 541.39 437 540C437 536.17 434.6 532.89 431.22 531.6C430.63 531.37 430 531.83 430 532.46V532.65C430 533.03 430.25 533.36 430.61 533.5C433.18 534.54 435 537.06 435 540ZM426.29 533.71L426.12 533.88L428 535.76V534.41C428 533.52 426.92 533.08 426.29 533.71ZM432.5 540C432.5 538.23 431.48 536.71 430 535.97V537.76L432.48 540.24C432.49 540.16 432.5 540.08 432.5 540Z" fill="#323232"/>
<path d="M475 538V542C475 542.55 475.45 543 476 543H479L482.29 546.29C482.92 546.92 484 546.47 484 545.58V534.41C484 533.52 482.92 533.07 482.29 533.7L479 537H476C475.45 537 475 537.45 475 538ZM488.5 540C488.5 538.23 487.48 536.71 486 535.97V544.02C487.48 543.29 488.5 541.77 488.5 540ZM486 532.45V532.65C486 533.03 486.25 533.36 486.6 533.5C489.18 534.53 491 537.06 491 540C491 542.94 489.18 545.47 486.6 546.5C486.24 546.64 486 546.97 486 547.35V547.55C486 548.18 486.63 548.62 487.21 548.4C490.6 547.11 493 543.84 493 540C493 536.16 490.6 532.89 487.21 531.6C486.63 531.37 486 531.82 486 532.45Z" fill="#323232"/>
<path d="M548 532H532C530.9 532 530.01 532.9 530.01 534L530 546C530 547.1 530.9 548 532 548H548C549.1 548 550 547.1 550 546V534C550 532.9 549.1 532 548 532ZM532 537H542.5V540.5H532V537ZM532 542.5H542.5V546H533C532.45 546 532 545.55 532 545V542.5ZM547 546H544.5V537H548V545C548 545.55 547.55 546 547 546Z" fill="#323232"/>
<path d="M603 532H589C587.89 532 587 532.9 587 534V546C587 547.1 587.89 548 589 548H603C604.1 548 605 547.1 605 546V534C605 532.9 604.11 532 603 532ZM602 546H590C589.45 546 589 545.55 589 545V536H603V545C603 545.55 602.55 546 602 546Z" fill="#323232"/>
<defs>
<clipPath id="clip0_17_17218">
<rect width="24" height="24" fill="white" transform="translate(136 80)"/>
</clipPath>
<clipPath id="clip1_17_17218">
<rect width="24" height="24" fill="white" transform="translate(80 136)"/>
</clipPath>
<clipPath id="clip2_17_17218">
<rect width="24" height="24" fill="white" transform="translate(584 192)"/>
</clipPath>
<clipPath id="clip3_17_17218">
<rect width="24" height="24" fill="white" transform="translate(192 248)"/>
</clipPath>
<clipPath id="clip4_17_17218">
<rect width="24" height="24" fill="white" transform="translate(192 472)"/>
</clipPath>
<clipPath id="clip5_17_17218">
<rect width="24" height="24" fill="white" transform="translate(304 472)"/>
</clipPath>
<clipPath id="clip6_17_17218">
<rect width="24" height="24" fill="white" transform="translate(248 528)"/>
</clipPath>
</defs>
</svg>
