<svg width="48" height="48" viewBox="0 0 48 48" fill="none" xmlns="http://www.w3.org/2000/svg">
<g clip-path="url(#clip0_17_18338)">
<path d="M40 30.62L43.8 26.82C45.36 25.26 45.36 22.72 43.8 21.16L40 17.38V12C40 9.80003 38.2 8.00003 36 8.00003H30.62L26.82 4.20003C25.26 2.64003 22.72 2.64003 21.16 4.20003L17.38 8.00003H12C9.80003 8.00003 8.00003 9.80003 8.00003 12V17.38L4.20003 21.18C2.64003 22.74 2.64003 25.28 4.20003 26.84L8.00003 30.64V36C8.00003 38.2 9.80003 40 12 40H17.38L21.18 43.8C22.74 45.36 25.28 45.36 26.84 43.8L30.64 40H36C38.2 40 40 38.2 40 36V30.62ZM24 33.8V14.2C24 12.98 25.1 11.98 26.3 12.22C31.82 13.3 36 18.16 36 24C36 29.84 31.82 34.7 26.3 35.78C25.1 36.02 24 35.02 24 33.8Z" fill="#323232"/>
</g>
<defs>
<clipPath id="clip0_17_18338">
<rect width="48" height="48" fill="white"/>
</clipPath>
</defs>
</svg>
