<svg width="688" height="576" viewBox="0 0 688 576" fill="none" xmlns="http://www.w3.org/2000/svg">
<rect x="0.5" y="0.5" width="687" height="575" rx="31.5" stroke="#CCCCCC"/>
<g clip-path="url(#clip0_17_17421)">
<path d="M94 88H96V90C96 90.55 96.45 91 97 91C97.55 91 98 90.55 98 90V88H100C100.55 88 101 87.55 101 87C101 86.45 100.55 86 100 86H98V84C98 83.45 97.55 83 97 83C96.45 83 96 83.45 96 84V86H94C93.45 86 93 86.45 93 87C93 87.55 93.45 88 94 88ZM99.21 95.27L96.67 94.98C96.06 94.91 95.46 95.12 95.03 95.55L93.19 97.39C90.36 95.95 88.04 93.64 86.6 90.8L88.45 88.95C88.88 88.52 89.09 87.91 89.02 87.31L88.73 84.79C88.62 83.78 87.76 83.01 86.75 83.01H85.02C83.89 83.01 82.95 83.95 83.02 85.08C83.55 93.62 90.38 100.44 98.91 100.97C100.04 101.04 100.98 100.1 100.98 98.97V97.24C100.99 96.24 100.22 95.38 99.21 95.27Z" fill="#323232"/>
</g>
<g clip-path="url(#clip1_17_17421)">
<path d="M148.72 82.03C142.63 81.6 137.6 86.63 138.03 92.72C138.39 98.01 143.01 102 148.31 102H152C152.55 102 153 101.55 153 101C153 100.45 152.55 100 152 100H148.33C144.6 100 141.18 97.58 140.25 93.97C138.76 88.17 144.16 82.76 149.96 84.26C153.58 85.18 156 88.6 156 92.33V93.43C156 94.22 155.29 95 154.5 95C153.71 95 153 94.22 153 93.43V92.18C153 89.67 151.22 87.41 148.74 87.06C145.34 86.57 142.47 89.51 143.08 92.93C143.42 94.84 144.91 96.42 146.8 96.87C148.64 97.3 150.39 96.71 151.54 95.54C152.43 96.76 154.21 97.4 155.84 96.75C157.18 96.22 158 94.85 158 93.41V92.32C158 87.01 154.01 82.39 148.72 82.03ZM148 95C146.34 95 145 93.66 145 92C145 90.34 146.34 89 148 89C149.66 89 151 90.34 151 92C151 93.66 149.66 95 148 95Z" fill="#323232"/>
</g>
<g clip-path="url(#clip2_17_17421)">
<path d="M204 87V85C204 83.9 203.1 83 202 83H196C194.9 83 194 83.9 194 85V99C194 100.1 194.9 101 196 101H212C213.1 101 214 100.1 214 99V89C214 87.9 213.1 87 212 87H204ZM198 99H196V97H198V99ZM198 95H196V93H198V95ZM198 91H196V89H198V91ZM198 87H196V85H198V87ZM202 99H200V97H202V99ZM202 95H200V93H202V95ZM202 91H200V89H202V91ZM202 87H200V85H202V87ZM211 99H204V97H206V95H204V93H206V91H204V89H211C211.55 89 212 89.45 212 90V98C212 98.55 211.55 99 211 99ZM210 91H208V93H210V91ZM210 95H208V97H210V95Z" fill="#323232"/>
</g>
<g clip-path="url(#clip3_17_17421)">
<path d="M267.23 95.26L264.69 94.97C264.08 94.9 263.48 95.11 263.05 95.54L261.21 97.38C258.38 95.94 256.06 93.63 254.62 90.79L256.47 88.94C256.9 88.51 257.11 87.91 257.04 87.3L256.75 84.78C256.63 83.77 255.78 83.01 254.76 83.01H253.03C251.9 83.01 250.96 83.95 251.03 85.08C251.56 93.62 258.39 100.44 266.92 100.97C268.05 101.04 268.99 100.1 268.99 98.97V97.24C269 96.23 268.24 95.38 267.23 95.26Z" fill="#323232"/>
</g>
<g clip-path="url(#clip4_17_17421)">
<path d="M308.51 95.48L310.51 93.89C310.99 93.51 311.27 92.93 311.27 92.32V89.72C314.29 88.74 317.56 88.73 320.59 89.72V92.33C320.59 92.94 320.87 93.52 321.35 93.9L323.34 95.48C324.14 96.11 325.28 96.05 326 95.33L327.22 94.11C328.02 93.31 328.02 91.98 327.17 91.23C320.76 85.57 311.1 85.57 304.69 91.23C303.84 91.98 303.84 93.31 304.64 94.11L305.86 95.33C306.57 96.05 307.71 96.11 308.51 95.48Z" fill="#323232"/>
</g>
<g clip-path="url(#clip5_17_17421)">
<path d="M369 86C369 86.56 369.45 87 370 87H375.59L364.7 97.89C364.31 98.28 364.31 98.91 364.7 99.3C365.09 99.69 365.72 99.69 366.11 99.3L377 88.41V94C377 94.55 377.45 95 378 95C378.55 95 379 94.55 379 94V86C379 85.45 378.55 85 378 85H370C369.45 85 369 85.45 369 86Z" fill="#323232"/>
</g>
<g clip-path="url(#clip6_17_17421)">
<path d="M433.7 99.7C434.09 99.31 434.09 98.68 433.7 98.29L431 95.59L429.59 97L432.29 99.7C432.68 100.09 433.32 100.09 433.7 99.7ZM424.71 88H427V93.59L422.29 98.29C421.9 98.68 421.9 99.31 422.29 99.7C422.68 100.09 423.31 100.09 423.7 99.7L429 94.4V88H431.29C431.74 88 431.96 87.46 431.64 87.15L428.35 83.86C428.15 83.66 427.84 83.66 427.64 83.86L424.35 87.15C424.04 87.46 424.26 88 424.71 88Z" fill="#323232"/>
</g>
<g clip-path="url(#clip7_17_17421)">
<path d="M490.89 87.7L484 94.59L478.41 89H482C482.55 89 483 88.55 483 88C483 87.45 482.55 87 482 87H476C475.45 87 475 87.45 475 88V94C475 94.55 475.45 95 476 95C476.55 95 477 94.55 477 94V90.41L483.29 96.7C483.68 97.09 484.31 97.09 484.7 96.7L492.29 89.11C492.68 88.72 492.68 88.09 492.29 87.7C491.91 87.32 491.27 87.32 490.89 87.7Z" fill="#323232"/>
</g>
<g clip-path="url(#clip8_17_17421)">
<path d="M531.7 89.11L539.29 96.7C539.68 97.09 540.31 97.09 540.7 96.7L547 90.4V94C547 94.55 547.45 95 548 95C548.55 95 549 94.55 549 94V88C549 87.45 548.55 87 548 87H542C541.45 87 541 87.45 541 88C541 88.55 541.45 89 542 89H545.59L540 94.59L533.11 87.7C532.72 87.31 532.09 87.31 531.7 87.7C531.32 88.09 531.32 88.73 531.7 89.11Z" fill="#323232"/>
</g>
<g clip-path="url(#clip9_17_17421)">
<path d="M603.3 84.71C602.91 84.32 602.28 84.32 601.89 84.71L591 95.59V90C591 89.45 590.55 89 590 89C589.45 89 589 89.45 589 90V98C589 98.55 589.45 99 590 99H598C598.55 99 599 98.55 599 98C599 97.45 598.55 97 598 97H592.41L603.3 86.11C603.68 85.73 603.68 85.09 603.3 84.71Z" fill="#323232"/>
</g>
<g clip-path="url(#clip10_17_17421)">
<path d="M94.85 140.85L96.29 142.29L93.41 145.17L94.83 146.59L97.71 143.71L99.15 145.15C99.46 145.46 100 145.24 100 144.79V140.5C100 140.22 99.78 140 99.5 140H95.21C94.76 140 94.54 140.54 94.85 140.85ZM88.79 140H84.5C84.22 140 84 140.22 84 140.5V144.79C84 145.24 84.54 145.46 84.85 145.14L86.29 143.7L91 148.4V155C91 155.55 91.45 156 92 156C92.55 156 93 155.55 93 155V148C93 147.74 92.89 147.48 92.71 147.29L87.71 142.28L89.15 140.84C89.46 140.54 89.24 140 88.79 140Z" fill="#323232"/>
</g>
<g clip-path="url(#clip11_17_17421)">
<path d="M157 139H139C137.9 139 137 139.9 137 141V155C137 156.1 137.9 157 139 157H157C158.1 157 159 156.1 159 155V141C159 139.9 158.1 139 157 139ZM157 154C157 154.55 156.55 155 156 155H140C139.45 155 139 154.55 139 154V142C139 141.45 139.45 141 140 141H156C156.55 141 157 141.45 157 142V154ZM151.29 144.7C150.9 144.31 150.27 144.31 149.88 144.7L148 146.59L146.11 144.7C145.72 144.31 145.09 144.31 144.7 144.7C144.31 145.09 144.31 145.72 144.7 146.11L146.59 148L144.7 149.89C144.31 150.28 144.31 150.91 144.7 151.3C145.09 151.69 145.72 151.69 146.11 151.3L148 149.41L149.89 151.3C150.28 151.69 150.91 151.69 151.3 151.3C151.69 150.91 151.69 150.28 151.3 149.89L149.41 148L151.3 146.11C151.68 145.73 151.68 145.09 151.29 144.7Z" fill="#323232"/>
</g>
<g clip-path="url(#clip12_17_17421)">
<path d="M212 138H196C194.9 138 194.01 138.9 194.01 140L194 158L198 154H212C213.1 154 214 153.1 214 152V140C214 138.9 213.1 138 212 138ZM199 145H209C209.55 145 210 145.45 210 146C210 146.55 209.55 147 209 147H199C198.45 147 198 146.55 198 146C198 145.45 198.45 145 199 145ZM205 150H199C198.45 150 198 149.55 198 149C198 148.45 198.45 148 199 148H205C205.55 148 206 148.45 206 149C206 149.55 205.55 150 205 150ZM209 144H199C198.45 144 198 143.55 198 143C198 142.45 198.45 142 199 142H209C209.55 142 210 142.45 210 143C210 143.55 209.55 144 209 144Z" fill="#323232"/>
</g>
<g clip-path="url(#clip13_17_17421)">
<path d="M268 138H252C250.9 138 250 138.9 250 140V158L254 154H268C269.1 154 270 153.1 270 152V140C270 138.9 269.1 138 268 138Z" fill="#323232"/>
</g>
<g clip-path="url(#clip14_17_17421)">
<path d="M324 138H308C306.9 138 306 138.9 306 140V158L310 154H324C325.1 154 326 153.1 326 152V140C326 138.9 325.1 138 324 138ZM323 152H310L308 154V141C308 140.45 308.45 140 309 140H323C323.55 140 324 140.45 324 141V151C324 151.55 323.55 152 323 152Z" fill="#323232"/>
</g>
<g clip-path="url(#clip15_17_17421)">
<path d="M366 149H378C378.55 149 379 148.55 379 148C379 147.45 378.55 147 378 147H366C365.45 147 365 147.45 365 148C365 148.55 365.45 149 366 149ZM364 153H376C376.55 153 377 152.55 377 152C377 151.45 376.55 151 376 151H364C363.45 151 363 151.45 363 152C363 152.55 363.45 153 364 153ZM367 144C367 144.55 367.45 145 368 145H380C380.55 145 381 144.55 381 144C381 143.45 380.55 143 380 143H368C367.45 143 367 143.45 367 144Z" fill="#323232"/>
</g>
<g clip-path="url(#clip16_17_17421)">
<path d="M437.99 140C437.99 138.9 437.1 138 436 138H420C418.9 138 418 138.9 418 140V152C418 153.1 418.9 154 420 154H434L438 158L437.99 140ZM433 150H423C422.45 150 422 149.55 422 149C422 148.45 422.45 148 423 148H433C433.55 148 434 148.45 434 149C434 149.55 433.55 150 433 150ZM433 147H423C422.45 147 422 146.55 422 146C422 145.45 422.45 145 423 145H433C433.55 145 434 145.45 434 146C434 146.55 433.55 147 433 147ZM433 144H423C422.45 144 422 143.55 422 143C422 142.45 422.45 142 423 142H433C433.55 142 434 142.45 434 143C434 143.55 433.55 144 433 144Z" fill="#323232"/>
</g>
<g clip-path="url(#clip17_17_17421)">
<path d="M491 136H477C476.45 136 476 136.45 476 137C476 137.55 476.45 138 477 138H491C491.55 138 492 137.55 492 137C492 136.45 491.55 136 491 136ZM477 160H491C491.55 160 492 159.55 492 159C492 158.45 491.55 158 491 158H477C476.45 158 476 158.45 476 159C476 159.55 476.45 160 477 160ZM492 140H476C474.9 140 474 140.9 474 142V154C474 155.1 474.9 156 476 156H492C493.1 156 494 155.1 494 154V142C494 140.9 493.1 140 492 140ZM484 142.75C485.24 142.75 486.25 143.76 486.25 145C486.25 146.24 485.24 147.25 484 147.25C482.76 147.25 481.75 146.24 481.75 145C481.75 143.76 482.76 142.75 484 142.75ZM489 153H479V151.5C479 149.83 482.33 149 484 149C485.67 149 489 149.83 489 151.5V153Z" fill="#323232"/>
</g>
<g clip-path="url(#clip18_17_17421)">
<path d="M549 144V143L546 145L543 143V144L545.72 145.82C545.89 145.93 546.11 145.93 546.27 145.82L549 144ZM550 139H530C528.9 139 528 139.9 528 141V155C528 156.1 528.9 157 530 157H550C551.1 157 551.99 156.1 551.99 155L552 141C552 139.9 551.1 139 550 139ZM536 142C537.66 142 539 143.34 539 145C539 146.66 537.66 148 536 148C534.34 148 533 146.66 533 145C533 143.34 534.34 142 536 142ZM542 154H530V153C530 151 534 149.9 536 149.9C538 149.9 542 151 542 153V154ZM549.5 148H542.5C542.22 148 542 147.78 542 147.5V142.5C542 142.22 542.22 142 542.5 142H549.5C549.78 142 550 142.22 550 142.5V147.5C550 147.78 549.78 148 549.5 148Z" fill="#323232"/>
</g>
<g clip-path="url(#clip19_17_17421)">
<path d="M606 139H586C584.9 139 584 139.9 584 141V155C584 156.1 584.9 157 586 157H606C607.1 157 607.99 156.1 607.99 155L608 141C608 139.9 607.1 139 606 139ZM592 142C593.66 142 595 143.34 595 145C595 146.66 593.66 148 592 148C590.34 148 589 146.66 589 145C589 143.34 590.34 142 592 142ZM598 154H586V153C586 151 590 149.9 592 149.9C594 149.9 598 151 598 153V154ZM601.85 150H603.24C603.4 150 603.54 150.07 603.64 150.2L604.74 151.65C604.89 151.85 604.87 152.13 604.69 152.3L603.33 153.66C603.15 153.84 602.85 153.86 602.66 153.7C601.53 152.74 600.69 151.45 600.28 149.99C600.1 149.36 600 148.69 600 148C600 147.31 600.1 146.64 600.28 146C600.69 144.53 601.53 143.25 602.66 142.29C602.86 142.12 603.15 142.15 603.33 142.33L604.69 143.69C604.87 143.87 604.89 144.15 604.74 144.34L603.64 145.79C603.55 145.92 603.4 145.99 603.24 145.99H601.85C601.63 146.62 601.5 147.29 601.5 147.99C601.5 148.69 601.63 149.37 601.85 150Z" fill="#323232"/>
</g>
<g clip-path="url(#clip20_17_17421)">
<path d="M80.31 194C79.92 194.39 79.92 195.02 80.31 195.41L81 196.09V208C81 209.1 81.9 210 83 210H90V212H89C88.45 212 88 212.45 88 213C88 213.55 88.45 214 89 214H95C95.55 214 96 213.55 96 213C96 212.45 95.55 212 95 212H94V210H94.9L100.19 215.29C100.58 215.68 101.21 215.68 101.6 215.29C101.99 214.9 101.99 214.27 101.6 213.88L81.72 194C81.33 193.61 80.7 193.61 80.31 194ZM82.99 207V198.09L92.9 208H83.99C83.44 208 82.99 207.55 82.99 207ZM84.55 194L86.55 196H100C100.55 196 101 196.45 101 197V207C101 207.55 100.55 208 100 208H98.55L100.55 210H100.99C102.09 210 102.99 209.1 102.99 208V196C102.99 194.9 102.09 194 100.99 194H84.55Z" fill="#323232"/>
</g>
<g clip-path="url(#clip21_17_17421)">
<path d="M152.5 200C152.78 200 153 199.78 153 199.5V195.5C153 195.22 152.78 195 152.5 195C152.22 195 152 195.22 152 195.5V199.5C152 199.78 152.22 200 152.5 200ZM148.5 199C148.22 199 148 199.22 148 199.5C148 199.78 148.22 200 148.5 200H150.45C150.75 200 151 199.75 151 199.45V197.55C151 197.25 150.75 197 150.45 197H149V196H150.5C150.78 196 151 195.78 151 195.5C151 195.22 150.78 195 150.5 195H148.55C148.25 195 148 195.25 148 195.55V197.44C148 197.75 148.25 198 148.55 198H150V199H148.5ZM156.45 195H154.56C154.25 195 154 195.25 154 195.55V199.5C154 199.78 154.22 200 154.5 200C154.78 200 155 199.78 155 199.5V198H156.45C156.75 198 157 197.75 157 197.45V195.55C157 195.25 156.75 195 156.45 195ZM156 197H155V196H156V197ZM155.21 207.27L152.67 206.98C152.06 206.91 151.46 207.12 151.03 207.55L149.19 209.39C146.36 207.95 144.04 205.64 142.6 202.8L144.45 200.95C144.88 200.52 145.09 199.91 145.02 199.31L144.73 196.79C144.62 195.78 143.76 195.01 142.75 195.01H141.02C139.89 195.01 138.95 195.95 139.02 197.08C139.55 205.62 146.38 212.44 154.91 212.97C156.04 213.04 156.98 212.1 156.98 210.97V209.24C156.99 208.24 156.22 207.38 155.21 207.27Z" fill="#323232"/>
</g>
<g clip-path="url(#clip22_17_17421)">
<path d="M204 211C202.9 211 202 211.9 202 213C202 214.1 202.9 215 204 215C205.1 215 206 214.1 206 213C206 211.9 205.1 211 204 211ZM198 193C196.9 193 196 193.9 196 195C196 196.1 196.9 197 198 197C199.1 197 200 196.1 200 195C200 193.9 199.1 193 198 193ZM198 199C196.9 199 196 199.9 196 201C196 202.1 196.9 203 198 203C199.1 203 200 202.1 200 201C200 199.9 199.1 199 198 199ZM198 205C196.9 205 196 205.9 196 207C196 208.1 196.9 209 198 209C199.1 209 200 208.1 200 207C200 205.9 199.1 205 198 205ZM210 197C211.1 197 212 196.1 212 195C212 193.9 211.1 193 210 193C208.9 193 208 193.9 208 195C208 196.1 208.9 197 210 197ZM204 205C202.9 205 202 205.9 202 207C202 208.1 202.9 209 204 209C205.1 209 206 208.1 206 207C206 205.9 205.1 205 204 205ZM210 205C208.9 205 208 205.9 208 207C208 208.1 208.9 209 210 209C211.1 209 212 208.1 212 207C212 205.9 211.1 205 210 205ZM210 199C208.9 199 208 199.9 208 201C208 202.1 208.9 203 210 203C211.1 203 212 202.1 212 201C212 199.9 211.1 199 210 199ZM204 199C202.9 199 202 199.9 202 201C202 202.1 202.9 203 204 203C205.1 203 206 202.1 206 201C206 199.9 205.1 199 204 199ZM204 193C202.9 193 202 193.9 202 195C202 196.1 202.9 197 204 197C205.1 197 206 196.1 206 195C206 193.9 205.1 193 204 193Z" fill="#323232"/>
</g>
<g clip-path="url(#clip23_17_17421)">
<path d="M248.71 194.39C248.32 194.78 248.32 195.41 248.71 195.8L250 197.1V211C250 212.1 250.9 213 252 213H265.9L268.19 215.29C268.58 215.68 269.21 215.68 269.6 215.29C269.99 214.9 269.99 214.27 269.6 213.88L250.12 194.39C249.73 194 249.1 194 248.71 194.39ZM254 211H252V209H254V211ZM254 207H252V205H254V207ZM252 203V201H254V203H252ZM258 211H256V209H258V211ZM256 207V205H258V207H256ZM260 211V209H261.9L263.9 211H260ZM256 197H258V199H257.55L260 201.45V201H267C267.55 201 268 201.45 268 202V209.45L270 211.45V201C270 199.9 269.1 199 268 199H260V197C260 195.9 259.1 195 258 195H253.55L256 197.45V197ZM264 203H266V205H264V203Z" fill="#323232"/>
</g>
<g clip-path="url(#clip24_17_17421)">
<path d="M314.23 207.83C314.62 208.22 315.25 208.22 315.64 207.83L319.88 203.59C320.27 203.2 320.27 202.57 319.88 202.17C319.49 201.78 318.86 201.78 318.47 202.17L314.93 205.7L313.52 204.29C313.13 203.9 312.5 203.9 312.1 204.29C311.7 204.68 311.71 205.31 312.1 205.7L314.23 207.83Z" fill="#323232"/>
<path d="M323 196H309C307.89 196 307 196.9 307 198V210C307 211.1 307.89 212 309 212H323C324.1 212 325 211.1 325 210V198C325 196.9 324.11 196 323 196ZM323 209C323 209.55 322.55 210 322 210H310C309.45 210 309 209.55 309 209V200H323V209Z" fill="#323232"/>
</g>
<g clip-path="url(#clip25_17_17421)">
<path d="M380 194H372C366.38 194 362 198.66 362 204.28C362 209.5 366.49 214 371.72 214C377.39 214 382 209.62 382 204V196C382 194.9 381.1 194 380 194ZM377 207L374 205V207H367V201H374V203L377 201V207Z" fill="#323232"/>
</g>
<g clip-path="url(#clip26_17_17421)">
<path d="M436 196H420C418.9 196 418.01 196.9 418.01 198L418 210C418 211.1 418.9 212 420 212H436C437.1 212 438 211.1 438 210V198C438 196.9 437.1 196 436 196ZM435.6 200.25L428.53 204.67C428.21 204.87 427.79 204.87 427.47 204.67L420.4 200.25C420.15 200.09 420 199.82 420 199.53C420 198.86 420.73 198.46 421.3 198.81L428 203L434.7 198.81C435.27 198.46 436 198.86 436 199.53C436 199.82 435.85 200.09 435.6 200.25Z" fill="#323232"/>
</g>
<g clip-path="url(#clip27_17_17421)">
<path d="M492 198H491V206C491 206.55 490.55 207 490 207H478V208C478 209.1 478.9 210 480 210H490L494 214V200C494 198.9 493.1 198 492 198ZM489 203V196C489 194.9 488.1 194 487 194H476C474.9 194 474 194.9 474 196V209L478 205H487C488.1 205 489 204.1 489 203Z" fill="#323232"/>
</g>
<g clip-path="url(#clip28_17_17421)">
<path d="M548 196H532C530.9 196 530 196.9 530 198V210C530 211.1 530.9 212 532 212H541V210H532V200L538.94 204.34C539.59 204.75 540.41 204.75 541.06 204.34L548 200V205H550V198C550 196.9 549.1 196 548 196ZM540 203L532 198H548L540 203ZM547 208.21C547 207.76 547.54 207.54 547.85 207.86L550.64 210.65C550.84 210.85 550.84 211.16 550.64 211.36L547.85 214.15C547.54 214.46 547 214.24 547 213.79V212H544C543.45 212 543 211.55 543 211C543 210.45 543.45 210 544 210H547V208.21Z" fill="#323232"/>
</g>
<g clip-path="url(#clip29_17_17421)">
<path d="M600 214C601.1 214 602 213.1 602 212L601.99 208.82C601.99 208.29 601.78 207.79 601.41 207.41L598 204L601.41 200.57C601.78 200.2 601.99 199.69 601.99 199.16L602 196C602 194.9 601.1 194 600 194H592C590.9 194 590 194.9 590 196V199.16C590 199.69 590.21 200.2 590.58 200.58L594 204L590.59 207.4C590.21 207.78 590 208.29 590 208.82V212C590 213.1 590.9 214 592 214H600ZM592 199.09V197C592 196.45 592.45 196 593 196H599C599.55 196 600 196.45 600 197V199.09C600 199.36 599.89 199.61 599.71 199.8L596 203.5L592.29 199.79C592.11 199.61 592 199.35 592 199.09Z" fill="#323232"/>
</g>
<g clip-path="url(#clip30_17_17421)">
<path d="M88 250C86.9 250 86 250.9 86 252L86.01 255.18C86.01 255.71 86.22 256.21 86.59 256.59L90 260L86.59 263.43C86.22 263.8 86.01 264.31 86.01 264.84L86 268C86 269.1 86.9 270 88 270H96C97.1 270 98 269.1 98 268V264.84C98 264.31 97.79 263.8 97.42 263.43L94 260L97.41 256.6C97.79 256.22 98 255.71 98 255.18V252C98 250.9 97.1 250 96 250H88ZM96 264.91V267C96 267.55 95.55 268 95 268H89C88.45 268 88 267.55 88 267V264.91C88 264.64 88.11 264.39 88.29 264.2L92 260.5L95.71 264.21C95.89 264.39 96 264.65 96 264.91Z" fill="#323232"/>
</g>
<g clip-path="url(#clip31_17_17421)">
<path d="M153.5 252.5C151.55 252.5 149.45 252.9 148 254C146.55 252.9 144.45 252.5 142.5 252.5C141.05 252.5 139.51 252.72 138.22 253.29C137.49 253.62 137 254.33 137 255.14V266.42C137 267.72 138.22 268.68 139.48 268.36C140.46 268.11 141.5 268 142.5 268C144.06 268 145.72 268.26 147.06 268.92C147.66 269.22 148.34 269.22 148.93 268.92C150.27 268.25 151.93 268 153.49 268C154.49 268 155.53 268.11 156.51 268.36C157.77 268.69 158.99 267.73 158.99 266.42V255.14C158.99 254.33 158.5 253.62 157.77 253.29C156.49 252.72 154.95 252.5 153.5 252.5ZM157 265.23C157 265.86 156.42 266.32 155.8 266.21C155.05 266.07 154.27 266.01 153.5 266.01C151.8 266.01 149.35 266.66 148 267.51V256C149.35 255.15 151.8 254.5 153.5 254.5C154.42 254.5 155.33 254.59 156.2 254.78C156.66 254.88 157 255.29 157 255.76V265.23Z" fill="#323232"/>
</g>
<g clip-path="url(#clip32_17_17421)">
<path d="M200.65 251.35L197.86 254.14C197.54 254.45 197.76 254.99 198.21 254.99H200V261C200 261.55 200.45 262 201 262C201.55 262 202 261.55 202 261V254.99H203.79C204.24 254.99 204.46 254.45 204.14 254.14L201.35 251.35C201.16 251.16 200.84 251.16 200.65 251.35ZM208 265.01V259C208 258.45 207.55 258 207 258C206.45 258 206 258.45 206 259V265.01H204.21C203.76 265.01 203.54 265.55 203.86 265.86L206.65 268.64C206.85 268.83 207.16 268.83 207.36 268.64L210.15 265.86C210.47 265.55 210.24 265.01 209.8 265.01H208Z" fill="#323232"/>
</g>
<g clip-path="url(#clip33_17_17421)">
<path d="M260 253.1V257.15L267.4 264.55C268.55 261.67 267.99 258.27 265.65 255.94L260.71 250.99C260.32 250.6 259.69 250.6 259.3 250.99L256.56 253.71L257.97 255.12L260 253.1ZM251.69 253.08C251.3 253.47 251.3 254.1 251.69 254.49L253.77 256.57C251.23 259.71 251.42 264.32 254.34 267.25C255.9 268.8 257.95 269.58 260 269.58C261.78 269.58 263.56 268.99 265.02 267.81L267.02 269.81C267.41 270.2 268.04 270.2 268.43 269.81C268.82 269.42 268.82 268.79 268.43 268.4L253.11 253.08C252.72 252.69 252.08 252.69 251.69 253.08ZM260 267.59C258.4 267.59 256.89 266.97 255.76 265.83C254.62 264.69 254 263.19 254 261.59C254 260.27 254.43 259.03 255.21 258L260 262.79V267.59Z" fill="#323232"/>
</g>
<g clip-path="url(#clip34_17_17421)">
<path d="M316 257H320C320.55 257 321 256.55 321 256C321 255.45 320.55 255 320 255H316C315.45 255 315 255.45 315 256C315 256.55 315.45 257 316 257ZM316 261H320C320.55 261 321 260.55 321 260C321 259.45 320.55 259 320 259H316C315.45 259 315 259.45 315 260C315 260.55 315.45 261 316 261ZM316 265H320C320.55 265 321 264.55 321 264C321 263.45 320.55 263 320 263H316C315.45 263 315 263.45 315 264C315 264.55 315.45 265 316 265ZM311 255H313V257H311V255ZM311 259H313V261H311V259ZM311 263H313V265H311V263ZM324 251H308C307.45 251 307 251.45 307 252V268C307 268.55 307.45 269 308 269H324C324.55 269 325 268.55 325 268V252C325 251.45 324.55 251 324 251ZM323 267H309V253H323V267Z" fill="#323232"/>
</g>
<g clip-path="url(#clip35_17_17421)">
<path d="M379 250H365C363.89 250 363 250.9 363 252V266C363 267.1 363.9 268 365 268H369L371.29 270.29C371.68 270.68 372.31 270.68 372.7 270.29L375 268H379C380.1 268 381 267.1 381 266V252C381 250.9 380.1 250 379 250ZM373 266H371V264H373V266ZM375.07 258.25L374.17 259.17C373.59 259.76 373.18 260.27 373.05 261.23C372.99 261.66 372.64 261.99 372.2 261.99H371.89C371.37 261.99 370.97 261.53 371.04 261.01C371.15 260.1 371.57 259.29 372.18 258.67L373.42 257.41C373.78 257.05 374 256.55 374 256C374 254.9 373.1 254 372 254C371.13 254 370.38 254.57 370.11 255.35C369.98 255.72 369.67 255.99 369.28 255.99H368.98C368.4 255.99 368 255.43 368.16 254.87C368.65 253.21 370.18 252 372 252C374.21 252 376 253.79 376 256C376 256.88 375.64 257.68 375.07 258.25Z" fill="#323232"/>
</g>
<g clip-path="url(#clip36_17_17421)">
<path d="M418.71 251.56C418.32 251.95 418.32 252.58 418.71 252.97L421.18 255.44C421.07 255.95 421 256.47 421 257C421 261.17 425.42 266.92 427.23 269.11C427.63 269.59 428.36 269.59 428.76 269.11C429.41 268.33 430.38 267.1 431.37 265.65L434.02 268.3C434.41 268.69 435.04 268.69 435.43 268.3C435.82 267.91 435.82 267.28 435.43 266.89L420.12 251.56C419.73 251.17 419.1 251.17 418.71 251.56ZM428 250C426.16 250 424.5 250.71 423.25 251.86L426.44 255.05C426.87 254.71 427.41 254.5 428 254.5C429.38 254.5 430.5 255.62 430.5 257C430.5 257.59 430.29 258.13 429.94 258.56L433.49 262.11C434.37 260.36 435 258.57 435 257C435 253.13 431.87 250 428 250Z" fill="#323232"/>
</g>
<g clip-path="url(#clip37_17_17421)">
<path d="M484 250C480.13 250 477 253.13 477 257C477 261.17 481.42 266.92 483.24 269.11C483.64 269.59 484.37 269.59 484.77 269.11C486.58 266.92 491 261.17 491 257C491 253.13 487.87 250 484 250ZM484 259.5C482.62 259.5 481.5 258.38 481.5 257C481.5 255.62 482.62 254.5 484 254.5C485.38 254.5 486.5 255.62 486.5 257C486.5 258.38 485.38 259.5 484 259.5Z" fill="#323232"/>
</g>
<g clip-path="url(#clip38_17_17421)">
<path d="M548 252H532C530.9 252 530.01 252.9 530.01 254L530 266C530 267.1 530.9 268 532 268H548C549.1 268 550 267.1 550 266V254C550 252.9 549.1 252 548 252ZM547 266H533C532.45 266 532 265.55 532 265V256L538.94 260.34C539.59 260.75 540.41 260.75 541.06 260.34L548 256V265C548 265.55 547.55 266 547 266ZM540 259L532 254H548L540 259Z" fill="#323232"/>
</g>
<g clip-path="url(#clip39_17_17421)">
<path d="M602.05 267.29C601.66 267.68 601.03 267.68 600.64 267.29L598.52 265.17C598.13 264.78 598.13 264.15 598.52 263.76C598.91 263.37 599.54 263.37 599.93 263.76L601.34 265.17L604.88 261.63C605.27 261.24 605.9 261.24 606.29 261.63C606.68 262.02 606.68 262.65 606.29 263.04L602.05 267.29ZM596 265C596 261.13 599.13 258 603 258C604.08 258 605.09 258.25 606 258.68V252C606 250.9 605.1 250 604 250H588C586.9 250 586 250.9 586 252V270L590 266H596C596 265.83 596.01 265.67 596.03 265.5C596.01 265.33 596 265.17 596 265Z" fill="#323232"/>
</g>
<g clip-path="url(#clip40_17_17421)">
<path d="M102 310.98V320C102 321.1 101.1 322 100 322H86L82 326V308C82 306.9 82.9 306 84 306H94.1C94.04 306.32 94 306.66 94 307C94 309.76 96.24 312 99 312C100.13 312 101.16 311.61 102 310.98ZM96 307C96 308.66 97.34 310 99 310C100.66 310 102 308.66 102 307C102 305.34 100.66 304 99 304C97.34 304 96 305.34 96 307Z" fill="#323232"/>
</g>
<g clip-path="url(#clip41_17_17421)">
<path d="M154.05 325.29C153.66 325.68 153.03 325.68 152.64 325.29L150.52 323.17C150.13 322.78 150.13 322.15 150.52 321.76C150.91 321.37 151.54 321.37 151.93 321.76L153.34 323.17L156.88 319.63C157.27 319.24 157.9 319.24 158.29 319.63C158.68 320.02 158.68 320.65 158.29 321.04L154.05 325.29ZM148.08 324H140C138.9 324 138 323.1 138 322V310C138 308.9 138.9 308 140 308H156C157.1 308 158 308.9 158 310V316.68C157.09 316.25 156.08 316 155 316C151.13 316 148 319.13 148 323C148 323.34 148.03 323.67 148.08 324ZM147.47 316.67C147.79 316.87 148.21 316.87 148.53 316.67L155.6 312.25C155.85 312.09 156 311.82 156 311.53C156 310.86 155.27 310.46 154.7 310.81L148 315L141.3 310.81C140.73 310.46 140 310.86 140 311.53C140 311.82 140.15 312.09 140.4 312.25L147.47 316.67Z" fill="#323232"/>
</g>
<g clip-path="url(#clip42_17_17421)">
<path d="M211 314C212.13 314 213.16 313.61 214 312.98V322C214 323.1 213.1 324 212 324H196C194.9 324 194 323.1 194 322V310C194 308.9 194.9 308 196 308H206.1C206.04 308.32 206 308.66 206 309C206 310.48 206.65 311.79 207.67 312.71L204 315L197.3 310.81C196.73 310.46 196 310.86 196 311.53C196 311.82 196.15 312.09 196.4 312.25L203.47 316.67C203.79 316.87 204.21 316.87 204.53 316.67L209.3 313.69C209.84 313.88 210.4 314 211 314ZM208 309C208 310.66 209.34 312 211 312C212.66 312 214 310.66 214 309C214 307.34 212.66 306 211 306C209.34 306 208 307.34 208 309Z" fill="#323232"/>
</g>
<g clip-path="url(#clip43_17_17421)">
<path d="M268 306H252C250.9 306 250.01 306.9 250.01 308L250 326L254 322H268C269.1 322 270 321.1 270 320V308C270 306.9 269.1 306 268 306ZM265 318H255C254.45 318 254 317.55 254 317C254 316.45 254.45 316 255 316H265C265.55 316 266 316.45 266 317C266 317.55 265.55 318 265 318ZM265 315H255C254.45 315 254 314.55 254 314C254 313.45 254.45 313 255 313H265C265.55 313 266 313.45 266 314C266 314.55 265.55 315 265 315ZM265 312H255C254.45 312 254 311.55 254 311C254 310.45 254.45 310 255 310H265C265.55 310 266 310.45 266 311C266 311.55 265.55 312 265 312Z" fill="#323232"/>
</g>
<g clip-path="url(#clip44_17_17421)">
<path d="M321 305H311C309.9 305 309.01 305.9 309.01 307V325C309.01 326.1 309.9 327 311 327H321C322.1 327 323 326.1 323 325V307C323 305.9 322.1 305 321 305ZM321 323H311V309H321V323ZM316.8 317.22V318.97L319.61 316.35C319.82 316.15 319.82 315.82 319.61 315.62L316.8 313V314.7C313.69 315.13 312.45 317.26 312 319.4C313.11 317.9 314.58 317.22 316.8 317.22Z" fill="#323232"/>
</g>
<g clip-path="url(#clip45_17_17421)">
<path d="M370.75 312C370.34 312 370 312.34 370 312.75V317.44C370 317.79 370.18 318.11 370.47 318.29L374.11 320.53C374.44 320.73 374.87 320.64 375.08 320.32C375.31 319.98 375.2 319.52 374.85 319.31L371.5 317.3V312.75C371.5 312.34 371.16 312 370.75 312Z" fill="#323232"/>
<path d="M377.92 316C377.97 316.33 378 316.66 378 317C378 320.9 374.9 324 371 324C367.1 324 364 320.9 364 317C364 313.1 367.1 310 371 310C371.7 310 372.37 310.1 373 310.29V308.23C372.36 308.08 371.69 308 371 308C366 308 362 312 362 317C362 322 366 326 371 326C376 326 380 322 380 317C380 316.66 379.98 316.33 379.94 316H377.92Z" fill="#323232"/>
<path d="M382 309H380V307C380 306.45 379.55 306 379 306C378.45 306 378 306.45 378 307V309H376C375.45 309 375 309.45 375 310C375 310.55 375.45 311 376 311H378V313C378 313.55 378.45 314 379 314C379.55 314 380 313.55 380 313V311H382C382.55 311 383 310.55 383 310C383 309.45 382.55 309 382 309Z" fill="#323232"/>
</g>
<g clip-path="url(#clip46_17_17421)">
<path d="M422.82 317H427V315H422.82C422.4 313.84 421.3 313 420 313C418.34 313 417 314.34 417 316C417 317.66 418.34 319 420 319C421.3 319 422.4 318.16 422.82 317ZM420 317C419.45 317 419 316.55 419 316C419 315.45 419.45 315 420 315C420.55 315 421 315.45 421 316C421 316.55 420.55 317 420 317Z" fill="#323232"/>
<path d="M438.47 316.4C438.74 316.2 438.74 315.8 438.47 315.6L435 313V315H430.95C430.48 310.31 426.79 306.58 422.12 306.06C421.52 306 421 306.46 421 307.06C421 307.56 421.37 307.99 421.87 308.05C425.88 308.48 429 311.87 429 316C429 320.13 425.88 323.52 421.87 323.95C421.37 324.01 421 324.44 421 324.94C421 325.54 421.52 326.01 422.11 325.94C426.78 325.42 430.48 321.69 430.94 317H435V319L438.47 316.4Z" fill="#323232"/>
</g>
<g clip-path="url(#clip47_17_17421)">
<path d="M475.09 308.44C474.7 308.83 474.7 309.46 475.09 309.85L477.12 311.88L477 312.01V323C477 324.1 477.9 325 479 325H489C489.35 325 489.68 324.9 489.97 324.74L491.14 325.91C491.53 326.3 492.16 326.3 492.55 325.91C492.94 325.52 492.94 324.89 492.55 324.5L476.5 308.44C476.11 308.05 475.48 308.05 475.09 308.44ZM491 320.11V309C491 307.9 490.1 307 489 307H482.01L479.95 309.06L491 320.11Z" fill="#323232"/>
</g>
<g clip-path="url(#clip48_17_17421)">
<path d="M549 307H531C529.9 307 529 307.9 529 309V323C529 324.1 529.9 325 531 325H549C550.1 325 551 324.1 551 323V309C551 307.9 550.1 307 549 307ZM549 322C549 322.55 548.55 323 548 323H532C531.45 323 531 322.55 531 322V310C531 309.45 531.45 309 532 309H548C548.55 309 549 309.45 549 310V322ZM538 312C537.45 312 537 312.45 537 313V319C537 319.55 537.45 320 538 320C538.55 320 539 319.55 539 319V313C539 312.45 538.55 312 538 312ZM542 312C541.45 312 541 312.45 541 313V319C541 319.55 541.45 320 542 320C542.55 320 543 319.55 543 319V313C543 312.45 542.55 312 542 312Z" fill="#323232"/>
</g>
<g clip-path="url(#clip49_17_17421)">
<path d="M598.48 315.95C598.65 315.97 598.82 316 599 316C601.21 316 603 314.21 603 312C603 309.79 601.21 308 599 308C596.79 308 595 309.79 595 312C595 312.18 595.03 312.35 595.05 312.52L598.48 315.95ZM600.69 318.16L606.43 323.9C606.76 323.73 607 323.4 607 323V322C607 319.86 603.44 318.5 600.69 318.16ZM586.12 306.42C585.73 306.03 585.1 306.03 584.71 306.42C584.32 306.81 584.32 307.44 584.71 307.83L588 311.12V314H586C585.45 314 585 314.45 585 315C585 315.55 585.45 316 586 316H588V318C588 318.55 588.45 319 589 319C589.55 319 590 318.55 590 318V316H592.88L595.39 318.51C593.19 319.11 591 320.3 591 322V323C591 323.55 591.45 324 592 324H600.88L604.17 327.29C604.56 327.68 605.19 327.68 605.58 327.29C605.97 326.9 605.97 326.27 605.58 325.88L586.12 306.42ZM590 314V313.12L590.88 314H590Z" fill="#323232"/>
</g>
<g clip-path="url(#clip50_17_17421)">
<path d="M90 372C92.2091 372 94 370.209 94 368C94 365.791 92.2091 364 90 364C87.7909 364 86 365.791 86 368C86 370.209 87.7909 372 90 372Z" fill="#323232"/>
<path d="M90.35 374.01C87.62 373.91 82 375.27 82 378V379C82 379.55 82.45 380 83 380H91.54C89.07 377.24 90.31 374.11 90.35 374.01Z" fill="#323232"/>
<path d="M99.43 378.02C99.9 377.22 100.13 376.25 99.91 375.2C99.57 373.56 98.19 372.25 96.53 372.04C93.9 371.7 91.68 373.91 92.03 376.54C92.25 378.2 93.55 379.58 95.19 379.92C96.24 380.14 97.21 379.91 98.01 379.44L99.87 381.3C100.26 381.69 100.89 381.69 101.28 381.3C101.67 380.91 101.67 380.28 101.28 379.89L99.43 378.02ZM96 378C94.9 378 94 377.1 94 376C94 374.9 94.9 374 96 374C97.1 374 98 374.9 98 376C98 377.1 97.1 378 96 378Z" fill="#323232"/>
</g>
<g clip-path="url(#clip51_17_17421)">
<path d="M155.23 375.26L152.69 374.97C152.08 374.9 151.48 375.11 151.05 375.54L149.21 377.38C146.38 375.94 144.06 373.63 142.62 370.79L144.47 368.94C144.9 368.51 145.11 367.91 145.04 367.3L144.75 364.78C144.63 363.77 143.78 363.01 142.76 363.01H141.03C139.9 363.01 138.96 363.95 139.03 365.08C139.56 373.62 146.39 380.44 154.92 380.97C156.05 381.04 156.99 380.1 156.99 378.97V377.24C157 376.23 156.24 375.38 155.23 375.26Z" fill="#323232"/>
</g>
<g clip-path="url(#clip52_17_17421)">
<path d="M204.5 367.7C204.22 367.42 203.78 367.42 203.5 367.7L200 371.2L196.5 367.7C196.22 367.42 195.78 367.42 195.5 367.7C195.22 367.98 195.22 368.42 195.5 368.7L199 372.2L195.5 375.7C195.22 375.98 195.22 376.42 195.5 376.7C195.78 376.98 196.22 376.98 196.5 376.7L200 373.2L203.5 376.7C203.78 376.98 204.22 376.98 204.5 376.7C204.78 376.42 204.78 375.98 204.5 375.7L201 372.2L204.5 368.7C204.78 368.42 204.78 367.98 204.5 367.7ZM211 361H201C199.9 361 199 361.9 199 363V365C199 365.55 199.45 366 200 366C200.55 366 201 365.55 201 365V364H211V380H201V379C201 378.45 200.55 378 200 378C199.45 378 199 378.45 199 379V381C199 382.1 199.9 383 201 383H211C212.1 383 213 382.1 213 381V363C213 361.9 212.1 361 211 361Z" fill="#323232"/>
</g>
<g clip-path="url(#clip53_17_17421)">
<path d="M267 361H257C255.9 361 255 361.9 255 363V365C255 365.55 255.45 366 256 366C256.55 366 257 365.55 257 365V364H267V380H257V379C257 378.45 256.55 378 256 378C255.45 378 255 378.45 255 379V381C255 382.1 255.9 383 257 383H267C268.1 383 269 382.1 269 381V363C269 361.9 268.1 361 267 361ZM258.8 371V369.5C258.8 368.1 257.4 367 256 367C254.6 367 253.2 368.1 253.2 369.5V371C252.6 371 252 371.6 252 372.2V375.7C252 376.4 252.6 377 253.2 377H258.7C259.4 377 260 376.4 260 375.8V372.3C260 371.6 259.4 371 258.8 371ZM257.5 371H254.5V369.5C254.5 368.7 255.2 368.2 256 368.2C256.8 368.2 257.5 368.7 257.5 369.5V371Z" fill="#323232"/>
</g>
<g clip-path="url(#clip54_17_17421)">
<path d="M318 361H308C306.9 361 306 361.9 306 363V381C306 382.1 306.9 383 308 383H318C319.1 383 320 382.1 320 381V363C320 361.9 319.1 361 318 361ZM318 380H308V364H318V380ZM324.63 368.26C324.37 367.94 323.89 367.9 323.59 368.2L323.56 368.23C323.31 368.48 323.3 368.88 323.51 369.16C324.77 370.8 324.76 373.03 323.49 374.73C323.28 375.01 323.3 375.4 323.54 375.65L323.59 375.7C323.88 375.99 324.35 375.96 324.62 375.65C326.42 373.52 326.42 370.46 324.63 368.26ZM321.42 370.37L321.36 370.43C321.16 370.63 321.1 370.93 321.21 371.19C321.42 371.68 321.42 372.22 321.21 372.71C321.1 372.97 321.16 373.27 321.36 373.47L321.44 373.55C321.76 373.87 322.31 373.8 322.53 373.4C323.02 372.51 323.02 371.46 322.52 370.54C322.3 370.12 321.75 370.04 321.42 370.37Z" fill="#323232"/>
</g>
<g clip-path="url(#clip55_17_17421)">
<path d="M367 363V365C367 365.55 367.45 366 368 366C368.55 366 369 365.55 369 365V364H379V380H369V379C369 378.45 368.55 378 368 378C367.45 378 367 378.45 367 379V381C367 382.1 367.9 383 369 383H379C380.1 383 381 382.1 381 381V363C381 361.9 380.1 361 379 361H369C367.9 361 367 361.9 367 363ZM369.5 375.5C369.79 375.38 370.05 375.21 370.3 375.02L370.28 375.05L371.29 375.44C371.52 375.53 371.78 375.44 371.9 375.22L372.74 373.76C372.86 373.55 372.81 373.27 372.62 373.12L371.77 372.44L371.75 372.47C371.77 372.31 371.8 372.15 371.8 371.99C371.8 371.83 371.77 371.67 371.75 371.51L371.77 371.54L372.62 370.86C372.81 370.71 372.86 370.43 372.74 370.22L371.9 368.76C371.78 368.55 371.52 368.45 371.29 368.54L370.28 368.93L370.3 368.96C370.05 368.79 369.79 368.62 369.5 368.5L369.33 367.42C369.3 367.18 369.09 367 368.84 367H367.16C366.91 367 366.7 367.18 366.67 367.42L366.5 368.5C366.21 368.62 365.95 368.79 365.7 368.98L365.72 368.95L364.7 368.56C364.47 368.47 364.21 368.56 364.09 368.78L363.25 370.24C363.13 370.45 363.18 370.73 363.37 370.88L364.22 371.56L364.24 371.53C364.22 371.68 364.19 371.84 364.19 372C364.19 372.16 364.22 372.32 364.24 372.48L364.22 372.45L363.37 373.13C363.18 373.28 363.13 373.56 363.25 373.77L364.09 375.23C364.21 375.44 364.47 375.54 364.7 375.45L365.71 375.06L365.7 375.02C365.95 375.21 366.21 375.38 366.5 375.5L366.67 376.57C366.7 376.82 366.91 377 367.16 377H368.84C369.09 377 369.3 376.82 369.33 376.58L369.5 375.5ZM366 372C366 370.9 366.9 370 368 370C369.1 370 370 370.9 370 372C370 373.1 369.1 374 368 374C366.9 374 366 373.1 366 372Z" fill="#323232"/>
</g>
<g clip-path="url(#clip56_17_17421)">
<path d="M430.54 377.37C427.91 379.45 424.65 380.76 421.09 380.98C419.96 381.05 419.02 380.11 419.02 378.98V377.25C419.01 376.24 419.77 375.39 420.78 375.27L423.32 374.98C423.93 374.91 424.53 375.12 424.96 375.55L426.8 377.39C427.61 376.98 428.39 376.49 429.11 375.94L418.1 364.93C417.71 364.54 417.71 363.91 418.1 363.52C418.49 363.13 419.13 363.13 419.52 363.52L436.49 380.5C436.88 380.89 436.88 381.52 436.49 381.91C436.1 382.3 435.47 382.3 435.08 381.91L430.54 377.37ZM433.39 370.8L431.54 368.95C431.11 368.52 430.9 367.92 430.97 367.31L431.26 364.79C431.38 363.78 432.23 363.02 433.25 363.02H434.98C436.11 363.02 437.05 363.96 436.98 365.09C436.76 368.66 435.44 371.92 433.36 374.56L431.93 373.13C432.48 372.4 432.97 371.62 433.39 370.8Z" fill="#323232"/>
</g>
<g clip-path="url(#clip57_17_17421)">
<path d="M476.78 375.27L479.32 374.98C479.93 374.91 480.53 375.12 480.96 375.55L482.8 377.39C485.63 375.95 487.95 373.64 489.39 370.8L487.54 368.95C487.11 368.52 486.9 367.92 486.97 367.31L487.26 364.79C487.38 363.78 488.23 363.02 489.25 363.02H490.98C492.11 363.02 493.05 363.96 492.98 365.09C492.45 373.63 485.62 380.45 477.09 380.98C475.96 381.05 475.02 380.11 475.02 378.98V377.25C475.01 376.24 475.77 375.39 476.78 375.27Z" fill="#323232"/>
</g>
<g clip-path="url(#clip58_17_17421)">
<path d="M530.71 363.07C530.32 363.46 530.32 364.09 530.71 364.48L532.1 365.87C530.79 367.57 530 369.69 530 372C530 375.3 531.6 378.22 534.06 380.04C534.54 380.39 535.22 380.25 535.52 379.73C535.77 379.3 535.66 378.74 535.26 378.44C533.29 376.98 532 374.65 532 372C532 370.24 532.57 368.62 533.53 367.31L534.96 368.75C534.36 369.68 534 370.8 534 372C534 373.8 534.8 375.41 536.06 376.51C536.52 376.91 537.25 376.76 537.56 376.23L537.57 376.22C537.81 375.8 537.7 375.28 537.34 374.96C536.52 374.23 536 373.18 536 372C536 371.35 536.17 370.75 536.44 370.21L538.02 371.79L538 372C538 373.1 538.9 374 540 374L540.21 373.98L547.02 380.79C547.41 381.18 548.04 381.18 548.43 380.79C548.82 380.4 548.82 379.77 548.43 379.38L532.13 363.07C531.74 362.68 531.1 362.68 530.71 363.07ZM545.71 373.82C545.89 373.25 546 372.63 546 372C546 368.69 543.31 366 540 366C539.37 366 538.75 366.11 538.18 366.29L539.9 368.01C539.93 368.01 539.96 368 540 368C542.21 368 544 369.79 544 372C544 372.04 543.99 372.07 543.99 372.11L545.71 373.82ZM540 364C544.42 364 548 367.58 548 372C548 373.2 547.71 374.32 547.23 375.35L548.72 376.84C549.53 375.4 550 373.76 550 372C550 366.48 545.52 362 540 362C538.24 362 536.6 362.48 535.16 363.28L536.64 364.76C537.66 364.28 538.8 364 540 364Z" fill="#323232"/>
</g>
<g clip-path="url(#clip59_17_17421)">
<path d="M605 363H587C585.89 363 585 363.89 585 365V379C585 380.11 585.89 381 587 381H605C606.11 381 607 380.11 607 379V365C607 363.89 606.11 363 605 363ZM604 379.02H588C587.45 379.02 587 378.57 587 378.02V365.98C587 365.43 587.45 364.98 588 364.98H604C604.55 364.98 605 365.43 605 365.98V378.02C605 378.57 604.55 379.02 604 379.02ZM594 372H592L595.65 368.35C595.85 368.15 596.16 368.15 596.36 368.35L600 372H598V376H594V372Z" fill="#323232"/>
</g>
<g clip-path="url(#clip60_17_17421)">
<path d="M82.12 418.32C81.73 417.93 81.1 417.93 80.71 418.32C80.32 418.71 80.32 419.34 80.71 419.73L84.98 424C83.33 424.01 82 425.35 82 427V431C82 432.1 82.9 433 84 433H86V435C86 436.1 86.9 437 88 437H96C96.55 437 97.04 436.78 97.4 436.42L100.23 439.25C100.62 439.64 101.25 439.64 101.64 439.25C102.03 438.86 102.03 438.23 101.64 437.84L82.12 418.32ZM95 435H89C88.45 435 88 434.55 88 434V430H90.98L95.7 434.72C95.51 434.89 95.27 435 95 435ZM99 424H90.63L99.63 433H100C101.1 433 102 432.1 102 431V427C102 425.34 100.66 424 99 424ZM99 428C98.45 428 98 427.55 98 427C98 426.45 98.45 426 99 426C99.55 426 100 426.45 100 427C100 427.55 99.55 428 99 428ZM97 423C97.55 423 98 422.55 98 422V420C98 419.45 97.55 419 97 419H87C86.63 419 86.32 419.21 86.15 419.51L89.63 423H97Z" fill="#323232"/>
</g>
<g clip-path="url(#clip61_17_17421)">
<path d="M141 427H145C146.1 427 147 426.1 147 425V421C147 419.9 146.1 419 145 419H141C139.9 419 139 419.9 139 421V425C139 426.1 139.9 427 141 427ZM141 421H145V425H141V421Z" fill="#323232"/>
<path d="M141 437H145C146.1 437 147 436.1 147 435V431C147 429.9 146.1 429 145 429H141C139.9 429 139 429.9 139 431V435C139 436.1 139.9 437 141 437ZM141 431H145V435H141V431Z" fill="#323232"/>
<path d="M149 421V425C149 426.1 149.9 427 151 427H155C156.1 427 157 426.1 157 425V421C157 419.9 156.1 419 155 419H151C149.9 419 149 419.9 149 421ZM155 425H151V421H155V425Z" fill="#323232"/>
<path d="M157 436.5V435.5C157 435.22 156.78 435 156.5 435H155.5C155.22 435 155 435.22 155 435.5V436.5C155 436.78 155.22 437 155.5 437H156.5C156.78 437 157 436.78 157 436.5Z" fill="#323232"/>
<path d="M149 429.5V430.5C149 430.78 149.22 431 149.5 431H150.5C150.78 431 151 430.78 151 430.5V429.5C151 429.22 150.78 429 150.5 429H149.5C149.22 429 149 429.22 149 429.5Z" fill="#323232"/>
<path d="M152.5 431H151.5C151.22 431 151 431.22 151 431.5V432.5C151 432.78 151.22 433 151.5 433H152.5C152.78 433 153 432.78 153 432.5V431.5C153 431.22 152.78 431 152.5 431Z" fill="#323232"/>
<path d="M149 433.5V434.5C149 434.78 149.22 435 149.5 435H150.5C150.78 435 151 434.78 151 434.5V433.5C151 433.22 150.78 433 150.5 433H149.5C149.22 433 149 433.22 149 433.5Z" fill="#323232"/>
<path d="M151.5 437H152.5C152.78 437 153 436.78 153 436.5V435.5C153 435.22 152.78 435 152.5 435H151.5C151.22 435 151 435.22 151 435.5V436.5C151 436.78 151.22 437 151.5 437Z" fill="#323232"/>
<path d="M153.5 435H154.5C154.78 435 155 434.78 155 434.5V433.5C155 433.22 154.78 433 154.5 433H153.5C153.22 433 153 433.22 153 433.5V434.5C153 434.78 153.22 435 153.5 435Z" fill="#323232"/>
<path d="M154.5 429H153.5C153.22 429 153 429.22 153 429.5V430.5C153 430.78 153.22 431 153.5 431H154.5C154.78 431 155 430.78 155 430.5V429.5C155 429.22 154.78 429 154.5 429Z" fill="#323232"/>
<path d="M155.5 433H156.5C156.78 433 157 432.78 157 432.5V431.5C157 431.22 156.78 431 156.5 431H155.5C155.22 431 155 431.22 155 431.5V432.5C155 432.78 155.22 433 155.5 433Z" fill="#323232"/>
</g>
<g clip-path="url(#clip62_17_17421)">
<path d="M201.5 422.5V425.5H198.5V422.5H201.5ZM203 421H197V427H203V421ZM201.5 430.5V433.5H198.5V430.5H201.5ZM203 429H197V435H203V429ZM209.5 422.5V425.5H206.5V422.5H209.5ZM211 421H205V427H211V421ZM205 429H206.5V430.5H205V429ZM206.5 430.5H208V432H206.5V430.5ZM208 429H209.5V430.5H208V429ZM205 432H206.5V433.5H205V432ZM206.5 433.5H208V435H206.5V433.5ZM208 432H209.5V433.5H208V432ZM209.5 430.5H211V432H209.5V430.5ZM209.5 433.5H211V435H209.5V433.5ZM213 423C212.45 423 212 422.55 212 422V420H210C209.45 420 209 419.55 209 419C209 418.45 209.45 418 210 418H213C213.55 418 214 418.45 214 419V422C214 422.55 213.55 423 213 423ZM214 437V434C214 433.45 213.55 433 213 433C212.45 433 212 433.45 212 434V436H210C209.45 436 209 436.45 209 437C209 437.55 209.45 438 210 438H213C213.55 438 214 437.55 214 437ZM195 438H198C198.55 438 199 437.55 199 437C199 436.45 198.55 436 198 436H196V434C196 433.45 195.55 433 195 433C194.45 433 194 433.45 194 434V437C194 437.55 194.45 438 195 438ZM194 419V422C194 422.55 194.45 423 195 423C195.55 423 196 422.55 196 422V420H198C198.55 420 199 419.55 199 419C199 418.45 198.55 418 198 418H195C194.45 418 194 418.45 194 419Z" fill="#323232"/>
</g>
<g clip-path="url(#clip63_17_17421)">
<path d="M262 425H269C269.55 425 270 424.55 270 424C270 423.45 269.55 423 269 423H262C261.45 423 261 423.45 261 424C261 424.55 261.45 425 262 425Z" fill="#323232"/>
<path d="M269 431H262C261.45 431 261 431.45 261 432C261 432.55 261.45 433 262 433H269C269.55 433 270 432.55 270 432C270 431.45 269.55 431 269 431Z" fill="#323232"/>
<path d="M269 427H265C264.45 427 264 427.45 264 428C264 428.55 264.45 429 265 429H269C269.55 429 270 428.55 270 428C270 427.45 269.55 427 269 427Z" fill="#323232"/>
<path d="M256.85 423.85C256.54 423.54 256 423.76 256 424.21V427H251C250.45 427 250 427.45 250 428C250 428.55 250.45 429 251 429H256V431.79C256 432.24 256.54 432.46 256.85 432.14L260.64 428.35C260.84 428.15 260.84 427.84 260.64 427.64L256.85 423.85Z" fill="#323232"/>
</g>
<g clip-path="url(#clip64_17_17421)">
<path d="M315.98 423H316.01C316.56 423 317 422.56 317 422.02V418.98C317 418.44 316.56 418 316.02 418H315.99C315.44 418 315 418.44 315 418.98V422.01C315 422.56 315.44 423 315.98 423ZM320.9 425.11C321.29 425.5 321.91 425.5 322.3 425.11C322.92 424.48 323.82 423.57 324.45 422.94C324.84 422.56 324.84 421.93 324.45 421.55C324.07 421.17 323.44 421.17 323.06 421.55L320.89 423.7C320.5 424.08 320.5 424.71 320.89 425.09L320.9 425.11ZM309.71 425.1C310.09 425.49 310.72 425.49 311.11 425.1C311.49 424.72 311.49 424.09 311.11 423.71L308.96 421.54C308.58 421.15 307.95 421.15 307.57 421.54L307.55 421.55C307.16 421.94 307.16 422.56 307.55 422.94C308.18 423.56 309.09 424.47 309.71 425.1ZM327.29 432.23C320.88 426.57 311.22 426.57 304.81 432.23C303.96 432.98 303.96 434.31 304.76 435.11L305.98 436.33C306.7 437.05 307.84 437.11 308.64 436.48L310.64 434.89C311.12 434.51 311.4 433.93 311.4 433.32V430.72C314.42 429.74 317.69 429.73 320.72 430.72V433.33C320.72 433.94 321 434.52 321.48 434.9L323.47 436.48C324.27 437.11 325.41 437.05 326.13 436.33L327.35 435.11C328.14 434.31 328.14 432.98 327.29 432.23Z" fill="#323232"/>
</g>
<g clip-path="url(#clip65_17_17421)">
<path d="M366.18 436C367.384 436 368.36 435.024 368.36 433.82C368.36 432.616 367.384 431.64 366.18 431.64C364.976 431.64 364 432.616 364 433.82C364 435.024 364.976 436 366.18 436Z" fill="#323232"/>
<path d="M365.59 426.23C364.75 426.09 364 426.78 364 427.63C364 428.34 364.53 428.91 365.23 429.03C368.15 429.54 370.45 431.85 370.97 434.77C371.09 435.47 371.66 436 372.37 436C373.22 436 373.91 435.25 373.78 434.41C373.1 430.21 369.79 426.9 365.59 426.23ZM365.56 420.52C364.73 420.43 364 421.1 364 421.93C364 422.66 364.55 423.26 365.27 423.33C371.28 423.93 376.06 428.71 376.66 434.72C376.73 435.45 377.33 436 378.06 436C378.9 436 379.56 435.27 379.48 434.44C378.75 427.1 372.91 421.25 365.56 420.52Z" fill="#323232"/>
</g>
<g clip-path="url(#clip66_17_17421)">
<path d="M436 434C437.1 434 438 433.1 438 432V422C438 420.9 437.1 420 436 420H420C418.9 420 418 420.9 418 422V432C418 433.1 418.89 434 420 434H417C416.45 434 416 434.45 416 435C416 435.55 416.45 436 417 436H439C439.55 436 440 435.55 440 435C440 434.45 439.55 434 439 434H436ZM429 430.47V428.28C426.22 428.28 424.39 429.13 423 431C423.56 428.33 425.11 425.67 429 425.13V423L432.61 426.36C432.82 426.56 432.82 426.89 432.61 427.09L429 430.47Z" fill="#323232"/>
</g>
<g clip-path="url(#clip67_17_17421)">
<path d="M487.5 427C488.328 427 489 426.328 489 425.5C489 424.672 488.328 424 487.5 424C486.672 424 486 424.672 486 425.5C486 426.328 486.672 427 487.5 427Z" fill="#323232"/>
<path d="M480.5 427C481.328 427 482 426.328 482 425.5C482 424.672 481.328 424 480.5 424C479.672 424 479 424.672 479 425.5C479 426.328 479.672 427 480.5 427Z" fill="#323232"/>
<path d="M483.99 418C478.47 418 474 422.48 474 428C474 433.52 478.47 438 483.99 438C489.52 438 494 433.52 494 428C494 422.48 489.52 418 483.99 418ZM484 436C479.58 436 476 432.42 476 428C476 423.58 479.58 420 484 420C488.42 420 492 423.58 492 428C492 432.42 488.42 436 484 436ZM488.41 429.89C488.06 429.67 487.59 429.78 487.38 430.13C486.64 431.3 485.38 432 484 432C482.62 432 481.36 431.3 480.62 430.12C480.4 429.77 479.94 429.66 479.59 429.88C479.24 430.1 479.13 430.56 479.35 430.91C480.37 432.54 482.1 433.5 484 433.5C485.9 433.5 487.63 432.53 488.65 430.92C488.87 430.57 488.76 430.11 488.41 429.89Z" fill="#323232"/>
</g>
<g clip-path="url(#clip68_17_17421)">
<path d="M535.76 423.83L535.78 423.85C536.13 424.2 536.67 424.23 537.08 423.94C537.91 423.37 538.92 423.02 540 423.02C541.08 423.02 542.09 423.37 542.92 423.95C543.32 424.24 543.87 424.21 544.22 423.86L544.24 423.84C544.66 423.42 544.63 422.7 544.15 422.35C542.98 421.5 541.55 421 540 421C538.45 421 537.02 421.5 535.86 422.34C535.37 422.69 535.34 423.41 535.76 423.83ZM540 417C537.38 417 534.97 417.93 533.08 419.47C532.62 419.84 532.57 420.53 533 420.96C533.36 421.32 533.93 421.35 534.32 421.03C535.86 419.76 537.85 419 540 419C542.15 419 544.14 419.76 545.69 421.03C546.08 421.35 546.65 421.32 547.01 420.96C547.43 420.54 547.39 419.85 546.93 419.47C545.03 417.93 542.62 417 540 417ZM542.86 426.01L537.14 426C536.51 426 536 426.51 536 427.14V436.85C536 437.48 536.51 437.99 537.14 437.99H542.85C543.48 437.99 543.99 437.48 543.99 436.85V427.14C544 426.51 543.49 426.01 542.86 426.01ZM543 436H537V428H543V436Z" fill="#323232"/>
</g>
<g clip-path="url(#clip69_17_17421)">
<path d="M585.01 423L585 433C585 434.1 585.9 435 587 435H605C606.1 435 607 434.1 607 433V423C607 421.9 606.1 421 605 421H587C585.9 421 585.01 421.9 585.01 423ZM603 423V433H589V423H603Z" fill="#323232"/>
</g>
<g clip-path="url(#clip70_17_17421)">
<path d="M97 473.01L87 473C85.9 473 85.01 473.9 85.01 475V493C85.01 494.1 85.9 495 87 495H97C98.1 495 99 494.1 99 493V475C99 473.9 98.1 473.01 97 473.01ZM97 491H87V477H97V491Z" fill="#323232"/>
</g>
<g clip-path="url(#clip71_17_17421)">
<path d="M137.01 479L137 489C137 490.1 137.9 491 139 491H157C158.1 491 159 490.1 159 489V479C159 477.9 158.1 477 157 477H139C137.9 477 137.01 477.9 137.01 479ZM155 479V489H141V479H155Z" fill="#323232"/>
</g>
<g clip-path="url(#clip72_17_17421)">
<path d="M209 473.01L199 473C197.9 473 197.01 473.9 197.01 475V493C197.01 494.1 197.9 495 199 495H209C210.1 495 211 494.1 211 493V475C211 473.9 210.1 473.01 209 473.01ZM209 491H199V477H209V491Z" fill="#323232"/>
</g>
<g clip-path="url(#clip73_17_17421)">
<path d="M271 490H269.8L271.59 491.79C271.83 491.61 272 491.33 272 491C272 490.45 271.55 490 271 490ZM251.23 474.28C250.84 473.89 250.2 473.89 249.81 474.28C249.42 474.67 249.42 475.3 249.81 475.69L250.65 476.55C250.65 476.55 249.99 477.12 249.99 478.02C250 478.92 250 488 250 488L250.01 488.01C250.01 489.1 250.89 489.99 251.98 490H249C248.45 490 248 490.45 248 491C248 491.55 248.45 492 249 492H266.13L268.13 494C268.52 494.39 269.15 494.39 269.54 494C269.93 493.61 269.93 492.98 269.54 492.59L251.23 474.28ZM255 487C255.31 485.52 255.94 484.07 257.08 482.95L258.67 484.54C257.13 484.92 255.96 485.71 255 487ZM261 481.13V480.15C261 479.71 261.52 479.49 261.84 479.78L263 480.87L264.61 482.37C264.82 482.57 264.82 482.9 264.61 483.1L263.72 483.93L269.3 489.51C269.73 489.14 270 488.61 270 488V478C270 476.91 269.11 476.02 268.02 476.02H255.8L260.94 481.15C260.96 481.14 260.98 481.13 261 481.13Z" fill="#323232"/>
</g>
<g clip-path="url(#clip74_17_17421)">
<path d="M321.65 476.35L318.86 479.14C318.54 479.46 318.76 480 319.21 480H321V486.88C321 487.88 320.33 488.81 319.34 488.97C318.09 489.18 317 488.21 317 487V480.17C317 478.08 315.47 476.22 313.39 476.02C311.01 475.79 309 477.66 309 480V487H307.21C306.76 487 306.54 487.54 306.86 487.85L309.65 490.64C309.85 490.84 310.16 490.84 310.36 490.64L313.15 487.85C313.46 487.54 313.24 487 312.79 487H311V480.12C311 479.12 311.67 478.19 312.66 478.03C313.91 477.82 315 478.79 315 480V486.83C315 488.92 316.53 490.78 318.61 490.98C320.99 491.21 323 489.34 323 487V480H324.79C325.24 480 325.46 479.46 325.14 479.15L322.35 476.36C322.16 476.16 321.84 476.16 321.65 476.35Z" fill="#323232"/>
</g>
<g clip-path="url(#clip75_17_17421)">
<path d="M380 474H364C362.9 474 362.01 474.9 362.01 476L362 494L366 490H380C381.1 490 382 489.1 382 488V476C382 474.9 381.1 474 380 474ZM369 483H367V481H369V483ZM373 483H371V481H373V483ZM377 483H375V481H377V483Z" fill="#323232"/>
</g>
<g clip-path="url(#clip76_17_17421)">
<path d="M434.5 483.5C435.42 483.5 436.25 483.76 436.99 484.19V477C436.99 475.9 436.1 475 435 475H421C419.9 475 419 475.9 419 477V487C419 488.1 419.9 489 421 489H429.55C429.53 488.83 429.5 488.67 429.5 488.5C429.5 485.74 431.74 483.5 434.5 483.5ZM428.89 482.05C428.33 482.33 427.66 482.33 427.1 482.05L421.49 479.25C421.19 479.1 421 478.79 421 478.45C421 477.79 421.7 477.35 422.29 477.65L428 480.5L433.71 477.65C434.3 477.35 435 477.78 435 478.45C435 478.79 434.81 479.1 434.51 479.25L428.89 482.05ZM434.5 485C432.57 485 431 486.57 431 488.5C431 490.43 432.57 492 434.5 492C436.43 492 438 490.43 438 488.5C438 486.57 436.43 485 434.5 485ZM436.5 488.5C436.5 488.78 436.28 489 436 489H433C432.72 489 432.5 488.78 432.5 488.5C432.5 488.22 432.72 488 433 488H436C436.28 488 436.5 488.22 436.5 488.5Z" fill="#323232"/>
</g>
<g clip-path="url(#clip77_17_17421)">
<path d="M490.5 478C487.46 478 485 480.46 485 483.5C485 484.83 485.47 486.05 486.26 487H481.74C482.53 486.05 483 484.83 483 483.5C483 480.46 480.54 478 477.5 478C474.46 478 472 480.46 472 483.5C472 486.54 474.46 489 477.5 489H490.5C493.54 489 496 486.54 496 483.5C496 480.46 493.54 478 490.5 478ZM477.5 487C475.57 487 474 485.43 474 483.5C474 481.57 475.57 480 477.5 480C479.43 480 481 481.57 481 483.5C481 485.43 479.43 487 477.5 487ZM490.5 487C488.57 487 487 485.43 487 483.5C487 481.57 488.57 480 490.5 480C492.43 480 494 481.57 494 483.5C494 485.43 492.43 487 490.5 487Z" fill="#323232"/>
</g>
<g clip-path="url(#clip78_17_17421)">
<path d="M540.65 482C539.7 479.31 536.9 477.5 533.77 478.12C531.48 478.58 529.62 480.41 529.14 482.7C528.32 486.57 531.26 490 535 490C537.61 490 539.83 488.33 540.65 486H545V488C545 489.1 545.9 490 547 490C548.1 490 549 489.1 549 488V486C550.1 486 551 485.1 551 484C551 482.9 550.1 482 549 482H540.65ZM535 486C533.9 486 533 485.1 533 484C533 482.9 533.9 482 535 482C536.1 482 537 482.9 537 484C537 485.1 536.1 486 535 486Z" fill="#323232"/>
</g>
<g clip-path="url(#clip79_17_17421)">
<path d="M606 476.95C605.79 476.78 603.67 475 600.5 475C597.32 475 595.21 476.78 595 476.95L600.5 484L606 476.95Z" fill="#323232"/>
<path d="M603.2 487.28L600.66 486.99C600.05 486.92 599.45 487.13 599.02 487.56L597.18 489.4C594.35 487.96 592.03 485.65 590.59 482.81L592.44 480.96C592.87 480.53 593.08 479.92 593.01 479.32L592.72 476.8C592.6 475.79 591.75 475.03 590.73 475.03H589C587.87 475.03 586.93 475.97 587 477.1C587.53 485.64 594.36 492.47 602.9 493C604.03 493.07 604.97 492.13 604.97 491V489.27C604.97 488.25 604.21 487.4 603.2 487.28Z" fill="#323232"/>
</g>
<defs>
<clipPath id="clip0_17_17421">
<rect width="24" height="24" fill="white" transform="translate(80 80)"/>
</clipPath>
<clipPath id="clip1_17_17421">
<rect width="24" height="24" fill="white" transform="translate(136 80)"/>
</clipPath>
<clipPath id="clip2_17_17421">
<rect width="24" height="24" fill="white" transform="translate(192 80)"/>
</clipPath>
<clipPath id="clip3_17_17421">
<rect width="24" height="24" fill="white" transform="translate(248 80)"/>
</clipPath>
<clipPath id="clip4_17_17421">
<rect width="24" height="24" fill="white" transform="translate(304 80)"/>
</clipPath>
<clipPath id="clip5_17_17421">
<rect width="24" height="24" fill="white" transform="translate(360 80)"/>
</clipPath>
<clipPath id="clip6_17_17421">
<rect width="24" height="24" fill="white" transform="translate(416 80)"/>
</clipPath>
<clipPath id="clip7_17_17421">
<rect width="24" height="24" fill="white" transform="translate(472 80)"/>
</clipPath>
<clipPath id="clip8_17_17421">
<rect width="24" height="24" fill="white" transform="translate(528 80)"/>
</clipPath>
<clipPath id="clip9_17_17421">
<rect width="24" height="24" fill="white" transform="translate(584 80)"/>
</clipPath>
<clipPath id="clip10_17_17421">
<rect width="24" height="24" fill="white" transform="translate(80 136)"/>
</clipPath>
<clipPath id="clip11_17_17421">
<rect width="24" height="24" fill="white" transform="translate(136 136)"/>
</clipPath>
<clipPath id="clip12_17_17421">
<rect width="24" height="24" fill="white" transform="translate(192 136)"/>
</clipPath>
<clipPath id="clip13_17_17421">
<rect width="24" height="24" fill="white" transform="translate(248 136)"/>
</clipPath>
<clipPath id="clip14_17_17421">
<rect width="24" height="24" fill="white" transform="translate(304 136)"/>
</clipPath>
<clipPath id="clip15_17_17421">
<rect width="24" height="24" fill="white" transform="translate(360 136)"/>
</clipPath>
<clipPath id="clip16_17_17421">
<rect width="24" height="24" fill="white" transform="translate(416 136)"/>
</clipPath>
<clipPath id="clip17_17_17421">
<rect width="24" height="24" fill="white" transform="translate(472 136)"/>
</clipPath>
<clipPath id="clip18_17_17421">
<rect width="24" height="24" fill="white" transform="translate(528 136)"/>
</clipPath>
<clipPath id="clip19_17_17421">
<rect width="24" height="24" fill="white" transform="translate(584 136)"/>
</clipPath>
<clipPath id="clip20_17_17421">
<rect width="24" height="24" fill="white" transform="translate(80 192)"/>
</clipPath>
<clipPath id="clip21_17_17421">
<rect width="24" height="24" fill="white" transform="translate(136 192)"/>
</clipPath>
<clipPath id="clip22_17_17421">
<rect width="24" height="24" fill="white" transform="translate(192 192)"/>
</clipPath>
<clipPath id="clip23_17_17421">
<rect width="24" height="24" fill="white" transform="translate(248 192)"/>
</clipPath>
<clipPath id="clip24_17_17421">
<rect width="24" height="24" fill="white" transform="translate(304 192)"/>
</clipPath>
<clipPath id="clip25_17_17421">
<rect width="24" height="24" fill="white" transform="translate(360 192)"/>
</clipPath>
<clipPath id="clip26_17_17421">
<rect width="24" height="24" fill="white" transform="translate(416 192)"/>
</clipPath>
<clipPath id="clip27_17_17421">
<rect width="24" height="24" fill="white" transform="translate(472 192)"/>
</clipPath>
<clipPath id="clip28_17_17421">
<rect width="24" height="24" fill="white" transform="translate(528 192)"/>
</clipPath>
<clipPath id="clip29_17_17421">
<rect width="24" height="24" fill="white" transform="translate(584 192)"/>
</clipPath>
<clipPath id="clip30_17_17421">
<rect width="24" height="24" fill="white" transform="translate(80 248)"/>
</clipPath>
<clipPath id="clip31_17_17421">
<rect width="24" height="24" fill="white" transform="translate(136 248)"/>
</clipPath>
<clipPath id="clip32_17_17421">
<rect width="24" height="24" fill="white" transform="translate(192 248)"/>
</clipPath>
<clipPath id="clip33_17_17421">
<rect width="24" height="24" fill="white" transform="translate(248 248)"/>
</clipPath>
<clipPath id="clip34_17_17421">
<rect width="24" height="24" fill="white" transform="translate(304 248)"/>
</clipPath>
<clipPath id="clip35_17_17421">
<rect width="24" height="24" fill="white" transform="translate(360 248)"/>
</clipPath>
<clipPath id="clip36_17_17421">
<rect width="24" height="24" fill="white" transform="translate(416 248)"/>
</clipPath>
<clipPath id="clip37_17_17421">
<rect width="24" height="24" fill="white" transform="translate(472 248)"/>
</clipPath>
<clipPath id="clip38_17_17421">
<rect width="24" height="24" fill="white" transform="translate(528 248)"/>
</clipPath>
<clipPath id="clip39_17_17421">
<rect width="24" height="24" fill="white" transform="translate(584 248)"/>
</clipPath>
<clipPath id="clip40_17_17421">
<rect width="24" height="24" fill="white" transform="translate(80 304)"/>
</clipPath>
<clipPath id="clip41_17_17421">
<rect width="24" height="24" fill="white" transform="translate(136 304)"/>
</clipPath>
<clipPath id="clip42_17_17421">
<rect width="24" height="24" fill="white" transform="translate(192 304)"/>
</clipPath>
<clipPath id="clip43_17_17421">
<rect width="24" height="24" fill="white" transform="translate(248 304)"/>
</clipPath>
<clipPath id="clip44_17_17421">
<rect width="24" height="24" fill="white" transform="translate(304 304)"/>
</clipPath>
<clipPath id="clip45_17_17421">
<rect width="24" height="24" fill="white" transform="translate(360 304)"/>
</clipPath>
<clipPath id="clip46_17_17421">
<rect width="24" height="24" fill="white" transform="translate(416 304)"/>
</clipPath>
<clipPath id="clip47_17_17421">
<rect width="24" height="24" fill="white" transform="translate(472 304)"/>
</clipPath>
<clipPath id="clip48_17_17421">
<rect width="24" height="24" fill="white" transform="translate(528 304)"/>
</clipPath>
<clipPath id="clip49_17_17421">
<rect width="24" height="24" fill="white" transform="translate(584 304)"/>
</clipPath>
<clipPath id="clip50_17_17421">
<rect width="24" height="24" fill="white" transform="translate(80 360)"/>
</clipPath>
<clipPath id="clip51_17_17421">
<rect width="24" height="24" fill="white" transform="translate(136 360)"/>
</clipPath>
<clipPath id="clip52_17_17421">
<rect width="24" height="24" fill="white" transform="translate(192 360)"/>
</clipPath>
<clipPath id="clip53_17_17421">
<rect width="24" height="24" fill="white" transform="translate(248 360)"/>
</clipPath>
<clipPath id="clip54_17_17421">
<rect width="24" height="24" fill="white" transform="translate(304 360)"/>
</clipPath>
<clipPath id="clip55_17_17421">
<rect width="24" height="24" fill="white" transform="translate(360 360)"/>
</clipPath>
<clipPath id="clip56_17_17421">
<rect width="24" height="24" fill="white" transform="translate(416 360)"/>
</clipPath>
<clipPath id="clip57_17_17421">
<rect width="24" height="24" fill="white" transform="translate(472 360)"/>
</clipPath>
<clipPath id="clip58_17_17421">
<rect width="24" height="24" fill="white" transform="translate(528 360)"/>
</clipPath>
<clipPath id="clip59_17_17421">
<rect width="24" height="24" fill="white" transform="translate(584 360)"/>
</clipPath>
<clipPath id="clip60_17_17421">
<rect width="24" height="24" fill="white" transform="translate(80 416)"/>
</clipPath>
<clipPath id="clip61_17_17421">
<rect width="24" height="24" fill="white" transform="translate(136 416)"/>
</clipPath>
<clipPath id="clip62_17_17421">
<rect width="24" height="24" fill="white" transform="translate(192 416)"/>
</clipPath>
<clipPath id="clip63_17_17421">
<rect width="24" height="24" fill="white" transform="translate(248 416)"/>
</clipPath>
<clipPath id="clip64_17_17421">
<rect width="24" height="24" fill="white" transform="translate(304 416)"/>
</clipPath>
<clipPath id="clip65_17_17421">
<rect width="24" height="24" fill="white" transform="translate(360 416)"/>
</clipPath>
<clipPath id="clip66_17_17421">
<rect width="24" height="24" fill="white" transform="translate(416 416)"/>
</clipPath>
<clipPath id="clip67_17_17421">
<rect width="24" height="24" fill="white" transform="translate(472 416)"/>
</clipPath>
<clipPath id="clip68_17_17421">
<rect width="24" height="24" fill="white" transform="translate(528 416)"/>
</clipPath>
<clipPath id="clip69_17_17421">
<rect width="24" height="24" fill="white" transform="translate(584 416)"/>
</clipPath>
<clipPath id="clip70_17_17421">
<rect width="24" height="24" fill="white" transform="translate(80 472)"/>
</clipPath>
<clipPath id="clip71_17_17421">
<rect width="24" height="24" fill="white" transform="translate(136 472)"/>
</clipPath>
<clipPath id="clip72_17_17421">
<rect width="24" height="24" fill="white" transform="translate(192 472)"/>
</clipPath>
<clipPath id="clip73_17_17421">
<rect width="24" height="24" fill="white" transform="translate(248 472)"/>
</clipPath>
<clipPath id="clip74_17_17421">
<rect width="24" height="24" fill="white" transform="translate(304 472)"/>
</clipPath>
<clipPath id="clip75_17_17421">
<rect width="24" height="24" fill="white" transform="translate(360 472)"/>
</clipPath>
<clipPath id="clip76_17_17421">
<rect width="24" height="24" fill="white" transform="translate(416 472)"/>
</clipPath>
<clipPath id="clip77_17_17421">
<rect width="24" height="24" fill="white" transform="translate(472 472)"/>
</clipPath>
<clipPath id="clip78_17_17421">
<rect width="24" height="24" fill="white" transform="translate(528 472)"/>
</clipPath>
<clipPath id="clip79_17_17421">
<rect width="24" height="24" fill="white" transform="translate(584 472)"/>
</clipPath>
</defs>
</svg>
