<svg width="688" height="520" viewBox="0 0 688 520" fill="none" xmlns="http://www.w3.org/2000/svg">
<rect x="0.5" y="0.5" width="687" height="519" rx="31.5" stroke="#CCCCCC"/>
<g clip-path="url(#clip0_17_17339)">
<path d="M98 93H93V98C93 98.55 92.55 99 92 99C91.45 99 91 98.55 91 98V93H86C85.45 93 85 92.55 85 92C85 91.45 85.45 91 86 91H91V86C91 85.45 91.45 85 92 85C92.55 85 93 85.45 93 86V91H98C98.55 91 99 91.45 99 92C99 92.55 98.55 93 98 93Z" fill="#323232"/>
</g>
<g clip-path="url(#clip1_17_17339)">
<path d="M155 83H141C139.89 83 139 83.9 139 85V99C139 100.1 139.89 101 141 101H155C156.1 101 157 100.1 157 99V85C157 83.9 156.1 83 155 83ZM152 93H149V96C149 96.55 148.55 97 148 97C147.45 97 147 96.55 147 96V93H144C143.45 93 143 92.55 143 92C143 91.45 143.45 91 144 91H147V88C147 87.45 147.45 87 148 87C148.55 87 149 87.45 149 88V91H152C152.55 91 153 91.45 153 92C153 92.55 152.55 93 152 93Z" fill="#323232"/>
</g>
<g clip-path="url(#clip2_17_17339)">
<path d="M204 82C198.48 82 194 86.48 194 92C194 97.52 198.48 102 204 102C209.52 102 214 97.52 214 92C214 86.48 209.52 82 204 82ZM208 93H205V96C205 96.55 204.55 97 204 97C203.45 97 203 96.55 203 96V93H200C199.45 93 199 92.55 199 92C199 91.45 199.45 91 200 91H203V88C203 87.45 203.45 87 204 87C204.55 87 205 87.45 205 88V91H208C208.55 91 209 91.45 209 92C209 92.55 208.55 93 208 93Z" fill="#323232"/>
</g>
<g clip-path="url(#clip3_17_17339)">
<path d="M260 87C259.45 87 259 87.45 259 88V91H256C255.45 91 255 91.45 255 92C255 92.55 255.45 93 256 93H259V96C259 96.55 259.45 97 260 97C260.55 97 261 96.55 261 96V93H264C264.55 93 265 92.55 265 92C265 91.45 264.55 91 264 91H261V88C261 87.45 260.55 87 260 87ZM260 82C254.48 82 250 86.48 250 92C250 97.52 254.48 102 260 102C265.52 102 270 97.52 270 92C270 86.48 265.52 82 260 82ZM260 100C255.59 100 252 96.41 252 92C252 87.59 255.59 84 260 84C264.41 84 268 87.59 268 92C268 96.41 264.41 100 260 100Z" fill="#323232"/>
</g>
<g clip-path="url(#clip4_17_17339)">
<path d="M320 84H312C311.45 84 311 84.45 311 85V98C311 98.55 311.45 99 312 99H320C320.55 99 321 98.55 321 98V85C321 84.45 320.55 84 320 84Z" fill="#323232"/>
<path d="M308 86C307.45 86 307 86.45 307 87V96C307 96.55 307.45 97 308 97C308.55 97 309 96.55 309 96V87C309 86.45 308.55 86 308 86Z" fill="#323232"/>
<path d="M324 86C323.45 86 323 86.45 323 87V96C323 96.55 323.45 97 324 97C324.55 97 325 96.55 325 96V87C325 86.45 324.55 86 324 86Z" fill="#323232"/>
</g>
<g clip-path="url(#clip5_17_17339)">
<path d="M380.54 85.23L379.15 83.55C378.88 83.21 378.47 83 378 83H366C365.53 83 365.12 83.21 364.84 83.55L363.46 85.23C363.17 85.57 363 86.02 363 86.5V99C363 100.1 363.9 101 365 101H379C380.1 101 381 100.1 381 99V86.5C381 86.02 380.83 85.57 380.54 85.23ZM371.65 97.15L366.5 92H370V90H374V92H377.5L372.35 97.15C372.16 97.34 371.84 97.34 371.65 97.15ZM365.12 85L365.93 84H377.93L378.87 85H365.12Z" fill="#323232"/>
</g>
<g clip-path="url(#clip6_17_17339)">
<path d="M428 88.5C427.09 88.5 425.25 88.96 425.25 89.88V94C425.25 94.28 425.47 94.5 425.75 94.5H426.75V97.75C426.75 98.44 427.31 99 428 99C428.69 99 429.25 98.44 429.25 97.75V94.5H430.25C430.53 94.5 430.75 94.28 430.75 94V89.88C430.75 88.97 428.91 88.5 428 88.5ZM428 82C422.47 82 418 86.47 418 92C418 97.53 422.47 102 428 102C433.53 102 438 97.52 438 92C438 86.48 433.52 82 428 82ZM428 100C423.58 100 420 96.42 420 92C420 87.58 423.58 84 428 84C432.42 84 436 87.58 436 92C436 96.42 432.42 100 428 100Z" fill="#323232"/>
<path d="M428 88C428.828 88 429.5 87.3284 429.5 86.5C429.5 85.6716 428.828 85 428 85C427.172 85 426.5 85.6716 426.5 86.5C426.5 87.3284 427.172 88 428 88Z" fill="#323232"/>
</g>
<g clip-path="url(#clip7_17_17339)">
<path d="M494 83H479C478.31 83 477.77 83.35 477.41 83.88L472.37 91.45C472.15 91.79 472.15 92.22 472.37 92.56L477.41 100.12C477.77 100.64 478.31 101 479 101H494C495.1 101 496 100.1 496 99V85C496 83.9 495.1 83 494 83ZM490.3 96.3C489.91 96.69 489.28 96.69 488.89 96.3L486 93.41L483.11 96.3C482.72 96.69 482.09 96.69 481.7 96.3C481.31 95.91 481.31 95.28 481.7 94.89L484.59 92L481.7 89.11C481.31 88.72 481.31 88.09 481.7 87.7C482.09 87.31 482.72 87.31 483.11 87.7L486 90.59L488.89 87.7C489.28 87.31 489.91 87.31 490.3 87.7C490.69 88.09 490.69 88.72 490.3 89.11L487.41 92L490.3 94.89C490.68 95.27 490.68 95.91 490.3 96.3Z" fill="#323232"/>
</g>
<g clip-path="url(#clip8_17_17339)">
<path d="M542 89.5H545C545.55 89.5 546 89.05 546 88.5C546 87.95 545.55 87.5 545 87.5H542C541.45 87.5 541 87.95 541 88.5C541 89.05 541.45 89.5 542 89.5ZM542 96.5H545C545.55 96.5 546 96.05 546 95.5C546 94.95 545.55 94.5 545 94.5H542C541.45 94.5 541 94.95 541 95.5C541 96.05 541.45 96.5 542 96.5ZM547 101H533C531.9 101 531 100.1 531 99V85C531 83.9 531.9 83 533 83H547C548.1 83 549 83.9 549 85V99C549 100.1 548.1 101 547 101ZM535 91H538C538.55 91 539 90.55 539 90V87C539 86.45 538.55 86 538 86H535C534.45 86 534 86.45 534 87V90C534 90.55 534.45 91 535 91ZM535 87H538V90H535V87ZM535 98H538C538.55 98 539 97.55 539 97V94C539 93.45 538.55 93 538 93H535C534.45 93 534 93.45 534 94V97C534 97.55 534.45 98 535 98ZM535 94H538V97H535V94Z" fill="#323232"/>
</g>
<g clip-path="url(#clip9_17_17339)">
<path d="M591 99C589.9 99 589 99.9 589 101H603C603 99.9 602.1 99 601 99H597V97H600C601.1 97 602 96.1 602 95H594C592.34 95 591 93.66 591 92C591 90.91 591.59 89.96 592.46 89.44C592.17 89.03 592 88.54 592 88C592 87.79 592.04 87.58 592.09 87.38C590.28 88.13 589 89.92 589 92C589 94.76 591.24 97 594 97V99H591Z" fill="#323232"/>
<path d="M594.56 85.51C595.91 85.54 597 86.64 597 88C597 88.75 596.67 89.41 596.15 89.87L596.4 90.55C596.59 91.07 597.16 91.34 597.68 91.15C597.87 91.67 598.44 91.94 598.96 91.75C599.48 91.56 599.75 90.99 599.56 90.47C600.08 90.28 600.35 89.71 600.16 89.19L598.1 83.54C597.91 83.02 597.34 82.75 596.82 82.94C596.63 82.42 596.06 82.15 595.54 82.34C595.02 82.53 594.75 83.1 594.94 83.62C594.42 83.81 594.15 84.38 594.34 84.9L594.56 85.51Z" fill="#323232"/>
<path d="M594.5 89.5C595.328 89.5 596 88.8284 596 88C596 87.1716 595.328 86.5 594.5 86.5C593.672 86.5 593 87.1716 593 88C593 88.8284 593.672 89.5 594.5 89.5Z" fill="#323232"/>
</g>
<g clip-path="url(#clip10_17_17339)">
<path d="M92 138C86.48 138 82 142.48 82 148C82 153.52 86.48 158 92 158C97.52 158 102 153.52 102 148C102 142.48 97.52 138 92 138ZM84 148C84 143.58 87.58 140 92 140C93.85 140 95.55 140.63 96.9 141.69L85.69 152.9C84.63 151.55 84 149.85 84 148ZM92 156C90.15 156 88.45 155.37 87.1 154.31L98.31 143.1C99.37 144.45 100 146.15 100 148C100 152.42 96.42 156 92 156Z" fill="#323232"/>
</g>
<g clip-path="url(#clip11_17_17339)">
<path d="M155 139H141C139.9 139 139 139.9 139 141V155C139 156.1 139.9 157 141 157H155C156.1 157 157 156.1 157 155V141C157 139.9 156.1 139 155 139ZM149.56 142.53C149.85 142.24 150.33 142.24 150.62 142.53L151.5 143.41L152.38 142.53C152.67 142.24 153.15 142.24 153.44 142.53C153.73 142.82 153.73 143.3 153.44 143.59L152.56 144.47L153.44 145.35C153.73 145.64 153.73 146.12 153.44 146.41C153.15 146.7 152.67 146.7 152.38 146.41L151.5 145.54L150.62 146.42C150.33 146.71 149.85 146.71 149.56 146.42C149.27 146.13 149.27 145.65 149.56 145.36L150.44 144.48L149.56 143.6C149.26 143.3 149.26 142.82 149.56 142.53ZM143 143.72H146.5C146.91 143.72 147.25 144.06 147.25 144.47C147.25 144.88 146.91 145.22 146.5 145.22H143C142.59 145.22 142.25 144.88 142.25 144.47C142.25 144.06 142.59 143.72 143 143.72ZM146.75 152H145.5V153.25C145.5 153.66 145.16 154 144.75 154C144.34 154 144 153.66 144 153.25V152H142.75C142.34 152 142 151.66 142 151.25C142 150.84 142.34 150.5 142.75 150.5H144V149.25C144 148.84 144.34 148.5 144.75 148.5C145.16 148.5 145.5 148.84 145.5 149.25V150.5H146.75C147.16 150.5 147.5 150.84 147.5 151.25C147.5 151.66 147.16 152 146.75 152ZM153.25 153.25H149.75C149.34 153.25 149 152.91 149 152.5C149 152.09 149.34 151.75 149.75 151.75H153.25C153.66 151.75 154 152.09 154 152.5C154 152.91 153.66 153.25 153.25 153.25ZM153.25 150.75H149.75C149.34 150.75 149 150.41 149 150C149 149.59 149.34 149.25 149.75 149.25H153.25C153.66 149.25 154 149.59 154 150C154 150.41 153.66 150.75 153.25 150.75Z" fill="#323232"/>
</g>
<g clip-path="url(#clip12_17_17339)">
<path d="M210.3 141.71C209.91 141.32 209.28 141.32 208.89 141.71L204 146.59L199.11 141.7C198.72 141.31 198.09 141.31 197.7 141.7C197.31 142.09 197.31 142.72 197.7 143.11L202.59 148L197.7 152.89C197.31 153.28 197.31 153.91 197.7 154.3C198.09 154.69 198.72 154.69 199.11 154.3L204 149.41L208.89 154.3C209.28 154.69 209.91 154.69 210.3 154.3C210.69 153.91 210.69 153.28 210.3 152.89L205.41 148L210.3 143.11C210.68 142.73 210.68 142.09 210.3 141.71Z" fill="#323232"/>
</g>
<g clip-path="url(#clip13_17_17339)">
<path d="M263 137H252C250.9 137 250 137.9 250 139V152C250 152.55 250.45 153 251 153C251.55 153 252 152.55 252 152V140C252 139.45 252.45 139 253 139H263C263.55 139 264 138.55 264 138C264 137.45 263.55 137 263 137ZM267 141H256C254.9 141 254 141.9 254 143V157C254 158.1 254.9 159 256 159H267C268.1 159 269 158.1 269 157V143C269 141.9 268.1 141 267 141ZM266 157H257C256.45 157 256 156.55 256 156V144C256 143.45 256.45 143 257 143H266C266.55 143 267 143.45 267 144V156C267 156.55 266.55 157 266 157Z" fill="#323232"/>
</g>
<g clip-path="url(#clip14_17_17339)">
<path d="M313.64 143.64C313.93 143.02 314.06 142.31 313.98 141.55C313.79 139.82 312.44 138.35 310.72 138.06C307.95 137.58 305.58 139.95 306.06 142.71C306.36 144.43 307.82 145.78 309.55 145.97C310.31 146.05 311.01 145.92 311.64 145.63L314 148L311.64 150.36C311.02 150.07 310.31 149.94 309.55 150.02C307.82 150.21 306.35 151.56 306.06 153.28C305.58 156.05 307.95 158.41 310.71 157.93C312.43 157.63 313.78 156.17 313.97 154.44C314.05 153.68 313.92 152.98 313.63 152.35L316 150L323.59 157.59C324.48 158.48 326 157.85 326 156.59V156.58C326 156.21 325.85 155.85 325.59 155.58L313.64 143.64ZM310 144C308.9 144 308 143.11 308 142C308 140.89 308.9 140 310 140C311.1 140 312 140.89 312 142C312 143.11 311.1 144 310 144ZM310 156C308.9 156 308 155.11 308 154C308 152.89 308.9 152 310 152C311.1 152 312 152.89 312 154C312 155.11 311.1 156 310 156ZM316 148.5C315.72 148.5 315.5 148.28 315.5 148C315.5 147.72 315.72 147.5 316 147.5C316.28 147.5 316.5 147.72 316.5 148C316.5 148.28 316.28 148.5 316 148.5ZM323.59 138.41L317 145L319 147L325.59 140.41C325.85 140.15 326 139.79 326 139.41V139.4C326 138.15 324.48 137.52 323.59 138.41Z" fill="#323232"/>
</g>
<g clip-path="url(#clip15_17_17339)">
<path d="M379 138H374.82C374.4 136.84 373.3 136 372 136C370.7 136 369.6 136.84 369.18 138H365C363.9 138 363 138.9 363 140V156C363 157.1 363.9 158 365 158H379C380.1 158 381 157.1 381 156V140C381 138.9 380.1 138 379 138ZM372 138C372.55 138 373 138.45 373 139C373 139.55 372.55 140 372 140C371.45 140 371 139.55 371 139C371 138.45 371.45 138 372 138ZM378 156H366C365.45 156 365 155.55 365 155V141C365 140.45 365.45 140 366 140H367V141C367 142.1 367.9 143 369 143H375C376.1 143 377 142.1 377 141V140H378C378.55 140 379 140.45 379 141V155C379 155.55 378.55 156 378 156Z" fill="#323232"/>
</g>
<g clip-path="url(#clip16_17_17339)">
<path d="M419 153.46V156.5C419 156.78 419.22 157 419.5 157H422.54C422.67 157 422.8 156.95 422.89 156.85L433.81 145.94L430.06 142.19L419.15 153.1C419.05 153.2 419 153.32 419 153.46ZM436.71 143.04C437.1 142.65 437.1 142.02 436.71 141.63L434.37 139.29C433.98 138.9 433.35 138.9 432.96 139.29L431.13 141.12L434.88 144.87L436.71 143.04Z" fill="#323232"/>
</g>
<g clip-path="url(#clip17_17_17339)">
<path d="M488 152H490C490.55 152 491 152.45 491 153C491 153.55 490.55 154 490 154H488C487.45 154 487 153.55 487 153C487 152.45 487.45 152 488 152ZM488 144H493C493.55 144 494 144.45 494 145C494 145.55 493.55 146 493 146H488C487.45 146 487 145.55 487 145C487 144.45 487.45 144 488 144ZM488 148H492C492.55 148 493 148.45 493 149C493 149.55 492.55 150 492 150H488C487.45 150 487 149.55 487 149C487 148.45 487.45 148 488 148ZM475 154C475 155.1 475.9 156 477 156H483C484.1 156 485 155.1 485 154V144H475V154ZM485 141H483L482.29 140.29C482.11 140.11 481.85 140 481.59 140H478.41C478.15 140 477.89 140.11 477.71 140.29L477 141H475C474.45 141 474 141.45 474 142C474 142.55 474.45 143 475 143H485C485.55 143 486 142.55 486 142C486 141.45 485.55 141 485 141Z" fill="#323232"/>
</g>
<g clip-path="url(#clip18_17_17339)">
<path d="M549.99 144C549.99 143.28 549.62 142.65 549.05 142.3L541.01 137.59C540.39 137.22 539.61 137.22 538.99 137.59L530.95 142.3C530.38 142.65 530 143.28 530 144V154C530 155.1 530.9 156 532 156H548C549.1 156 550 155.1 550 154L549.99 144ZM538.94 148.34L531.74 143.84L538.99 139.59C539.61 139.22 540.39 139.22 541.01 139.59L548.26 143.84L541.06 148.34C540.41 148.74 539.59 148.74 538.94 148.34Z" fill="#323232"/>
</g>
<g clip-path="url(#clip19_17_17339)">
<path d="M591 144C590.45 144 590 144.45 590 145V151C590 152.1 590.9 153 592 153H600C600.55 153 601 152.55 601 152C601 151.45 600.55 151 600 151H592V145C592 144.45 591.55 144 591 144Z" fill="#323232"/>
<path d="M604 139H596C594.9 139 594 139.9 594 141V147C594 148.1 594.9 149 596 149H604C605.1 149 606 148.1 606 147V141C606 139.9 605.1 139 604 139ZM603.5 147H596.5C596.22 147 596 146.78 596 146.5V143H604V146.5C604 146.78 603.78 147 603.5 147Z" fill="#323232"/>
<path d="M587 148C586.45 148 586 148.45 586 149V155C586 156.1 586.9 157 588 157H596C596.55 157 597 156.55 597 156C597 155.45 596.55 155 596 155H588V149C588 148.45 587.55 148 587 148Z" fill="#323232"/>
</g>
<g clip-path="url(#clip20_17_17339)">
<path d="M95 193H84C82.9 193 82 193.9 82 195V208C82 208.55 82.45 209 83 209C83.55 209 84 208.55 84 208V196C84 195.45 84.45 195 85 195H95C95.55 195 96 194.55 96 194C96 193.45 95.55 193 95 193ZM95.59 197.59L100.42 202.42C100.79 202.79 101 203.3 101 203.83V213C101 214.1 100.1 215 99 215H87.99C86.89 215 86 214.1 86 213L86.01 199C86.01 197.9 86.9 197 88 197H94.17C94.7 197 95.21 197.21 95.59 197.59ZM95 204H99.5L94 198.5V203C94 203.55 94.45 204 95 204Z" fill="#323232"/>
</g>
<g clip-path="url(#clip21_17_17339)">
<path d="M147 210H149C149.55 210 150 209.55 150 209C150 208.45 149.55 208 149 208H147C146.45 208 146 208.45 146 209C146 209.55 146.45 210 147 210ZM139 199C139 199.55 139.45 200 140 200H156C156.55 200 157 199.55 157 199C157 198.45 156.55 198 156 198H140C139.45 198 139 198.45 139 199ZM143 205H153C153.55 205 154 204.55 154 204C154 203.45 153.55 203 153 203H143C142.45 203 142 203.45 142 204C142 204.55 142.45 205 143 205Z" fill="#323232"/>
</g>
<g clip-path="url(#clip22_17_17339)">
<path d="M206.4 198L206.16 196.8C206.07 196.34 205.66 196 205.18 196H198C197.45 196 197 196.45 197 197V212C197 212.55 197.45 213 198 213C198.55 213 199 212.55 199 212V206H204.6L204.84 207.2C204.93 207.67 205.34 208 205.82 208H211C211.55 208 212 207.55 212 207V199C212 198.45 211.55 198 211 198H206.4Z" fill="#323232"/>
</g>
<g clip-path="url(#clip23_17_17339)">
<path d="M257.93 205.5H262.07L260 199.98L257.93 205.5ZM268 194H252C250.9 194 250 194.9 250 196V212C250 213.1 250.9 214 252 214H268C269.1 214 270 213.1 270 212V196C270 194.9 269.1 194 268 194ZM263.71 209.88L262.81 207.5H257.17L256.28 209.87C256.14 210.25 255.78 210.5 255.37 210.5C254.69 210.5 254.22 209.81 254.47 209.18L258.72 198.37C258.94 197.84 259.44 197.5 260 197.5C260.56 197.5 261.06 197.84 261.27 198.37L265.52 209.18C265.77 209.81 265.3 210.5 264.62 210.5C264.22 210.5 263.86 210.25 263.71 209.88Z" fill="#323232"/>
</g>
<g clip-path="url(#clip24_17_17339)">
<path d="M316 200V198.41C316 197.52 317.08 197.07 317.71 197.7L323.3 203.29C323.69 203.68 323.69 204.31 323.3 204.7L317.71 210.29C317.08 210.92 316 210.48 316 209.59V208H309C308.45 208 308 207.55 308 207V201C308 200.45 308.45 200 309 200H316Z" fill="#323232"/>
</g>
<g clip-path="url(#clip25_17_17339)">
<path d="M363.72 198.04C364.19 198.5 364.93 198.52 365.43 198.1C365.8 197.78 366.12 197.59 366.3 197.67C366.8 197.87 366.3 198.7 366 199.19C365.75 199.61 363.14 203.08 363.14 205.5C363.14 206.78 363.62 207.84 364.48 208.48C365.23 209.04 366.22 209.21 367.12 208.94C368.19 208.63 369.07 207.54 370.18 206.17C371.39 204.68 373.01 202.73 374.26 202.73C375.89 202.73 375.91 203.74 376.02 204.52C372.24 205.16 370.64 208.19 370.64 209.89C370.64 211.59 372.08 212.98 373.85 212.98C375.48 212.98 378.14 211.65 378.54 206.88H379.75C380.44 206.88 381 206.32 381 205.63C381 204.94 380.44 204.38 379.75 204.38H378.53C378.38 202.73 377.44 200.18 374.5 200.18C372.25 200.18 370.32 202.09 369.56 203.02C368.98 203.75 367.5 205.5 367.27 205.74C367.02 206.04 366.59 206.58 366.16 206.58C365.71 206.58 365.44 205.75 365.8 204.66C366.15 203.57 367.2 201.8 367.65 201.14C368.43 200 368.95 199.22 368.95 197.86C368.95 195.69 367.31 195 366.44 195C365.35 195 364.4 195.63 363.74 196.22C363.21 196.7 363.21 197.54 363.72 198.04ZM373.88 210.55C373.57 210.55 373.14 210.29 373.14 209.83C373.14 209.23 373.87 207.63 376.01 207.07C375.71 209.76 374.58 210.55 373.88 210.55Z" fill="#323232"/>
</g>
<g clip-path="url(#clip26_17_17339)">
<path d="M428 212L427.14 211.14C425.96 209.96 425.97 208.04 427.16 206.88L428 206.06C427.61 206.02 427.32 206 427 206C424.33 206 419 207.34 419 210V212H428ZM427 204C429.21 204 431 202.21 431 200C431 197.79 429.21 196 427 196C424.79 196 423 197.79 423 200C423 202.21 424.79 204 427 204Z" fill="#323232"/>
<path d="M432.18 211.78C431.79 212.17 431.15 212.17 430.76 211.78L428.69 209.69C428.31 209.3 428.31 208.68 428.69 208.3L428.7 208.29C429.09 207.9 429.72 207.9 430.1 208.29L431.47 209.66L435.9 205.2C436.29 204.81 436.92 204.81 437.31 205.2L437.32 205.21C437.7 205.6 437.7 206.22 437.32 206.6L432.18 211.78Z" fill="#323232"/>
</g>
<g clip-path="url(#clip27_17_17339)">
<path d="M483.34 207.02C483.73 207.41 484.36 207.41 484.75 207.02L491.11 200.66C491.5 200.27 491.5 199.64 491.11 199.25L486.16 194.3C485.78 193.9 485.15 193.9 484.76 194.29L478.39 200.66C478 201.05 478 201.68 478.39 202.07L483.34 207.02ZM485.46 196.41L489 199.95L484.05 204.9L480.51 201.36L485.46 196.41ZM492.41 207.41L490.29 205.29C490.11 205.11 489.85 205 489.59 205H489.32L487.32 207H489.23L491 209H477L478.78 207H480.83L478.83 205H478.41C478.14 205 477.89 205.11 477.7 205.29L475.58 207.41C475.21 207.79 475 208.3 475 208.83V212C475 213.1 475.9 214 477 214H491C492.1 214 493 213.11 493 212V208.83C493 208.3 492.79 207.79 492.41 207.41Z" fill="#323232"/>
</g>
<g clip-path="url(#clip28_17_17339)">
<path d="M547 195H532.99C531.88 195 531.01 195.89 531.01 197L531 211C531 212.1 531.88 213 532.99 213H547C548.1 213 549 212.1 549 211V197C549 195.89 548.1 195 547 195ZM547 207H543.87C543.4 207 543.02 207.34 542.89 207.8C542.54 209.07 541.37 210 540 210C538.63 210 537.46 209.07 537.11 207.8C536.98 207.34 536.6 207 536.13 207H533V198C533 197.45 533.45 197 534 197H546C546.55 197 547 197.45 547 198V207Z" fill="#323232"/>
</g>
<g clip-path="url(#clip29_17_17339)">
<path d="M605 200C603.55 200 602.74 201.44 603.07 202.51L599.52 206.07C599.22 205.98 598.78 205.98 598.48 206.07L595.93 203.52C596.27 202.45 595.46 201 594 201C592.55 201 591.73 202.44 592.07 203.52L587.51 208.07C586.44 207.74 585 208.55 585 210C585 211.1 585.9 212 587 212C588.45 212 589.26 210.56 588.93 209.49L593.48 204.93C593.78 205.02 594.22 205.02 594.52 204.93L597.07 207.48C596.73 208.55 597.54 210 599 210C600.45 210 601.27 208.56 600.93 207.48L604.49 203.93C605.56 204.26 607 203.45 607 202C607 200.9 606.1 200 605 200Z" fill="#323232"/>
<path d="M599 201L599.94 198.93L602 198L599.94 197.07L599 195L598.08 197.07L596 198L598.08 198.93L599 201Z" fill="#323232"/>
<path d="M587.5 203L588 201L590 200.5L588 200L587.5 198L587 200L585 200.5L587 201L587.5 203Z" fill="#323232"/>
</g>
<g clip-path="url(#clip30_17_17339)">
<path d="M97 255H94C93.45 255 93 255.45 93 256C93 256.55 93.45 257 94 257H97C98.65 257 100 258.35 100 260C100 261.65 98.65 263 97 263H94C93.45 263 93 263.45 93 264C93 264.55 93.45 265 94 265H97C99.76 265 102 262.76 102 260C102 257.24 99.76 255 97 255ZM88 260C88 260.55 88.45 261 89 261H95C95.55 261 96 260.55 96 260C96 259.45 95.55 259 95 259H89C88.45 259 88 259.45 88 260ZM90 263H87C85.35 263 84 261.65 84 260C84 258.35 85.35 257 87 257H90C90.55 257 91 256.55 91 256C91 255.45 90.55 255 90 255H87C84.24 255 82 257.24 82 260C82 262.76 84.24 265 87 265H90C90.55 265 91 264.55 91 264C91 263.45 90.55 263 90 263Z" fill="#323232"/>
</g>
<g clip-path="url(#clip31_17_17339)">
<path d="M157.94 259.23C157.57 256.76 155.32 255 152.82 255H149.95C149.43 255 149 255.43 149 255.95C149 256.47 149.43 256.9 149.95 256.9H152.85C154.45 256.9 155.89 258.04 156.07 259.63C156.24 261.06 155.43 262.32 154.22 262.85L155.62 264.25C157.25 263.23 158.26 261.34 157.94 259.23ZM140.12 251.56C139.73 251.17 139.1 251.17 138.71 251.56C138.32 251.95 138.32 252.58 138.71 252.97L141.11 255.37C139.17 256.17 137.84 258.14 138.02 260.41C138.23 263.05 140.59 265 143.23 265H146.05C146.57 265 147 264.57 147 264.05C147 263.53 146.57 263.1 146.05 263.1H143.16C141.53 263.1 140.06 261.91 139.91 260.28C139.76 258.56 141.02 257.11 142.66 256.93L144.76 259.03C144.33 259.12 144 259.49 144 259.95V260.05C144 260.57 144.43 261 144.95 261H146.73L149 263.27V265H150.73L154.03 268.3C154.42 268.69 155.05 268.69 155.44 268.3C155.83 267.91 155.83 267.28 155.44 266.89L140.12 251.56ZM152 259.95C152 259.43 151.57 259 151.05 259H150.39L151.88 260.49C151.95 260.36 152 260.21 152 260.05V259.95Z" fill="#323232"/>
</g>
<g clip-path="url(#clip32_17_17339)">
<path d="M207 253H213C213.55 253 214 253.45 214 254C214 254.55 213.55 255 213 255H207C206.45 255 206 254.55 206 254C206 253.45 206.45 253 207 253ZM207 258.5H213C213.55 258.5 214 258.95 214 259.5C214 260.05 213.55 260.5 213 260.5H207C206.45 260.5 206 260.05 206 259.5C206 258.95 206.45 258.5 207 258.5ZM207 264H213C213.55 264 214 264.45 214 265C214 265.55 213.55 266 213 266H207C206.45 266 206 265.55 206 265C206 264.45 206.45 264 207 264ZM201.85 267.15L203.64 265.36C203.84 265.16 203.84 264.85 203.64 264.65L201.85 262.86C201.54 262.54 201 262.76 201 263.21V266.8C201 267.24 201.54 267.46 201.85 267.15ZM201 264H200.7C198.35 264 196.25 262.29 196.02 259.95C195.76 257.27 197.87 255 200.5 255H203C203.55 255 204 254.55 204 254C204 253.45 203.55 253 203 253H200.5C196.64 253 193.54 256.4 194.06 260.36C194.48 263.64 197.43 266 200.73 266H201" fill="#323232"/>
</g>
<g clip-path="url(#clip33_17_17339)">
<path d="M268 252H252C250.9 252 250 252.9 250 254V266C250 267.1 250.9 268 252 268H268C269.1 268 270 267.1 270 266V254C270 252.9 269.1 252 268 252ZM267.6 256.25L261.06 260.34C260.41 260.75 259.59 260.75 258.94 260.34L252.4 256.25C252.15 256.09 252 255.82 252 255.53C252 254.86 252.73 254.46 253.3 254.81L260 259L266.7 254.81C267.27 254.46 268 254.86 268 255.53C268 255.82 267.85 256.09 267.6 256.25Z" fill="#323232"/>
</g>
<g clip-path="url(#clip34_17_17339)">
<path d="M324 252H308C306.9 252 306 252.9 306 254V266C306 267.1 306.9 268 308 268H324C325.1 268 326 267.1 326 266V254C326 252.9 325.1 252 324 252ZM323.6 256.25L317.06 260.34C316.41 260.75 315.59 260.75 314.94 260.34L308.4 256.25C308.15 256.09 308 255.82 308 255.53C308 254.86 308.73 254.46 309.3 254.81L316 259L322.7 254.81C323.27 254.46 324 254.86 324 255.53C324 255.82 323.85 256.09 323.6 256.25Z" fill="#323232"/>
</g>
<g clip-path="url(#clip35_17_17339)">
<path d="M379 251H364.99C363.88 251 363 251.9 363 253V267C363 268.1 363.88 269 364.99 269H379C380.1 269 381 268.1 381 267V253C381 251.9 380.1 251 379 251ZM379 263H375.87C375.4 263 375.02 263.34 374.89 263.8C374.54 265.07 373.37 266 372 266C370.63 266 369.46 265.07 369.11 263.8C368.98 263.34 368.6 263 368.13 263H364.99V254C364.99 253.45 365.44 253 365.99 253H378C378.55 253 379 253.45 379 254V263ZM376 258H374V255H370V258H368L371.65 261.65C371.85 261.85 372.16 261.85 372.36 261.65L376 258Z" fill="#323232"/>
</g>
<g clip-path="url(#clip36_17_17339)">
<path d="M436 255H432V253C432 252.45 431.78 251.95 431.41 251.59C431.05 251.22 430.55 251 430 251H426C424.9 251 424 251.9 424 253V255H420C418.9 255 418 255.9 418 257V268C418 269.1 418.9 270 420 270H436C437.1 270 438 269.1 438 268V257C438 255.9 437.1 255 436 255ZM426 253H430V255H426V253ZM426.5 266C426.22 265.72 426.22 265.28 426.5 265L429 262.5L426.5 260C426.22 259.72 426.22 259.28 426.5 259C426.78 258.72 427.22 258.72 427.5 259L430.65 262.15C430.85 262.35 430.85 262.66 430.65 262.86L427.5 266C427.22 266.28 426.78 266.28 426.5 266Z" fill="#323232"/>
</g>
<g clip-path="url(#clip37_17_17339)">
<path d="M486 254L485.28 252.55C485.11 252.21 484.76 252 484.38 252H478C477.45 252 477 252.45 477 253V268C477 268.55 477.45 269 478 269C478.55 269 479 268.55 479 268V262H484L484.72 263.45C484.89 263.79 485.24 264 485.61 264H491C491.55 264 492 263.55 492 263V255C492 254.45 491.55 254 491 254H486ZM490 262H486L485 260H479V254H484L485 256H490V262Z" fill="#323232"/>
</g>
<g clip-path="url(#clip38_17_17339)">
<path d="M549 254.3C549 253.51 548.53 252.79 547.81 252.47L540.81 249.36C540.29 249.13 539.7 249.13 539.19 249.36L532.19 252.47C531.47 252.79 531 253.51 531 254.3V259C531 264.55 534.84 269.74 540 271C542.3 270.44 544.33 269.1 545.88 267.29L542.76 264.17C540.82 265.46 538.18 265.24 536.47 263.53C534.52 261.58 534.52 258.41 536.47 256.46C538.42 254.51 541.59 254.51 543.54 256.46C545.25 258.17 545.46 260.81 544.18 262.75L547.08 265.65C548.29 263.69 549 261.38 549 259V254.3Z" fill="#323232"/>
<path d="M540 263C541.657 263 543 261.657 543 260C543 258.343 541.657 257 540 257C538.343 257 537 258.343 537 260C537 261.657 538.343 263 540 263Z" fill="#323232"/>
</g>
<g clip-path="url(#clip39_17_17339)">
<path fill-rule="evenodd" clip-rule="evenodd" d="M603 260.87C603 260.4 602.66 260.02 602.2 259.89C600.93 259.54 600 258.38 600 257V252H601C601.55 252 602 251.55 602 251C602 250.45 601.55 250 601 250H591C590.45 250 590 250.45 590 251C590 251.55 590.45 252 591 252H592V257C592 258.38 591.07 259.54 589.8 259.89C589.34 260.02 589 260.4 589 260.87V261C589 261.55 589.45 262 590 262H594.98L595 269C595 269.55 595.45 270 596 270C596.55 270 597 269.55 597 269L596.98 262H602C602.55 262 603 261.55 603 261V260.87Z" fill="#323232"/>
</g>
<g clip-path="url(#clip40_17_17339)">
<path d="M98.4 314.6C96.55 312.99 94.15 312 91.5 312C87.34 312 83.76 314.42 82.06 317.93C81.74 318.6 82.1 319.4 82.81 319.64C83.4 319.84 84.04 319.56 84.31 319C85.61 316.34 88.34 314.5 91.5 314.5C93.45 314.5 95.23 315.22 96.62 316.38L94.71 318.29C94.08 318.92 94.52 320 95.41 320H101C101.55 320 102 319.55 102 319V313.41C102 312.52 100.92 312.07 100.29 312.7L98.4 314.6Z" fill="#323232"/>
</g>
<g clip-path="url(#clip41_17_17339)">
<path d="M154 317H142C141.45 317 141 316.55 141 316C141 315.45 141.45 315 142 315H154C154.55 315 155 315.45 155 316C155 316.55 154.55 317 154 317Z" fill="#323232"/>
</g>
<g clip-path="url(#clip42_17_17339)">
<path d="M204 306C198.48 306 194 310.48 194 316C194 321.52 198.48 326 204 326C209.52 326 214 321.52 214 316C214 310.48 209.52 306 204 306ZM208 317H200C199.45 317 199 316.55 199 316C199 315.45 199.45 315 200 315H208C208.55 315 209 315.45 209 316C209 316.55 208.55 317 208 317Z" fill="#323232"/>
</g>
<g clip-path="url(#clip43_17_17339)">
<path d="M255 316C255 316.55 255.45 317 256 317H264C264.55 317 265 316.55 265 316C265 315.45 264.55 315 264 315H256C255.45 315 255 315.45 255 316ZM260 306C254.48 306 250 310.48 250 316C250 321.52 254.48 326 260 326C265.52 326 270 321.52 270 316C270 310.48 265.52 306 260 306ZM260 324C255.59 324 252 320.41 252 316C252 311.59 255.59 308 260 308C264.41 308 268 311.59 268 316C268 320.41 264.41 324 260 324Z" fill="#323232"/>
</g>
<g clip-path="url(#clip44_17_17339)">
<path d="M314 313V311.41C314 310.52 312.92 310.07 312.29 310.7L307.7 315.29C307.31 315.68 307.31 316.31 307.7 316.7L312.29 321.29C312.92 321.92 314 321.48 314 320.59V318.9C319 318.9 322.5 320.5 325 324C324 319 321 314 314 313Z" fill="#323232"/>
</g>
<g clip-path="url(#clip45_17_17339)">
<path d="M367 311.56C367 310.62 365.86 310.14 365.19 310.81L360.71 315.29C360.32 315.68 360.32 316.31 360.71 316.7L365.19 321.18C365.86 321.86 367 321.38 367 320.44C367 320.16 366.89 319.89 366.69 319.69L363 316L366.69 312.31C366.89 312.11 367 311.84 367 311.56ZM373 313V311.41C373 310.52 371.92 310.07 371.29 310.7L366.7 315.29C366.31 315.68 366.31 316.31 366.7 316.7L371.29 321.29C371.92 321.92 373 321.47 373 320.58V318.9C378 318.9 381.5 320.5 384 324C383 319 380 314 373 313Z" fill="#323232"/>
</g>
<g clip-path="url(#clip46_17_17339)">
<path d="M431.32 307H424.68C424.42 307 424.16 307.11 423.98 307.29L419.29 311.98C419.11 312.16 419 312.42 419 312.68V319.31C419 319.58 419.11 319.83 419.29 320.02L423.97 324.7C424.16 324.89 424.42 325 424.68 325H431.31C431.58 325 431.83 324.89 432.02 324.71L436.7 320.03C436.89 319.84 436.99 319.59 436.99 319.32V312.68C436.99 312.41 436.88 312.16 436.7 311.97L432.02 307.29C431.84 307.11 431.58 307 431.32 307ZM428 321.3C427.28 321.3 426.7 320.72 426.7 320C426.7 319.28 427.28 318.7 428 318.7C428.72 318.7 429.3 319.28 429.3 320C429.3 320.72 428.72 321.3 428 321.3ZM428 317C427.45 317 427 316.55 427 316V312C427 311.45 427.45 311 428 311C428.55 311 429 311.45 429 312V316C429 316.55 428.55 317 428 317Z" fill="#323232"/>
</g>
<g clip-path="url(#clip47_17_17339)">
<path d="M492.71 311.98L488.03 307.3C487.84 307.11 487.58 307 487.32 307H480.68C480.42 307 480.16 307.11 479.98 307.29L475.29 311.98C475.11 312.16 475 312.42 475 312.68V319.31C475 319.58 475.11 319.83 475.29 320.02L479.97 324.7C480.16 324.89 480.42 325 480.68 325H487.31C487.58 325 487.83 324.89 488.02 324.71L492.7 320.03C492.89 319.84 492.99 319.59 492.99 319.32V312.68C493 312.42 492.89 312.16 492.71 311.98ZM491 318.9L486.9 323H481.1L477 318.9V313.1L481.1 309H486.9L491 313.1V318.9Z" fill="#323232"/>
<path d="M484 321C484.552 321 485 320.552 485 320C485 319.448 484.552 319 484 319C483.448 319 483 319.448 483 320C483 320.552 483.448 321 484 321Z" fill="#323232"/>
<path d="M484 311C483.45 311 483 311.45 483 312V317C483 317.55 483.45 318 484 318C484.55 318 485 317.55 485 317V312C485 311.45 484.55 311 484 311Z" fill="#323232"/>
</g>
<g clip-path="url(#clip48_17_17339)">
<path d="M540 311C540.55 311 541 311.45 541 312V313.33L548.2 320.53L548.71 320.02C548.9 319.83 549 319.58 549 319.31V312.68C549 312.41 548.89 312.16 548.71 311.97L544.03 307.29C543.84 307.11 543.58 307 543.32 307H536.68C536.42 307 536.16 307.11 535.98 307.29L535.47 307.8L539.16 311.49C539.33 311.2 539.64 311 540 311ZM530.41 305.58L529 306.99L532.64 310.63L531.29 311.98C531.11 312.16 531 312.42 531 312.68V319.31C531 319.58 531.11 319.83 531.29 320.02L535.97 324.7C536.16 324.89 536.42 325 536.68 325H543.31C543.58 325 543.83 324.89 544.02 324.71L545.37 323.36L549.01 327L550.42 325.59L530.41 305.58ZM540 321.3C539.28 321.3 538.7 320.72 538.7 320C538.7 319.28 539.28 318.7 540 318.7C540.72 318.7 541.3 319.28 541.3 320C541.3 320.72 540.72 321.3 540 321.3Z" fill="#323232"/>
</g>
<g clip-path="url(#clip49_17_17339)">
<path d="M601.59 307.59C601.21 307.21 600.7 307 600.17 307H589C587.89 307 587 307.9 587 309V323C587 324.1 587.9 325 589 325H603C604.1 325 605 324.1 605 323V311.83C605 311.3 604.79 310.79 604.41 310.42L601.59 307.59ZM596 323C594.34 323 593 321.66 593 320C593 318.34 594.34 317 596 317C597.66 317 599 318.34 599 320C599 321.66 597.66 323 596 323ZM597 313H591C589.9 313 589 312.1 589 311C589 309.9 589.9 309 591 309H597C598.1 309 599 309.9 599 311C599 312.1 598.1 313 597 313Z" fill="#323232"/>
</g>
<g clip-path="url(#clip50_17_17339)">
<path d="M99 373V378C99 378.55 98.55 379 98 379H86C85.45 379 85 378.55 85 378V373C85 372.45 84.55 372 84 372C83.45 372 83 372.45 83 373V379C83 380.1 83.9 381 85 381H99C100.1 381 101 380.1 101 379V373C101 372.45 100.55 372 100 372C99.45 372 99 372.45 99 373ZM93 372.67L94.88 370.79C95.27 370.4 95.9 370.4 96.29 370.79C96.68 371.18 96.68 371.81 96.29 372.2L92.7 375.79C92.31 376.18 91.68 376.18 91.29 375.79L87.7 372.2C87.31 371.81 87.31 371.18 87.7 370.79C88.09 370.4 88.72 370.4 89.11 370.79L91 372.67V364C91 363.45 91.45 363 92 363C92.55 363 93 363.45 93 364V372.67Z" fill="#323232"/>
</g>
<g clip-path="url(#clip51_17_17339)">
<path d="M139 365H141V363C139.9 363 139 363.9 139 365ZM139 373H141V371H139V373ZM143 381H145V379H143V381ZM139 369H141V367H139V369ZM149 363H147V365H149V363ZM155 363V365H157C157 363.9 156.1 363 155 363ZM141 381V379H139C139 380.1 139.9 381 141 381ZM139 377H141V375H139V377ZM145 363H143V365H145V363ZM147 381H149V379H147V381ZM155 373H157V371H155V373ZM155 381C156.1 381 157 380.1 157 379H155V381ZM155 369H157V367H155V369ZM155 377H157V375H155V377ZM151 381H153V379H151V381ZM151 365H153V363H151V365ZM144 377H152C152.55 377 153 376.55 153 376V368C153 367.45 152.55 367 152 367H144C143.45 367 143 367.45 143 368V376C143 376.55 143.45 377 144 377ZM145 369H151V375H145V369Z" fill="#323232"/>
</g>
<g clip-path="url(#clip52_17_17339)">
<path d="M195.4 380.4L212.85 372.92C213.66 372.57 213.66 371.43 212.85 371.08L195.4 363.6C194.74 363.31 194.01 363.8 194.01 364.51L194 369.12C194 369.62 194.37 370.05 194.87 370.11L209 372L194.87 373.88C194.37 373.95 194 374.38 194 374.88L194.01 379.49C194.01 380.2 194.74 380.69 195.4 380.4Z" fill="#323232"/>
</g>
<g clip-path="url(#clip53_17_17339)">
<path d="M252 378H256C256.55 378 257 377.55 257 377C257 376.45 256.55 376 256 376H252C251.45 376 251 376.45 251 377C251 377.55 251.45 378 252 378ZM251 367C251 367.55 251.45 368 252 368H268C268.55 368 269 367.55 269 367C269 366.45 268.55 366 268 366H252C251.45 366 251 366.45 251 367ZM252 373H262C262.55 373 263 372.55 263 372C263 371.45 262.55 371 262 371H252C251.45 371 251 371.45 251 372C251 372.55 251.45 373 252 373Z" fill="#323232"/>
</g>
<g clip-path="url(#clip54_17_17339)">
<path d="M321.66 377.66L320.95 378.37C320.75 378.57 320.44 378.57 320.24 378.37C320.04 378.17 320.04 377.86 320.24 377.66L320.95 376.95L319.01 375.01L318.3 375.72C318.1 375.92 317.79 375.92 317.59 375.72C317.39 375.52 317.39 375.21 317.59 375.01L318.3 374.3L316.36 372.36L315.65 373.07C315.45 373.27 315.14 373.27 314.94 373.07C314.74 372.87 314.74 372.56 314.94 372.36L315.65 371.65L313.7 369.7L312.99 370.41C312.79 370.61 312.48 370.61 312.28 370.41C312.08 370.21 312.08 369.9 312.28 369.7L312.99 368.99L311.05 367.05L310.34 367.76C310.14 367.96 309.83 367.96 309.63 367.76C309.43 367.56 309.43 367.25 309.63 367.05L310.34 366.34L308.85 364.85C308.54 364.54 308 364.76 308 365.21V378C308 379.1 308.9 380 310 380H322.79C323.24 380 323.46 379.46 323.14 379.15L321.66 377.66ZM311 376V371.24L316.76 377H312C311.45 377 311 376.55 311 376Z" fill="#323232"/>
</g>
<g clip-path="url(#clip55_17_17339)">
<path d="M365 378C365 378.55 365.45 379 366 379H378C378.55 379 379 378.55 379 378C379 377.45 378.55 377 378 377H366C365.45 377 365 377.45 365 378ZM369.5 372.8H374.5L375.16 374.4C375.31 374.76 375.66 375 376.05 375C376.74 375 377.2 374.29 376.93 373.66L373.05 364.69C372.87 364.27 372.46 364 372 364C371.54 364 371.13 364.27 370.95 364.69L367.07 373.66C366.8 374.29 367.27 375 367.96 375C368.35 375 368.7 374.76 368.85 374.4L369.5 372.8ZM372 365.98L373.87 371H370.13L372 365.98Z" fill="#323232"/>
</g>
<g clip-path="url(#clip56_17_17339)">
<path d="M436.55 365.22L435.16 363.54C434.88 363.21 434.47 363 434 363H422C421.53 363 421.12 363.21 420.85 363.55L419.46 365.22C419.17 365.57 419 366.01 419 366.5V379C419 380.1 419.89 381 421 381H435C436.1 381 437 380.1 437 379V366.5C437 366.01 436.83 365.57 436.55 365.22ZM428.35 369.85L433.5 375H430V377H426V375H422.5L427.65 369.85C427.84 369.66 428.16 369.66 428.35 369.85ZM421.12 365L421.94 364H433.94L434.87 365H421.12Z" fill="#323232"/>
</g>
<g clip-path="url(#clip57_17_17339)">
<path d="M484.5 368C481.85 368 479.45 368.99 477.6 370.6L475.71 368.71C475.08 368.08 474 368.52 474 369.41V375C474 375.55 474.45 376 475 376H480.59C481.48 376 481.93 374.92 481.3 374.29L479.39 372.38C480.78 371.22 482.55 370.5 484.51 370.5C487.67 370.5 490.4 372.34 491.7 375C491.97 375.56 492.61 375.84 493.2 375.64C493.91 375.41 494.27 374.6 493.95 373.92C492.23 370.42 488.65 368 484.5 368Z" fill="#323232"/>
</g>
<g clip-path="url(#clip58_17_17339)">
<path d="M545 376.99C543.65 376.99 542.8 377.41 542.05 377.79C541.4 378.12 540.87 378.39 540 378.39C539.1 378.39 538.6 378.14 537.95 377.79C537.2 377.41 536.38 376.99 535 376.99C533.62 376.99 532.8 377.41 532.05 377.79C531.62 378.01 531.24 378.2 530.78 378.31C530.33 378.41 530 378.77 530 379.22V379.32C530 379.92 530.56 380.35 531.14 380.23C531.88 380.08 532.44 379.8 532.95 379.54C533.6 379.21 534.12 378.94 535 378.94C535.88 378.94 536.4 379.19 537.05 379.54C537.8 379.92 538.62 380.34 540 380.34C541.38 380.34 542.2 379.92 542.95 379.54C543.6 379.21 544.13 378.94 545 378.94C545.9 378.94 546.4 379.19 547.05 379.54C547.57 379.8 548.13 380.09 548.88 380.24C549.46 380.35 550 379.91 550 379.33V379.24C550 378.78 549.66 378.42 549.21 378.32C548.75 378.22 548.38 378.03 547.95 377.8C547.2 377.41 546.35 376.99 545 376.99ZM545 372.54C543.65 372.54 542.8 372.97 542.05 373.34C541.4 373.66 540.87 373.94 540 373.94C539.1 373.94 538.6 373.69 537.95 373.34C537.2 372.96 536.38 372.54 535 372.54C533.62 372.54 532.8 372.97 532.05 373.34C531.62 373.55 531.24 373.75 530.77 373.86C530.33 373.96 530 374.32 530 374.77V374.87C530 375.46 530.54 375.9 531.12 375.78C531.87 375.63 532.43 375.34 532.95 375.09C533.6 374.74 534.1 374.49 535 374.49C535.9 374.49 536.4 374.74 537.05 375.09C537.8 375.47 538.62 375.89 540 375.89C541.38 375.89 542.2 375.46 542.95 375.09C543.6 374.74 544.1 374.49 545 374.49C545.9 374.49 546.4 374.74 547.05 375.09C547.57 375.35 548.13 375.64 548.88 375.79C549.46 375.9 550 375.46 550 374.87V374.78C550 374.32 549.66 373.96 549.21 373.86C548.75 373.76 548.38 373.57 547.95 373.34C547.2 372.96 546.35 372.54 545 372.54ZM547.95 364.46C547.2 364.08 546.37 363.66 545 363.66C543.63 363.66 542.8 364.08 542.05 364.46C541.4 364.78 540.87 365.06 540 365.06C539.1 365.06 538.6 364.81 537.95 364.46C537.2 364.09 536.38 363.66 535 363.66C533.62 363.66 532.8 364.08 532.05 364.46C531.62 364.68 531.24 364.87 530.78 364.98C530.33 365.08 530 365.44 530 365.89V365.96C530 366.56 530.54 367 531.12 366.88C531.87 366.73 532.43 366.44 532.95 366.19C533.6 365.86 534.12 365.59 535 365.59C535.88 365.59 536.4 365.84 537.05 366.19C537.8 366.57 538.62 366.99 540 366.99C541.38 366.99 542.2 366.56 542.95 366.19C543.6 365.87 544.13 365.59 545 365.59C545.9 365.59 546.4 365.84 547.05 366.19C547.57 366.45 548.13 366.74 548.88 366.89C549.46 367 550 366.56 550 365.97V365.88C550 365.42 549.66 365.06 549.21 364.96C548.75 364.86 548.38 364.68 547.95 364.46ZM545 368.09C543.65 368.09 542.8 368.52 542.05 368.89C541.4 369.24 540.9 369.49 540 369.49C539.1 369.49 538.6 369.24 537.95 368.89C537.2 368.51 536.38 368.09 535 368.09C533.62 368.09 532.8 368.52 532.05 368.89C531.62 369.12 531.25 369.31 530.79 369.41C530.34 369.51 530 369.87 530 370.33V370.42C530 371.01 530.54 371.45 531.12 371.33C531.87 371.18 532.43 370.89 532.95 370.64C533.6 370.32 534.13 370.04 535 370.04C535.87 370.04 536.4 370.29 537.05 370.64C537.8 371.02 538.62 371.44 540 371.44C541.38 371.44 542.2 371.01 542.95 370.64C543.6 370.32 544.13 370.04 545 370.04C545.9 370.04 546.4 370.29 547.05 370.64C547.57 370.9 548.13 371.19 548.88 371.34C549.46 371.45 550 371.01 550 370.43V370.34C550 369.88 549.66 369.52 549.21 369.42C548.75 369.32 548.38 369.13 547.95 368.9C547.2 368.51 546.35 368.09 545 368.09Z" fill="#323232"/>
</g>
<g clip-path="url(#clip59_17_17339)">
<path d="M605 370C603.9 370 603 370.9 603 372V375H589V372C589 370.9 588.1 370 587 370C585.9 370 585 370.9 585 372V377C585 378.1 585.9 379 587 379H605C606.1 379 607 378.1 607 377V372C607 370.9 606.1 370 605 370ZM602 365H590C588.9 365 588 365.9 588 367V369.15C589.16 369.56 590 370.66 590 371.97V374H602V371.97C602 370.67 602.84 369.57 604 369.15V367C604 365.9 603.1 365 602 365Z" fill="#323232"/>
</g>
<g clip-path="url(#clip60_17_17339)">
<path d="M92 418C88.14 418 85 421.14 85 425C85 429.17 89.42 434.92 91.23 437.11C91.63 437.59 92.36 437.59 92.76 437.11C94.58 434.92 99 429.17 99 425C99 421.14 95.86 418 92 418ZM96.31 424.16L91.18 429.29C90.79 429.68 90.16 429.68 89.77 429.29L87.7 427.22C87.31 426.83 87.31 426.19 87.7 425.8C88.09 425.41 88.73 425.41 89.12 425.8L90.48 427.16L94.9 422.74C95.29 422.35 95.93 422.35 96.32 422.74C96.7 423.14 96.7 423.77 96.31 424.16Z" fill="#323232"/>
</g>
<defs>
<clipPath id="clip0_17_17339">
<rect width="24" height="24" fill="white" transform="translate(80 80)"/>
</clipPath>
<clipPath id="clip1_17_17339">
<rect width="24" height="24" fill="white" transform="translate(136 80)"/>
</clipPath>
<clipPath id="clip2_17_17339">
<rect width="24" height="24" fill="white" transform="translate(192 80)"/>
</clipPath>
<clipPath id="clip3_17_17339">
<rect width="24" height="24" fill="white" transform="translate(248 80)"/>
</clipPath>
<clipPath id="clip4_17_17339">
<rect width="24" height="24" fill="white" transform="translate(304 80)"/>
</clipPath>
<clipPath id="clip5_17_17339">
<rect width="24" height="24" fill="white" transform="translate(360 80)"/>
</clipPath>
<clipPath id="clip6_17_17339">
<rect width="24" height="24" fill="white" transform="translate(416 80)"/>
</clipPath>
<clipPath id="clip7_17_17339">
<rect width="24" height="24" fill="white" transform="translate(472 80)"/>
</clipPath>
<clipPath id="clip8_17_17339">
<rect width="24" height="24" fill="white" transform="translate(528 80)"/>
</clipPath>
<clipPath id="clip9_17_17339">
<rect width="24" height="24" fill="white" transform="translate(584 80)"/>
</clipPath>
<clipPath id="clip10_17_17339">
<rect width="24" height="24" fill="white" transform="translate(80 136)"/>
</clipPath>
<clipPath id="clip11_17_17339">
<rect width="24" height="24" fill="white" transform="translate(136 136)"/>
</clipPath>
<clipPath id="clip12_17_17339">
<rect width="24" height="24" fill="white" transform="translate(192 136)"/>
</clipPath>
<clipPath id="clip13_17_17339">
<rect width="24" height="24" fill="white" transform="translate(248 136)"/>
</clipPath>
<clipPath id="clip14_17_17339">
<rect width="24" height="24" fill="white" transform="translate(304 136)"/>
</clipPath>
<clipPath id="clip15_17_17339">
<rect width="24" height="24" fill="white" transform="translate(360 136)"/>
</clipPath>
<clipPath id="clip16_17_17339">
<rect width="24" height="24" fill="white" transform="translate(416 136)"/>
</clipPath>
<clipPath id="clip17_17_17339">
<rect width="24" height="24" fill="white" transform="translate(472 136)"/>
</clipPath>
<clipPath id="clip18_17_17339">
<rect width="24" height="24" fill="white" transform="translate(528 136)"/>
</clipPath>
<clipPath id="clip19_17_17339">
<rect width="24" height="24" fill="white" transform="translate(584 136)"/>
</clipPath>
<clipPath id="clip20_17_17339">
<rect width="24" height="24" fill="white" transform="translate(80 192)"/>
</clipPath>
<clipPath id="clip21_17_17339">
<rect width="24" height="24" fill="white" transform="translate(136 192)"/>
</clipPath>
<clipPath id="clip22_17_17339">
<rect width="24" height="24" fill="white" transform="translate(192 192)"/>
</clipPath>
<clipPath id="clip23_17_17339">
<rect width="24" height="24" fill="white" transform="translate(248 192)"/>
</clipPath>
<clipPath id="clip24_17_17339">
<rect width="24" height="24" fill="white" transform="translate(304 192)"/>
</clipPath>
<clipPath id="clip25_17_17339">
<rect width="24" height="24" fill="white" transform="translate(360 192)"/>
</clipPath>
<clipPath id="clip26_17_17339">
<rect width="24" height="24" fill="white" transform="translate(416 192)"/>
</clipPath>
<clipPath id="clip27_17_17339">
<rect width="24" height="24" fill="white" transform="translate(472 192)"/>
</clipPath>
<clipPath id="clip28_17_17339">
<rect width="24" height="24" fill="white" transform="translate(528 192)"/>
</clipPath>
<clipPath id="clip29_17_17339">
<rect width="24" height="24" fill="white" transform="translate(584 192)"/>
</clipPath>
<clipPath id="clip30_17_17339">
<rect width="24" height="24" fill="white" transform="translate(80 248)"/>
</clipPath>
<clipPath id="clip31_17_17339">
<rect width="24" height="24" fill="white" transform="translate(136 248)"/>
</clipPath>
<clipPath id="clip32_17_17339">
<rect width="24" height="24" fill="white" transform="translate(192 248)"/>
</clipPath>
<clipPath id="clip33_17_17339">
<rect width="24" height="24" fill="white" transform="translate(248 248)"/>
</clipPath>
<clipPath id="clip34_17_17339">
<rect width="24" height="24" fill="white" transform="translate(304 248)"/>
</clipPath>
<clipPath id="clip35_17_17339">
<rect width="24" height="24" fill="white" transform="translate(360 248)"/>
</clipPath>
<clipPath id="clip36_17_17339">
<rect width="24" height="24" fill="white" transform="translate(416 248)"/>
</clipPath>
<clipPath id="clip37_17_17339">
<rect width="24" height="24" fill="white" transform="translate(472 248)"/>
</clipPath>
<clipPath id="clip38_17_17339">
<rect width="24" height="24" fill="white" transform="translate(528 248)"/>
</clipPath>
<clipPath id="clip39_17_17339">
<rect width="24" height="24" fill="white" transform="translate(584 248)"/>
</clipPath>
<clipPath id="clip40_17_17339">
<rect width="24" height="24" fill="white" transform="translate(80 304)"/>
</clipPath>
<clipPath id="clip41_17_17339">
<rect width="24" height="24" fill="white" transform="translate(136 304)"/>
</clipPath>
<clipPath id="clip42_17_17339">
<rect width="24" height="24" fill="white" transform="translate(192 304)"/>
</clipPath>
<clipPath id="clip43_17_17339">
<rect width="24" height="24" fill="white" transform="translate(248 304)"/>
</clipPath>
<clipPath id="clip44_17_17339">
<rect width="24" height="24" fill="white" transform="translate(304 304)"/>
</clipPath>
<clipPath id="clip45_17_17339">
<rect width="24" height="24" fill="white" transform="translate(360 304)"/>
</clipPath>
<clipPath id="clip46_17_17339">
<rect width="24" height="24" fill="white" transform="translate(416 304)"/>
</clipPath>
<clipPath id="clip47_17_17339">
<rect width="24" height="24" fill="white" transform="translate(472 304)"/>
</clipPath>
<clipPath id="clip48_17_17339">
<rect width="24" height="24" fill="white" transform="translate(528 304)"/>
</clipPath>
<clipPath id="clip49_17_17339">
<rect width="24" height="24" fill="white" transform="translate(584 304)"/>
</clipPath>
<clipPath id="clip50_17_17339">
<rect width="24" height="24" fill="white" transform="translate(80 360)"/>
</clipPath>
<clipPath id="clip51_17_17339">
<rect width="24" height="24" fill="white" transform="translate(136 360)"/>
</clipPath>
<clipPath id="clip52_17_17339">
<rect width="24" height="24" fill="white" transform="translate(192 360)"/>
</clipPath>
<clipPath id="clip53_17_17339">
<rect width="24" height="24" fill="white" transform="translate(248 360)"/>
</clipPath>
<clipPath id="clip54_17_17339">
<rect width="24" height="24" fill="white" transform="translate(304 360)"/>
</clipPath>
<clipPath id="clip55_17_17339">
<rect width="24" height="24" fill="white" transform="translate(360 360)"/>
</clipPath>
<clipPath id="clip56_17_17339">
<rect width="24" height="24" fill="white" transform="translate(416 360)"/>
</clipPath>
<clipPath id="clip57_17_17339">
<rect width="24" height="24" fill="white" transform="translate(472 360)"/>
</clipPath>
<clipPath id="clip58_17_17339">
<rect width="24" height="24" fill="white" transform="translate(528 360)"/>
</clipPath>
<clipPath id="clip59_17_17339">
<rect width="24" height="24" fill="white" transform="translate(584 360)"/>
</clipPath>
<clipPath id="clip60_17_17339">
<rect width="24" height="24" fill="white" transform="translate(80 416)"/>
</clipPath>
</defs>
</svg>
