<svg width="688" height="464" viewBox="0 0 688 464" fill="none" xmlns="http://www.w3.org/2000/svg">
<rect x="0.5" y="0.5" width="687" height="463" rx="31.5" stroke="#CCCCCC"/>
<g clip-path="url(#clip0_17_17276)">
<path d="M95.87 95.25L92.5 93.25V88.72C92.5 88.32 92.18 88 91.78 88H91.72C91.32 88 91 88.32 91 88.72V93.44C91 93.79 91.18 94.12 91.49 94.3L95.14 96.49C95.48 96.69 95.92 96.59 96.12 96.25C96.33 95.9 96.22 95.45 95.87 95.25ZM101.18 85.01L98.1 82.45C97.68 82.1 97.05 82.15 96.69 82.58C96.34 83 96.4 83.63 96.82 83.99L99.89 86.55C100.31 86.9 100.94 86.85 101.3 86.42C101.66 86 101.6 85.37 101.18 85.01ZM84.1 86.55L87.17 83.99C87.6 83.63 87.66 83 87.3 82.58C86.95 82.15 86.32 82.1 85.9 82.45L82.82 85.01C82.4 85.37 82.34 86 82.7 86.42C83.05 86.85 83.68 86.9 84.1 86.55ZM92 84C87.03 84 83 88.03 83 93C83 97.97 87.03 102 92 102C96.97 102 101 97.97 101 93C101 88.03 96.97 84 92 84ZM92 100C88.14 100 85 96.86 85 93C85 89.14 88.14 86 92 86C95.86 86 99 89.14 99 93C99 96.86 95.86 100 92 100Z" fill="#323232"/>
</g>
<g clip-path="url(#clip1_17_17276)">
<path d="M151.87 95.25L148.5 93.25V88.72C148.5 88.32 148.18 88 147.78 88H147.72C147.32 88 147 88.32 147 88.72V93.44C147 93.79 147.18 94.12 147.49 94.3L151.14 96.49C151.48 96.69 151.92 96.59 152.12 96.25C152.33 95.9 152.22 95.45 151.87 95.25ZM157.18 85.01L154.1 82.45C153.68 82.1 153.05 82.15 152.69 82.58C152.34 83 152.4 83.63 152.82 83.99L155.89 86.55C156.31 86.9 156.94 86.85 157.3 86.42C157.66 86 157.6 85.37 157.18 85.01ZM140.1 86.55L143.17 83.99C143.6 83.63 143.66 83 143.3 82.58C142.95 82.15 142.32 82.1 141.9 82.45L138.82 85.01C138.4 85.37 138.34 86 138.7 86.42C139.05 86.85 139.68 86.9 140.1 86.55ZM148 84C143.03 84 139 88.03 139 93C139 97.97 143.03 102 148 102C152.97 102 157 97.97 157 93C157 88.03 152.97 84 148 84ZM148 100C144.14 100 141 96.86 141 93C141 89.14 144.14 86 148 86C151.86 86 155 89.14 155 93C155 96.86 151.86 100 148 100Z" fill="#323232"/>
</g>
<g clip-path="url(#clip2_17_17276)">
<path d="M203.99 82C198.47 82 194 86.48 194 92C194 97.52 198.47 102 203.99 102C209.52 102 214 97.52 214 92C214 86.48 209.52 82 203.99 82ZM204 100C199.58 100 196 96.42 196 92C196 87.58 199.58 84 204 84C208.42 84 212 87.58 212 92C212 96.42 208.42 100 204 100ZM203.78 87H203.72C203.32 87 203 87.32 203 87.72V92.44C203 92.79 203.18 93.12 203.49 93.3L207.64 95.79C207.98 95.99 208.42 95.89 208.62 95.55C208.83 95.21 208.72 94.76 208.37 94.56L204.5 92.26V87.72C204.5 87.32 204.18 87 203.78 87Z" fill="#323232"/>
</g>
<g clip-path="url(#clip3_17_17276)">
<path d="M263 92H261V90C261 89.45 260.55 89 260 89C259.45 89 259 89.45 259 90V92H257C256.45 92 256 92.45 256 93C256 93.55 256.45 94 257 94H259V96C259 96.55 259.45 97 260 97C260.55 97 261 96.55 261 96V94H263C263.55 94 264 93.55 264 93C264 92.45 263.55 92 263 92ZM269.18 85.01L266.1 82.45C265.68 82.1 265.05 82.15 264.69 82.58C264.34 83 264.4 83.63 264.82 83.99L267.89 86.55C268.31 86.9 268.94 86.85 269.3 86.42C269.66 86 269.6 85.37 269.18 85.01ZM252.1 86.55L255.17 83.99C255.6 83.63 255.66 83 255.3 82.58C254.95 82.15 254.32 82.1 253.9 82.45L250.82 85.01C250.4 85.37 250.34 86 250.7 86.42C251.05 86.85 251.68 86.9 252.1 86.55ZM260 84C255.03 84 251 88.03 251 93C251 97.97 255.03 102 260 102C264.97 102 269 97.97 269 93C269 88.03 264.97 84 260 84ZM260 100C256.14 100 253 96.86 253 93C253 89.14 256.14 86 260 86C263.86 86 267 89.14 267 93C267 96.86 263.86 100 260 100Z" fill="#323232"/>
</g>
<g clip-path="url(#clip4_17_17276)">
<path d="M322 81.01L312 81C310.9 81 310 81.9 310 83V86C310 86.55 310.45 87 311 87C311.55 87 312 86.55 312 86V85H322V99H312V98C312 97.45 311.55 97 311 97C310.45 97 310 97.45 310 98V101C310 102.1 310.9 103 312 103H322C323.1 103 324 102.1 324 101V83C324 81.9 323.1 81.01 322 81.01ZM315 95C315.55 95 316 94.55 316 94V89C316 88.45 315.55 88 315 88H310C309.45 88 309 88.45 309 89C309 89.55 309.45 90 310 90H312.59L307.7 94.89C307.31 95.28 307.31 95.91 307.7 96.3C308.09 96.69 308.72 96.69 309.11 96.3L314 91.41V94C314 94.55 314.45 95 315 95Z" fill="#323232"/>
</g>
<g clip-path="url(#clip5_17_17276)">
<path d="M377 81H367C365.9 81 365 81.9 365 83V101C365 102.1 365.9 103 367 103H377C378.1 103 379 102.1 379 101V83C379 81.9 378.1 81 377 81ZM376 99H368C367.45 99 367 98.55 367 98V86C367 85.45 367.45 85 368 85H376C376.55 85 377 85.45 377 86V98C377 98.55 376.55 99 376 99Z" fill="#323232"/>
<path d="M375 86H369C368.45 86 368 86.45 368 87C368 87.55 368.45 88 369 88H375C375.55 88 376 87.55 376 87C376 86.45 375.55 86 375 86Z" fill="#323232"/>
</g>
<g clip-path="url(#clip6_17_17276)">
<path d="M437.48 93.7L429.5 89V83.5C429.5 82.67 428.83 82 428 82C427.17 82 426.5 82.67 426.5 83.5V89L418.52 93.7C418.2 93.88 418 94.23 418 94.6C418 95.3 418.67 95.8 419.34 95.61L426.5 93.51V99L424.24 100.35C424.09 100.44 424 100.61 424 100.78V101.28V101.36C424 101.69 424.31 101.93 424.62 101.85L427.54 101.12L428 101L428.38 101.09L428.8 101.2L430.7 101.68L431.37 101.85C431.69 101.93 431.99 101.69 431.99 101.36V100.99V100.78C431.99 100.6 431.9 100.44 431.75 100.35L429.5 99V93.5L436.66 95.6C437.33 95.8 438 95.3 438 94.6C438 94.23 437.8 93.88 437.48 93.7Z" fill="#323232"/>
</g>
<g clip-path="url(#clip7_17_17276)">
<path d="M494 94.6C494 95.3 493.33 95.8 492.66 95.61L489.51 94.68L482.5 87.67V83.5C482.5 82.67 483.17 82 484 82C484.83 82 485.5 82.67 485.5 83.5V89L493.48 93.7C493.8 93.88 494 94.23 494 94.6ZM485.5 93.5L481.56 89.56L475.51 83.51C475.12 83.12 474.49 83.12 474.1 83.51C473.71 83.9 473.71 84.53 474.1 84.92L479.77 90.59L474.52 93.7C474.2 93.88 474 94.23 474 94.6C474 95.3 474.67 95.8 475.34 95.61L482.5 93.51V99L480.24 100.35C480.09 100.44 480 100.61 480 100.78V101.28V101.36C480 101.69 480.31 101.93 480.62 101.85L483.54 101.12L484 101L484.38 101.09L484.8 101.2L486.7 101.68L487.37 101.85C487.69 101.93 487.99 101.69 487.99 101.36V100.99V100.78C487.99 100.6 487.9 100.44 487.75 100.35L485.5 99V96.33L491.07 101.9C491.46 102.29 492.09 102.29 492.48 101.9C492.87 101.51 492.87 100.88 492.48 100.49L485.5 93.5Z" fill="#323232"/>
</g>
<g clip-path="url(#clip8_17_17276)">
<path d="M543.67 84H542V83C542 82.45 541.55 82 541 82H539C538.45 82 538 82.45 538 83V84H536.33C535.6 84 535 84.6 535 85.33V100.66C535 101.4 535.6 102 536.34 102H543.66C544.4 102 545 101.4 545 100.67V85.33C545 84.6 544.4 84 543.67 84ZM541 98H539V96H541V98ZM541 93C541 93.55 540.55 94 540 94C539.45 94 539 93.55 539 93V90C539 89.45 539.45 89 540 89C540.55 89 541 89.45 541 90V93Z" fill="#323232"/>
</g>
<g clip-path="url(#clip9_17_17276)">
<path d="M599.67 84H598V83C598 82.45 597.55 82 597 82H595C594.45 82 594 82.45 594 83V84H592.33C591.6 84 591 84.6 591 85.33V100.66C591 101.4 591.6 102 592.34 102H599.66C600.4 102 601 101.4 601 100.67V85.33C601 84.6 600.4 84 599.67 84ZM598.61 93.24L595.94 98.24C595.7 98.69 595 98.52 595 98V94.5H593.83C593.45 94.5 593.21 94.1 593.39 93.76L596.06 88.76C596.3 88.31 597 88.48 597 89V92.5H598.17C598.54 92.5 598.79 92.9 598.61 93.24Z" fill="#323232"/>
</g>
<g clip-path="url(#clip10_17_17276)">
<path d="M95.67 140H94V139C94 138.45 93.55 138 93 138H91C90.45 138 90 138.45 90 139V140H88.33C87.6 140 87 140.6 87 141.33V156.66C87 157.4 87.6 158 88.34 158H95.66C96.4 158 97 157.4 97 156.67V141.33C97 140.6 96.4 140 95.67 140Z" fill="#323232"/>
</g>
<g clip-path="url(#clip11_17_17276)">
<path d="M151.67 140H150V139C150 138.45 149.55 138 149 138H147C146.45 138 146 138.45 146 139V140H144.33C143.6 140 143 140.6 143 141.33V156.66C143 157.4 143.6 158 144.34 158H151.66C152.4 158 153 157.4 153 156.67V141.33C153 140.6 152.4 140 151.67 140Z" fill="#323232"/>
</g>
<g clip-path="url(#clip12_17_17276)">
<path d="M207.67 140H206V139C206 138.45 205.55 138 205 138H203C202.45 138 202 138.45 202 139V140H200.33C199.6 140 199 140.6 199 141.33V156.66C199 157.4 199.6 158 200.34 158H207.66C208.4 158 209 157.4 209 156.67V141.33C209 140.6 208.4 140 207.67 140ZM205 154H203V152H205V154ZM206.3 148.69C206.3 148.69 205.92 149.11 205.63 149.4C205.49 149.54 205.36 149.71 205.24 149.87L205.15 150.02C205.07 150.14 205.01 150.27 204.96 150.39C204.87 150.61 204.8 150.82 204.8 151H203.2C203.2 150.58 203.32 150.2 203.49 149.87C203.55 149.76 203.62 149.66 203.69 149.56C203.72 149.51 203.75 149.45 203.79 149.4C203.9 149.26 204.02 149.12 204.13 149L205.06 148.06C205.33 147.79 205.5 147.41 205.5 147C205.5 146.17 204.83 145.5 204 145.5C203.35 145.5 202.79 145.91 202.59 146.49C202.48 146.8 202.2 147 201.88 147C201.36 147 201 146.48 201.17 145.99C201.59 144.83 202.69 144 204 144C205.66 144 207 145.34 207 147C207 147.66 206.73 148.26 206.3 148.69Z" fill="#323232"/>
</g>
<g clip-path="url(#clip13_17_17276)">
<path d="M265 143L260.71 138.71C260.08 138.08 259 138.52 259 139.41V145.59L255.11 141.7C254.72 141.31 254.09 141.31 253.7 141.7C253.31 142.09 253.31 142.72 253.7 143.11L258.59 148L253.7 152.89C253.31 153.28 253.31 153.91 253.7 154.3C254.09 154.69 254.72 154.69 255.11 154.3L259 150.41V156.59C259 157.48 260.08 157.93 260.71 157.3L265 153C265.39 152.61 265.39 151.98 265 151.59L261.41 148L265 144.42C265.39 144.03 265.39 143.39 265 143ZM261 141.83L262.88 143.71L261 145.59V141.83ZM262.88 152.29L261 154.17V150.41L262.88 152.29Z" fill="#323232"/>
</g>
<g clip-path="url(#clip14_17_17276)">
<path d="M310 149C310.55 148.45 310.55 147.56 310 147.01V147C309.45 146.45 308.55 146.45 308 147C307.45 147.55 307.45 148.45 308 149C308.55 149.55 309.45 149.55 310 149ZM324 147C323.44 146.44 322.55 146.44 322 146.99V147C321.45 147.55 321.45 148.44 322 148.99V149C322.55 149.55 323.44 149.55 323.99 149H324C324.55 148.45 324.55 147.55 324 147ZM321 143L316.71 138.71C316.08 138.08 315 138.52 315 139.41V145.59L311.11 141.7C310.72 141.31 310.09 141.31 309.7 141.7C309.31 142.09 309.31 142.72 309.7 143.11L314.59 148L309.7 152.89C309.31 153.28 309.31 153.91 309.7 154.3C310.09 154.69 310.72 154.69 311.11 154.3L315 150.41V156.59C315 157.48 316.08 157.93 316.71 157.3L321 153C321.39 152.61 321.39 151.98 321 151.58L317.41 148L321 144.42C321.39 144.03 321.39 143.39 321 143ZM318.88 152.29L317 154.17V150.41L318.88 152.29ZM317 145.59V141.83L318.88 143.71L317 145.59Z" fill="#323232"/>
</g>
<g clip-path="url(#clip15_17_17276)">
<path d="M379.29 153.89L366.11 140.7C365.72 140.31 365.09 140.31 364.7 140.7C364.31 141.09 364.31 141.72 364.7 142.11L370.59 148L365.7 152.89C365.31 153.28 365.31 153.91 365.7 154.3C366.09 154.69 366.72 154.69 367.11 154.3L371 150.41V156.59C371 157.48 372.08 157.93 372.71 157.3L376.3 153.71L377.89 155.3C378.28 155.69 378.91 155.69 379.3 155.3C379.68 154.91 379.68 154.27 379.29 153.89ZM373 154.17V150.41L374.88 152.29L373 154.17ZM373 141.83L374.88 143.71L373.41 145.18L374.82 146.59L377 144.42C377.39 144.03 377.39 143.4 377 143L372.71 138.71C372.08 138.08 371 138.52 371 139.41V142.77L373 144.77V141.83Z" fill="#323232"/>
</g>
<g clip-path="url(#clip16_17_17276)">
<path d="M431.98 146.28L430.6 147.66C430.4 147.86 430.4 148.17 430.6 148.37L431.98 149.75C432.26 150.03 432.73 149.9 432.83 149.52C432.94 149.02 433 148.52 433 148C433 147.49 432.94 146.99 432.82 146.52C432.73 146.14 432.26 146 431.98 146.28ZM436.1 143.78C435.85 143.23 435.12 143.11 434.7 143.54C434.44 143.8 434.39 144.18 434.53 144.52C434.99 145.59 435.25 146.76 435.25 147.99C435.25 149.23 434.99 150.41 434.52 151.48C434.38 151.8 434.43 152.17 434.68 152.42C435.09 152.83 435.78 152.71 436.03 152.19C436.66 150.89 437.01 149.43 437.01 147.89C437 146.44 436.68 145.04 436.1 143.78ZM427.41 148L431 144.42C431.39 144.03 431.39 143.4 431 143L426.71 138.71C426.08 138.08 425 138.52 425 139.41V145.59L421.11 141.7C420.72 141.31 420.09 141.31 419.7 141.7C419.31 142.09 419.31 142.72 419.7 143.11L424.59 148L419.7 152.89C419.31 153.28 419.31 153.91 419.7 154.3C420.09 154.69 420.72 154.69 421.11 154.3L425 150.41V156.59C425 157.48 426.08 157.93 426.71 157.3L431 153C431.39 152.61 431.39 151.98 431 151.58L427.41 148ZM427 141.83L428.88 143.71L427 145.59V141.83ZM427 154.17V150.41L428.88 152.29L427 154.17Z" fill="#323232"/>
</g>
<g clip-path="url(#clip17_17_17276)">
<path d="M482.85 148.65H485.15L484 145L482.85 148.65ZM492 144.69V142C492 140.9 491.1 140 490 140H487.31L485.41 138.1C484.63 137.32 483.36 137.32 482.58 138.1L480.69 140H478C476.9 140 476 140.9 476 142V144.69L474.1 146.59C473.32 147.37 473.32 148.64 474.1 149.42L476 151.32V154C476 155.1 476.9 156 478 156H480.69L482.59 157.9C483.37 158.68 484.64 158.68 485.42 157.9L487.32 156H490C491.1 156 492 155.1 492 154V151.31L493.9 149.41C494.68 148.63 494.68 147.36 493.9 146.58L492 144.69ZM486.09 151.4L485.6 150H482.4L481.91 151.4C481.78 151.76 481.45 152 481.07 152C480.45 152 480.02 151.39 480.23 150.81L482.67 143.95C482.87 143.38 483.4 143 484 143C484.6 143 485.13 143.38 485.34 143.94L487.78 150.8C487.99 151.38 487.56 151.99 486.94 151.99C486.55 152 486.22 151.76 486.09 151.4Z" fill="#323232"/>
</g>
<g clip-path="url(#clip18_17_17276)">
<path d="M548 144.69V142C548 140.9 547.1 140 546 140H543.31L541.41 138.1C540.63 137.32 539.36 137.32 538.58 138.1L536.69 140H534C532.9 140 532 140.9 532 142V144.69L530.1 146.59C529.32 147.37 529.32 148.64 530.1 149.42L532 151.32V154C532 155.1 532.9 156 534 156H536.69L538.59 157.9C539.37 158.68 540.64 158.68 541.42 157.9L543.32 156H546C547.1 156 548 155.1 548 154V151.31L549.9 149.41C550.68 148.63 550.68 147.36 549.9 146.58L548 144.69ZM540 154C536.69 154 534 151.31 534 148C534 144.69 536.69 142 540 142C543.31 142 546 144.69 546 148C546 151.31 543.31 154 540 154ZM540 144C537.79 144 536 145.79 536 148C536 150.21 537.79 152 540 152C542.21 152 544 150.21 544 148C544 145.79 542.21 144 540 144Z" fill="#323232"/>
</g>
<g clip-path="url(#clip19_17_17276)">
<path d="M604 151.31L605.9 149.41C606.68 148.63 606.68 147.36 605.9 146.58L604 144.69V142C604 140.9 603.1 140 602 140H599.31L597.41 138.1C596.63 137.32 595.36 137.32 594.58 138.1L592.69 140H590C588.9 140 588 140.9 588 142V144.69L586.1 146.59C585.32 147.37 585.32 148.64 586.1 149.42L588 151.32V154C588 155.1 588.9 156 590 156H592.69L594.59 157.9C595.37 158.68 596.64 158.68 597.42 157.9L599.32 156H602C603.1 156 604 155.1 604 154V151.31ZM596 154C592.69 154 590 151.31 590 148C590 144.69 592.69 142 596 142C599.31 142 602 144.69 602 148C602 151.31 599.31 154 596 154Z" fill="#323232"/>
</g>
<g clip-path="url(#clip20_17_17276)">
<path d="M100 207.31L101.9 205.41C102.68 204.63 102.68 203.36 101.9 202.58L100 200.69V198C100 196.9 99.1 196 98 196H95.31L93.41 194.1C92.63 193.32 91.36 193.32 90.58 194.1L88.69 196H86C84.9 196 84 196.9 84 198V200.69L82.1 202.59C81.32 203.37 81.32 204.64 82.1 205.42L84 207.32V210C84 211.1 84.9 212 86 212H88.69L90.59 213.9C91.37 214.68 92.64 214.68 93.42 213.9L95.32 212H98C99.1 212 100 211.1 100 210V207.31ZM92 208.9V199.1C92 198.49 92.55 197.99 93.15 198.11C95.91 198.65 98 201.08 98 204C98 206.92 95.91 209.35 93.15 209.89C92.55 210.01 92 209.51 92 208.9Z" fill="#323232"/>
</g>
<g clip-path="url(#clip21_17_17276)">
<path d="M149 195.87V195.89C149 196.56 149.45 197.12 150.08 197.32C152.93 198.21 155 200.86 155 204C155 204.52 154.94 205.01 154.83 205.49C154.69 206.13 154.95 206.79 155.52 207.13L155.53 207.14C156.39 207.64 157.51 207.19 157.74 206.23C157.91 205.51 158 204.76 158 204C158 199.5 155.02 195.68 150.92 194.43C149.97 194.14 149 194.87 149 195.87ZM146.94 210.92C143.95 210.49 141.52 208.06 141.08 205.08C140.54 201.48 142.74 198.31 145.91 197.32C146.55 197.13 147 196.56 147 195.89V195.87C147 194.87 146.03 194.14 145.07 194.43C140.56 195.81 137.41 200.29 138.09 205.39C138.68 209.77 142.22 213.31 146.6 213.9C149.74 214.32 152.64 213.29 154.73 211.37C155.47 210.69 155.34 209.48 154.47 208.98C153.89 208.64 153.17 208.75 152.67 209.2C151.2 210.54 149.16 211.25 146.94 210.92Z" fill="#323232"/>
</g>
<g clip-path="url(#clip22_17_17276)">
<path d="M199 197H209V198C209 198.55 209.45 199 210 199C210.55 199 211 198.55 211 198V195C211 193.9 210.1 193.01 209 193.01L199 193C197.9 193 197 193.9 197 195V198C197 198.55 197.45 199 198 199C198.55 199 199 198.55 199 198V197ZM208.12 207.88L211.29 204.71C211.68 204.32 211.68 203.69 211.29 203.3L208.12 200.13C207.73 199.74 207.09 199.74 206.7 200.13C206.31 200.52 206.31 201.15 206.7 201.54L209.17 204L206.7 206.47C206.31 206.86 206.31 207.49 206.7 207.88C207.09 208.27 207.73 208.27 208.12 207.88ZM201.29 206.46L198.83 204L201.29 201.54C201.68 201.15 201.68 200.52 201.29 200.13C200.9 199.74 200.26 199.74 199.87 200.13L196.7 203.3C196.31 203.69 196.31 204.32 196.7 204.71L199.87 207.88C200.26 208.27 200.9 208.27 201.29 207.88C201.69 207.49 201.68 206.85 201.29 206.46ZM209 211H199V210C199 209.45 198.55 209 198 209C197.45 209 197 209.45 197 210V213C197 214.1 197.9 215 199 215H209C210.1 215 211 214.1 211 213V210C211 209.45 210.55 209 210 209C209.45 209 209 209.45 209 210V211Z" fill="#323232"/>
</g>
<g clip-path="url(#clip23_17_17276)">
<path d="M252 199C252 198.45 252.45 198 253 198H269C269.55 198 270 197.55 270 197C270 196.45 269.55 196 269 196H252C250.9 196 250 196.9 250 198V209H249.5C248.67 209 248 209.67 248 210.5C248 211.33 248.67 212 249.5 212H262V209H252V199ZM271 200H265C264.45 200 264 200.45 264 201V211C264 211.55 264.45 212 265 212H271C271.55 212 272 211.55 272 211V201C272 200.45 271.55 200 271 200ZM270 209H266V202H270V209Z" fill="#323232"/>
</g>
<g clip-path="url(#clip24_17_17276)">
<path d="M325 195H307C305.9 195 305 195.9 305 197V209C305 210.1 305.9 211 307 211H312V212C312 212.55 312.45 213 313 213H319C319.55 213 320 212.55 320 212V211H325C326.1 211 327 210.1 327 209V197C327 195.9 326.1 195 325 195ZM324 209H308C307.45 209 307 208.55 307 208V198C307 197.45 307.45 197 308 197H324C324.55 197 325 197.45 325 198V208C325 208.55 324.55 209 324 209ZM322 200H313C312.45 200 312 200.45 312 201C312 201.55 312.45 202 313 202H322C322.55 202 323 201.55 323 201C323 200.45 322.55 200 322 200ZM322 204H313C312.45 204 312 204.45 312 205C312 205.55 312.45 206 313 206H322C322.55 206 323 205.55 323 205C323 204.45 322.55 204 322 204ZM311 200H309V202H311V200ZM311 204H309V206H311V204Z" fill="#323232"/>
</g>
<g clip-path="url(#clip25_17_17276)">
<path d="M372 200C369.79 200 368 201.79 368 204C368 206.21 369.79 208 372 208C374.21 208 376 206.21 376 204C376 201.79 374.21 200 372 200ZM380.94 203C380.48 198.83 377.17 195.52 373 195.06V194C373 193.45 372.55 193 372 193C371.45 193 371 193.45 371 194V195.06C366.83 195.52 363.52 198.83 363.06 203H362C361.45 203 361 203.45 361 204C361 204.55 361.45 205 362 205H363.06C363.52 209.17 366.83 212.48 371 212.94V214C371 214.55 371.45 215 372 215C372.55 215 373 214.55 373 214V212.94C377.17 212.48 380.48 209.17 380.94 205H382C382.55 205 383 204.55 383 204C383 203.45 382.55 203 382 203H380.94ZM372 211C368.13 211 365 207.87 365 204C365 200.13 368.13 197 372 197C375.87 197 379 200.13 379 204C379 207.87 375.87 211 372 211Z" fill="#323232"/>
</g>
<g clip-path="url(#clip26_17_17276)">
<path d="M436.94 203C436.48 198.83 433.17 195.52 429 195.06V194C429 193.45 428.55 193 428 193C427.45 193 427 193.45 427 194V195.06C422.83 195.52 419.52 198.83 419.06 203H418C417.45 203 417 203.45 417 204C417 204.55 417.45 205 418 205H419.06C419.52 209.17 422.83 212.48 427 212.94V214C427 214.55 427.45 215 428 215C428.55 215 429 214.55 429 214V212.94C433.17 212.48 436.48 209.17 436.94 205H438C438.55 205 439 204.55 439 204C439 203.45 438.55 203 438 203H436.94ZM428 211C424.13 211 421 207.87 421 204C421 200.13 424.13 197 428 197C431.87 197 435 200.13 435 204C435 207.87 431.87 211 428 211Z" fill="#323232"/>
</g>
<g clip-path="url(#clip27_17_17276)">
<path d="M494 205C494.55 205 495 204.55 495 204C495 203.45 494.55 203 494 203H492.94C492.48 198.83 489.17 195.52 485 195.06V194C485 193.45 484.55 193 484 193C483.45 193 483 193.45 483 194V195.06C482.02 195.17 481.09 195.44 480.23 195.84L481.76 197.37C482.46 197.13 483.22 197 484 197C487.87 197 491 200.13 491 204C491 204.79 490.87 205.54 490.63 206.24L492.16 207.77C492.56 206.91 492.83 205.98 492.94 205H494ZM492.44 210.88L477.12 195.56C476.73 195.17 476.1 195.17 475.71 195.56C475.32 195.95 475.32 196.58 475.71 196.97L477.04 198.3C475.97 199.62 475.26 201.23 475.06 203H474C473.45 203 473 203.45 473 204C473 204.55 473.45 205 474 205H475.06C475.52 209.17 478.83 212.48 483 212.94V214C483 214.55 483.45 215 484 215C484.55 215 485 214.55 485 214V212.94C486.77 212.74 488.38 212.03 489.69 210.96L491.02 212.29C491.41 212.68 492.04 212.68 492.43 212.29C492.83 211.9 492.83 211.27 492.44 210.88ZM484 211C480.13 211 477 207.87 477 204C477 202.39 477.55 200.91 478.46 199.73L488.27 209.54C487.09 210.45 485.61 211 484 211Z" fill="#323232"/>
</g>
<g clip-path="url(#clip28_17_17276)">
<path d="M536 210C536.55 210 537 209.55 537 209V199C537 198.45 536.55 198 536 198C535.45 198 535 198.45 535 199V209C535 209.55 535.45 210 536 210ZM540 214C540.55 214 541 213.55 541 213V195C541 194.45 540.55 194 540 194C539.45 194 539 194.45 539 195V213C539 213.55 539.45 214 540 214ZM532 206C532.55 206 533 205.55 533 205V203C533 202.45 532.55 202 532 202C531.45 202 531 202.45 531 203V205C531 205.55 531.45 206 532 206ZM544 210C544.55 210 545 209.55 545 209V199C545 198.45 544.55 198 544 198C543.45 198 543 198.45 543 199V209C543 209.55 543.45 210 544 210ZM547 203V205C547 205.55 547.45 206 548 206C548.55 206 549 205.55 549 205V203C549 202.45 548.55 202 548 202C547.45 202 547 202.45 547 203Z" fill="#323232"/>
</g>
<g clip-path="url(#clip29_17_17276)">
<path d="M606 205C606.55 205 607 204.55 607 204C607 203.45 606.55 203 606 203H604.94C604.48 198.83 601.17 195.52 597 195.06V194C597 193.45 596.55 193 596 193C595.45 193 595 193.45 595 194V195.06C594.02 195.17 593.09 195.44 592.23 195.84L593.76 197.37C594.46 197.13 595.22 197 596 197C599.87 197 603 200.13 603 204C603 204.79 602.87 205.54 602.63 206.24L604.16 207.77C604.56 206.91 604.83 205.98 604.94 205H606ZM604.44 210.88L589.12 195.56C588.73 195.17 588.1 195.17 587.71 195.56C587.32 195.95 587.32 196.58 587.71 196.97L589.04 198.3C587.97 199.62 587.26 201.23 587.06 203H586C585.45 203 585 203.45 585 204C585 204.55 585.45 205 586 205H587.06C587.52 209.17 590.83 212.48 595 212.94V214C595 214.55 595.45 215 596 215C596.55 215 597 214.55 597 214V212.94C598.77 212.74 600.38 212.03 601.69 210.96L603.02 212.29C603.41 212.68 604.04 212.68 604.43 212.29C604.83 211.9 604.83 211.27 604.44 210.88ZM596 211C592.13 211 589 207.87 589 204C589 202.39 589.55 200.91 590.46 199.73L600.27 209.54C599.09 210.45 597.61 211 596 211Z" fill="#323232"/>
</g>
<g clip-path="url(#clip30_17_17276)">
<path d="M100.94 259C100.48 254.83 97.17 251.52 93 251.06V250C93 249.45 92.55 249 92 249C91.45 249 91 249.45 91 250V251.06C86.83 251.52 83.52 254.83 83.06 259H82C81.45 259 81 259.45 81 260C81 260.55 81.45 261 82 261H83.06C83.52 265.17 86.83 268.48 91 268.94V270C91 270.55 91.45 271 92 271C92.55 271 93 270.55 93 270V268.94C97.17 268.48 100.48 265.17 100.94 261H102C102.55 261 103 260.55 103 260C103 259.45 102.55 259 102 259H100.94ZM92 267C88.13 267 85 263.87 85 260C85 256.13 88.13 253 92 253C95.87 253 99 256.13 99 260C99 263.87 95.87 267 92 267Z" fill="#323232"/>
</g>
<g clip-path="url(#clip31_17_17276)">
<path d="M155 249H145C143.9 249 143 249.9 143 251V253C143 253.55 143.45 254 144 254C144.55 254 145 253.55 145 253V252H155V268H145V267C145 266.45 144.55 266 144 266C143.45 266 143 266.45 143 267V269C143 270.1 143.9 271 145 271H155C156.1 271 157 270.1 157 269V251C157 249.9 156.1 249 155 249ZM143.01 261.47L141.09 259.55C140.74 259.2 140.17 259.2 139.82 259.55C139.47 259.9 139.47 260.47 139.82 260.82L142.29 263.29C142.68 263.68 143.31 263.68 143.7 263.29L149.55 257.44C149.9 257.09 149.9 256.52 149.55 256.17C149.2 255.82 148.63 255.82 148.28 256.17L143.01 261.47Z" fill="#323232"/>
</g>
<g clip-path="url(#clip32_17_17276)">
<path d="M209 264.44L195.61 251.05C195.22 250.66 194.59 250.66 194.2 251.05C193.81 251.44 193.81 252.07 194.2 252.46L197 255.27V269C197 270.1 197.9 271 199 271H209C210.02 271 210.85 270.23 210.98 269.25L212 270.27C212.39 270.66 213.02 270.66 213.41 270.27C213.8 269.88 213.8 269.25 213.41 268.86L211 266.44L209 264.44ZM199 267V257.27L208.73 267H199ZM209 253V261.61L211 263.61V251C211 249.9 210.1 249 209 249H199C198.29 249 197.67 249.37 197.32 249.93L200.39 253H209Z" fill="#323232"/>
</g>
<g clip-path="url(#clip33_17_17276)">
<path d="M268 250H252C250.9 250 250 250.9 250 252V268C250 269.1 250.9 270 252 270H268C269.1 270 270 269.1 270 268V252C270 250.9 269.1 250 268 250ZM267 268H253C252.45 268 252 267.55 252 267V253C252 252.45 252.45 252 253 252H267C267.55 252 268 252.45 268 253V267C268 267.55 267.55 268 267 268ZM264 254H261C259.9 254 259 254.9 259 256V258.28C258.4 258.63 258 259.26 258 260C258 261.1 258.9 262 260 262C261.1 262 262 261.1 262 260C262 259.26 261.6 258.62 261 258.28V256H264V263C264 263.55 263.55 264 263 264H257C256.45 264 256 263.55 256 263V256H257C257.55 256 258 255.55 258 255C258 254.45 257.55 254 257 254H256C254.9 254 254 254.9 254 256V264C254 265.1 254.9 266 256 266H264C265.1 266 266 265.1 266 264V256C266 254.9 265.1 254 264 254Z" fill="#323232"/>
</g>
<g clip-path="url(#clip34_17_17276)">
<path d="M325 253H307C305.9 253 305 253.9 305 255V265C305 266.1 305.9 267 307 267H325C326.1 267 327 266.1 327 265V255C327 253.9 326.1 253 325 253ZM323 265H309V255H323V265ZM314 264H318C318.55 264 319 263.55 319 263V260C319 259.45 318.55 259 318 259V258C318 256.89 317.1 256 316 256C314.89 256 314 256.9 314 258V259C313.45 259 313 259.45 313 260V263C313 263.55 313.45 264 314 264ZM314.8 258C314.8 257.34 315.34 256.8 316 256.8C316.66 256.8 317.2 257.34 317.2 258V259H314.8V258Z" fill="#323232"/>
</g>
<g clip-path="url(#clip35_17_17276)">
<path d="M370 264H374C374.55 264 375 263.55 375 263V260C375 259.45 374.55 259 374 259V258C374 256.89 373.1 256 372 256C370.89 256 370 256.9 370 258V259C369.45 259 369 259.45 369 260V263C369 263.55 369.45 264 370 264ZM370.8 258C370.8 257.34 371.34 256.8 372 256.8C372.66 256.8 373.2 257.34 373.2 258V259H370.8V258ZM377 249H367C365.9 249 365 249.9 365 251V269C365 270.1 365.9 271 367 271H377C378.1 271 379 270.1 379 269V251C379 249.9 378.1 249 377 249ZM377 267H367V253H377V267Z" fill="#323232"/>
</g>
<g clip-path="url(#clip36_17_17276)">
<path d="M438.3 261.77L436.44 259.9C436.05 259.51 435.42 259.51 435.03 259.9C434.64 260.29 434.64 260.92 435.03 261.31L436.54 262.83L430.88 268.49L419.56 257.17L425.22 251.51L426.62 252.91C427.01 253.3 427.64 253.3 428.03 252.91C428.42 252.52 428.42 251.89 428.03 251.5L426.28 249.75C425.69 249.16 424.74 249.16 424.16 249.75L417.8 256.11C417.21 256.7 417.21 257.65 417.8 258.23L429.82 270.25C430.41 270.84 431.36 270.84 431.94 270.25L438.3 263.89C438.89 263.3 438.89 262.35 438.3 261.77ZM431.05 258H436.05C436.6 258 437.05 257.55 437.05 257V253C437.05 252.45 436.6 252 436.05 252V251.5C436.05 250.12 434.93 249 433.55 249C432.17 249 431.05 250.12 431.05 251.5V252C430.5 252 430.05 252.45 430.05 253V257C430.05 257.55 430.5 258 431.05 258ZM431.85 251.5C431.85 250.56 432.61 249.8 433.55 249.8C434.49 249.8 435.25 250.56 435.25 251.5V252H431.85V251.5ZM424.85 268.15L423.52 269.48C420.43 268.02 418.18 265.11 417.63 261.62C417.57 261.21 417.19 260.93 416.77 261C416.36 261.06 416.08 261.45 416.15 261.86C416.75 265.67 419.11 268.87 422.39 270.61C423.96 271.44 425.94 272.04 428.19 271.99C428.37 271.99 428.45 271.77 428.33 271.64L424.85 268.15Z" fill="#323232"/>
</g>
<g clip-path="url(#clip37_17_17276)">
<path d="M482.23 249.75C481.64 249.16 480.69 249.16 480.11 249.75L473.75 256.11C473.16 256.7 473.16 257.65 473.75 258.23L485.77 270.25C486.36 270.84 487.31 270.84 487.89 270.25L494.25 263.89C494.84 263.3 494.84 262.35 494.25 261.77L482.23 249.75ZM486.12 268.48L475.52 257.88C475.13 257.49 475.13 256.86 475.52 256.47L480.47 251.52C480.86 251.13 481.49 251.13 481.88 251.52L492.49 262.13C492.88 262.52 492.88 263.15 492.49 263.54L487.54 268.49C487.15 268.87 486.51 268.87 486.12 268.48ZM489.61 249.4C488.04 248.57 486.06 247.97 483.81 248.02C483.63 248.02 483.55 248.24 483.67 248.37L487.15 251.85L488.48 250.52C491.57 251.98 493.82 254.89 494.37 258.38C494.43 258.79 494.81 259.07 495.23 259C495.64 258.94 495.92 258.55 495.85 258.14C495.25 254.34 492.89 251.14 489.61 249.4ZM480.85 268.16L479.52 269.49C476.43 268.03 474.18 265.12 473.63 261.63C473.57 261.22 473.19 260.94 472.77 261.01C472.36 261.07 472.08 261.46 472.15 261.87C472.75 265.68 475.11 268.88 478.39 270.62C479.96 271.45 481.94 272.05 484.19 272C484.37 272 484.45 271.78 484.33 271.65L480.85 268.16Z" fill="#323232"/>
</g>
<g clip-path="url(#clip38_17_17276)">
<path d="M546 250H538.83C538.3 250 537.79 250.21 537.41 250.59L532.6 255.42C532.23 255.79 532 256.3 532 256.82V268C532 269.1 532.9 270 534 270H546C547.1 270 548 269.1 548 268V252C548 250.9 547.1 250 546 250ZM539 256C538.45 256 538 255.55 538 255V253C538 252.45 538.45 252 539 252C539.55 252 540 252.45 540 253V255C540 255.55 539.55 256 539 256ZM542 256C541.45 256 541 255.55 541 255V253C541 252.45 541.45 252 542 252C542.55 252 543 252.45 543 253V255C543 255.55 542.55 256 542 256ZM545 256C544.45 256 544 255.55 544 255V253C544 252.45 544.45 252 545 252C545.55 252 546 252.45 546 253V255C546 255.55 545.55 256 545 256Z" fill="#323232"/>
</g>
<g clip-path="url(#clip39_17_17276)">
<path d="M593 264H599.5C600.88 264 602 262.88 602 261.5C602 260.12 600.88 259 599.5 259H599.45C599.21 257.31 597.76 256 596 256C594.6 256 593.4 256.83 592.84 258.02H592.68C591.17 258.18 590 259.45 590 261C590 262.66 591.34 264 593 264ZM605 251H587C585.9 251 585 251.9 585 253V267C585 268.1 585.9 269 587 269H605C606.1 269 607 268.1 607 267V253C607 251.9 606.1 251 605 251ZM604 267.01H588C587.45 267.01 587 266.56 587 266.01V253.99C587 253.44 587.45 252.99 588 252.99H604C604.55 252.99 605 253.44 605 253.99V266.01C605 266.56 604.55 267.01 604 267.01Z" fill="#323232"/>
</g>
<g clip-path="url(#clip40_17_17276)">
<path d="M84.41 326H100C101.1 326 102 325.1 102 324V308.41C102 307.52 100.92 307.07 100.29 307.7L83.71 324.29C83.08 324.92 83.52 326 84.41 326Z" fill="#323232"/>
</g>
<g clip-path="url(#clip41_17_17276)">
<path d="M154.5 308C155.33 308 156 308.67 156 309.5V322.5C156 323.33 155.33 324 154.5 324C153.67 324 153 323.33 153 322.5V309.5C153 308.67 153.67 308 154.5 308ZM142.5 318C143.33 318 144 318.67 144 319.5V322.5C144 323.33 143.33 324 142.5 324C141.67 324 141 323.33 141 322.5V319.5C141 318.67 141.67 318 142.5 318ZM148.5 313C149.33 313 150 313.67 150 314.5V322.5C150 323.33 149.33 324 148.5 324C147.67 324 147 323.33 147 322.5V314.5C147 313.67 147.67 313 148.5 313Z" fill="#323232"/>
</g>
<g clip-path="url(#clip42_17_17276)">
<path d="M213 322C213.55 322 214 321.55 214 321V315C214 314.45 213.55 314 213 314C212.45 314 212 314.45 212 315V321C212 321.55 212.45 322 213 322ZM212 326H214V324H212V326ZM196.41 326H210V315C210 313.34 211.34 312 213 312H214V308.41C214 307.52 212.92 307.07 212.29 307.7L195.71 324.29C195.08 324.92 195.52 326 196.41 326Z" fill="#323232"/>
</g>
<g clip-path="url(#clip43_17_17276)">
<path d="M267 309C267 307.9 266.1 307 265 307H258.83C258.3 307 257.79 307.21 257.41 307.59L255.95 309.06L267 320.11V309ZM251.09 308.44C250.7 308.83 250.7 309.46 251.09 309.85L253 311.78V323C253 324.11 253.9 325 255 325H266.23L267.14 325.91C267.53 326.3 268.16 326.3 268.55 325.91C268.94 325.52 268.94 324.89 268.55 324.5L252.5 308.44C252.11 308.05 251.48 308.05 251.09 308.44Z" fill="#323232"/>
</g>
<g clip-path="url(#clip44_17_17276)">
<path d="M324 310.83V323C324 323.55 323.55 324 323 324H310.83L324 310.83ZM324.29 307.71L307.71 324.29C307.08 324.92 307.52 326 308.41 326H324C325.1 326 326 325.1 326 324V308.41C326 307.52 324.92 307.08 324.29 307.71Z" fill="#323232"/>
</g>
<g clip-path="url(#clip45_17_17276)">
<path d="M381 307.41C381 306.52 379.92 306.07 379.29 306.7L372.69 313.3L381 321.61V307.41ZM381.44 324.88L365.62 309.06C365.23 308.67 364.6 308.67 364.21 309.06C363.82 309.45 363.82 310.08 364.21 310.47L369.87 316.13L362.71 323.29C362.08 323.92 362.52 325 363.41 325H378.73L380.02 326.29C380.41 326.68 381.04 326.68 381.43 326.29C381.83 325.9 381.83 325.27 381.44 324.88Z" fill="#323232"/>
</g>
<g clip-path="url(#clip46_17_17276)">
<path d="M439.64 311C439.19 310.66 434.71 307 428 307C421.28 307 416.81 310.66 416.36 311L426.44 323.56C427.24 324.56 428.76 324.56 429.56 323.56L439.64 311Z" fill="#323232"/>
</g>
<g clip-path="url(#clip47_17_17276)">
<path d="M493.55 313.61L495.64 311C495.19 310.66 490.71 307 484 307C477.28 307 472.81 310.66 472.36 311L482.44 323.56C483.24 324.56 484.76 324.56 485.56 323.56L487.5 321.14V318.5C487.5 315.7 489.7 313.5 492.5 313.5C492.86 313.5 493.21 313.54 493.55 313.61ZM495 320V318.5C495 317.1 493.9 316 492.5 316C491.1 316 490 317.1 490 318.5V320C489.5 320 489 320.5 489 321V325C489 325.5 489.5 326 490 326H495C495.5 326 496 325.5 496 325V321C496 320.5 495.5 320 495 320ZM494 320H491V318.5C491 317.7 491.7 317 492.5 317C493.3 317 494 317.7 494 318.5V320Z" fill="#323232"/>
</g>
<g clip-path="url(#clip48_17_17276)">
<path d="M551.64 311C551.19 310.66 546.71 307 540 307C538.68 307 537.45 307.14 536.31 307.38L546.43 317.5L551.64 311ZM532.12 306.01C531.73 305.62 531.1 305.62 530.71 306.01C530.32 306.4 530.32 307.03 530.71 307.42L532.06 308.77C529.91 309.76 528.59 310.82 528.36 311L538.44 323.56C539.24 324.56 540.76 324.56 541.56 323.56L543.91 320.63L546.52 323.24C546.91 323.63 547.54 323.63 547.93 323.24C548.32 322.85 548.32 322.22 547.93 321.83L532.12 306.01Z" fill="#323232"/>
</g>
<g clip-path="url(#clip49_17_17276)">
<path d="M588 324H604C605.1 324 606 323.1 606 322C606 320.9 605.1 320 604 320H588C586.9 320 586 320.9 586 322C586 323.1 586.9 324 588 324ZM588 321H590V323H588V321ZM586 310C586 311.1 586.9 312 588 312H604C605.1 312 606 311.1 606 310C606 308.9 605.1 308 604 308H588C586.9 308 586 308.9 586 310ZM590 311H588V309H590V311ZM588 318H604C605.1 318 606 317.1 606 316C606 314.9 605.1 314 604 314H588C586.9 314 586 314.9 586 316C586 317.1 586.9 318 588 318ZM588 315H590V317H588V315Z" fill="#323232"/>
</g>
<g clip-path="url(#clip50_17_17276)">
<path d="M95 373V365C95 363.34 93.66 362 92 362C90.34 362 89 363.34 89 365V373C87.79 373.91 87 375.37 87 377C87 379.76 89.24 382 92 382C94.76 382 97 379.76 97 377C97 375.37 96.21 373.91 95 373ZM93 371H91V365C91 364.45 91.45 364 92 364C92.55 364 93 364.45 93 365H92.5C92.22 365 92 365.22 92 365.5C92 365.78 92.22 366 92.5 366H93V368H92.5C92.22 368 92 368.22 92 368.5C92 368.78 92.22 369 92.5 369H93V371Z" fill="#323232"/>
</g>
<g clip-path="url(#clip51_17_17276)">
<path d="M154 367H152C151.45 367 151 367.45 151 368V370C151 370.55 151.45 371 152 371V373H149V365H150C150.41 365 150.65 364.53 150.4 364.2L148.4 361.53C148.2 361.26 147.8 361.26 147.6 361.53L145.6 364.2C145.35 364.53 145.59 365 146 365H147V373H144V370.93C144.83 370.49 145.38 369.57 145.14 368.5C144.97 367.73 144.37 367.1 143.62 366.89C142.15 366.48 140.8 367.59 140.8 369C140.8 369.85 141.3 370.56 142 370.93V373C142 374.1 142.9 375 144 375H147V378.05C146.14 378.5 145.61 379.47 145.87 380.54C146.05 381.29 146.66 381.92 147.41 382.12C148.87 382.51 150.21 381.42 150.21 380C150.21 379.15 149.72 378.42 149.01 378.05V375H152.01C153.11 375 154.01 374.1 154.01 373V371C154.56 371 155.01 370.55 155.01 370V368C155 367.45 154.55 367 154 367Z" fill="#323232"/>
</g>
<g clip-path="url(#clip52_17_17276)">
<path d="M196 365C196 364.45 196.45 364 197 364H202C202.55 364 203 363.55 203 363C203 362.45 202.55 362 202 362H196C194.9 362 194 362.9 194 364V370C194 370.55 194.45 371 195 371C195.55 371 196 370.55 196 370V365ZM201.61 373.49L198.65 377.19C198.39 377.52 198.62 378 199.04 378H209C209.41 378 209.65 377.53 209.4 377.2L207.4 374.53C207.2 374.26 206.8 374.26 206.6 374.53L204.97 376.71L202.39 373.49C202.19 373.24 201.81 373.24 201.61 373.49ZM209 368.5C209 367.67 208.33 367 207.5 367C206.67 367 206 367.67 206 368.5C206 369.33 206.67 370 207.5 370C208.33 370 209 369.33 209 368.5ZM212 362H206C205.45 362 205 362.45 205 363C205 363.55 205.45 364 206 364H211C211.55 364 212 364.45 212 365V370C212 370.55 212.45 371 213 371C213.55 371 214 370.55 214 370V364C214 362.9 213.1 362 212 362ZM212 379C212 379.55 211.55 380 211 380H206C205.45 380 205 380.45 205 381C205 381.55 205.45 382 206 382H212C213.1 382 214 381.1 214 380V374C214 373.45 213.55 373 213 373C212.45 373 212 373.45 212 374V379ZM195 373C194.45 373 194 373.45 194 374V380C194 381.1 194.9 382 196 382H202C202.55 382 203 381.55 203 381C203 380.45 202.55 380 202 380H197C196.45 380 196 379.55 196 379V374C196 373.45 195.55 373 195 373Z" fill="#323232"/>
</g>
<g clip-path="url(#clip53_17_17276)">
<path d="M261 374V380C261 380.55 261.45 381 262 381H268C268.55 381 269 380.55 269 380V374C269 373.45 268.55 373 268 373H262C261.45 373 261 373.45 261 374ZM252 381H258C258.55 381 259 380.55 259 380V374C259 373.45 258.55 373 258 373H252C251.45 373 251 373.45 251 374V380C251 380.55 251.45 381 252 381ZM251 364V370C251 370.55 251.45 371 252 371H258C258.55 371 259 370.55 259 370V364C259 363.45 258.55 363 258 363H252C251.45 363 251 363.45 251 364ZM263.95 362.4L259.7 366.64C259.31 367.03 259.31 367.66 259.7 368.05L263.95 372.3C264.34 372.69 264.97 372.69 265.36 372.3L269.61 368.05C270 367.66 270 367.03 269.61 366.64L265.37 362.4C264.98 362.01 264.34 362.01 263.95 362.4Z" fill="#323232"/>
</g>
<g clip-path="url(#clip54_17_17276)">
<path d="M325.31 369.58L328 366C324.66 363.49 320.5 362 316 362C311.5 362 307.34 363.49 304 366L314.4 379.87C315.2 380.94 316.8 380.94 317.6 379.87L319.5 377.34V374.5C319.5 371.74 321.74 369.5 324.5 369.5C324.78 369.5 325.05 369.54 325.31 369.58ZM327 376V374.5C327 373.12 325.88 372 324.5 372C323.12 372 322 373.12 322 374.5V376C321.45 376 321 376.45 321 377V381C321 381.55 321.45 382 322 382H327C327.55 382 328 381.55 328 381V377C328 376.45 327.55 376 327 376ZM326 376H323V374.5C323 373.67 323.67 373 324.5 373C325.33 373 326 373.67 326 374.5V376Z" fill="#323232"/>
</g>
<g clip-path="url(#clip55_17_17276)">
<path d="M372 371C370.9 371 370 371.9 370 373C370 374.1 370.9 375 372 375C373.1 375 374 374.1 374 373C374 371.9 373.1 371 372 371ZM378 373C378 369.44 374.89 366.6 371.25 367.05C368.63 367.37 366.47 369.46 366.07 372.07C365.74 374.22 366.56 376.18 368 377.47C368.48 377.9 369.23 377.8 369.56 377.24L369.57 377.23C369.81 376.81 369.71 376.3 369.35 375.97C368.32 375.04 367.76 373.6 368.13 372.03C368.46 370.61 369.61 369.46 371.03 369.12C373.65 368.49 376 370.47 376 373C376 374.18 375.48 375.23 374.67 375.96C374.31 376.28 374.2 376.8 374.44 377.22L374.45 377.23C374.76 377.76 375.48 377.92 375.95 377.51C377.2 376.41 378 374.8 378 373ZM370.83 363.07C366.21 363.59 362.48 367.4 362.05 372.03C361.7 375.73 363.37 379.05 366.07 381.04C366.55 381.39 367.23 381.24 367.53 380.73C367.78 380.3 367.67 379.74 367.27 379.44C364.99 377.75 363.62 374.89 364.11 371.74C364.65 368.24 367.57 365.45 371.09 365.06C375.91 364.51 380 368.28 380 373C380 375.65 378.71 377.98 376.73 379.44C376.33 379.74 376.22 380.29 376.47 380.73C376.77 381.25 377.45 381.39 377.93 381.04C380.4 379.22 382 376.3 382 373C382 367.09 376.87 362.38 370.83 363.07Z" fill="#323232"/>
</g>
<defs>
<clipPath id="clip0_17_17276">
<rect width="24" height="24" fill="white" transform="translate(80 80)"/>
</clipPath>
<clipPath id="clip1_17_17276">
<rect width="24" height="24" fill="white" transform="translate(136 80)"/>
</clipPath>
<clipPath id="clip2_17_17276">
<rect width="24" height="24" fill="white" transform="translate(192 80)"/>
</clipPath>
<clipPath id="clip3_17_17276">
<rect width="24" height="24" fill="white" transform="translate(248 80)"/>
</clipPath>
<clipPath id="clip4_17_17276">
<rect width="24" height="24" fill="white" transform="translate(304 80)"/>
</clipPath>
<clipPath id="clip5_17_17276">
<rect width="24" height="24" fill="white" transform="translate(360 80)"/>
</clipPath>
<clipPath id="clip6_17_17276">
<rect width="24" height="24" fill="white" transform="translate(416 80)"/>
</clipPath>
<clipPath id="clip7_17_17276">
<rect width="24" height="24" fill="white" transform="translate(472 80)"/>
</clipPath>
<clipPath id="clip8_17_17276">
<rect width="24" height="24" fill="white" transform="translate(528 80)"/>
</clipPath>
<clipPath id="clip9_17_17276">
<rect width="24" height="24" fill="white" transform="translate(584 80)"/>
</clipPath>
<clipPath id="clip10_17_17276">
<rect width="24" height="24" fill="white" transform="translate(80 136)"/>
</clipPath>
<clipPath id="clip11_17_17276">
<rect width="24" height="24" fill="white" transform="translate(136 136)"/>
</clipPath>
<clipPath id="clip12_17_17276">
<rect width="24" height="24" fill="white" transform="translate(192 136)"/>
</clipPath>
<clipPath id="clip13_17_17276">
<rect width="24" height="24" fill="white" transform="translate(248 136)"/>
</clipPath>
<clipPath id="clip14_17_17276">
<rect width="24" height="24" fill="white" transform="translate(304 136)"/>
</clipPath>
<clipPath id="clip15_17_17276">
<rect width="24" height="24" fill="white" transform="translate(360 136)"/>
</clipPath>
<clipPath id="clip16_17_17276">
<rect width="24" height="24" fill="white" transform="translate(416 136)"/>
</clipPath>
<clipPath id="clip17_17_17276">
<rect width="24" height="24" fill="white" transform="translate(472 136)"/>
</clipPath>
<clipPath id="clip18_17_17276">
<rect width="24" height="24" fill="white" transform="translate(528 136)"/>
</clipPath>
<clipPath id="clip19_17_17276">
<rect width="24" height="24" fill="white" transform="translate(584 136)"/>
</clipPath>
<clipPath id="clip20_17_17276">
<rect width="24" height="24" fill="white" transform="translate(80 192)"/>
</clipPath>
<clipPath id="clip21_17_17276">
<rect width="24" height="24" fill="white" transform="translate(136 192)"/>
</clipPath>
<clipPath id="clip22_17_17276">
<rect width="24" height="24" fill="white" transform="translate(192 192)"/>
</clipPath>
<clipPath id="clip23_17_17276">
<rect width="24" height="24" fill="white" transform="translate(248 192)"/>
</clipPath>
<clipPath id="clip24_17_17276">
<rect width="24" height="24" fill="white" transform="translate(304 192)"/>
</clipPath>
<clipPath id="clip25_17_17276">
<rect width="24" height="24" fill="white" transform="translate(360 192)"/>
</clipPath>
<clipPath id="clip26_17_17276">
<rect width="24" height="24" fill="white" transform="translate(416 192)"/>
</clipPath>
<clipPath id="clip27_17_17276">
<rect width="24" height="24" fill="white" transform="translate(472 192)"/>
</clipPath>
<clipPath id="clip28_17_17276">
<rect width="24" height="24" fill="white" transform="translate(528 192)"/>
</clipPath>
<clipPath id="clip29_17_17276">
<rect width="24" height="24" fill="white" transform="translate(584 192)"/>
</clipPath>
<clipPath id="clip30_17_17276">
<rect width="24" height="24" fill="white" transform="translate(80 248)"/>
</clipPath>
<clipPath id="clip31_17_17276">
<rect width="24" height="24" fill="white" transform="translate(136 248)"/>
</clipPath>
<clipPath id="clip32_17_17276">
<rect width="24" height="24" fill="white" transform="translate(192 248)"/>
</clipPath>
<clipPath id="clip33_17_17276">
<rect width="24" height="24" fill="white" transform="translate(248 248)"/>
</clipPath>
<clipPath id="clip34_17_17276">
<rect width="24" height="24" fill="white" transform="translate(304 248)"/>
</clipPath>
<clipPath id="clip35_17_17276">
<rect width="24" height="24" fill="white" transform="translate(360 248)"/>
</clipPath>
<clipPath id="clip36_17_17276">
<rect width="24" height="24" fill="white" transform="translate(416 248)"/>
</clipPath>
<clipPath id="clip37_17_17276">
<rect width="24" height="24" fill="white" transform="translate(472 248)"/>
</clipPath>
<clipPath id="clip38_17_17276">
<rect width="24" height="24" fill="white" transform="translate(528 248)"/>
</clipPath>
<clipPath id="clip39_17_17276">
<rect width="24" height="24" fill="white" transform="translate(584 248)"/>
</clipPath>
<clipPath id="clip40_17_17276">
<rect width="24" height="24" fill="white" transform="translate(80 304)"/>
</clipPath>
<clipPath id="clip41_17_17276">
<rect width="24" height="24" fill="white" transform="translate(136 304)"/>
</clipPath>
<clipPath id="clip42_17_17276">
<rect width="24" height="24" fill="white" transform="translate(192 304)"/>
</clipPath>
<clipPath id="clip43_17_17276">
<rect width="24" height="24" fill="white" transform="translate(248 304)"/>
</clipPath>
<clipPath id="clip44_17_17276">
<rect width="24" height="24" fill="white" transform="translate(304 304)"/>
</clipPath>
<clipPath id="clip45_17_17276">
<rect width="24" height="24" fill="white" transform="translate(360 304)"/>
</clipPath>
<clipPath id="clip46_17_17276">
<rect width="24" height="24" fill="white" transform="translate(416 304)"/>
</clipPath>
<clipPath id="clip47_17_17276">
<rect width="24" height="24" fill="white" transform="translate(472 304)"/>
</clipPath>
<clipPath id="clip48_17_17276">
<rect width="24" height="24" fill="white" transform="translate(528 304)"/>
</clipPath>
<clipPath id="clip49_17_17276">
<rect width="24" height="24" fill="white" transform="translate(584 304)"/>
</clipPath>
<clipPath id="clip50_17_17276">
<rect width="24" height="24" fill="white" transform="translate(80 360)"/>
</clipPath>
<clipPath id="clip51_17_17276">
<rect width="24" height="24" fill="white" transform="translate(136 360)"/>
</clipPath>
<clipPath id="clip52_17_17276">
<rect width="24" height="24" fill="white" transform="translate(192 360)"/>
</clipPath>
<clipPath id="clip53_17_17276">
<rect width="24" height="24" fill="white" transform="translate(248 360)"/>
</clipPath>
<clipPath id="clip54_17_17276">
<rect width="24" height="24" fill="white" transform="translate(304 360)"/>
</clipPath>
<clipPath id="clip55_17_17276">
<rect width="24" height="24" fill="white" transform="translate(360 360)"/>
</clipPath>
</defs>
</svg>
