<svg width="688" height="632" viewBox="0 0 688 632" fill="none" xmlns="http://www.w3.org/2000/svg">
<rect x="0.5" y="0.5" width="687" height="631" rx="31.5" stroke="#CCCCCC"/>
<g clip-path="url(#clip0_17_17527)">
<path d="M102 84C102 82.9 101.1 82 100 82H84C82.9 82 82 82.9 82 84V96C82 97.1 82.9 98 84 98H98L102 102V84ZM96 91H93V94C93 94.55 92.55 95 92 95C91.45 95 91 94.55 91 94V91H88C87.45 91 87 90.55 87 90C87 89.45 87.45 89 88 89H91V86C91 85.45 91.45 85 92 85C92.55 85 93 85.45 93 86V89H96C96.55 89 97 89.45 97 90C97 90.55 96.55 91 96 91Z" fill="#323232"/>
</g>
<g clip-path="url(#clip1_17_17527)">
<path d="M152.5 86.75V97.33C152.5 99.42 150.97 101.28 148.89 101.48C146.5 101.71 144.5 99.84 144.5 97.5V85.14C144.5 83.83 145.44 82.64 146.74 82.51C148.24 82.36 149.5 83.53 149.5 85V95.5C149.5 96.05 149.05 96.5 148.5 96.5C147.95 96.5 147.5 96.05 147.5 95.5V86.75C147.5 86.34 147.16 86 146.75 86C146.34 86 146 86.34 146 86.75V95.36C146 96.67 146.94 97.86 148.24 97.99C149.74 98.14 151 96.97 151 95.5V85.17C151 83.08 149.47 81.22 147.39 81.02C145.01 80.79 143 82.66 143 85V97.27C143 100.14 145.1 102.71 147.96 102.98C151.25 103.28 154 100.72 154 97.5V86.75C154 86.34 153.66 86 153.25 86C152.84 86 152.5 86.34 152.5 86.75Z" fill="#323232"/>
</g>
<g clip-path="url(#clip2_17_17527)">
<path d="M203.8 90.9C201.53 90.31 200.8 89.7 200.8 88.75C200.8 87.66 201.81 86.9 203.5 86.9C204.92 86.9 205.63 87.44 205.89 88.3C206.01 88.7 206.34 89 206.76 89H207.06C207.72 89 208.19 88.35 207.96 87.73C207.54 86.55 206.56 85.57 205 85.19V84.5C205 83.67 204.33 83 203.5 83C202.67 83 202 83.67 202 84.5V85.16C200.06 85.58 198.5 86.84 198.5 88.77C198.5 91.08 200.41 92.23 203.2 92.9C205.7 93.5 206.2 94.38 206.2 95.31C206.2 96 205.71 97.1 203.5 97.1C201.85 97.1 201 96.51 200.67 95.67C200.52 95.28 200.18 95 199.77 95H199.49C198.82 95 198.35 95.68 198.6 96.3C199.17 97.69 200.5 98.51 202 98.83V99.5C202 100.33 202.67 101 203.5 101C204.33 101 205 100.33 205 99.5V98.85C206.95 98.48 208.5 97.35 208.5 95.3C208.5 92.46 206.07 91.49 203.8 90.9Z" fill="#323232"/>
</g>
<g clip-path="url(#clip3_17_17527)">
<path d="M254.4 89.2H254.6C255.37 89.2 256 89.83 256 90.6V97.6C256 98.37 255.37 99 254.6 99H254.4C253.63 99 253 98.37 253 97.6V90.6C253 89.83 253.63 89.2 254.4 89.2ZM260 85C260.77 85 261.4 85.63 261.4 86.4V97.6C261.4 98.37 260.77 99 260 99C259.23 99 258.6 98.37 258.6 97.6V86.4C258.6 85.63 259.23 85 260 85ZM265.6 93C266.37 93 267 93.63 267 94.4V97.6C267 98.37 266.37 99 265.6 99C264.83 99 264.2 98.37 264.2 97.6V94.4C264.2 93.63 264.83 93 265.6 93Z" fill="#323232"/>
</g>
<g clip-path="url(#clip4_17_17527)">
<path d="M307 85V99C307 100.1 307.9 101 309 101H323C324.1 101 325 100.1 325 99V85C325 83.9 324.1 83 323 83H309C307.9 83 307 83.9 307 85ZM315 99H310C309.45 99 309 98.55 309 98V93H314C314.55 93 315 93.45 315 94V99ZM314 91H309V86C309 85.45 309.45 85 310 85H315V90C315 90.55 314.55 91 314 91ZM322 99H317V94C317 93.45 317.45 93 318 93H323V98C323 98.55 322.55 99 322 99ZM323 91H318C317.45 91 317 90.55 317 90V85H322C322.55 85 323 85.45 323 86V91Z" fill="#323232"/>
</g>
<g clip-path="url(#clip5_17_17527)">
<path d="M369 91H367V93H369V91ZM373 95H371V97H373V95ZM369 83H367V85H369V83ZM373 91H371V93H373V91ZM365 83H363V85H365V83ZM373 87H371V89H373V87ZM377 91H375V93H377V91ZM373 83H371V85H373V83ZM377 83H375V85H377V83ZM379 93H381V91H379V93ZM379 97H381V95H379V97ZM365 87H363V89H365V87ZM379 83V85H381V83H379ZM379 89H381V87H379V89ZM365 91H363V93H365V91ZM364 101H380C380.55 101 381 100.55 381 100C381 99.45 380.55 99 380 99H364C363.45 99 363 99.45 363 100C363 100.55 363.45 101 364 101ZM365 95H363V97H365V95Z" fill="#323232"/>
</g>
<g clip-path="url(#clip6_17_17527)">
<path d="M423 85H425V83H423V85ZM423 93H425V91H423V93ZM423 101H425V99H423V101ZM427 97H429V95H427V97ZM427 101H429V99H427V101ZM419 101H421V99H419V101ZM419 97H421V95H419V97ZM419 93H421V91H419V93ZM419 89H421V87H419V89ZM419 85H421V83H419V85ZM427 93H429V91H427V93ZM435 97H437V95H435V97ZM435 93H437V91H435V93ZM435 101H437V99H435V101ZM435 89H437V87H435V89ZM427 89H429V87H427V89ZM435 83V85H437V83H435ZM427 85H429V83H427V85ZM431 101H433V99H431V101ZM431 93H433V91H431V93ZM431 85H433V83H431V85Z" fill="#323232"/>
</g>
<g clip-path="url(#clip7_17_17527)">
<path d="M475 101H477V99H475V101ZM477 87H475V89H477V87ZM475 97H477V95H475V97ZM479 101H481V99H479V101ZM477 83H475V85H477V83ZM481 83H479V85H481V83ZM489 83H487V85H489V83ZM485 87H483V89H485V87ZM485 83H483V85H485V83ZM491 97H493V95H491V97ZM483 101H485V99H483V101ZM476 93H492C492.55 93 493 92.55 493 92C493 91.45 492.55 91 492 91H476C475.45 91 475 91.45 475 92C475 92.55 475.45 93 476 93ZM491 83V85H493V83H491ZM491 89H493V87H491V89ZM483 97H485V95H483V97ZM487 101H489V99H487V101ZM491 101H493V99H491V101Z" fill="#323232"/>
</g>
<g clip-path="url(#clip8_17_17527)">
<path d="M531 101H533V99H531V101ZM535 101H537V99H535V101ZM533 87H531V89H533V87ZM531 97H533V95H531V97ZM537 83H535V85H537V83ZM533 83H531V85H533V83ZM545 83H543V85H545V83ZM547 89H549V87H547V89ZM547 83V85H549V83H547ZM543 101H545V99H543V101ZM540 83C539.45 83 539 83.45 539 84V91H532C531.45 91 531 91.45 531 92C531 92.55 531.45 93 532 93H539V100C539 100.55 539.45 101 540 101C540.55 101 541 100.55 541 100V93H548C548.55 93 549 92.55 549 92C549 91.45 548.55 91 548 91H541V84C541 83.45 540.55 83 540 83ZM547 101H549V99H547V101ZM547 97H549V95H547V97Z" fill="#323232"/>
</g>
<g clip-path="url(#clip9_17_17527)">
<path d="M595 101H597V99H595V101ZM595 97H597V95H595V97ZM595 85H597V83H595V85ZM595 89H597V87H595V89ZM595 93H597V91H595V93ZM591 101H593V99H591V101ZM591 85H593V83H591V85ZM591 93H593V91H591V93ZM588 101C588.55 101 589 100.55 589 100V84C589 83.45 588.55 83 588 83C587.45 83 587 83.45 587 84V100C587 100.55 587.45 101 588 101ZM603 89H605V87H603V89ZM599 101H601V99H599V101ZM603 97H605V95H603V97ZM603 83V85H605V83H603ZM603 93H605V91H603V93ZM603 101H605V99H603V101ZM599 93H601V91H599V93ZM599 85H601V83H599V85Z" fill="#323232"/>
</g>
<g clip-path="url(#clip10_17_17527)">
<path d="M93 143H91V145H93V143ZM93 147H91V149H93V147ZM97 147H95V149H97V147ZM83 141V155C83 156.1 83.9 157 85 157H99C100.1 157 101 156.1 101 155V141C101 139.9 100.1 139 99 139H85C83.9 139 83 139.9 83 141ZM98 155H86C85.45 155 85 154.55 85 154V142C85 141.45 85.45 141 86 141H98C98.55 141 99 141.45 99 142V154C99 154.55 98.55 155 98 155ZM93 151H91V153H93V151ZM89 147H87V149H89V147Z" fill="#323232"/>
</g>
<g clip-path="url(#clip11_17_17527)">
<path d="M143 157H145V155H143V157ZM139 141H141V139H139V141ZM143 141H145V139H143V141ZM143 149H145V147H143V149ZM139 157H141V155H139V157ZM147 157H149V155H147V157ZM139 149H141V147H139V149ZM139 153H141V151H139V153ZM139 145H141V143H139V145ZM147 153H149V151H147V153ZM151 149H153V147H151V149ZM155 140V156C155 156.55 155.45 157 156 157C156.55 157 157 156.55 157 156V140C157 139.45 156.55 139 156 139C155.45 139 155 139.45 155 140ZM151 157H153V155H151V157ZM151 141H153V139H151V141ZM147 149H149V147H147V149ZM147 141H149V139H147V141ZM147 145H149V143H147V145Z" fill="#323232"/>
</g>
<g clip-path="url(#clip12_17_17527)">
<path d="M207 157H209V155H207V157ZM211 157H213V155H211V157ZM199 157H201V155H199V157ZM203 157H205V155H203V157ZM211 153H213V151H211V153ZM211 149H213V147H211V149ZM195 141V156C195 156.55 195.45 157 196 157C196.55 157 197 156.55 197 156V142C197 141.45 197.45 141 198 141H212C212.55 141 213 140.55 213 140C213 139.45 212.55 139 212 139H197C195.9 139 195 139.9 195 141ZM211 145H213V143H211V145Z" fill="#323232"/>
</g>
<g clip-path="url(#clip13_17_17527)">
<path d="M255 157H257V155H255V157ZM255 149H257V147H255V149ZM259 149H261V147H259V149ZM259 157H261V155H259V157ZM251 153H253V151H251V153ZM251 157H253V155H251V157ZM251 149H253V147H251V149ZM251 145H253V143H251V145ZM259 153H261V151H259V153ZM267 145H269V143H267V145ZM267 149H269V147H267V149ZM251 140C251 140.55 251.45 141 252 141H268C268.55 141 269 140.55 269 140C269 139.45 268.55 139 268 139H252C251.45 139 251 139.45 251 140ZM267 153H269V151H267V153ZM263 157H265V155H263V157ZM259 145H261V143H259V145ZM267 157H269V155H267V157ZM263 149H265V147H263V149Z" fill="#323232"/>
</g>
<g clip-path="url(#clip14_17_17527)">
<path d="M307 145H309V143H307V145ZM307 141H309V139H307V141ZM311 157H313V155H311V157ZM311 149H313V147H311V149ZM307 149H309V147H307V149ZM307 157H309V155H307V157ZM307 153H309V151H307V153ZM311 141H313V139H311V141ZM323 153H325V151H323V153ZM316 157C316.55 157 317 156.55 317 156V140C317 139.45 316.55 139 316 139C315.45 139 315 139.45 315 140V156C315 156.55 315.45 157 316 157ZM323 157H325V155H323V157ZM323 149H325V147H323V149ZM323 139V141H325V139H323ZM323 145H325V143H323V145ZM319 141H321V139H319V141ZM319 157H321V155H319V157ZM319 149H321V147H319V149Z" fill="#323232"/>
</g>
<g clip-path="url(#clip15_17_17527)">
<path d="M367.2 153.6C368.967 153.6 370.4 152.167 370.4 150.4C370.4 148.633 368.967 147.2 367.2 147.2C365.433 147.2 364 148.633 364 150.4C364 152.167 365.433 153.6 367.2 153.6Z" fill="#323232"/>
<path d="M374.8 156C375.905 156 376.8 155.105 376.8 154C376.8 152.895 375.905 152 374.8 152C373.695 152 372.8 152.895 372.8 154C372.8 155.105 373.695 156 374.8 156Z" fill="#323232"/>
<path d="M375.2 149.6C377.851 149.6 380 147.451 380 144.8C380 142.149 377.851 140 375.2 140C372.549 140 370.4 142.149 370.4 144.8C370.4 147.451 372.549 149.6 375.2 149.6Z" fill="#323232"/>
</g>
<g clip-path="url(#clip16_17_17527)">
<path d="M435 145H421C420.45 145 420 145.45 420 146C420 146.55 420.45 147 421 147H435C435.55 147 436 146.55 436 146C436 145.45 435.55 145 435 145ZM421 151H435C435.55 151 436 150.55 436 150C436 149.45 435.55 149 435 149H421C420.45 149 420 149.45 420 150C420 150.55 420.45 151 421 151Z" fill="#323232"/>
</g>
<g clip-path="url(#clip17_17_17527)">
<path d="M479 152C479 152.55 479.45 153 480 153H488C488.55 153 489 152.55 489 152C489 151.45 488.55 151 488 151H480C479.45 151 479 151.45 479 152ZM476 157H492C492.55 157 493 156.55 493 156C493 155.45 492.55 155 492 155H476C475.45 155 475 155.45 475 156C475 156.55 475.45 157 476 157ZM476 149H492C492.55 149 493 148.55 493 148C493 147.45 492.55 147 492 147H476C475.45 147 475 147.45 475 148C475 148.55 475.45 149 476 149ZM479 144C479 144.55 479.45 145 480 145H488C488.55 145 489 144.55 489 144C489 143.45 488.55 143 488 143H480C479.45 143 479 143.45 479 144ZM475 140C475 140.55 475.45 141 476 141H492C492.55 141 493 140.55 493 140C493 139.45 492.55 139 492 139H476C475.45 139 475 139.45 475 140Z" fill="#323232"/>
</g>
<g clip-path="url(#clip18_17_17527)">
<path d="M532 157H548C548.55 157 549 156.55 549 156C549 155.45 548.55 155 548 155H532C531.45 155 531 155.45 531 156C531 156.55 531.45 157 532 157ZM532 153H548C548.55 153 549 152.55 549 152C549 151.45 548.55 151 548 151H532C531.45 151 531 151.45 531 152C531 152.55 531.45 153 532 153ZM532 149H548C548.55 149 549 148.55 549 148C549 147.45 548.55 147 548 147H532C531.45 147 531 147.45 531 148C531 148.55 531.45 149 532 149ZM532 145H548C548.55 145 549 144.55 549 144C549 143.45 548.55 143 548 143H532C531.45 143 531 143.45 531 144C531 144.55 531.45 145 532 145ZM531 140C531 140.55 531.45 141 532 141H548C548.55 141 549 140.55 549 140C549 139.45 548.55 139 548 139H532C531.45 139 531 139.45 531 140Z" fill="#323232"/>
</g>
<g clip-path="url(#clip19_17_17527)">
<path d="M598 151H588C587.45 151 587 151.45 587 152C587 152.55 587.45 153 588 153H598C598.55 153 599 152.55 599 152C599 151.45 598.55 151 598 151ZM598 143H588C587.45 143 587 143.45 587 144C587 144.55 587.45 145 588 145H598C598.55 145 599 144.55 599 144C599 143.45 598.55 143 598 143ZM588 149H604C604.55 149 605 148.55 605 148C605 147.45 604.55 147 604 147H588C587.45 147 587 147.45 587 148C587 148.55 587.45 149 588 149ZM588 157H604C604.55 157 605 156.55 605 156C605 155.45 604.55 155 604 155H588C587.45 155 587 155.45 587 156C587 156.55 587.45 157 588 157ZM587 140C587 140.55 587.45 141 588 141H604C604.55 141 605 140.55 605 140C605 139.45 604.55 139 604 139H588C587.45 139 587 139.45 587 140Z" fill="#323232"/>
</g>
<g clip-path="url(#clip20_17_17527)">
<path d="M84 213H100C100.55 213 101 212.55 101 212C101 211.45 100.55 211 100 211H84C83.45 211 83 211.45 83 212C83 212.55 83.45 213 84 213ZM90 209H100C100.55 209 101 208.55 101 208C101 207.45 100.55 207 100 207H90C89.45 207 89 207.45 89 208C89 208.55 89.45 209 90 209ZM84 205H100C100.55 205 101 204.55 101 204C101 203.45 100.55 203 100 203H84C83.45 203 83 203.45 83 204C83 204.55 83.45 205 84 205ZM90 201H100C100.55 201 101 200.55 101 200C101 199.45 100.55 199 100 199H90C89.45 199 89 199.45 89 200C89 200.55 89.45 201 90 201ZM83 196C83 196.55 83.45 197 84 197H100C100.55 197 101 196.55 101 196C101 195.45 100.55 195 100 195H84C83.45 195 83 195.45 83 196Z" fill="#323232"/>
</g>
<g clip-path="url(#clip21_17_17527)">
<path d="M151.6 202.79C152.57 202.12 153.25 201.02 153.25 200C153.25 197.74 151.5 196 149.25 196H144C143.45 196 143 196.45 143 197V209C143 209.55 143.45 210 144 210H149.78C151.85 210 153.74 208.31 153.75 206.23C153.76 204.7 152.9 203.39 151.6 202.79ZM146 198.5H149C149.83 198.5 150.5 199.17 150.5 200C150.5 200.83 149.83 201.5 149 201.5H146V198.5ZM149.5 207.5H146V204.5H149.5C150.33 204.5 151 205.17 151 206C151 206.83 150.33 207.5 149.5 207.5Z" fill="#323232"/>
</g>
<g clip-path="url(#clip22_17_17527)">
<path d="M210.5 200C211.33 200 212 199.33 212 198.5C212 197.67 211.33 197 210.5 197H198.39L201.39 200H203.22L202.67 201.28L204.76 203.37L206.21 200H210.5ZM209.44 210.88L196.12 197.56C195.73 197.17 195.1 197.17 194.71 197.56C194.32 197.95 194.32 198.58 194.71 198.97L200.97 205.23L199.32 209.07C198.93 209.99 199.6 211 200.59 211C201.14 211 201.64 210.67 201.86 210.16L203.07 207.33L208.02 212.28C208.41 212.67 209.04 212.67 209.43 212.28C209.83 211.9 209.83 211.27 209.44 210.88Z" fill="#323232"/>
</g>
<g clip-path="url(#clip23_17_17527)">
<path d="M266 206C266 202.91 262.4 198.12 260.77 196.13C260.37 195.64 259.62 195.64 259.22 196.13C258.76 196.7 258.14 197.49 257.49 198.4L265.93 206.84C265.97 206.56 266 206.28 266 206ZM267.29 211.01L254.12 197.84C253.73 197.45 253.1 197.45 252.71 197.84C252.32 198.23 252.32 198.86 252.71 199.25L255.32 201.86C254.55 203.33 254 204.79 254 206C254 209.31 256.69 212 260 212C261.52 212 262.9 211.43 263.95 210.5L265.87 212.42C266.26 212.81 266.89 212.81 267.28 212.42C267.68 212.04 267.68 211.4 267.29 211.01Z" fill="#323232"/>
</g>
<g clip-path="url(#clip24_17_17527)">
<path d="M316 209H324C324.55 209 325 208.55 325 208C325 207.45 324.55 207 324 207H316C315.45 207 315 207.45 315 208C315 208.55 315.45 209 316 209ZM307.35 204.35L310.14 207.14C310.46 207.46 311 207.24 311 206.79V201.21C311 200.76 310.46 200.54 310.15 200.86L307.36 203.65C307.16 203.84 307.16 204.16 307.35 204.35ZM308 213H324C324.55 213 325 212.55 325 212C325 211.45 324.55 211 324 211H308C307.45 211 307 211.45 307 212C307 212.55 307.45 213 308 213ZM307 196C307 196.55 307.45 197 308 197H324C324.55 197 325 196.55 325 196C325 195.45 324.55 195 324 195H308C307.45 195 307 195.45 307 196ZM316 201H324C324.55 201 325 200.55 325 200C325 199.45 324.55 199 324 199H316C315.45 199 315 199.45 315 200C315 200.55 315.45 201 316 201ZM316 205H324C324.55 205 325 204.55 325 204C325 203.45 324.55 203 324 203H316C315.45 203 315 203.45 315 204C315 204.55 315.45 205 316 205Z" fill="#323232"/>
</g>
<g clip-path="url(#clip25_17_17527)">
<path d="M364 213H380C380.55 213 381 212.55 381 212C381 211.45 380.55 211 380 211H364C363.45 211 363 211.45 363 212C363 212.55 363.45 213 364 213ZM363 201.21V206.8C363 207.25 363.54 207.47 363.85 207.15L366.64 204.36C366.84 204.16 366.84 203.85 366.64 203.65L363.85 200.85C363.54 200.54 363 200.76 363 201.21ZM372 209H380C380.55 209 381 208.55 381 208C381 207.45 380.55 207 380 207H372C371.45 207 371 207.45 371 208C371 208.55 371.45 209 372 209ZM363 196C363 196.55 363.45 197 364 197H380C380.55 197 381 196.55 381 196C381 195.45 380.55 195 380 195H364C363.45 195 363 195.45 363 196ZM372 201H380C380.55 201 381 200.55 381 200C381 199.45 380.55 199 380 199H372C371.45 199 371 199.45 371 200C371 200.55 371.45 201 372 201ZM372 205H380C380.55 205 381 204.55 381 204C381 203.45 380.55 203 380 203H372C371.45 203 371 203.45 371 204C371 204.55 371.45 205 372 205Z" fill="#323232"/>
</g>
<g clip-path="url(#clip26_17_17527)">
<path d="M426 197.5C426 198.33 426.67 199 427.5 199H428.21L424.79 207H423.5C422.67 207 422 207.67 422 208.5C422 209.33 422.67 210 423.5 210H428.5C429.33 210 430 209.33 430 208.5C430 207.67 429.33 207 428.5 207H427.79L431.21 199H432.5C433.33 199 434 198.33 434 197.5C434 196.67 433.33 196 432.5 196H427.5C426.67 196 426 196.67 426 197.5Z" fill="#323232"/>
</g>
<g clip-path="url(#clip27_17_17527)">
<path d="M479.29 199C479.74 199 479.96 198.46 479.64 198.15L477.35 195.85C477.15 195.65 476.84 195.65 476.64 195.85L474.35 198.15C474.04 198.46 474.26 199 474.71 199H476V209H474.71C474.26 209 474.04 209.54 474.36 209.85L476.65 212.14C476.85 212.34 477.16 212.34 477.36 212.14L479.65 209.85C479.96 209.54 479.74 209 479.29 209H478V199H479.29ZM483 199H493C493.55 199 494 198.55 494 198C494 197.45 493.55 197 493 197H483C482.45 197 482 197.45 482 198C482 198.55 482.45 199 483 199ZM493 209H483C482.45 209 482 209.45 482 210C482 210.55 482.45 211 483 211H493C493.55 211 494 210.55 494 210C494 209.45 493.55 209 493 209ZM493 203H483C482.45 203 482 203.45 482 204C482 204.55 482.45 205 483 205H493C493.55 205 494 204.55 494 204C494 203.45 493.55 203 493 203Z" fill="#323232"/>
</g>
<g clip-path="url(#clip28_17_17527)">
<path d="M532 202.5C531.17 202.5 530.5 203.17 530.5 204C530.5 204.83 531.17 205.5 532 205.5C532.83 205.5 533.5 204.83 533.5 204C533.5 203.17 532.83 202.5 532 202.5ZM532 196.5C531.17 196.5 530.5 197.17 530.5 198C530.5 198.83 531.17 199.5 532 199.5C532.83 199.5 533.5 198.83 533.5 198C533.5 197.17 532.83 196.5 532 196.5ZM532 208.5C531.17 208.5 530.5 209.18 530.5 210C530.5 210.82 531.18 211.5 532 211.5C532.82 211.5 533.5 210.82 533.5 210C533.5 209.18 532.83 208.5 532 208.5ZM536 211H548C548.55 211 549 210.55 549 210C549 209.45 548.55 209 548 209H536C535.45 209 535 209.45 535 210C535 210.55 535.45 211 536 211ZM536 205H548C548.55 205 549 204.55 549 204C549 203.45 548.55 203 548 203H536C535.45 203 535 203.45 535 204C535 204.55 535.45 205 536 205ZM535 198C535 198.55 535.45 199 536 199H548C548.55 199 549 198.55 549 198C549 197.45 548.55 197 548 197H536C535.45 197 535 197.45 535 198Z" fill="#323232"/>
</g>
<g clip-path="url(#clip29_17_17527)">
<path d="M592 199H604C604.55 199 605 198.55 605 198C605 197.45 604.55 197 604 197H592C591.45 197 591 197.45 591 198C591 198.55 591.45 199 592 199ZM604 209H592C591.45 209 591 209.45 591 210C591 210.55 591.45 211 592 211H604C604.55 211 605 210.55 605 210C605 209.45 604.55 209 604 209ZM604 203H592C591.45 203 591 203.45 591 204C591 204.55 591.45 205 592 205H604C604.55 205 605 204.55 605 204C605 203.45 604.55 203 604 203ZM588.5 208H586.5C586.22 208 586 208.22 586 208.5C586 208.78 586.22 209 586.5 209H588V209.5H587.5C587.22 209.5 587 209.72 587 210C587 210.28 587.22 210.5 587.5 210.5H588V211H586.5C586.22 211 586 211.22 586 211.5C586 211.78 586.22 212 586.5 212H588.5C588.78 212 589 211.78 589 211.5V208.5C589 208.22 588.78 208 588.5 208ZM586.5 197H587V199.5C587 199.78 587.22 200 587.5 200C587.78 200 588 199.78 588 199.5V196.5C588 196.22 587.78 196 587.5 196H586.5C586.22 196 586 196.22 586 196.5C586 196.78 586.22 197 586.5 197ZM588.5 202H586.5C586.22 202 586 202.22 586 202.5C586 202.78 586.22 203 586.5 203H587.8L586.12 204.96C586.04 205.05 586 205.17 586 205.28V205.5C586 205.78 586.22 206 586.5 206H588.5C588.78 206 589 205.78 589 205.5C589 205.22 588.78 205 588.5 205H587.2L588.88 203.04C588.96 202.95 589 202.83 589 202.72V202.5C589 202.22 588.78 202 588.5 202Z" fill="#323232"/>
</g>
<g clip-path="url(#clip30_17_17527)">
<path d="M100.5 264H98.5C98.22 264 98 264.22 98 264.5C98 264.78 98.22 265 98.5 265H100V265.5H99.5C99.22 265.5 99 265.72 99 266C99 266.28 99.22 266.5 99.5 266.5H100V267H98.5C98.22 267 98 267.22 98 267.5C98 267.78 98.22 268 98.5 268H100.5C100.78 268 101 267.78 101 267.5V264.5C101 264.22 100.78 264 100.5 264ZM98.5 253H99V255.5C99 255.78 99.22 256 99.5 256C99.78 256 100 255.78 100 255.5V252.5C100 252.22 99.78 252 99.5 252H98.5C98.22 252 98 252.22 98 252.5C98 252.78 98.22 253 98.5 253ZM101 258.72V258.5C101 258.22 100.78 258 100.5 258H98.5C98.22 258 98 258.22 98 258.5C98 258.78 98.22 259 98.5 259H99.8L98.12 260.96C98.04 261.05 98 261.17 98 261.28V261.5C98 261.78 98.22 262 98.5 262H100.5C100.78 262 101 261.78 101 261.5C101 261.22 100.78 261 100.5 261H99.2L100.88 259.04C100.96 258.95 101 258.83 101 258.72ZM95 253H83C82.45 253 82 253.45 82 254C82 254.55 82.45 255 83 255H95C95.55 255 96 254.55 96 254C96 253.45 95.55 253 95 253ZM95 265H83C82.45 265 82 265.45 82 266C82 266.55 82.45 267 83 267H95C95.55 267 96 266.55 96 266C96 265.45 95.55 265 95 265ZM95 259H83C82.45 259 82 259.45 82 260C82 260.55 82.45 261 83 261H95C95.55 261 96 260.55 96 260C96 259.45 95.55 259 95 259Z" fill="#323232"/>
</g>
<g clip-path="url(#clip31_17_17527)">
<path d="M154 252V251C154 250.45 153.55 250 153 250H141C140.45 250 140 250.45 140 251V255C140 255.55 140.45 256 141 256H153C153.55 256 154 255.55 154 255V254H155V258H146C145.45 258 145 258.45 145 259V269C145 269.55 145.45 270 146 270H148C148.55 270 149 269.55 149 269V260H156C156.55 260 157 259.55 157 259V253C157 252.45 156.55 252 156 252H154Z" fill="#323232"/>
</g>
<g clip-path="url(#clip32_17_17527)">
<path d="M199.17 265C199.68 265 200.15 264.71 200.37 264.26L201.79 261.42C201.93 261.14 202 260.84 202 260.53V256C202 255.45 201.55 255 201 255H197C196.45 255 196 255.45 196 256V260C196 260.55 196.45 261 197 261H199L197.97 263.06C197.52 263.95 198.17 265 199.17 265ZM209.17 265C209.68 265 210.15 264.71 210.37 264.26L211.79 261.42C211.93 261.14 212 260.84 212 260.53V256C212 255.45 211.55 255 211 255H207C206.45 255 206 255.45 206 256V260C206 260.55 206.45 261 207 261H209L207.97 263.06C207.52 263.95 208.17 265 209.17 265Z" fill="#323232"/>
</g>
<g clip-path="url(#clip33_17_17527)">
<path d="M271 254V250C271 249.45 270.55 249 270 249H266C265.45 249 265 249.45 265 250V251H255V250C255 249.45 254.55 249 254 249H250C249.45 249 249 249.45 249 250V254C249 254.55 249.45 255 250 255H251V265H250C249.45 265 249 265.45 249 266V270C249 270.55 249.45 271 250 271H254C254.55 271 255 270.55 255 270V269H265V270C265 270.55 265.45 271 266 271H270C270.55 271 271 270.55 271 270V266C271 265.45 270.55 265 270 265H269V255H270C270.55 255 271 254.55 271 254ZM251 251H253V253H251V251ZM253 269H251V267H253V269ZM265 267H255V266C255 265.45 254.55 265 254 265H253V255H254C254.55 255 255 254.55 255 254V253H265V254C265 254.55 265.45 255 266 255H267V265H266C265.45 265 265 265.45 265 266V267ZM269 269H267V267H269V269ZM267 253V251H269V253H267ZM260.94 255.65C260.79 255.26 260.41 255 259.99 255C259.57 255 259.19 255.26 259.05 255.65L256.28 262.98C256.09 263.47 256.45 264 256.98 264C257.3 264 257.58 263.8 257.69 263.5L258.24 262H261.73L262.29 263.51C262.4 263.8 262.68 264 263 264H263.01C263.54 264 263.9 263.47 263.72 262.98L260.94 255.65ZM258.69 260.74L260 256.91L261.3 260.74H258.69Z" fill="#323232"/>
</g>
<g clip-path="url(#clip34_17_17527)">
<path d="M313 253.5C313 254.33 313.67 255 314.5 255H318V265.5C318 266.33 318.67 267 319.5 267C320.33 267 321 266.33 321 265.5V255H324.5C325.33 255 326 254.33 326 253.5C326 252.67 325.33 252 324.5 252H314.5C313.67 252 313 252.67 313 253.5ZM308.5 260H310V265.5C310 266.33 310.67 267 311.5 267C312.33 267 313 266.33 313 265.5V260H314.5C315.33 260 316 259.33 316 258.5C316 257.67 315.33 257 314.5 257H308.5C307.67 257 307 257.67 307 258.5C307 259.33 307.67 260 308.5 260Z" fill="#323232"/>
</g>
<g clip-path="url(#clip35_17_17527)">
<path d="M372 267C373.1 267 374 266.1 374 265V264H370V265C370 266.1 370.9 267 372 267ZM365 253.5C365 254.33 365.67 255 366.5 255H370V258H374V255H377.5C378.33 255 379 254.33 379 253.5C379 252.67 378.33 252 377.5 252H366.5C365.67 252 365 252.67 365 253.5ZM364 262H380C380.55 262 381 261.55 381 261C381 260.45 380.55 260 380 260H364C363.45 260 363 260.45 363 261C363 261.55 363.45 262 364 262Z" fill="#323232"/>
</g>
<g clip-path="url(#clip36_17_17527)">
<path d="M425 258V262C425 262.55 425.45 263 426 263C426.55 263 427 262.55 427 262V252H429V262C429 262.55 429.45 263 430 263C430.55 263 431 262.55 431 262V252H432C432.55 252 433 251.55 433 251C433 250.45 432.55 250 432 250H425.17C423.08 250 421.22 251.53 421.02 253.61C420.79 255.99 422.66 258 425 258ZM436.65 265.65L433.86 262.86C433.54 262.54 433 262.76 433 263.21V265H422C421.45 265 421 265.45 421 266C421 266.55 421.45 267 422 267H433V268.79C433 269.24 433.54 269.46 433.85 269.14L436.64 266.35C436.84 266.16 436.84 265.84 436.65 265.65Z" fill="#323232"/>
</g>
<g clip-path="url(#clip37_17_17527)">
<path d="M482 258V262C482 262.55 482.45 263 483 263C483.55 263 484 262.55 484 262V252H486V262C486 262.55 486.45 263 487 263C487.55 263 488 262.55 488 262V252H489C489.55 252 490 251.55 490 251C490 250.45 489.55 250 489 250H482.17C480.08 250 478.22 251.53 478.02 253.61C477.79 255.99 479.66 258 482 258ZM480 265V263.21C480 262.76 479.46 262.54 479.15 262.86L476.36 265.65C476.16 265.85 476.16 266.16 476.36 266.36L479.15 269.15C479.46 269.46 480 269.24 480 268.79V267H491C491.55 267 492 266.55 492 266C492 265.45 491.55 265 491 265H480Z" fill="#323232"/>
</g>
<g clip-path="url(#clip38_17_17527)">
<path d="M540.79 264.95C543.82 264.56 546 261.84 546 258.79V252.25C546 251.56 545.44 251 544.75 251C544.06 251 543.5 251.56 543.5 252.25V258.9C543.5 260.57 542.37 262.09 540.73 262.42C538.48 262.89 536.5 261.17 536.5 259V252.25C536.5 251.56 535.94 251 535.25 251C534.56 251 534 251.56 534 252.25V259C534 262.57 537.13 265.42 540.79 264.95ZM533 268C533 268.55 533.45 269 534 269H546C546.55 269 547 268.55 547 268C547 267.45 546.55 267 546 267H534C533.45 267 533 267.45 533 268Z" fill="#323232"/>
</g>
<g clip-path="url(#clip39_17_17527)">
<path d="M600.5 252H591.56C590.7 252 590 252.7 590 253.56C590 253.84 590.12 254.11 590.32 254.3L596.5 260L590.32 265.7C590.12 265.89 590 266.16 590 266.44C590 267.3 590.7 268 591.56 268H600.5C601.33 268 602 267.33 602 266.5C602 265.67 601.33 265 600.5 265H595L598.59 261.41C599.37 260.63 599.37 259.36 598.59 258.58L595 255H600.5C601.33 255 602 254.33 602 253.5C602 252.67 601.33 252 600.5 252Z" fill="#323232"/>
</g>
<g clip-path="url(#clip40_17_17527)">
<path d="M93 310.99H94.79C95.24 310.99 95.46 310.45 95.14 310.14L92.35 307.36C92.15 307.17 91.84 307.17 91.64 307.36L88.86 310.14C88.54 310.45 88.76 310.99 89.21 310.99H91V321.01H89.21C88.76 321.01 88.54 321.55 88.86 321.86L91.65 324.64C91.85 324.83 92.16 324.83 92.36 324.64L95.15 321.86C95.47 321.55 95.24 321.01 94.8 321.01H93V310.99Z" fill="#323232"/>
</g>
<g clip-path="url(#clip41_17_17527)" filter="url(#filter0_d_17_17527)">
<path d="M142.29 318.29L145 321V325C145 325.55 145.45 326 146 326H150C150.55 326 151 325.55 151 325V321L153.71 318.29C153.9 318.1 154 317.85 154 317.58V314C154 313.45 153.55 313 153 313H143C142.45 313 142 313.45 142 314V317.59C142 317.85 142.11 318.11 142.29 318.29ZM148 306C148.55 306 149 306.45 149 307V308C149 308.55 148.55 309 148 309C147.45 309 147 308.55 147 308V307C147 306.45 147.45 306 148 306ZM140.21 309.17C140.6 308.78 141.23 308.78 141.63 309.17L142.34 309.88C142.73 310.27 142.73 310.9 142.34 311.29C141.95 311.68 141.32 311.68 140.93 311.29L140.21 310.58C139.82 310.19 139.82 309.56 140.21 309.17ZM153.67 309.88L154.38 309.17C154.77 308.78 155.4 308.78 155.79 309.17C156.18 309.56 156.18 310.19 155.79 310.58L155.08 311.29C154.69 311.68 154.06 311.68 153.67 311.29C153.28 310.9 153.28 310.27 153.67 309.88Z" fill="#323232"/>
</g>
<g clip-path="url(#clip42_17_17527)">
<path fill-rule="evenodd" clip-rule="evenodd" d="M211 317H197C196.45 317 196 316.55 196 316C196 315.45 196.45 315 197 315H211C211.55 315 212 315.45 212 316C212 316.55 211.55 317 211 317Z" fill="#323232"/>
</g>
<g clip-path="url(#clip43_17_17527)">
<path d="M267 307H253C251.9 307 251 307.9 251 309V323C251 324.1 251.9 325 253 325H267C268.1 325 269 324.1 269 323V309C269 307.9 268.1 307 267 307ZM256 321C255.45 321 255 320.55 255 320V315C255 314.45 255.45 314 256 314C256.55 314 257 314.45 257 315V320C257 320.55 256.55 321 256 321ZM260 321C259.45 321 259 320.55 259 320V312C259 311.45 259.45 311 260 311C260.55 311 261 311.45 261 312V320C261 320.55 260.55 321 260 321ZM264 321C263.45 321 263 320.55 263 320V318C263 317.45 263.45 317 264 317C264.55 317 265 317.45 265 318V320C265 320.55 264.55 321 264 321Z" fill="#323232"/>
</g>
<g clip-path="url(#clip44_17_17527)">
<path d="M312 321C311.45 321 311 320.55 311 320V315C311 314.45 311.45 314 312 314C312.55 314 313 314.45 313 315V320C313 320.55 312.55 321 312 321ZM316 321C315.45 321 315 320.55 315 320V312C315 311.45 315.45 311 316 311C316.55 311 317 311.45 317 312V320C317 320.55 316.55 321 316 321ZM320 321C319.45 321 319 320.55 319 320V318C319 317.45 319.45 317 320 317C320.55 317 321 317.45 321 318V320C321 320.55 320.55 321 320 321ZM322 323H310C309.45 323 309 322.55 309 322V310C309 309.45 309.45 309 310 309H322C322.55 309 323 309.45 323 310V322C323 322.55 322.55 323 322 323ZM323 307H309C307.9 307 307 307.9 307 309V323C307 324.1 307.9 325 309 325H323C324.1 325 325 324.1 325 323V309C325 307.9 324.1 307 323 307Z" fill="#323232"/>
</g>
<g clip-path="url(#clip45_17_17527)">
<path d="M380 306H364C362.9 306 362 306.9 362 308V320C362 321.1 362.9 322 364 322H378L382 326V308C382 306.9 381.1 306 380 306ZM377 318H367C366.45 318 366 317.55 366 317C366 316.45 366.45 316 367 316H377C377.55 316 378 316.45 378 317C378 317.55 377.55 318 377 318ZM377 315H367C366.45 315 366 314.55 366 314C366 313.45 366.45 313 367 313H377C377.55 313 378 313.45 378 314C378 314.55 377.55 315 377 315ZM377 312H367C366.45 312 366 311.55 366 311C366 310.45 366.45 310 367 310H377C377.55 310 378 310.45 378 311C378 311.55 377.55 312 377 312Z" fill="#323232"/>
</g>
<g clip-path="url(#clip46_17_17527)">
<path d="M422 306C420.9 306 420.01 306.9 420.01 308L420 324C420 325.1 420.89 326 421.99 326H434C435.1 326 436 325.1 436 324V312.83C436 312.3 435.79 311.79 435.41 311.42L430.58 306.59C430.21 306.21 429.7 306 429.17 306H422ZM429 312V307.5L434.5 313H430C429.45 313 429 312.55 429 312Z" fill="#323232"/>
</g>
<g clip-path="url(#clip47_17_17527)">
<path d="M483.99 306C478.47 306 474 310.48 474 316C474 321.52 478.47 326 483.99 326C489.52 326 494 321.52 494 316C494 310.48 489.52 306 483.99 306ZM484 324C479.58 324 476 320.42 476 316C476 311.58 479.58 308 484 308C488.42 308 492 311.58 492 316C492 320.42 488.42 324 484 324ZM487.5 315C488.33 315 489 314.33 489 313.5C489 312.67 488.33 312 487.5 312C486.67 312 486 312.67 486 313.5C486 314.33 486.67 315 487.5 315ZM480.5 315C481.33 315 482 314.33 482 313.5C482 312.67 481.33 312 480.5 312C479.67 312 479 312.67 479 313.5C479 314.33 479.67 315 480.5 315ZM484 321.5C486.03 321.5 487.8 320.39 488.75 318.75C488.94 318.42 488.7 318 488.31 318H479.69C479.31 318 479.06 318.42 479.25 318.75C480.2 320.39 481.97 321.5 484 321.5Z" fill="#323232"/>
</g>
<g clip-path="url(#clip48_17_17527)">
<path d="M544 316H541C540.45 316 540 316.45 540 317V320C540 320.55 540.45 321 541 321H544C544.55 321 545 320.55 545 320V317C545 316.45 544.55 316 544 316ZM544 306V307H536V306C536 305.45 535.55 305 535 305C534.45 305 534 305.45 534 306V307H533C531.89 307 531.01 307.9 531.01 309L531 323C531 324.1 531.89 325 533 325H547C548.1 325 549 324.1 549 323V309C549 307.9 548.1 307 547 307H546V306C546 305.45 545.55 305 545 305C544.45 305 544 305.45 544 306ZM546 323H534C533.45 323 533 322.55 533 322V312H547V322C547 322.55 546.55 323 546 323Z" fill="#323232"/>
</g>
<g clip-path="url(#clip49_17_17527)">
<path d="M587.96 315.38C588.24 313.91 589.62 312.9 591.12 312.9H594.05C594.57 312.9 595 312.47 595 311.95C595 311.43 594.57 311 594.05 311H591.22C588.61 311 586.28 312.91 586.03 315.51C585.74 318.49 588.08 321 591 321H594.05C594.57 321 595 320.57 595 320.05C595 319.53 594.57 319.1 594.05 319.1H591C589.09 319.1 587.58 317.36 587.96 315.38ZM593 317H599C599.55 317 600 316.55 600 316C600 315.45 599.55 315 599 315H593C592.45 315 592 315.45 592 316C592 316.55 592.45 317 593 317ZM600.78 311H597.95C597.43 311 597 311.43 597 311.95C597 312.47 597.43 312.9 597.95 312.9H600.88C602.38 312.9 603.76 313.91 604.04 315.38C604.42 317.36 602.91 319.1 601 319.1H597.95C597.43 319.1 597 319.53 597 320.05C597 320.57 597.43 321 597.95 321H601C603.92 321 606.26 318.49 605.98 315.51C605.73 312.91 603.39 311 600.78 311Z" fill="#323232"/>
</g>
<g clip-path="url(#clip50_17_17527)">
<path d="M101 379V365C101 363.9 100.1 363 99 363H85C83.9 363 83 363.9 83 365V379C83 380.1 83.9 381 85 381H99C100.1 381 101 380.1 101 379ZM88.9 373.98L91 376.51L94.1 372.52C94.3 372.26 94.7 372.26 94.9 372.53L98.41 377.21C98.66 377.54 98.42 378.01 98.01 378.01H86.02C85.6 378.01 85.37 377.53 85.63 377.2L88.12 374C88.31 373.74 88.69 373.73 88.9 373.98Z" fill="#323232"/>
</g>
<g clip-path="url(#clip51_17_17527)">
<path d="M155.5 369.5C154.47 369.5 153.6 370.12 153.21 371H150.29C149.9 370.12 149.03 369.5 148 369.5C146.97 369.5 146.1 370.12 145.71 371H142.79C142.4 370.12 141.53 369.5 140.5 369.5C139.12 369.5 138 370.62 138 372C138 373.38 139.12 374.5 140.5 374.5C141.53 374.5 142.4 373.88 142.79 373H145.71C146.1 373.88 146.97 374.5 148 374.5C149.03 374.5 149.9 373.88 150.29 373H153.21C153.6 373.88 154.47 374.5 155.5 374.5C156.88 374.5 158 373.38 158 372C158 370.62 156.88 369.5 155.5 369.5Z" fill="#323232"/>
</g>
<g clip-path="url(#clip52_17_17527)">
<path d="M209.7 379.7C210.09 379.31 210.09 378.68 209.7 378.29L207 375.59L205.59 377L208.29 379.7C208.68 380.09 209.32 380.09 209.7 379.7ZM200.71 368H203V373.59L198.29 378.29C197.9 378.68 197.9 379.31 198.29 379.7C198.68 380.09 199.31 380.09 199.7 379.7L204.41 375C204.79 374.62 205 374.12 205 373.59V368H207.29C207.74 368 207.96 367.46 207.64 367.15L204.35 363.86C204.15 363.66 203.84 363.66 203.64 363.86L200.35 367.15C200.04 367.46 200.26 368 200.71 368Z" fill="#323232"/>
</g>
<g clip-path="url(#clip53_17_17527)">
<path d="M251 377.46V380.5C251 380.78 251.22 381 251.5 381H254.54C254.67 381 254.8 380.95 254.89 380.85L265.81 369.94L262.06 366.19L251.15 377.1C251.05 377.2 251 377.32 251 377.46ZM268.71 367.04C269.1 366.65 269.1 366.02 268.71 365.63L266.37 363.29C265.98 362.9 265.35 362.9 264.96 363.29L263.13 365.12L266.88 368.87L268.71 367.04Z" fill="#323232"/>
</g>
<g clip-path="url(#clip54_17_17527)">
<path d="M326 364C326 362.9 325.1 362 324 362H308C306.9 362 306 362.9 306 364V376C306 377.1 306.9 378 308 378H322L326 382V364Z" fill="#323232"/>
</g>
<g clip-path="url(#clip55_17_17527)">
<path d="M372 362C366.48 362 362 366.48 362 372C362 377.52 366.48 382 372 382C377.52 382 382 377.52 382 372C382 366.48 377.52 362 372 362ZM373.41 378.09V378.67C373.41 379.4 372.81 380 372.08 380H372.07C371.34 380 370.74 379.4 370.74 378.67V378.07C369.41 377.79 368.23 377.06 367.73 375.83C367.5 375.28 367.93 374.67 368.53 374.67H368.77C369.14 374.67 369.44 374.92 369.58 375.27C369.87 376.02 370.63 376.54 372.09 376.54C374.05 376.54 374.49 375.56 374.49 374.95C374.49 374.12 374.05 373.34 371.82 372.81C369.34 372.21 367.64 371.19 367.64 369.14C367.64 367.42 369.03 366.3 370.75 365.93V365.33C370.75 364.6 371.35 364 372.08 364H372.09C372.82 364 373.42 364.6 373.42 365.33V365.95C374.8 366.29 375.67 367.15 376.05 368.21C376.25 368.76 375.83 369.34 375.24 369.34H374.98C374.61 369.34 374.31 369.08 374.21 368.72C373.98 367.96 373.35 367.47 372.09 367.47C370.59 367.47 369.69 368.15 369.69 369.11C369.69 369.95 370.34 370.5 372.36 371.02C374.38 371.54 376.54 372.41 376.54 374.93C376.52 376.76 375.15 377.76 373.41 378.09Z" fill="#323232"/>
</g>
<g clip-path="url(#clip56_17_17527)">
<path d="M428.5 366.9C429.92 366.9 430.63 367.44 430.89 368.3C431.02 368.73 431.45 369 431.9 369H431.96C432.66 369 433.18 368.29 432.93 367.64C432.49 366.49 431.52 365.56 430 365.19V364.5C430 363.67 429.33 363 428.5 363C427.67 363 427 363.67 427 364.5V365.16C426.61 365.24 426.25 365.37 425.9 365.52L427.41 367.03C427.73 366.95 428.1 366.9 428.5 366.9ZM420.77 364.62C420.38 365.01 420.38 365.64 420.77 366.03L423.5 368.77C423.5 370.85 425.06 371.99 427.41 372.68L430.92 376.19C430.58 376.68 429.87 377.1 428.5 377.1C426.85 377.1 426 376.51 425.67 375.67C425.52 375.28 425.18 375 424.77 375H424.6C423.88 375 423.36 375.74 423.65 376.39C424.24 377.72 425.54 378.51 427.01 378.83V379.5C427.01 380.33 427.68 381 428.51 381C429.34 381 430.01 380.33 430.01 379.5V378.85C430.97 378.67 431.84 378.3 432.47 377.73L433.98 379.24C434.37 379.63 435 379.63 435.39 379.24C435.78 378.85 435.78 378.22 435.39 377.83L422.18 364.62C421.79 364.23 421.16 364.23 420.77 364.62Z" fill="#323232"/>
</g>
<g clip-path="url(#clip57_17_17527)">
<path d="M484.5 366.9C485.92 366.9 486.63 367.44 486.89 368.3C487.02 368.73 487.45 369 487.9 369H487.96C488.66 369 489.18 368.29 488.93 367.64C488.49 366.49 487.52 365.56 486 365.19V364.5C486 363.67 485.33 363 484.5 363C483.67 363 483 363.67 483 364.5V365.16C482.61 365.24 482.25 365.37 481.9 365.52L483.41 367.03C483.73 366.95 484.1 366.9 484.5 366.9ZM476.77 364.62C476.38 365.01 476.38 365.64 476.77 366.03L479.5 368.77C479.5 370.85 481.06 371.99 483.41 372.68L486.92 376.19C486.58 376.68 485.87 377.1 484.5 377.1C482.85 377.1 482 376.51 481.67 375.67C481.52 375.28 481.18 375 480.77 375H480.6C479.88 375 479.36 375.74 479.65 376.39C480.24 377.72 481.54 378.51 483.01 378.83V379.5C483.01 380.33 483.68 381 484.51 381C485.34 381 486.01 380.33 486.01 379.5V378.85C486.97 378.67 487.84 378.3 488.47 377.73L489.98 379.24C490.37 379.63 491 379.63 491.39 379.24C491.78 378.85 491.78 378.22 491.39 377.83L478.18 364.62C477.79 364.23 477.16 364.23 476.77 364.62Z" fill="#323232"/>
</g>
<g clip-path="url(#clip58_17_17527)">
<path d="M549.36 366.28L549.3 366.22C548.91 365.83 548.27 365.85 547.91 366.26L545.73 368.71C543.68 366.4 540.83 365 537.61 365C535.11 365 532.78 365.87 530.86 367.3C530.39 367.65 530.34 368.34 530.75 368.75L530.81 368.81C531.14 369.14 531.67 369.2 532.04 368.92C533.63 367.72 535.54 367 537.61 367C540.35 367 542.7 368.26 544.38 370.24L541.5 373.48L538.21 370.19C537.82 369.8 537.19 369.8 536.8 370.19L530.68 376.32C530.31 376.69 530.31 377.3 530.68 377.67L530.83 377.82C531.2 378.19 531.81 378.19 532.18 377.82L537.5 372.49L540.75 375.74C541.16 376.15 541.82 376.13 542.2 375.7L545.55 371.94C546.17 373.06 546.63 374.33 546.87 375.67C546.95 376.14 547.34 376.49 547.82 376.49H547.91C548.51 376.49 548.96 375.94 548.85 375.35C548.53 373.5 547.87 371.81 546.96 370.35L549.4 367.6C549.74 367.22 549.72 366.64 549.36 366.28Z" fill="#323232"/>
</g>
<g clip-path="url(#clip59_17_17527)">
<path d="M604 371H588C587.45 371 587 371.45 587 372C587 372.55 587.45 373 588 373H604C604.55 373 605 372.55 605 372C605 371.45 604.55 371 604 371ZM588 378H598C598.55 378 599 377.55 599 377C599 376.45 598.55 376 598 376H588C587.45 376 587 376.45 587 377C587 377.55 587.45 378 588 378ZM604 366H588C587.45 366 587 366.45 587 367V367.01C587 367.56 587.45 368.01 588 368.01H604C604.55 368.01 605 367.56 605 367.01V367C605 366.45 604.55 366 604 366Z" fill="#323232"/>
</g>
<g clip-path="url(#clip60_17_17527)">
<path d="M91 419.18V436.82C91 437.46 90.41 437.94 89.79 437.8C85.32 436.8 82 432.79 82 428C82 423.21 85.32 419.2 89.79 418.2C90.41 418.06 91 418.54 91 419.18ZM93.03 419.18V425.99C93.03 426.54 93.48 426.99 94.03 426.99H100.82C101.46 426.99 101.94 426.4 101.8 425.77C100.95 422.01 98 419.05 94.25 418.2C93.62 418.06 93.03 418.54 93.03 419.18ZM93.03 430.01V436.82C93.03 437.46 93.62 437.94 94.25 437.8C98.01 436.95 100.96 433.98 101.81 430.22C101.95 429.6 101.46 429 100.83 429H94.04C93.48 429.01 93.03 429.46 93.03 430.01Z" fill="#323232"/>
</g>
<g clip-path="url(#clip61_17_17527)">
<path d="M148 418C142.5 418 138 422.5 138 428C138 433.5 142.5 438 148 438C153.5 438 158 433.5 158 428C158 422.5 153.5 418 148 418ZM149 420.07C152.61 420.52 155.48 423.4 155.93 427H150C149.45 427 149 426.55 149 426V420.07ZM140 428C140 423.94 143.07 420.56 147 420.07V435.94C143.07 435.44 140 432.06 140 428ZM149 435.93V430C149 429.45 149.45 429 150 429H155.93C155.48 432.61 152.61 435.48 149 435.93Z" fill="#323232"/>
</g>
<g clip-path="url(#clip62_17_17527)">
<path d="M210 428C209.45 428 209 428.45 209 429V434.22C209 434.77 208.55 435.22 208 435.22H198C197.45 435.22 197 434.77 197 434.22V424C197 423.45 197.45 423 198 423H203C203.55 423 204 422.55 204 422C204 421.45 203.55 421 203 421H197C195.9 421 195 421.9 195 423V435C195 436.1 195.9 437 197 437H209C210.1 437 211 436.1 211 435V429C211 428.45 210.55 428 210 428Z" fill="#323232"/>
<path d="M213.02 421H211V418.98C211 418.44 210.56 418 210.02 418H209.99C209.44 418 209 418.44 209 418.98V421H206.99C206.45 421 206.01 421.44 206 421.98C206 421.99 206 422 206 422.01C206 422.56 206.44 423 206.99 423H209V425.01C209 425.55 209.44 426 209.99 425.99C210 425.99 210.01 425.99 210.02 425.99C210.56 425.99 211 425.55 211 425.01V423H213.02C213.56 423 214 422.56 214 422.02V421.98C214 421.44 213.56 421 213.02 421Z" fill="#323232"/>
<path d="M206 425H200C199.45 425 199 425.45 199 426C199 426.55 199.45 427 200 427H206C206.55 427 207 426.55 207 426C207 425.45 206.55 425 206 425Z" fill="#323232"/>
<path d="M206 428H200C199.45 428 199 428.45 199 429C199 429.55 199.45 430 200 430H206C206.55 430 207 429.55 207 429C207 428.45 206.55 428 206 428Z" fill="#323232"/>
<path d="M206 431H200C199.45 431 199 431.45 199 432C199 432.55 199.45 433 200 433H206C206.55 433 207 432.55 207 432C207 431.45 206.55 431 206 431Z" fill="#323232"/>
</g>
<g clip-path="url(#clip63_17_17527)">
<path d="M253 421C253 421.55 253.45 422 254 422H266C266.55 422 267 421.55 267 421C267 420.45 266.55 420 266 420H254C253.45 420 253 420.45 253 421ZM255.41 430H257V435C257 435.55 257.45 436 258 436H262C262.55 436 263 435.55 263 435V430H264.59C265.48 430 265.93 428.92 265.3 428.29L260.71 423.7C260.32 423.31 259.69 423.31 259.3 423.7L254.71 428.29C254.08 428.92 254.52 430 255.41 430Z" fill="#323232"/>
</g>
<g clip-path="url(#clip64_17_17527)">
<path d="M311 433C312.657 433 314 431.657 314 430C314 428.343 312.657 427 311 427C309.343 427 308 428.343 308 430C308 431.657 309.343 433 311 433Z" fill="#323232"/>
<path d="M315 425C316.657 425 318 423.657 318 422C318 420.343 316.657 419 315 419C313.343 419 312 420.343 312 422C312 423.657 313.343 425 315 425Z" fill="#323232"/>
<path d="M320.6 436.6C322.257 436.6 323.6 435.257 323.6 433.6C323.6 431.943 322.257 430.6 320.6 430.6C318.943 430.6 317.6 431.943 317.6 433.6C317.6 435.257 318.943 436.6 320.6 436.6Z" fill="#323232"/>
</g>
<g clip-path="url(#clip65_17_17527)">
<path d="M379 419H365C363.9 419 363 419.9 363 421V435C363 436.1 363.9 437 365 437H379C380.1 437 381 436.1 381 435V421C381 419.9 380.1 419 379 419ZM372 421.75C372 421.34 372.34 421 372.75 421C373.16 421 373.5 421.34 373.5 421.75V424L375.29 421.31C375.42 421.12 375.64 421 375.88 421C376.44 421 376.78 421.63 376.47 422.1L375.2 424L376.47 425.9C376.78 426.37 376.45 427 375.88 427C375.64 427 375.42 426.88 375.29 426.69L373.5 424V426.25C373.5 426.66 373.16 427 372.75 427C372.34 427 372 426.66 372 426.25V421.75ZM367 424.25C367 423.7 367.45 423.25 368 423.25H369.5V422.5H367.75C367.34 422.5 367 422.16 367 421.75C367 421.34 367.34 421 367.75 421H370C370.55 421 371 421.45 371 422V423.75C371 424.3 370.55 424.75 370 424.75H368.5V425.5H370.25C370.66 425.5 371 425.84 371 426.25C371 426.66 370.66 427 370.25 427H368C367.45 427 367 426.55 367 426V424.25ZM378.74 429.26L373.71 434.29C373.32 434.68 372.69 434.68 372.3 434.29L369 431L366.51 433.49C365.95 434.05 365 433.65 365 432.87C365 432.64 365.09 432.41 365.26 432.25L368.29 429.22C368.68 428.83 369.31 428.83 369.7 429.22L373 432.5L377.49 428.01C378.05 427.45 379 427.85 379 428.63C379 428.87 378.91 429.09 378.74 429.26Z" fill="#323232"/>
</g>
<g clip-path="url(#clip66_17_17527)">
<path d="M421 425H435C435.55 425 436 425.45 436 426C436 426.55 435.55 427 435 427H421C420.45 427 420 426.55 420 426C420 425.45 420.45 425 421 425ZM421 429H429C429.55 429 430 429.45 430 430C430 430.55 429.55 431 429 431H421C420.45 431 420 430.55 420 430C420 429.45 420.45 429 421 429Z" fill="#323232"/>
</g>
<g clip-path="url(#clip67_17_17527)">
<path d="M476.2 433.78L481.5 428.48L484.75 431.73C485.16 432.14 485.82 432.12 486.2 431.69L493.37 423.62C493.72 423.23 493.7 422.63 493.33 422.25C492.93 421.85 492.26 421.86 491.88 422.29L485.49 429.47L482.2 426.18C481.81 425.79 481.18 425.79 480.79 426.18L474.7 432.28C474.31 432.67 474.31 433.3 474.7 433.69L474.79 433.78C475.18 434.17 475.82 434.17 476.2 433.78Z" fill="#323232"/>
</g>
<g clip-path="url(#clip68_17_17527)">
<path d="M546 426V429H534V426C534 425.45 533.55 425 533 425C532.45 425 532 425.45 532 426V430C532 430.55 532.45 431 533 431H547C547.55 431 548 430.55 548 430V426C548 425.45 547.55 425 547 425C546.45 425 546 425.45 546 426Z" fill="#323232"/>
</g>
<g clip-path="url(#clip69_17_17527)">
<path d="M586.79 430.78L586.7 430.69C586.31 430.3 586.31 429.67 586.7 429.28L592.79 423.18C593.18 422.79 593.81 422.79 594.2 423.18L597.49 426.47L603.88 419.29C604.26 418.86 604.93 418.85 605.33 419.25C605.7 419.63 605.72 420.23 605.37 420.62L598.2 428.69C597.82 429.12 597.16 429.14 596.75 428.73L593.5 425.48L588.2 430.78C587.82 431.17 587.18 431.17 586.79 430.78ZM588.2 436.78L593.5 431.48L596.75 434.73C597.16 435.14 597.82 435.12 598.2 434.69L605.37 426.62C605.72 426.23 605.7 425.63 605.33 425.25C604.93 424.85 604.26 424.86 603.88 425.29L597.49 432.47L594.2 429.18C593.81 428.79 593.18 428.79 592.79 429.18L586.7 435.28C586.31 435.67 586.31 436.3 586.7 436.69L586.79 436.78C587.18 437.17 587.82 437.17 588.2 436.78Z" fill="#323232"/>
</g>
<g clip-path="url(#clip70_17_17527)">
<path d="M94.59 479.52C94.59 479.21 94.54 478.93 94.44 478.67C94.35 478.4 94.2 478.18 94 477.99C93.8 477.8 93.55 477.66 93.25 477.55C92.95 477.45 92.59 477.39 92.19 477.39C91.8 477.39 91.45 477.43 91.16 477.52C90.87 477.61 90.63 477.73 90.44 477.88C90.25 478.04 90.1 478.22 90 478.43C89.9 478.64 89.85 478.86 89.85 479.09C89.85 479.57 90.1 479.97 90.59 480.3C90.97 480.55 91.36 480.78 92 481H87.39C87.34 480.92 87.28 480.83 87.24 480.75C86.98 480.27 86.85 479.72 86.85 479.08C86.85 478.47 86.98 477.92 87.25 477.41C87.51 476.91 87.88 476.48 88.36 476.12C88.84 475.77 89.41 475.49 90.06 475.29C90.72 475.1 91.45 475 92.24 475C93.05 475 93.78 475.11 94.45 475.34C95.11 475.56 95.68 475.88 96.14 476.28C96.61 476.68 96.97 477.16 97.22 477.71C97.47 478.26 97.6 478.86 97.6 479.52H94.59ZM100 482H84C83.45 482 83 482.45 83 483C83 483.55 83.45 484 84 484H92.62C92.8 484.07 93.02 484.14 93.17 484.2C93.54 484.37 93.83 484.54 94.04 484.71C94.25 484.88 94.39 485.07 94.47 485.28C94.54 485.48 94.58 485.71 94.58 485.97C94.58 486.2 94.53 486.42 94.44 486.63C94.35 486.83 94.21 487.01 94.02 487.16C93.83 487.31 93.6 487.42 93.31 487.51C93.02 487.59 92.68 487.64 92.3 487.64C91.87 487.64 91.47 487.6 91.12 487.51C90.77 487.42 90.46 487.28 90.21 487.09C89.96 486.9 89.76 486.65 89.62 486.34C89.48 486.03 89.37 485.58 89.37 485.13H86.4C86.4 485.68 86.48 486.26 86.64 486.71C86.8 487.16 87.01 487.56 87.29 487.92C87.57 488.27 87.89 488.58 88.27 488.84C88.64 489.1 89.05 489.32 89.49 489.49C89.93 489.66 90.39 489.79 90.87 489.88C91.35 489.96 91.83 490.01 92.31 490.01C93.11 490.01 93.84 489.92 94.49 489.73C95.14 489.54 95.7 489.28 96.16 488.94C96.62 488.6 96.98 488.17 97.23 487.67C97.48 487.17 97.61 486.6 97.61 485.96C97.61 485.36 97.51 484.82 97.3 484.35C97.25 484.24 97.19 484.12 97.13 484.02H100C100.55 484.02 101 483.57 101 483.02V483C101 482.45 100.55 482 100 482Z" fill="#323232"/>
</g>
<g clip-path="url(#clip71_17_17527)">
<path d="M146.52 482.73L143.3 477.72C142.82 476.97 143.35 476 144.23 476C144.62 476 144.97 476.2 145.18 476.53L147.94 480.99H148.06L150.8 476.54C151.01 476.2 151.37 476 151.76 476C152.64 476 153.18 476.98 152.7 477.72L149.47 482.72L153.02 488.27C153.5 489.02 152.96 490 152.08 490C151.7 490 151.34 489.8 151.13 489.48L148.06 484.59H147.94L144.87 489.48C144.67 489.8 144.31 490 143.92 490C143.04 490 142.5 489.03 142.98 488.28L146.52 482.73ZM159 491.5C159 491.22 158.78 491 158.5 491H156V490H158C158.55 490 159 489.55 159 489V488C159 487.45 158.55 487 158 487H155.5C155.22 487 155 487.22 155 487.5C155 487.78 155.22 488 155.5 488H158V489H156C155.45 489 155 489.45 155 490V491C155 491.55 155.45 492 156 492H158.5C158.78 492 159 491.78 159 491.5Z" fill="#323232"/>
</g>
<g clip-path="url(#clip72_17_17527)">
<path d="M202.51 484.73L199.3 479.72C198.82 478.97 199.35 478 200.23 478C200.62 478 200.97 478.2 201.18 478.53L203.94 482.99H204.06L206.8 478.54C207 478.2 207.36 478 207.75 478C208.63 478 209.17 478.98 208.69 479.72L205.46 484.72L209.01 490.27C209.5 491.02 208.96 492 208.08 492C207.7 492 207.34 491.8 207.13 491.48L204.06 486.59H203.94L200.87 491.48C200.66 491.8 200.31 492 199.92 492C199.04 492 198.5 491.03 198.98 490.28L202.51 484.73ZM215 480.5C215 480.22 214.78 480 214.5 480H212V479H214C214.55 479 215 478.55 215 478V477C215 476.45 214.55 476 214 476H211.5C211.22 476 211 476.22 211 476.5C211 476.78 211.22 477 211.5 477H214V478H212C211.45 478 211 478.45 211 479V480C211 480.55 211.45 481 212 481H214.5C214.78 481 215 480.78 215 480.5Z" fill="#323232"/>
</g>
<g clip-path="url(#clip73_17_17527)">
<path d="M258 482.02H263V493H258V482.02ZM265 493H268C269.1 493 270 492.1 270 491V482H265V493ZM268 475H253C251.9 475 251 475.9 251 477V480H270V477C270 475.9 269.1 475 268 475ZM251 491C251 492.1 251.9 493 253 493H256V482H251V491Z" fill="#323232"/>
</g>
<g clip-path="url(#clip74_17_17527)">
<path d="M324 479H308C306.9 479 306 478.1 306 477V476C306 474.9 306.9 474 308 474H324C325.1 474 326 474.9 326 476V477C326 478.1 325.1 479 324 479ZM324 481.5H308C306.9 481.5 306 482.4 306 483.5V484.5C306 485.6 306.9 486.5 308 486.5H324C325.1 486.5 326 485.6 326 484.5V483.5C326 482.4 325.1 481.5 324 481.5ZM324 489H308C306.9 489 306 489.9 306 491V492C306 493.1 306.9 494 308 494H324C325.1 494 326 493.1 326 492V491C326 489.9 325.1 489 324 489Z" fill="#323232"/>
</g>
<g clip-path="url(#clip75_17_17527)">
<path d="M362.5 477.5C362.5 478.33 363.17 479 364 479H367.5V489.5C367.5 490.33 368.17 491 369 491C369.83 491 370.5 490.33 370.5 489.5V479H374C374.83 479 375.5 478.33 375.5 477.5C375.5 476.67 374.83 476 374 476H364C363.17 476 362.5 476.67 362.5 477.5ZM380 481H374C373.17 481 372.5 481.67 372.5 482.5C372.5 483.33 373.17 484 374 484H375.5V489.5C375.5 490.33 376.17 491 377 491C377.83 491 378.5 490.33 378.5 489.5V484H380C380.83 484 381.5 483.33 381.5 482.5C381.5 481.67 380.83 481 380 481Z" fill="#323232"/>
</g>
<g clip-path="url(#clip76_17_17527)">
<path d="M421 477.5C421 478.33 421.67 479 422.5 479H426.5V489.5C426.5 490.33 427.17 491 428 491C428.83 491 429.5 490.33 429.5 489.5V479H433.5C434.33 479 435 478.33 435 477.5C435 476.67 434.33 476 433.5 476H422.5C421.67 476 421 476.67 421 477.5Z" fill="#323232"/>
</g>
<g clip-path="url(#clip77_17_17527)">
<path d="M486.79 485H485V476C485 475.45 484.55 475 484 475C483.45 475 483 475.45 483 476V485H481.21C480.76 485 480.54 485.54 480.86 485.85L483.65 488.64C483.85 488.84 484.16 488.84 484.36 488.64L487.15 485.85C487.46 485.54 487.24 485 486.79 485ZM476 492C476 492.55 476.45 493 477 493H491C491.55 493 492 492.55 492 492C492 491.45 491.55 491 491 491H477C476.45 491 476 491.45 476 492Z" fill="#323232"/>
</g>
<g clip-path="url(#clip78_17_17527)">
<path d="M537.21 491H539V494C539 494.55 539.45 495 540 495C540.55 495 541 494.55 541 494V491H542.79C543.24 491 543.46 490.46 543.14 490.15L540.35 487.36C540.15 487.16 539.84 487.16 539.64 487.36L536.85 490.15C536.54 490.46 536.76 491 537.21 491ZM542.79 477H541V474C541 473.45 540.55 473 540 473C539.45 473 539 473.45 539 474V477H537.21C536.76 477 536.54 477.54 536.85 477.85L539.64 480.64C539.84 480.84 540.15 480.84 540.35 480.64L543.14 477.85C543.46 477.54 543.24 477 542.79 477ZM532 484C532 484.55 532.45 485 533 485H547C547.55 485 548 484.55 548 484C548 483.45 547.55 483 547 483H533C532.45 483 532 483.45 532 484Z" fill="#323232"/>
</g>
<g clip-path="url(#clip79_17_17527)">
<path d="M593.21 483H595V492C595 492.55 595.45 493 596 493C596.55 493 597 492.55 597 492V483H598.79C599.24 483 599.46 482.46 599.14 482.15L596.35 479.36C596.15 479.16 595.84 479.16 595.64 479.36L592.85 482.15C592.54 482.46 592.76 483 593.21 483ZM588 476C588 476.55 588.45 477 589 477H603C603.55 477 604 476.55 604 476C604 475.45 603.55 475 603 475H589C588.45 475 588 475.45 588 476Z" fill="#323232"/>
</g>
<g clip-path="url(#clip80_17_17527)">
<path d="M85 535H99C99.55 535 100 534.55 100 534C100 533.45 99.55 533 99 533H85C84.45 533 84 533.45 84 534C84 534.55 84.45 535 85 535ZM96.83 539H85C84.45 539 84 539.45 84 540C84 540.55 84.45 541 85 541H97.13C98.13 541 99.06 541.67 99.22 542.66C99.43 543.91 98.46 545 97.25 545H95V544.21C95 543.76 94.46 543.54 94.15 543.86L92.36 545.65C92.16 545.85 92.16 546.16 92.36 546.36L94.15 548.15C94.47 548.47 95 548.24 95 547.8V547H97C99.34 547 101.21 544.99 100.98 542.61C100.78 540.53 98.92 539 96.83 539ZM89 545H85C84.45 545 84 545.45 84 546C84 546.55 84.45 547 85 547H89C89.55 547 90 546.55 90 546C90 545.45 89.55 545 89 545Z" fill="#323232"/>
</g>
<defs>
<filter id="filter0_d_17_17527" x="132" y="304" width="32" height="32" filterUnits="userSpaceOnUse" color-interpolation-filters="sRGB">
<feFlood flood-opacity="0" result="BackgroundImageFix"/>
<feColorMatrix in="SourceAlpha" type="matrix" values="0 0 0 0 0 0 0 0 0 0 0 0 0 0 0 0 0 0 127 0" result="hardAlpha"/>
<feOffset dy="4"/>
<feGaussianBlur stdDeviation="2"/>
<feComposite in2="hardAlpha" operator="out"/>
<feColorMatrix type="matrix" values="0 0 0 0 0 0 0 0 0 0 0 0 0 0 0 0 0 0 0.25 0"/>
<feBlend mode="normal" in2="BackgroundImageFix" result="effect1_dropShadow_17_17527"/>
<feBlend mode="normal" in="SourceGraphic" in2="effect1_dropShadow_17_17527" result="shape"/>
</filter>
<clipPath id="clip0_17_17527">
<rect width="24" height="24" fill="white" transform="translate(80 80)"/>
</clipPath>
<clipPath id="clip1_17_17527">
<rect width="24" height="24" fill="white" transform="translate(136 80)"/>
</clipPath>
<clipPath id="clip2_17_17527">
<rect width="24" height="24" fill="white" transform="translate(192 80)"/>
</clipPath>
<clipPath id="clip3_17_17527">
<rect width="24" height="24" fill="white" transform="translate(248 80)"/>
</clipPath>
<clipPath id="clip4_17_17527">
<rect width="24" height="24" fill="white" transform="translate(304 80)"/>
</clipPath>
<clipPath id="clip5_17_17527">
<rect width="24" height="24" fill="white" transform="translate(360 80)"/>
</clipPath>
<clipPath id="clip6_17_17527">
<rect width="24" height="24" fill="white" transform="translate(416 80)"/>
</clipPath>
<clipPath id="clip7_17_17527">
<rect width="24" height="24" fill="white" transform="translate(472 80)"/>
</clipPath>
<clipPath id="clip8_17_17527">
<rect width="24" height="24" fill="white" transform="translate(528 80)"/>
</clipPath>
<clipPath id="clip9_17_17527">
<rect width="24" height="24" fill="white" transform="translate(584 80)"/>
</clipPath>
<clipPath id="clip10_17_17527">
<rect width="24" height="24" fill="white" transform="translate(80 136)"/>
</clipPath>
<clipPath id="clip11_17_17527">
<rect width="24" height="24" fill="white" transform="translate(136 136)"/>
</clipPath>
<clipPath id="clip12_17_17527">
<rect width="24" height="24" fill="white" transform="translate(192 136)"/>
</clipPath>
<clipPath id="clip13_17_17527">
<rect width="24" height="24" fill="white" transform="translate(248 136)"/>
</clipPath>
<clipPath id="clip14_17_17527">
<rect width="24" height="24" fill="white" transform="translate(304 136)"/>
</clipPath>
<clipPath id="clip15_17_17527">
<rect width="24" height="24" fill="white" transform="translate(360 136)"/>
</clipPath>
<clipPath id="clip16_17_17527">
<rect width="24" height="24" fill="white" transform="translate(416 136)"/>
</clipPath>
<clipPath id="clip17_17_17527">
<rect width="24" height="24" fill="white" transform="translate(472 136)"/>
</clipPath>
<clipPath id="clip18_17_17527">
<rect width="24" height="24" fill="white" transform="translate(528 136)"/>
</clipPath>
<clipPath id="clip19_17_17527">
<rect width="24" height="24" fill="white" transform="translate(584 136)"/>
</clipPath>
<clipPath id="clip20_17_17527">
<rect width="24" height="24" fill="white" transform="translate(80 192)"/>
</clipPath>
<clipPath id="clip21_17_17527">
<rect width="24" height="24" fill="white" transform="translate(136 192)"/>
</clipPath>
<clipPath id="clip22_17_17527">
<rect width="24" height="24" fill="white" transform="translate(192 192)"/>
</clipPath>
<clipPath id="clip23_17_17527">
<rect width="24" height="24" fill="white" transform="translate(248 192)"/>
</clipPath>
<clipPath id="clip24_17_17527">
<rect width="24" height="24" fill="white" transform="translate(304 192)"/>
</clipPath>
<clipPath id="clip25_17_17527">
<rect width="24" height="24" fill="white" transform="translate(360 192)"/>
</clipPath>
<clipPath id="clip26_17_17527">
<rect width="24" height="24" fill="white" transform="translate(416 192)"/>
</clipPath>
<clipPath id="clip27_17_17527">
<rect width="24" height="24" fill="white" transform="translate(472 192)"/>
</clipPath>
<clipPath id="clip28_17_17527">
<rect width="24" height="24" fill="white" transform="translate(528 192)"/>
</clipPath>
<clipPath id="clip29_17_17527">
<rect width="24" height="24" fill="white" transform="translate(584 192)"/>
</clipPath>
<clipPath id="clip30_17_17527">
<rect width="24" height="24" fill="white" transform="translate(80 248)"/>
</clipPath>
<clipPath id="clip31_17_17527">
<rect width="24" height="24" fill="white" transform="translate(136 248)"/>
</clipPath>
<clipPath id="clip32_17_17527">
<rect width="24" height="24" fill="white" transform="translate(192 248)"/>
</clipPath>
<clipPath id="clip33_17_17527">
<rect width="24" height="24" fill="white" transform="translate(248 248)"/>
</clipPath>
<clipPath id="clip34_17_17527">
<rect width="24" height="24" fill="white" transform="translate(304 248)"/>
</clipPath>
<clipPath id="clip35_17_17527">
<rect width="24" height="24" fill="white" transform="translate(360 248)"/>
</clipPath>
<clipPath id="clip36_17_17527">
<rect width="24" height="24" fill="white" transform="translate(416 248)"/>
</clipPath>
<clipPath id="clip37_17_17527">
<rect width="24" height="24" fill="white" transform="translate(472 248)"/>
</clipPath>
<clipPath id="clip38_17_17527">
<rect width="24" height="24" fill="white" transform="translate(528 248)"/>
</clipPath>
<clipPath id="clip39_17_17527">
<rect width="24" height="24" fill="white" transform="translate(584 248)"/>
</clipPath>
<clipPath id="clip40_17_17527">
<rect width="24" height="24" fill="white" transform="translate(80 304)"/>
</clipPath>
<clipPath id="clip41_17_17527">
<rect width="24" height="24" fill="white" transform="translate(136 304)"/>
</clipPath>
<clipPath id="clip42_17_17527">
<rect width="24" height="24" fill="white" transform="translate(192 304)"/>
</clipPath>
<clipPath id="clip43_17_17527">
<rect width="24" height="24" fill="white" transform="translate(248 304)"/>
</clipPath>
<clipPath id="clip44_17_17527">
<rect width="24" height="24" fill="white" transform="translate(304 304)"/>
</clipPath>
<clipPath id="clip45_17_17527">
<rect width="24" height="24" fill="white" transform="translate(360 304)"/>
</clipPath>
<clipPath id="clip46_17_17527">
<rect width="24" height="24" fill="white" transform="translate(416 304)"/>
</clipPath>
<clipPath id="clip47_17_17527">
<rect width="24" height="24" fill="white" transform="translate(472 304)"/>
</clipPath>
<clipPath id="clip48_17_17527">
<rect width="24" height="24" fill="white" transform="translate(528 304)"/>
</clipPath>
<clipPath id="clip49_17_17527">
<rect width="24" height="24" fill="white" transform="translate(584 304)"/>
</clipPath>
<clipPath id="clip50_17_17527">
<rect width="24" height="24" fill="white" transform="translate(80 360)"/>
</clipPath>
<clipPath id="clip51_17_17527">
<rect width="24" height="24" fill="white" transform="translate(136 360)"/>
</clipPath>
<clipPath id="clip52_17_17527">
<rect width="24" height="24" fill="white" transform="translate(192 360)"/>
</clipPath>
<clipPath id="clip53_17_17527">
<rect width="24" height="24" fill="white" transform="translate(248 360)"/>
</clipPath>
<clipPath id="clip54_17_17527">
<rect width="24" height="24" fill="white" transform="translate(304 360)"/>
</clipPath>
<clipPath id="clip55_17_17527">
<rect width="24" height="24" fill="white" transform="translate(360 360)"/>
</clipPath>
<clipPath id="clip56_17_17527">
<rect width="24" height="24" fill="white" transform="translate(416 360)"/>
</clipPath>
<clipPath id="clip57_17_17527">
<rect width="24" height="24" fill="white" transform="translate(472 360)"/>
</clipPath>
<clipPath id="clip58_17_17527">
<rect width="24" height="24" fill="white" transform="translate(528 360)"/>
</clipPath>
<clipPath id="clip59_17_17527">
<rect width="24" height="24" fill="white" transform="translate(584 360)"/>
</clipPath>
<clipPath id="clip60_17_17527">
<rect width="24" height="24" fill="white" transform="translate(80 416)"/>
</clipPath>
<clipPath id="clip61_17_17527">
<rect width="24" height="24" fill="white" transform="translate(136 416)"/>
</clipPath>
<clipPath id="clip62_17_17527">
<rect width="24" height="24" fill="white" transform="translate(192 416)"/>
</clipPath>
<clipPath id="clip63_17_17527">
<rect width="24" height="24" fill="white" transform="translate(248 416)"/>
</clipPath>
<clipPath id="clip64_17_17527">
<rect width="24" height="24" fill="white" transform="translate(304 416)"/>
</clipPath>
<clipPath id="clip65_17_17527">
<rect width="24" height="24" fill="white" transform="translate(360 416)"/>
</clipPath>
<clipPath id="clip66_17_17527">
<rect width="24" height="24" fill="white" transform="translate(416 416)"/>
</clipPath>
<clipPath id="clip67_17_17527">
<rect width="24" height="24" fill="white" transform="translate(472 416)"/>
</clipPath>
<clipPath id="clip68_17_17527">
<rect width="24" height="24" fill="white" transform="translate(528 416)"/>
</clipPath>
<clipPath id="clip69_17_17527">
<rect width="24" height="24" fill="white" transform="translate(584 416)"/>
</clipPath>
<clipPath id="clip70_17_17527">
<rect width="24" height="24" fill="white" transform="translate(80 472)"/>
</clipPath>
<clipPath id="clip71_17_17527">
<rect width="24" height="24" fill="white" transform="translate(136 472)"/>
</clipPath>
<clipPath id="clip72_17_17527">
<rect width="24" height="24" fill="white" transform="translate(192 472)"/>
</clipPath>
<clipPath id="clip73_17_17527">
<rect width="24" height="24" fill="white" transform="translate(248 472)"/>
</clipPath>
<clipPath id="clip74_17_17527">
<rect width="24" height="24" fill="white" transform="translate(304 472)"/>
</clipPath>
<clipPath id="clip75_17_17527">
<rect width="24" height="24" fill="white" transform="translate(360 472)"/>
</clipPath>
<clipPath id="clip76_17_17527">
<rect width="24" height="24" fill="white" transform="translate(416 472)"/>
</clipPath>
<clipPath id="clip77_17_17527">
<rect width="24" height="24" fill="white" transform="translate(472 472)"/>
</clipPath>
<clipPath id="clip78_17_17527">
<rect width="24" height="24" fill="white" transform="translate(528 472)"/>
</clipPath>
<clipPath id="clip79_17_17527">
<rect width="24" height="24" fill="white" transform="translate(584 472)"/>
</clipPath>
<clipPath id="clip80_17_17527">
<rect width="24" height="24" fill="white" transform="translate(80 528)"/>
</clipPath>
</defs>
</svg>
