<svg width="688" height="296" viewBox="0 0 688 296" fill="none" xmlns="http://www.w3.org/2000/svg">
<rect x="0.5" y="0.5" width="687" height="295" rx="31.5" stroke="#CCCCCC"/>
<g clip-path="url(#clip0_17_17444)">
<path d="M97.75 96H87.17C85.08 96 83.22 94.47 83.02 92.39C82.79 90.01 84.66 88 87 88H99.36C100.67 88 101.86 88.94 101.99 90.24C102.14 91.74 100.97 93 99.5 93H89C88.45 93 88 92.55 88 92C88 91.45 88.45 91 89 91H97.75C98.16 91 98.5 90.66 98.5 90.25C98.5 89.84 98.16 89.5 97.75 89.5H89.14C87.83 89.5 86.64 90.44 86.51 91.74C86.36 93.24 87.53 94.5 89 94.5H99.33C101.42 94.5 103.28 92.97 103.48 90.89C103.71 88.5 101.84 86.5 99.5 86.5H87.23C84.36 86.5 81.79 88.6 81.52 91.46C81.22 94.75 83.78 97.5 87 97.5H97.75C98.16 97.5 98.5 97.16 98.5 96.75C98.5 96.34 98.16 96 97.75 96Z" fill="#323232"/>
</g>
<g clip-path="url(#clip1_17_17444)">
<path d="M157 90V84C157 82.9 156.1 82 155 82H139C137.9 82 137.01 82.9 137.01 84L137 96C137 97.1 137.9 98 139 98H150V93C150 91.34 151.34 90 153 90H157ZM147.53 90.67C147.21 90.87 146.79 90.87 146.47 90.67L139.4 86.25C139.15 86.09 139 85.82 139 85.53C139 84.86 139.73 84.46 140.3 84.81L147 89L153.7 84.81C154.27 84.46 155 84.86 155 85.53C155 85.82 154.85 86.09 154.6 86.25L147.53 90.67Z" fill="#323232"/>
<path d="M158 94C157.45 94 157 94.45 157 95V98C157 99.1 156.1 100 155 100C153.9 100 153 99.1 153 98V93.5C153 93.22 153.22 93 153.5 93C153.78 93 154 93.22 154 93.5V97C154 97.55 154.45 98 155 98C155.55 98 156 97.55 156 97V93.5C156 92.12 154.88 91 153.5 91C152.12 91 151 92.12 151 93.5V98C151 100.21 152.79 102 155 102C157.21 102 159 100.21 159 98V95C159 94.45 158.55 94 158 94Z" fill="#323232"/>
</g>
<g clip-path="url(#clip2_17_17444)">
<path d="M211.35 90.04C210.67 86.59 207.64 84 204 84C201.11 84 198.6 85.64 197.35 88.04C194.34 88.36 192 90.91 192 94C192 97.31 194.69 100 198 100H211C213.76 100 216 97.76 216 95C216 92.36 213.95 90.22 211.35 90.04Z" fill="#323232"/>
</g>
<g clip-path="url(#clip3_17_17444)">
<path d="M260 82C254.48 82 250 86.48 250 92C250 97.52 254.48 102 260 102C265.52 102 270 97.52 270 92C270 86.48 265.52 82 260 82ZM264.5 96H256C254.34 96 253 94.66 253 93C253 91.34 254.34 90 256 90H256.14C256.58 88.27 258.13 87 260 87C262.21 87 264 88.79 264 91H264.5C265.88 91 267 92.12 267 93.5C267 94.88 265.88 96 264.5 96Z" fill="#323232"/>
</g>
<g clip-path="url(#clip4_17_17444)">
<path d="M323.35 90.04C322.67 86.59 319.64 84 316 84C313.11 84 310.6 85.64 309.35 88.04C306.34 88.36 304 90.91 304 94C304 97.31 306.69 100 310 100H323C325.76 100 328 97.76 328 95C328 92.36 325.95 90.22 323.35 90.04ZM314.71 96.29C314.32 96.68 313.69 96.68 313.3 96.29L311.2 94.2C310.81 93.81 310.81 93.18 311.2 92.79C311.59 92.4 312.22 92.4 312.61 92.79L314 94.18L318.48 89.7C318.87 89.31 319.5 89.31 319.89 89.7C320.28 90.09 320.28 90.72 319.89 91.11L314.71 96.29Z" fill="#323232"/>
</g>
<g clip-path="url(#clip5_17_17444)">
<path d="M379.35 90.04C378.67 86.59 375.64 84 372 84C369.11 84 366.6 85.64 365.35 88.04C362.34 88.36 360 90.91 360 94C360 97.31 362.69 100 366 100H379C381.76 100 384 97.76 384 95C384 92.36 381.95 90.22 379.35 90.04ZM377 93L372.35 97.65C372.15 97.85 371.84 97.85 371.64 97.65L367 93H370V89H374V93H377Z" fill="#323232"/>
</g>
<g clip-path="url(#clip6_17_17444)">
<path d="M440 95C440 92.36 437.95 90.22 435.35 90.04C434.67 86.59 431.64 84 428 84C426.67 84 425.43 84.36 424.35 84.97L425.84 86.46C426.51 86.17 427.23 86 428 86C431.04 86 433.5 88.46 433.5 91.5V92H435C436.66 92 438 93.34 438 95C438 95.99 437.52 96.85 436.79 97.4L438.2 98.81C439.29 97.89 440 96.54 440 95ZM419.71 84.56C419.32 84.95 419.32 85.58 419.71 85.97L421.77 88.03H421.35C418.07 88.38 415.59 91.37 416.06 94.82C416.46 97.84 419.19 100 422.22 100H433.73L435.02 101.29C435.41 101.68 436.04 101.68 436.43 101.29C436.82 100.9 436.82 100.27 436.43 99.88L421.12 84.56C420.73 84.17 420.1 84.17 419.71 84.56ZM422 98C419.79 98 418 96.21 418 94C418 91.79 419.79 90 422 90H423.73L431.73 98H422Z" fill="#323232"/>
</g>
<g clip-path="url(#clip7_17_17444)">
<path d="M491.35 90.04C490.67 86.59 487.64 84 484 84C481.11 84 478.6 85.64 477.35 88.04C474.34 88.36 472 90.91 472 94C472 97.31 474.69 100 478 100H491C493.76 100 496 97.76 496 95C496 92.36 493.95 90.22 491.35 90.04ZM491 98H478C475.79 98 474 96.21 474 94C474 91.79 475.79 90 478 90H478.71C479.37 87.69 481.48 86 484 86C487.04 86 489.5 88.46 489.5 91.5V92H491C492.66 92 494 93.34 494 95C494 96.66 492.66 98 491 98Z" fill="#323232"/>
</g>
<g clip-path="url(#clip8_17_17444)">
<path d="M547.35 90.04C546.67 86.59 543.64 84 540 84C537.11 84 534.6 85.64 533.35 88.04C530.34 88.36 528 90.91 528 94C528 97.31 530.69 100 534 100H547C549.76 100 552 97.76 552 95C552 92.36 549.95 90.22 547.35 90.04ZM542 93V97H538V93H535L539.65 88.35C539.85 88.15 540.16 88.15 540.36 88.35L545 93H542Z" fill="#323232"/>
</g>
<g clip-path="url(#clip9_17_17444)">
<path d="M604 86H596L594.59 84.59C594.21 84.21 593.7 84 593.17 84H588C586.89 84 586.01 84.89 586.01 86L586 98C586 99.11 586.89 100 588 100H604C605.1 100 606 99.1 606 98V88C606 86.9 605.1 86 604 86ZM602 94H600V96C600 96.55 599.55 97 599 97C598.45 97 598 96.55 598 96V94H596C595.45 94 595 93.55 595 93C595 92.45 595.45 92 596 92H598V90C598 89.45 598.45 89 599 89C599.55 89 600 89.45 600 90V92H602C602.55 92 603 92.45 603 93C603 93.55 602.55 94 602 94Z" fill="#323232"/>
</g>
<g clip-path="url(#clip10_17_17444)">
<path d="M96.59 145H95V140C95 139.45 94.55 139 94 139H90C89.45 139 89 139.45 89 140V145H87.41C86.52 145 86.07 146.08 86.7 146.71L91.29 151.3C91.68 151.69 92.31 151.69 92.7 151.3L97.29 146.71C97.92 146.08 97.48 145 96.59 145ZM85 155C85 155.55 85.45 156 86 156H98C98.55 156 99 155.55 99 155C99 154.45 98.55 154 98 154H86C85.45 154 85 154.45 85 155Z" fill="#323232"/>
</g>
<g clip-path="url(#clip11_17_17444)">
<path d="M142 154H154C154.55 154 155 154.45 155 155C155 155.55 154.55 156 154 156H142C141.45 156 141 155.55 141 155C141 154.45 141.45 154 142 154ZM147.01 149.9C146.23 150.67 144.97 150.67 144.19 149.89L142 147.7C141.45 147.15 141.46 146.26 142.03 145.73C142.57 145.21 143.43 145.23 143.95 145.75L145.6 147.4L152.03 140.97C152.57 140.43 153.44 140.43 153.98 140.97L154.02 141.01C154.56 141.55 154.56 142.43 154.01 142.97L147.01 149.9Z" fill="#323232"/>
</g>
<g clip-path="url(#clip12_17_17444)">
<path d="M202.59 140.59C202.21 140.21 201.7 140 201.17 140H196C194.9 140 194.01 140.9 194.01 142L194 154C194 155.1 194.9 156 196 156H212C213.1 156 214 155.1 214 154V144C214 142.9 213.1 142 212 142H204L202.59 140.59Z" fill="#323232"/>
</g>
<g clip-path="url(#clip13_17_17444)">
<path d="M268 142H260L258.59 140.59C258.21 140.21 257.7 140 257.17 140H252C250.9 140 250.01 140.9 250.01 142L250 154C250 155.1 250.9 156 252 156H268C269.1 156 270 155.1 270 154V144C270 142.9 269.1 142 268 142ZM267 154H253C252.45 154 252 153.55 252 153V145C252 144.45 252.45 144 253 144H267C267.55 144 268 144.45 268 145V153C268 153.55 267.55 154 267 154Z" fill="#323232"/>
</g>
<g clip-path="url(#clip14_17_17444)">
<path d="M324 142H316L314.59 140.59C314.21 140.21 313.7 140 313.17 140H308C306.9 140 306.01 140.9 306.01 142L306 154C306 155.1 306.9 156 308 156H324C325.1 156 326 155.1 326 154V144C326 142.9 325.1 142 324 142ZM319 145C320.1 145 321 145.9 321 147C321 148.1 320.1 149 319 149C317.9 149 317 148.1 317 147C317 145.9 317.9 145 319 145ZM323 153H315V152C315 150.67 317.67 150 319 150C320.33 150 323 150.67 323 152V153Z" fill="#323232"/>
</g>
<g clip-path="url(#clip15_17_17444)">
<path d="M379.41 143.41L374.58 138.58C374.21 138.21 373.7 138 373.17 138H366C364.9 138 364.01 138.9 364.01 140L364 156C364 157.1 364.89 158 365.99 158H378C379.1 158 380 157.1 380 156V144.83C380 144.3 379.79 143.79 379.41 143.41ZM374 149C374.55 149 375 149.45 375 150V153C375 153.55 374.55 154 374 154H373C373 154.55 372.55 155 372 155C371.45 155 371 154.55 371 154H370C369.45 154 369 153.55 369 153C369 152.45 369.45 152 370 152H373V151H370C369.45 151 369 150.55 369 150V147C369 146.45 369.45 146 370 146H371C371 145.45 371.45 145 372 145C372.55 145 373 145.45 373 146H374C374.55 146 375 146.45 375 147C375 147.55 374.55 148 374 148H371V149H374ZM374 144C373.45 144 373 143.55 373 143V139.5L377.5 144H374Z" fill="#323232"/>
</g>
<g clip-path="url(#clip16_17_17444)">
<path d="M436 142H428L426.59 140.59C426.21 140.21 425.7 140 425.17 140H420C418.9 140 418.01 140.9 418.01 142L418 154C418 155.1 418.9 156 420 156H436C437.1 156 438 155.1 438 154V144C438 142.9 437.1 142 436 142ZM423.12 151.29L421.71 149.88C421.32 149.49 421.32 148.86 421.71 148.47C422.1 148.08 422.73 148.08 423.12 148.47L423.83 149.18L426.66 146.35C427.05 145.96 427.68 145.96 428.07 146.35C428.46 146.74 428.46 147.37 428.07 147.76L424.53 151.3C424.14 151.68 423.51 151.68 423.12 151.29ZM433.41 149L434.29 149.88C434.68 150.27 434.68 150.9 434.29 151.29C433.9 151.68 433.27 151.68 432.88 151.29L432 150.41L431.12 151.29C430.73 151.68 430.1 151.68 429.71 151.29C429.32 150.9 429.32 150.27 429.71 149.88L430.59 149L429.71 148.12C429.32 147.73 429.32 147.1 429.71 146.71C430.1 146.32 430.73 146.32 431.12 146.71L432 147.59L432.88 146.71C433.27 146.32 433.9 146.32 434.29 146.71C434.68 147.1 434.68 147.73 434.29 148.12L433.41 149Z" fill="#323232"/>
</g>
<g clip-path="url(#clip17_17_17444)">
<path d="M487.88 146.5L489.5 148.12V151.5H486.5V146.5H487.88ZM494 144V154C494 155.1 493.1 156 492 156H476C474.9 156 474 155.1 474 154L474.01 142C474.01 140.9 474.9 140 476 140H481.17C481.7 140 482.21 140.21 482.58 140.59L484 142H492C493.1 142 494 142.9 494 144ZM491 147.91C491 147.64 490.89 147.39 490.71 147.2L488.8 145.29C488.61 145.11 488.35 145 488.09 145H486C485.45 145 485 145.45 485 146V152C485 152.55 485.45 153 486 153H490C490.55 153 491 152.55 491 152V147.91Z" fill="#323232"/>
</g>
<g clip-path="url(#clip18_17_17444)">
<path d="M542.17 139H533C531.9 139 531 139.9 531 141V155C531 156.1 531.9 157 533 157H547C548.1 157 549 156.1 549 155V145.83C549 145.3 548.79 144.79 548.41 144.42L543.58 139.59C543.21 139.21 542.7 139 542.17 139ZM536 151H544C544.55 151 545 151.45 545 152C545 152.55 544.55 153 544 153H536C535.45 153 535 152.55 535 152C535 151.45 535.45 151 536 151ZM536 147H544C544.55 147 545 147.45 545 148C545 148.55 544.55 149 544 149H536C535.45 149 535 148.55 535 148C535 147.45 535.45 147 536 147ZM536 143H541C541.55 143 542 143.45 542 144C542 144.55 541.55 145 541 145H536C535.45 145 535 144.55 535 144C535 143.45 535.45 143 536 143Z" fill="#323232"/>
</g>
<g clip-path="url(#clip19_17_17444)">
<path d="M604 142H596L594.59 140.59C594.21 140.21 593.7 140 593.17 140H588C586.9 140 586.01 140.9 586.01 142L586 154C586 155.1 586.9 156 588 156H604C605.1 156 606 155.1 606 154V144C606 142.9 605.1 142 604 142ZM597 152H591C590.45 152 590 151.55 590 151C590 150.45 590.45 150 591 150H597C597.55 150 598 150.45 598 151C598 151.55 597.55 152 597 152ZM601 148H591C590.45 148 590 147.55 590 147C590 146.45 590.45 146 591 146H601C601.55 146 602 146.45 602 147C602 147.55 601.55 148 601 148Z" fill="#323232"/>
</g>
<g clip-path="url(#clip20_17_17444)">
<path d="M90 208H94C94.55 208 95 207.55 95 207V202H96.59C97.48 202 97.93 200.92 97.3 200.29L92.71 195.7C92.32 195.31 91.69 195.31 91.3 195.7L86.71 200.29C86.08 200.92 86.52 202 87.41 202H89V207C89 207.55 89.45 208 90 208ZM86 210H98C98.55 210 99 210.45 99 211C99 211.55 98.55 212 98 212H86C85.45 212 85 211.55 85 211C85 210.45 85.45 210 86 210Z" fill="#323232"/>
</g>
<defs>
<clipPath id="clip0_17_17444">
<rect width="24" height="24" fill="white" transform="translate(80 80)"/>
</clipPath>
<clipPath id="clip1_17_17444">
<rect width="24" height="24" fill="white" transform="translate(136 80)"/>
</clipPath>
<clipPath id="clip2_17_17444">
<rect width="24" height="24" fill="white" transform="translate(192 80)"/>
</clipPath>
<clipPath id="clip3_17_17444">
<rect width="24" height="24" fill="white" transform="translate(248 80)"/>
</clipPath>
<clipPath id="clip4_17_17444">
<rect width="24" height="24" fill="white" transform="translate(304 80)"/>
</clipPath>
<clipPath id="clip5_17_17444">
<rect width="24" height="24" fill="white" transform="translate(360 80)"/>
</clipPath>
<clipPath id="clip6_17_17444">
<rect width="24" height="24" fill="white" transform="translate(416 80)"/>
</clipPath>
<clipPath id="clip7_17_17444">
<rect width="24" height="24" fill="white" transform="translate(472 80)"/>
</clipPath>
<clipPath id="clip8_17_17444">
<rect width="24" height="24" fill="white" transform="translate(528 80)"/>
</clipPath>
<clipPath id="clip9_17_17444">
<rect width="24" height="24" fill="white" transform="translate(584 80)"/>
</clipPath>
<clipPath id="clip10_17_17444">
<rect width="24" height="24" fill="white" transform="translate(80 136)"/>
</clipPath>
<clipPath id="clip11_17_17444">
<rect width="24" height="24" fill="white" transform="translate(136 136)"/>
</clipPath>
<clipPath id="clip12_17_17444">
<rect width="24" height="24" fill="white" transform="translate(192 136)"/>
</clipPath>
<clipPath id="clip13_17_17444">
<rect width="24" height="24" fill="white" transform="translate(248 136)"/>
</clipPath>
<clipPath id="clip14_17_17444">
<rect width="24" height="24" fill="white" transform="translate(304 136)"/>
</clipPath>
<clipPath id="clip15_17_17444">
<rect width="24" height="24" fill="white" transform="translate(360 136)"/>
</clipPath>
<clipPath id="clip16_17_17444">
<rect width="24" height="24" fill="white" transform="translate(416 136)"/>
</clipPath>
<clipPath id="clip17_17_17444">
<rect width="24" height="24" fill="white" transform="translate(472 136)"/>
</clipPath>
<clipPath id="clip18_17_17444">
<rect width="24" height="24" fill="white" transform="translate(528 136)"/>
</clipPath>
<clipPath id="clip19_17_17444">
<rect width="24" height="24" fill="white" transform="translate(584 136)"/>
</clipPath>
<clipPath id="clip20_17_17444">
<rect width="24" height="24" fill="white" transform="translate(80 192)"/>
</clipPath>
</defs>
</svg>
