<svg width="48" height="48" viewBox="0 0 48 48" fill="none" xmlns="http://www.w3.org/2000/svg">
<g clip-path="url(#clip0_17_18341)">
<path d="M19.86 27H28.14L24 15.96L19.86 27ZM40 4H8C5.8 4 4 5.8 4 8V40C4 42.2 5.8 44 8 44H40C42.2 44 44 42.2 44 40V8C44 5.8 42.2 4 40 4ZM31.42 35.76L29.62 31H18.34L16.56 35.74C16.28 36.5 15.56 37 14.74 37C13.38 37 12.44 35.62 12.94 34.36L21.44 12.74C21.88 11.68 22.88 11 24 11C25.12 11 26.12 11.68 26.54 12.74L35.04 34.36C35.54 35.62 34.6 37 33.24 37C32.44 37 31.72 36.5 31.42 35.76Z" fill="#323232"/>
</g>
<defs>
<clipPath id="clip0_17_18341">
<rect width="48" height="48" fill="white"/>
</clipPath>
</defs>
</svg>
