<svg width="688" height="464" viewBox="0 0 688 464" fill="none" xmlns="http://www.w3.org/2000/svg">
<rect x="0.5" y="0.5" width="687" height="463" rx="31.5" stroke="#CCCCCC"/>
<g clip-path="url(#clip0_17_17581)">
<path d="M99 86V96.5L100.95 98.45C100.98 98.3 101 98.15 101 98V86C101 84.9 100.1 84 99 84H86.5L88.5 86H99Z" fill="#323232"/>
<path d="M83.8599 83.95C83.5099 83.6 82.9399 83.6 82.5899 83.95C82.2399 84.3 82.2399 84.87 82.5899 85.22L82.9999 85.64V98C82.9999 99.1 83.8999 100 84.9999 100H97.3599L98.7799 101.42C99.1299 101.77 99.6999 101.77 100.05 101.42C100.4 101.07 100.4 100.5 100.05 100.15L83.8599 83.95ZM84.9999 98V87.64L95.3599 98H84.9999Z" fill="#323232"/>
</g>
<path d="M157 83H139C137.9 83 137 83.9 137 85V87C137 87.55 137.45 88 138 88C138.55 88 139 87.55 139 87V86C139 85.45 139.45 85 140 85H156C156.55 85 157 85.45 157 86V98C157 98.55 156.55 99 156 99H151C150.45 99 150 99.45 150 100C150 100.55 150.45 101 151 101H157C158.1 101 159 100.1 159 99V85C159 83.9 158.1 83 157 83ZM138.14 94.09C137.54 93.99 137 94.48 137 95.09C137 95.58 137.36 95.99 137.85 96.07C139.93 96.43 141.57 98.07 141.93 100.15C142.01 100.64 142.42 101 142.91 101C143.52 101 144 100.46 143.91 99.86C143.43 96.9 141.09 94.57 138.14 94.09ZM137 98V101H140C140 99.34 138.66 98 137 98ZM138.1 90.05C137.51 90 137 90.46 137 91.05C137 91.56 137.38 91.99 137.88 92.04C142.15 92.45 145.55 95.85 145.96 100.12C146.01 100.62 146.44 100.99 146.95 100.99C147.55 100.99 148.01 100.47 147.95 99.88C147.42 94.69 143.29 90.57 138.1 90.05Z" fill="#323232"/>
<path d="M211 96V88C211 87.45 210.55 87 210 87H198C197.45 87 197 87.45 197 88V88.63C200.96 89.91 204.09 93.04 205.37 97H210C210.55 97 211 96.55 211 96ZM213 83H195C193.9 83 193 83.9 193 85V87C193 87.55 193.45 88 194 88C194.55 88 195 87.55 195 87V86C195 85.45 195.45 85 196 85H212C212.55 85 213 85.45 213 86V98C213 98.55 212.55 99 212 99H207C206.45 99 206 99.45 206 100C206 100.55 206.45 101 207 101H213C214.1 101 215 100.1 215 99V85C215 83.9 214.1 83 213 83ZM193 98V101H196C196 100.38 195.81 99.8 195.49 99.32C194.95 98.52 194.04 98 193 98ZM194.14 94.09C193.54 93.99 193 94.48 193 95.09C193 95.58 193.36 95.99 193.85 96.07C195.93 96.43 197.57 98.07 197.93 100.15C198.01 100.64 198.42 101 198.91 101C199.52 101 200 100.46 199.91 99.86C199.43 96.9 197.09 94.57 194.14 94.09ZM194.1 90.05C193.51 90 193 90.46 193 91.05C193 91.56 193.38 91.99 193.88 92.04C198.15 92.45 201.55 95.85 201.96 100.12C202.01 100.62 202.44 100.99 202.95 100.99C203.55 100.99 204.01 100.47 203.95 99.88C203.42 94.69 199.29 90.57 194.1 90.05Z" fill="#323232"/>
<path d="M267.2 88.56L262.98 86.26C262.68 86.1 262.32 86.1 262.02 86.26L257.8 88.56C257.45 88.75 257.45 89.25 257.8 89.44L262.02 91.74C262.32 91.9 262.68 91.9 262.98 91.74L267.2 89.44C267.54 89.25 267.54 88.75 267.2 88.56ZM269 83H251C249.9 83 249 83.9 249 85V87C249 87.55 249.45 88 250 88C250.55 88 251 87.55 251 87V86C251 85.45 251.45 85 252 85H268C268.55 85 269 85.45 269 86V98C269 98.55 268.55 99 268 99H263C262.45 99 262 99.45 262 100C262 100.55 262.45 101 263 101H269C270.1 101 271 100.1 271 99V85C271 83.9 270.1 83 269 83ZM262.02 92.74L259 91.09V92.5C259 92.87 259.2 93.2 259.52 93.38L262.02 94.74C262.32 94.9 262.68 94.9 262.98 94.74L265.48 93.38C265.8 93.2 266 92.86 266 92.5V91.09L262.98 92.74C262.68 92.9 262.32 92.9 262.02 92.74ZM249 98V101H252C252 99.34 250.66 98 249 98ZM250.14 94.09C249.54 93.99 249 94.48 249 95.09C249 95.58 249.36 95.99 249.85 96.07C251.93 96.43 253.57 98.07 253.93 100.15C254.01 100.64 254.42 101 254.91 101C255.52 101 256 100.46 255.91 99.86C255.43 96.9 253.09 94.57 250.14 94.09ZM250.1 90.05C249.51 90 249 90.46 249 91.05C249 91.56 249.38 91.99 249.88 92.04C254.15 92.45 257.55 95.85 257.96 100.12C258.01 100.62 258.44 100.99 258.95 100.99C259.55 100.99 260.01 100.47 259.95 99.88C259.42 94.69 255.29 90.57 250.1 90.05Z" fill="#323232"/>
<path d="M324 98C325.1 98 325.99 97.1 325.99 96L326 86C326 84.9 325.1 84 324 84H308C306.9 84 306 84.9 306 86V96C306 97.1 306.9 98 308 98H305C304.45 98 304 98.45 304 99C304 99.55 304.45 100 305 100H327C327.55 100 328 99.55 328 99C328 98.45 327.55 98 327 98H324ZM309 86H323C323.55 86 324 86.45 324 87V95C324 95.55 323.55 96 323 96H309C308.45 96 308 95.55 308 95V87C308 86.45 308.45 86 309 86Z" fill="#323232"/>
<path d="M381 82H363C361.9 82 361 82.9 361 84V96C361 97.1 361.9 98 363 98H370L368.37 100.45C367.93 101.11 368.4 102 369.2 102H374.8C375.6 102 376.08 101.11 375.63 100.45L374 98H381C382.1 98 383 97.1 383 96V84C383 82.9 382.1 82 381 82ZM381 94H363V85C363 84.45 363.45 84 364 84H380C380.55 84 381 84.45 381 85V94Z" fill="#323232"/>
<path d="M437 82H419C417.9 82 417 82.9 417 84V96C417 97.1 417.9 98 419 98H426V100H425C424.45 100 424 100.45 424 101C424 101.55 424.45 102 425 102H431C431.55 102 432 101.55 432 101C432 100.45 431.55 100 431 100H430V98H437C438.1 98 439 97.1 439 96V84C439 82.9 438.1 82 437 82ZM436 96H420C419.45 96 419 95.55 419 95V85C419 84.45 419.45 84 420 84H436C436.55 84 437 84.45 437 85V95C437 95.55 436.55 96 436 96Z" fill="#323232"/>
<path d="M494 88C494 87.45 493.55 87 493 87H492V85C492 83.9 491.1 83 490 83H476C474.9 83 474 83.9 474 85V99C474 100.1 474.9 101 476 101H490C491.1 101 492 100.1 492 99V97H493C493.55 97 494 96.55 494 96C494 95.45 493.55 95 493 95H492V93H493C493.55 93 494 92.55 494 92C494 91.45 493.55 91 493 91H492V89H493C493.55 89 494 88.55 494 88ZM489 99H477C476.45 99 476 98.55 476 98V86C476 85.45 476.45 85 477 85H489C489.55 85 490 85.45 490 86V98C490 98.55 489.55 99 489 99ZM478.5 93H482.5C482.78 93 483 93.22 483 93.5V96.5C483 96.78 482.78 97 482.5 97H478.5C478.22 97 478 96.78 478 96.5V93.5C478 93.22 478.22 93 478.5 93ZM484.5 87H487.5C487.78 87 488 87.22 488 87.5V89.5C488 89.78 487.78 90 487.5 90H484.5C484.22 90 484 89.78 484 89.5V87.5C484 87.22 484.22 87 484.5 87ZM478.5 87H482.5C482.78 87 483 87.22 483 87.5V91.5C483 91.78 482.78 92 482.5 92H478.5C478.22 92 478 91.78 478 91.5V87.5C478 87.22 478.22 87 478.5 87ZM484.5 91H487.5C487.78 91 488 91.22 488 91.5V96.5C488 96.78 487.78 97 487.5 97H484.5C484.22 97 484 96.78 484 96.5V91.5C484 91.22 484.22 91 484.5 91Z" fill="#323232"/>
<path d="M531 87C531 86.45 531.45 86 532 86H548C548.55 86 549 85.55 549 85C549 84.45 548.55 84 548 84H531C529.9 84 529 84.9 529 86V98C529 99.1 529.9 100 531 100H534C534.55 100 535 99.55 535 99C535 98.45 534.55 98 534 98H532C531.45 98 531 97.55 531 97V87ZM540 92H538C537.45 92 537 92.45 537 93V93.78C536.39 94.33 536 95.11 536 96C536 96.89 536.39 97.67 537 98.22V99C537 99.55 537.45 100 538 100H540C540.55 100 541 99.55 541 99V98.22C541.61 97.67 542 96.88 542 96C542 95.12 541.61 94.33 541 93.78V93C541 92.45 540.55 92 540 92ZM539 97.5C538.17 97.5 537.5 96.83 537.5 96C537.5 95.17 538.17 94.5 539 94.5C539.83 94.5 540.5 95.17 540.5 96C540.5 96.83 539.83 97.5 539 97.5ZM550 88H544C543.5 88 543 88.5 543 89V99C543 99.5 543.5 100 544 100H550C550.5 100 551 99.5 551 99V89C551 88.5 550.5 88 550 88ZM549 98H545V90H549V98Z" fill="#323232"/>
<path d="M601 96L597 92V88.82C598.35 88.33 599.26 86.93 598.93 85.36C598.68 84.18 597.7 83.24 596.51 83.04C594.63 82.73 593 84.17 593 86C593 87.3 593.84 88.4 595 88.82V92L591 96H588C587.45 96 587 96.45 587 97V100C587 100.55 587.45 101 588 101H591C591.55 101 592 100.55 592 100V97.95L596 93.75L600 97.95V100C600 100.55 600.45 101 601 101H604C604.55 101 605 100.55 605 100V97C605 96.45 604.55 96 604 96H601Z" fill="#323232"/>
<path d="M97 137H87C85.9 137 85 137.9 85 139V157C85 158.1 85.9 159 87 159H97C98.1 159 99 158.1 99 157V139C99 137.9 98.1 137 97 137ZM97 155H87V141H97V155ZM91 152H93V154H91V152ZM89.52 146.19H89.65C89.98 146.19 90.24 145.96 90.35 145.65C90.59 144.96 91.26 144.44 92.01 144.44C92.94 144.44 93.76 145.26 93.76 146.19C93.76 147.51 92.27 147.74 91.53 149.01H91.52C91.44 149.15 91.38 149.3 91.32 149.46C91.31 149.48 91.3 149.49 91.3 149.51C91.29 149.53 91.29 149.55 91.29 149.56C91.19 149.87 91.13 150.22 91.13 150.64H92.89C92.89 150.39 92.93 150.17 93.01 149.97C93.55 148.5 95.78 148.11 95.49 145.79C95.3 144.24 94.06 142.95 92.51 142.75C90.74 142.52 89.22 143.53 88.7 145.05C88.5 145.61 88.93 146.19 89.52 146.19Z" fill="#323232"/>
<path d="M145 159H151C151.55 159 152 158.55 152 158C152 157.45 151.55 157 151 157H145C144.45 157 144 157.45 144 158C144 158.55 144.45 159 145 159ZM152 137.01L144 137C142.9 137 142 137.9 142 139V153C142 154.1 142.9 155 144 155H152C153.1 155 154 154.1 154 153V139C154 137.9 153.1 137.01 152 137.01ZM152 151H144V141H152V151Z" fill="#323232"/>
<path d="M207 143.29V139C207 138.45 206.55 138 206 138H202C201.45 138 201 138.45 201 139V143.29C201 143.42 201.05 143.55 201.15 143.64L203.65 146.14C203.85 146.34 204.16 146.34 204.36 146.14L206.86 143.64C206.95 143.55 207 143.43 207 143.29ZM199.29 145H195C194.45 145 194 145.45 194 146V150C194 150.55 194.45 151 195 151H199.29C199.42 151 199.55 150.95 199.64 150.85L202.14 148.35C202.34 148.15 202.34 147.84 202.14 147.64L199.64 145.14C199.55 145.05 199.43 145 199.29 145ZM201 152.71V157C201 157.55 201.45 158 202 158H206C206.55 158 207 157.55 207 157V152.71C207 152.58 206.95 152.45 206.85 152.36L204.35 149.86C204.15 149.66 203.84 149.66 203.64 149.86L201.14 152.36C201.05 152.45 201 152.57 201 152.71ZM208.35 145.15L205.85 147.65C205.65 147.85 205.65 148.16 205.85 148.36L208.35 150.86C208.44 150.95 208.57 151.01 208.7 151.01H213C213.55 151.01 214 150.56 214 150.01V146.01C214 145.46 213.55 145.01 213 145.01H208.71C208.57 145 208.45 145.05 208.35 145.15Z" fill="#323232"/>
<path d="M259.4 137.02C254.62 137.33 251 141.52 251 146.31V153C251 154.66 252.34 156 254 156H255C256.1 156 257 155.1 257 154V150C257 148.9 256.1 148 255 148H253V146.29C253 142.45 255.96 139.11 259.79 139C263.76 138.89 267 142.06 267 146V148H265C263.9 148 263 148.9 263 150V154C263 155.1 263.9 156 265 156H266C267.66 156 269 154.66 269 153V146C269 140.83 264.64 136.68 259.4 137.02Z" fill="#323232"/>
<path d="M315.4 137.02C310.62 137.33 307 141.52 307 146.31V153C307 154.66 308.34 156 310 156H311C312.1 156 313 155.1 313 154V150C313 148.9 312.1 148 311 148H309V146.29C309 142.45 311.96 139.11 315.79 139C319.76 138.89 323 142.06 323 146V148H321C319.9 148 319 148.9 319 150V154C319 155.1 319.9 156 321 156H323V157H317C316.45 157 316 157.45 316 158C316 158.55 316.45 159 317 159H322C323.66 159 325 157.66 325 156V146C325 140.83 320.64 136.68 315.4 137.02Z" fill="#323232"/>
<path d="M380 141H364C362.9 141 362.01 141.9 362.01 143L362 153C362 154.1 362.9 155 364 155H380C381.1 155 382 154.1 382 153V143C382 141.9 381.1 141 380 141ZM371 144H373V146H371V144ZM371 147H373V149H371V147ZM368 144H370V146H368V144ZM368 147H370V149H368V147ZM367 149H365V147H367V149ZM367 146H365V144H367V146ZM375 153H369C368.45 153 368 152.55 368 152C368 151.45 368.45 151 369 151H375C375.55 151 376 151.45 376 152C376 152.55 375.55 153 375 153ZM376 149H374V147H376V149ZM376 146H374V144H376V146ZM379 149H377V147H379V149ZM379 146H377V144H379V146Z" fill="#323232"/>
<path d="M424.12 145.29L428 149.17L431.88 145.29C432.27 144.9 432.9 144.9 433.29 145.29C433.68 145.68 433.68 146.31 433.29 146.7L428.7 151.29C428.31 151.68 427.68 151.68 427.29 151.29L422.7 146.7C422.31 146.31 422.31 145.68 422.7 145.29C423.09 144.91 423.73 144.9 424.12 145.29Z" fill="#323232"/>
<path d="M486.71 151.88L482.83 148L486.71 144.12C487.1 143.73 487.1 143.1 486.71 142.71C486.32 142.32 485.69 142.32 485.3 142.71L480.71 147.3C480.32 147.69 480.32 148.32 480.71 148.71L485.3 153.3C485.69 153.69 486.32 153.69 486.71 153.3C487.09 152.91 487.1 152.27 486.71 151.88Z" fill="#323232"/>
<path d="M537.29 151.88L541.17 148L537.29 144.12C536.9 143.73 536.9 143.1 537.29 142.71C537.68 142.32 538.31 142.32 538.7 142.71L543.29 147.3C543.68 147.69 543.68 148.32 543.29 148.71L538.7 153.3C538.31 153.69 537.68 153.69 537.29 153.3C536.91 152.91 536.9 152.27 537.29 151.88Z" fill="#323232"/>
<path d="M592.12 150.71L596 146.83L599.88 150.71C600.27 151.1 600.9 151.1 601.29 150.71C601.68 150.32 601.68 149.69 601.29 149.3L596.7 144.71C596.31 144.32 595.68 144.32 595.29 144.71L590.7 149.3C590.31 149.69 590.31 150.32 590.7 150.71C591.09 151.09 591.73 151.1 592.12 150.71Z" fill="#323232"/>
<path d="M100 203H86.83L89.71 200.12C90.1 199.73 90.1 199.1 89.71 198.71C89.32 198.32 88.69 198.32 88.3 198.71L83.71 203.3C83.32 203.69 83.32 204.32 83.71 204.71L88.3 209.3C88.69 209.69 89.32 209.69 89.71 209.3C90.1 208.91 90.1 208.28 89.71 207.89L86.83 205H100C100.55 205 101 204.55 101 204C101 203.45 100.55 203 100 203Z" fill="#323232"/>
<path d="M148 200.41L151.89 204.3C152.28 204.69 152.91 204.69 153.3 204.3C153.69 203.91 153.69 203.28 153.3 202.89L148.71 198.3C148.32 197.91 147.69 197.91 147.3 198.3L142.7 202.89C142.31 203.28 142.31 203.91 142.7 204.3C143.09 204.69 143.72 204.69 144.11 204.3L148 200.41ZM143 210H153C153.55 210 154 209.55 154 209C154 208.45 153.55 208 153 208H143C142.45 208 142 208.45 142 209C142 209.55 142.45 210 143 210Z" fill="#323232"/>
<path d="M212 195H196C194.9 195 194.01 195.9 194.01 197L194 207C194 208.1 194.9 209 196 209H212C213.1 209 214 208.1 214 207V197C214 195.9 213.1 195 212 195ZM203 198H205V200H203V198ZM203 201H205V203H203V201ZM200 198H202V200H200V198ZM200 201H202V203H200V201ZM199 203H197V201H199V203ZM199 200H197V198H199V200ZM207 207H201C200.45 207 200 206.55 200 206C200 205.45 200.45 205 201 205H207C207.55 205 208 205.45 208 206C208 206.55 207.55 207 207 207ZM208 203H206V201H208V203ZM208 200H206V198H208V200ZM211 203H209V201H211V203ZM211 200H209V198H211V200ZM204.35 214.65L207.14 211.86C207.45 211.55 207.23 211.01 206.79 211.01H201.21C200.76 211.01 200.54 211.55 200.86 211.86L203.65 214.65C203.84 214.84 204.16 214.84 204.35 214.65Z" fill="#323232"/>
<path d="M267 200V203H253.83L256.71 200.12C257.1 199.73 257.1 199.1 256.71 198.71C256.32 198.32 255.69 198.32 255.3 198.71L250.71 203.3C250.32 203.69 250.32 204.32 250.71 204.71L255.3 209.3C255.69 209.69 256.32 209.69 256.71 209.3C257.1 208.91 257.1 208.28 256.71 207.89L253.83 205H268C268.55 205 269 204.55 269 204V200C269 199.45 268.55 199 268 199C267.45 199 267 199.45 267 200Z" fill="#323232"/>
<path d="M316.29 200.12L319.17 203H306C305.45 203 305 203.45 305 204C305 204.55 305.45 205 306 205H319.17L316.29 207.88C315.9 208.27 315.9 208.9 316.29 209.29C316.68 209.68 317.31 209.68 317.7 209.29L322.29 204.7C322.68 204.31 322.68 203.68 322.29 203.29L317.7 198.7C317.31 198.31 316.68 198.31 316.29 198.7C315.91 199.09 315.9 199.73 316.29 200.12ZM324 199V209C324 209.55 324.45 210 325 210C325.55 210 326 209.55 326 209V199C326 198.45 325.55 198 325 198C324.45 198 324 198.45 324 199Z" fill="#323232"/>
<path d="M372 207C373.66 207 374.99 205.66 374.99 204L375 198C375 196.34 373.66 195 372 195C370.34 195 369 196.34 369 198V204C369 205.66 370.34 207 372 207ZM378.08 204C377.66 204 377.31 204.3 377.25 204.71C376.88 207.32 374.53 209.1 372 209.1C369.47 209.1 367.12 207.33 366.75 204.71C366.69 204.3 366.33 204 365.92 204C365.4 204 365 204.46 365.07 204.97C365.53 207.94 368.03 210.27 371 210.72V213C371 213.55 371.45 214 372 214C372.55 214 373 213.55 373 213V210.72C375.96 210.29 378.47 207.94 378.93 204.97C379 204.46 378.6 204 378.08 204Z" fill="#323232"/>
<path d="M436 210C437.1 210 438 209.1 438 208V198C438 196.9 437.1 196 436 196H420C418.9 196 418 196.9 418 198V208C418 209.1 418.9 210 420 210H417C416.45 210 416 210.45 416 211C416 211.55 416.45 212 417 212H439C439.55 212 440 211.55 440 211C440 210.45 439.55 210 439 210H436ZM421 198H435C435.55 198 436 198.45 436 199V207C436 207.55 435.55 208 435 208H421C420.45 208 420 207.55 420 207V199C420 198.45 420.45 198 421 198Z" fill="#323232"/>
<path d="M495 210H494V197C494 195.9 493.1 195 492 195H476C474.9 195 474 195.9 474 197V210H473C472.45 210 472 210.45 472 211C472 211.55 472.45 212 473 212H495C495.55 212 496 211.55 496 211C496 210.45 495.55 210 495 210ZM485.5 210H482.5C482.22 210 482 209.78 482 209.5C482 209.22 482.22 209 482.5 209H485.5C485.78 209 486 209.22 486 209.5C486 209.78 485.78 210 485.5 210ZM492 207H476V198C476 197.45 476.45 197 477 197H491C491.55 197 492 197.45 492 198V207Z" fill="#323232"/>
<path d="M548 210C549.1 210 549.99 209.1 549.99 208L550 197C550 195.9 549.1 195 548 195H532C530.9 195 530 195.9 530 197V208C530 209.1 530.9 210 532 210H528C528 211.1 528.9 212 530 212H550C551.1 212 552 211.1 552 210H548ZM533 197H547C547.55 197 548 197.45 548 198V207C548 207.55 547.55 208 547 208H533C532.45 208 532 207.55 532 207V198C532 197.45 532.45 197 533 197ZM540 211C539.45 211 539 210.55 539 210C539 209.45 539.45 209 540 209C540.55 209 541 209.45 541 210C541 210.55 540.55 211 540 211Z" fill="#323232"/>
<path d="M604 210V209C605.1 209 605.99 208.1 605.99 207L606 197C606 195.9 605.1 195 604 195H588C586.9 195 586 195.9 586 197V207C586 208.1 586.9 209 588 209V210H585C584.45 210 584 210.45 584 211C584 211.55 584.45 212 585 212H607C607.55 212 608 211.55 608 211C608 210.45 607.55 210 607 210H604ZM589 197H603C603.55 197 604 197.45 604 198V206C604 206.55 603.55 207 603 207H589C588.45 207 588 206.55 588 206V198C588 197.45 588.45 197 589 197Z" fill="#323232"/>
<path d="M94 257H90C89.45 257 89 257.45 89 258V262C89 262.55 89.45 263 90 263H94C94.55 263 95 262.55 95 262V258C95 257.45 94.55 257 94 257ZM93 261H91V259H93V261ZM101 258C101 257.45 100.55 257 100 257H99V255C99 253.9 98.1 253 97 253H95V252C95 251.45 94.55 251 94 251C93.45 251 93 251.45 93 252V253H91V252C91 251.45 90.55 251 90 251C89.45 251 89 251.45 89 252V253H87C85.9 253 85 253.9 85 255V257H84C83.45 257 83 257.45 83 258C83 258.55 83.45 259 84 259H85V261H84C83.45 261 83 261.45 83 262C83 262.55 83.45 263 84 263H85V265C85 266.1 85.9 267 87 267H89V268C89 268.55 89.45 269 90 269C90.55 269 91 268.55 91 268V267H93V268C93 268.55 93.45 269 94 269C94.55 269 95 268.55 95 268V267H97C98.1 267 99 266.1 99 265V263H100C100.55 263 101 262.55 101 262C101 261.45 100.55 261 100 261H99V259H100C100.55 259 101 258.55 101 258ZM96 265H88C87.45 265 87 264.55 87 264V256C87 255.45 87.45 255 88 255H96C96.55 255 97 255.45 97 256V264C97 264.55 96.55 265 96 265Z" fill="#323232"/>
<path d="M149 249.07V257H156C156 252.92 152.95 249.56 149 249.07ZM140 263C140 267.42 143.58 271 148 271C152.42 271 156 267.42 156 263V259H140V263ZM147 249.07C143.05 249.56 140 252.92 140 257H147V249.07Z" fill="#323232"/>
<path d="M196 255C196 254.45 196.45 254 197 254H213C213.55 254 214 253.55 214 253C214 252.45 213.55 252 213 252H196C194.9 252 194 252.9 194 254V265H193.5C192.67 265 192 265.67 192 266.5C192 267.33 192.67 268 193.5 268H204.5C205.33 268 206 267.33 206 266.5C206 265.67 205.33 265 204.5 265H196V255ZM215 256H209C208.45 256 208 256.45 208 257V267C208 267.55 208.45 268 209 268H215C215.55 268 216 267.55 216 267V257C216 256.45 215.55 256 215 256ZM214 265H210V258H214V265Z" fill="#323232"/>
<path d="M272 267V257C272 256.45 271.55 256 271 256H265C264.45 256 264 256.45 264 257V260.61L266 262.61V258H270V265H268.39L271.32 267.93C271.71 267.8 272 267.44 272 267ZM269 254C269.55 254 270 253.55 270 253C270 252.45 269.55 252 269 252H255.39L257.39 254H269ZM249.36 250.21C248.97 250.6 248.97 251.23 249.36 251.62L250.47 252.73C250.18 253.08 250 253.52 250 254V265H249.5C248.67 265 248 265.67 248 266.5C248 267.33 248.67 268 249.5 268H265.73L267.37 269.64C267.76 270.03 268.39 270.03 268.78 269.64C269.17 269.25 269.17 268.62 268.78 268.23L250.77 250.21C250.38 249.82 249.75 249.82 249.36 250.21ZM252 265V254.27L262.73 265H252Z" fill="#323232"/>
<path d="M320 249H312C310.34 249 309 250.34 309 252V268C309 269.66 310.34 271 312 271H320C321.66 271 323 269.66 323 268V252C323 250.34 321.66 249 320 249ZM317.5 269H314.5C314.22 269 314 268.78 314 268.5C314 268.22 314.22 268 314.5 268H317.5C317.78 268 318 268.22 318 268.5C318 268.78 317.78 269 317.5 269ZM321 266H311V252H321V266Z" fill="#323232"/>
<path d="M375.5 249H367.5C366.12 249 365 250.12 365 251.5V268.5C365 269.88 366.12 271 367.5 271H375.5C376.88 271 378 269.88 378 268.5V251.5C378 250.12 376.88 249 375.5 249ZM371.5 270C370.67 270 370 269.33 370 268.5C370 267.67 370.67 267 371.5 267C372.33 267 373 267.67 373 268.5C373 269.33 372.33 270 371.5 270ZM376 266H367V252H376V266Z" fill="#323232"/>
<g clip-path="url(#clip1_17_17581)">
<path d="M433 250H423C421.9 250 421 250.9 421 252V254C421 255.1 421.9 256 423 256H433C434.1 256 435 255.1 435 254V252C435 250.9 434.1 250 433 250ZM432.5 254H423.5C423.22 254 423 253.78 423 253.5V252.5C423 252.22 423.22 252 423.5 252H432.5C432.78 252 433 252.22 433 252.5V253.5C433 253.78 432.78 254 432.5 254ZM436 270H420C418.9 270 418 269.1 418 268V267H438V268C438 269.1 437.1 270 436 270ZM434.53 258.19C434.21 257.47 433.49 257 432.7 257H423.3C422.51 257 421.79 257.47 421.47 258.19L418 266H438L434.53 258.19ZM425.5 264H424.5C424.22 264 424 263.78 424 263.5C424 263.22 424.22 263 424.5 263H425.5C425.78 263 426 263.22 426 263.5C426 263.78 425.78 264 425.5 264ZM425.5 262H424.5C424.22 262 424 261.78 424 261.5C424 261.22 424.22 261 424.5 261H425.5C425.78 261 426 261.22 426 261.5C426 261.78 425.78 262 425.5 262ZM425.5 260H424.5C424.22 260 424 259.78 424 259.5C424 259.22 424.22 259 424.5 259H425.5C425.78 259 426 259.22 426 259.5C426 259.78 425.78 260 425.5 260ZM428.5 264H427.5C427.22 264 427 263.78 427 263.5C427 263.22 427.22 263 427.5 263H428.5C428.78 263 429 263.22 429 263.5C429 263.78 428.78 264 428.5 264ZM428.5 262H427.5C427.22 262 427 261.78 427 261.5C427 261.22 427.22 261 427.5 261H428.5C428.78 261 429 261.22 429 261.5C429 261.78 428.78 262 428.5 262ZM428.5 260H427.5C427.22 260 427 259.78 427 259.5C427 259.22 427.22 259 427.5 259H428.5C428.78 259 429 259.22 429 259.5C429 259.78 428.78 260 428.5 260ZM431.5 264H430.5C430.22 264 430 263.78 430 263.5C430 263.22 430.22 263 430.5 263H431.5C431.78 263 432 263.22 432 263.5C432 263.78 431.78 264 431.5 264ZM431.5 262H430.5C430.22 262 430 261.78 430 261.5C430 261.22 430.22 261 430.5 261H431.5C431.78 261 432 261.22 432 261.5C432 261.78 431.78 262 431.5 262ZM431.5 260H430.5C430.22 260 430 259.78 430 259.5C430 259.22 430.22 259 430.5 259H431.5C431.78 259 432 259.22 432 259.5C432 259.78 431.78 260 431.5 260Z" fill="#323232"/>
</g>
<path d="M474 258C474 258.55 474.45 259 475 259H492C492.55 259 493 258.55 493 258C493 257.45 492.55 257 492 257H475C474.45 257 474 257.45 474 258ZM475 263H478C478.55 263 479 262.55 479 262C479 261.45 478.55 261 478 261H475C474.45 261 474 261.45 474 262C474 262.55 474.45 263 475 263ZM482 263H485C485.55 263 486 262.55 486 262C486 261.45 485.55 261 485 261H482C481.45 261 481 261.45 481 262C481 262.55 481.45 263 482 263ZM489 263H492C492.55 263 493 262.55 493 262C493 261.45 492.55 261 492 261H489C488.45 261 488 261.45 488 262C488 262.55 488.45 263 489 263Z" fill="#323232"/>
<path d="M539.45 253.55C539.64 253.74 539.95 253.76 540.17 253.59C541.3 252.69 542.65 252.2 544 252.2C545.35 252.2 546.7 252.69 547.84 253.59C548.05 253.76 548.36 253.74 548.56 253.55L548.6 253.5C548.82 253.28 548.81 252.91 548.57 252.7C547.24 251.57 545.62 251 544 251C542.38 251 540.76 251.57 539.43 252.7C539.19 252.91 539.17 253.27 539.4 253.5L539.45 253.55ZM541.15 254.31C540.9 254.51 540.89 254.89 541.11 255.11L541.15 255.15C541.35 255.35 541.65 255.35 541.87 255.19C542.5 254.71 543.25 254.5 544 254.5C544.75 254.5 545.5 254.71 546.13 255.18C546.35 255.35 546.66 255.34 546.85 255.14L546.89 255.1C547.12 254.87 547.1 254.5 546.85 254.3C546.02 253.66 545.01 253.3 544 253.3C542.99 253.3 541.98 253.66 541.15 254.31ZM547 261H545V258C545 257.45 544.55 257 544 257C543.45 257 543 257.45 543 258V261H533C531.9 261 531 261.9 531 263V267C531 268.1 531.9 269 533 269H547C548.1 269 549 268.1 549 267V263C549 261.9 548.1 261 547 261ZM536 266H534V264H536V266ZM539.5 266H537.5V264H539.5V266ZM543 266H541V264H543V266Z" fill="#323232"/>
<path d="M603.8 258.7L589.15 253.35C588.63 253.16 588.05 253.43 587.85 253.95C587.66 254.48 587.93 255.06 588.45 255.25L601.6 260H589C587.9 260 587 260.9 587 262V266C587 267.1 587.9 268 589 268H603C604.1 268 605 267.1 605 266V260.5C605 259.7 604.5 258.9 603.8 258.7ZM591 265H589V263H591V265ZM602 265H594C593.45 265 593 264.55 593 264C593 263.45 593.45 263 594 263H602C602.55 263 603 263.45 603 264C603 264.55 602.55 265 602 265Z" fill="#323232"/>
<path d="M91.19 305.36L84.19 308.47C83.47 308.79 83 309.51 83 310.3V315C83 320.55 86.84 325.74 92 327C97.16 325.74 101 320.55 101 315V310.3C101 309.51 100.53 308.79 99.81 308.47L92.81 305.36C92.3 305.13 91.7 305.13 91.19 305.36ZM92 315.99H99C98.47 320.11 95.72 323.78 92 324.93V316H85V310.3L92 307.19V315.99Z" fill="#323232"/>
<path d="M155.99 308C155.99 306.9 155.1 306 154 306H146.83C146.3 306 145.79 306.21 145.41 306.59L140.59 311.41C140.21 311.79 140 312.3 140 312.83V324C140 325.1 140.9 326 142 326H154.01C155.11 326 156 325.1 156 324L155.99 308ZM144 323C143.45 323 143 322.55 143 322C143 321.45 143.45 321 144 321C144.55 321 145 321.45 145 322C145 322.55 144.55 323 144 323ZM152 323C151.45 323 151 322.55 151 322C151 321.45 151.45 321 152 321C152.55 321 153 321.45 153 322C153 322.55 152.55 323 152 323ZM144 319C143.45 319 143 318.55 143 318V316C143 315.45 143.45 315 144 315C144.55 315 145 315.45 145 316V318C145 318.55 144.55 319 144 319ZM148 323C147.45 323 147 322.55 147 322V320C147 319.45 147.45 319 148 319C148.55 319 149 319.45 149 320V322C149 322.55 148.55 323 148 323ZM148 317C147.45 317 147 316.55 147 316C147 315.45 147.45 315 148 315C148.55 315 149 315.45 149 316C149 316.55 148.55 317 148 317ZM152 319C151.45 319 151 318.55 151 318V316C151 315.45 151.45 315 152 315C152.55 315 153 315.45 153 316V318C153 318.55 152.55 319 152 319Z" fill="#323232"/>
<path d="M209 305.01L199 305C197.9 305 197 305.9 197 307V325C197 326.1 197.9 327 199 327H209C210.1 327 211 326.1 211 325V307C211 305.9 210.1 305.01 209 305.01ZM209 323H199V309H209V323Z" fill="#323232"/>
<path d="M265 306H255C253.9 306 253 306.9 253 308V324C253 325.1 253.9 325.99 255 325.99L265 326C266.1 326 267 325.1 267 324V308C267 306.9 266.1 306 265 306ZM260 308C261.1 308 262 308.9 262 310C262 311.1 261.1 312 260 312C258.89 312 258 311.1 258 310C258 308.9 258.89 308 260 308ZM260 324C257.24 324 255 321.76 255 319C255 316.24 257.24 314 260 314C262.76 314 265 316.24 265 319C265 321.76 262.76 324 260 324ZM260 316C258.34 316 257 317.34 257 319C257 320.66 258.34 322 260 322C261.66 322 263 320.66 263 319C263 317.34 261.66 316 260 316Z" fill="#323232"/>
<path d="M322.2 305H313.8C312.81 305 312 305.81 312 306.8V321.2C312 322.19 312.81 322.99 313.8 322.99L322.2 323C323.19 323 324 322.19 324 321.2V306.8C324 305.81 323.19 305 322.2 305ZM318 307C319.1 307 320 307.89 320 309C320 310.11 319.1 311 318 311C316.9 311 316 310.11 316 309C316 307.89 316.9 307 318 307ZM318 320.5C315.79 320.5 314 318.71 314 316.5C314 314.29 315.79 312.5 318 312.5C320.21 312.5 322 314.29 322 316.5C322 318.71 320.21 320.5 318 320.5Z" fill="#323232"/>
<path d="M318 319C319.381 319 320.5 317.881 320.5 316.5C320.5 315.119 319.381 314 318 314C316.619 314 315.5 315.119 315.5 316.5C315.5 317.881 316.619 319 318 319Z" fill="#323232"/>
<path d="M309 309C308.45 309 308 309.45 308 310V325C308 326.1 308.89 327 310 327H319C319.55 327 320 326.55 320 326C320 325.45 319.55 325 319 325H311C310.45 325 310 324.55 310 324V310C310 309.45 309.55 309 309 309Z" fill="#323232"/>
<path d="M381 308H363C361.9 308 361 308.9 361 310V322C361 323.1 361.9 324 363 324H381C382.1 324 382.99 323.1 382.99 322L383 310C383 308.9 382.1 308 381 308ZM379 322H365V310H379V322Z" fill="#323232"/>
<path d="M434 304H422C420.34 304 419 305.34 419 307V325C419 326.66 420.34 328 422 328H434C435.66 328 437 326.66 437 325V307C437 305.34 435.66 304 434 304ZM429.5 326H426.5C426.22 326 426 325.78 426 325.5C426 325.22 426.22 325 426.5 325H429.5C429.78 325 430 325.22 430 325.5C430 325.78 429.78 326 429.5 326ZM435.25 323H420.75V307H435.25V323Z" fill="#323232"/>
<path d="M490.5 304H476.5C475.12 304 474 305.12 474 306.5V325.5C474 326.88 475.12 328 476.5 328H490.5C491.88 328 493 326.88 493 325.5V306.5C493 305.12 491.88 304 490.5 304ZM483.5 327C482.67 327 482 326.33 482 325.5C482 324.67 482.67 324 483.5 324C484.33 324 485 324.67 485 325.5C485 326.33 484.33 327 483.5 327ZM491 323H476V307H491V323Z" fill="#323232"/>
<path d="M540 316C540 313 542.5 310.5 545.5 310.5C548.07 310.5 550.27 312.33 550.85 314.74C551 315.38 550.53 316 549.88 316H540ZM540 316C540 319 537.5 321.5 534.5 321.5C531.93 321.5 529.73 319.67 529.15 317.26C529 316.62 529.47 316 530.12 316H540ZM540 316C537 316 534.5 313.5 534.5 310.5C534.5 307.93 536.33 305.73 538.74 305.15C539.38 305 540 305.47 540 306.12V316ZM540 316C543 316 545.5 318.5 545.5 321.5C545.5 324.07 543.67 326.27 541.26 326.85C540.62 327 540 326.53 540 325.88V316Z" fill="#323232"/>
<path d="M605 307H587C585.9 307 585 307.9 585 309V321C585 322.1 585.9 323 587 323H592V324C592 324.55 592.45 325 593 325H599C599.55 325 600 324.55 600 324V323H605C606.1 323 606.99 322.1 606.99 321L607 309C607 307.9 606.1 307 605 307ZM604 321H588C587.45 321 587 320.55 587 320V310C587 309.45 587.45 309 588 309H604C604.55 309 605 309.45 605 310V320C605 320.55 604.55 321 604 321Z" fill="#323232"/>
<path d="M101 366H83C81.9 366 81 366.9 81 368V376C81 377.1 81.9 378 83 378H101C102.1 378 103 377.1 103 376V368C103 366.9 102.1 366 101 366ZM90 373H88V375C88 375.55 87.55 376 87 376C86.45 376 86 375.55 86 375V373H84C83.45 373 83 372.55 83 372C83 371.45 83.45 371 84 371H86V369C86 368.45 86.45 368 87 368C87.55 368 88 368.45 88 369V371H90C90.55 371 91 371.45 91 372C91 372.55 90.55 373 90 373ZM95.5 375C94.67 375 94 374.33 94 373.5C94 372.67 94.67 372 95.5 372C96.33 372 97 372.67 97 373.5C97 374.33 96.33 375 95.5 375ZM99.5 372C98.67 372 98 371.33 98 370.5C98 369.67 98.67 369 99.5 369C100.33 369 101 369.67 101 370.5C101 371.33 100.33 372 99.5 372Z" fill="#323232"/>
<path d="M156 372C156 369.46 154.81 367.19 152.96 365.73L152.28 361.67C152.12 360.71 151.28 360 150.31 360H145.7C144.72 360 143.88 360.71 143.72 361.67L143.05 365.73C141.19 367.19 140 369.45 140 372C140 374.55 141.19 376.81 143.05 378.27L143.72 382.33C143.88 383.29 144.72 384 145.7 384H150.31C151.29 384 152.12 383.29 152.28 382.33L152.96 378.27C154.81 376.81 156 374.54 156 372ZM142 372C142 368.69 144.69 366 148 366C151.31 366 154 368.69 154 372C154 375.31 151.31 378 148 378C144.69 378 142 375.31 142 372Z" fill="#323232"/>
<defs>
<clipPath id="clip0_17_17581">
<rect width="24" height="24" fill="white" transform="translate(80 80)"/>
</clipPath>
<clipPath id="clip1_17_17581">
<rect width="24" height="24" fill="white" transform="translate(416 248)"/>
</clipPath>
</defs>
</svg>
