<svg width="688" height="408" viewBox="0 0 688 408" fill="none" xmlns="http://www.w3.org/2000/svg">
<rect x="0.5" y="0.5" width="687" height="407" rx="31.5" stroke="#CCCCCC"/>
<g clip-path="url(#clip0_17_18094)">
<path d="M84 88H88V84H84V88ZM90 100H94V96H90V100ZM84 100H88V96H84V100ZM84 94H88V90H84V94ZM90 94H94V90H90V94ZM96 84V88H100V84H96ZM90 88H94V84H90V88ZM96 94H100V90H96V94ZM96 100H100V96H96V100Z" fill="#323232"/>
</g>
<g clip-path="url(#clip1_17_18094)">
<path d="M157.81 92.74L156.99 92.11C156.99 92.02 156.99 91.98 156.99 91.89L157.79 91.26C157.95 91.14 157.99 90.92 157.89 90.75L157.04 89.27C156.97 89.14 156.83 89.07 156.69 89.07C156.64 89.07 156.59 89.08 156.54 89.1L155.59 89.48C155.51 89.43 155.48 89.41 155.4 89.37L155.25 88.36C155.22 88.15 155.05 88 154.85 88H153.14C152.94 88 152.77 88.15 152.74 88.34L152.6 89.35C152.57 89.37 152.53 89.38 152.5 89.4C152.47 89.42 152.44 89.44 152.41 89.46L151.46 89.08C151.41 89.06 151.36 89.05 151.31 89.05C151.17 89.05 151.04 89.12 150.96 89.25L150.11 90.73C150.01 90.9 150.05 91.12 150.21 91.24L151.01 91.87C151.01 91.96 151.01 92 151.01 92.1L150.21 92.73C150.05 92.85 150.01 93.07 150.11 93.24L150.96 94.72C151.03 94.85 151.17 94.92 151.31 94.92C151.36 94.92 151.41 94.91 151.46 94.89L152.41 94.52C152.49 94.57 152.53 94.59 152.61 94.63L152.76 95.64C152.79 95.84 152.96 95.98 153.16 95.98H154.87C155.07 95.98 155.24 95.83 155.27 95.64L155.42 94.63C155.45 94.61 155.49 94.6 155.52 94.58C155.55 94.56 155.58 94.54 155.61 94.52L156.56 94.9C156.61 94.92 156.66 94.93 156.71 94.93C156.85 94.93 156.98 94.86 157.06 94.73L157.91 93.25C158.01 93.08 157.97 92.86 157.81 92.74ZM154 93.5C153.17 93.5 152.5 92.83 152.5 92C152.5 91.17 153.17 90.5 154 90.5C154.83 90.5 155.5 91.17 155.5 92C155.5 92.83 154.83 93.5 154 93.5ZM153 97H155V101C155 102.1 154.1 103 153 103H143C141.9 103 141 102.1 141 101V83C141 81.9 141.9 81 143 81H153C154.1 81 155 81.9 155 83V87H153V86H143V98H153V97Z" fill="#323232"/>
</g>
<g clip-path="url(#clip2_17_18094)">
<path d="M211 91H199.83L204.71 86.12C205.1 85.73 205.1 85.09 204.71 84.7C204.32 84.31 203.69 84.31 203.3 84.7L196.71 91.29C196.32 91.68 196.32 92.31 196.71 92.7L203.3 99.29C203.69 99.68 204.32 99.68 204.71 99.29C205.1 98.9 205.1 98.27 204.71 97.88L199.83 93H211C211.55 93 212 92.55 212 92C212 91.45 211.55 91 211 91Z" fill="#323232"/>
</g>
<g clip-path="url(#clip3_17_18094)">
<path d="M264.62 82.9901C264.13 82.5001 263.34 82.5001 262.85 82.9901L254.54 91.3001C254.15 91.6901 254.15 92.3201 254.54 92.7101L262.85 101.02C263.34 101.51 264.13 101.51 264.62 101.02C265.11 100.53 265.11 99.7401 264.62 99.2501L257.38 92.0001L264.63 84.7501C265.11 84.2701 265.11 83.4701 264.62 82.9901Z" fill="#323232"/>
</g>
<g clip-path="url(#clip4_17_18094)">
<path d="M315 85V96.17L310.12 91.29C309.73 90.9 309.09 90.9 308.7 91.29C308.31 91.68 308.31 92.31 308.7 92.7L315.29 99.29C315.68 99.68 316.31 99.68 316.7 99.29L323.29 92.7C323.68 92.31 323.68 91.68 323.29 91.29C322.9 90.9 322.27 90.9 321.88 91.29L317 96.17V85C317 84.45 316.55 84 316 84C315.45 84 315 84.45 315 85Z" fill="#323232"/>
</g>
<g clip-path="url(#clip5_17_18094)">
<path d="M368.71 91.71L371.3 94.3C371.69 94.69 372.32 94.69 372.71 94.3L375.3 91.71C375.93 91.08 375.48 90 374.59 90H369.41C368.52 90 368.08 91.08 368.71 91.71Z" fill="#323232"/>
</g>
<g clip-path="url(#clip6_17_18094)">
<path d="M428 82C422.48 82 418 86.48 418 92C418 97.52 422.48 102 428 102C433.52 102 438 97.52 438 92C438 86.48 433.52 82 428 82ZM427.65 94.65L424.86 91.86C424.54 91.54 424.76 91 425.21 91H430.8C431.25 91 431.47 91.54 431.15 91.85L428.36 94.64C428.16 94.84 427.84 94.84 427.65 94.65Z" fill="#323232"/>
</g>
<g clip-path="url(#clip7_17_18094)">
<path d="M480.71 92.29L483.3 89.7C483.69 89.31 484.32 89.31 484.71 89.7L487.3 92.29C487.93 92.92 487.48 94 486.59 94H481.41C480.52 94 480.08 92.92 480.71 92.29Z" fill="#323232"/>
</g>
<g clip-path="url(#clip8_17_18094)">
<path d="M533 93H544.17L539.29 97.88C538.9 98.27 538.9 98.91 539.29 99.3C539.68 99.69 540.31 99.69 540.7 99.3L547.29 92.71C547.68 92.32 547.68 91.69 547.29 91.3L540.71 84.7C540.32 84.31 539.69 84.31 539.3 84.7C538.91 85.09 538.91 85.72 539.3 86.11L544.17 91H533C532.45 91 532 91.45 532 92C532 92.55 532.45 93 533 93Z" fill="#323232"/>
</g>
<g clip-path="url(#clip9_17_18094)">
<path d="M591.38 101.01C591.87 101.5 592.66 101.5 593.15 101.01L601.46 92.7C601.85 92.31 601.85 91.68 601.46 91.29L593.15 82.98C592.66 82.49 591.87 82.49 591.38 82.98C590.89 83.47 590.89 84.26 591.38 84.75L598.62 92L591.37 99.25C590.89 99.73 590.89 100.53 591.38 101.01Z" fill="#323232"/>
</g>
<g clip-path="url(#clip10_17_18094)">
<path d="M92.2902 144.71L89.7002 147.3C89.3102 147.69 89.3102 148.32 89.7002 148.71L92.2902 151.3C92.9202 151.93 94.0002 151.48 94.0002 150.59V145.41C94.0002 144.52 92.9202 144.08 92.2902 144.71Z" fill="#323232"/>
</g>
<g clip-path="url(#clip11_17_18094)">
<path d="M147.71 151.29L150.3 148.7C150.69 148.31 150.69 147.68 150.3 147.29L147.71 144.7C147.08 144.08 146 144.52 146 145.41V150.58C146 151.48 147.08 151.92 147.71 151.29Z" fill="#323232"/>
</g>
<g clip-path="url(#clip12_17_18094)">
<path d="M205 155V143.83L209.88 148.71C210.27 149.1 210.91 149.1 211.3 148.71C211.69 148.32 211.69 147.69 211.3 147.3L204.71 140.71C204.32 140.32 203.69 140.32 203.3 140.71L196.7 147.29C196.31 147.68 196.31 148.31 196.7 148.7C197.09 149.09 197.72 149.09 198.11 148.7L203 143.83V155C203 155.55 203.45 156 204 156C204.55 156 205 155.55 205 155Z" fill="#323232"/>
</g>
<g clip-path="url(#clip13_17_18094)">
<path d="M266 148C266 148.55 266.45 149 267 149H269C269.55 149 270 148.55 270 148C270 147.45 269.55 147 269 147H267C266.45 147 266 147.45 266 148Z" fill="#323232"/>
<path d="M264.59 152.82C264.26 153.26 264.35 153.87 264.79 154.19C265.32 154.58 265.88 155 266.41 155.4C266.85 155.73 267.47 155.64 267.79 155.2C267.79 155.19 267.8 155.19 267.8 155.18C268.13 154.74 268.04 154.12 267.6 153.8C267.07 153.4 266.51 152.98 265.99 152.59C265.55 152.26 264.93 152.36 264.6 152.8C264.6 152.81 264.59 152.82 264.59 152.82Z" fill="#323232"/>
<path d="M267.81 140.81C267.81 140.8 267.8 140.8 267.8 140.79C267.47 140.35 266.85 140.26 266.42 140.59C265.89 140.99 265.32 141.41 264.8 141.81C264.36 142.14 264.28 142.76 264.61 143.19C264.61 143.2 264.62 143.2 264.62 143.21C264.95 143.65 265.56 143.74 266 143.41C266.53 143.02 267.09 142.59 267.62 142.19C268.05 141.87 268.13 141.25 267.81 140.81Z" fill="#323232"/>
<path d="M256 145H252C250.9 145 250 145.9 250 147V149C250 150.1 250.9 151 252 151H253V154C253 154.55 253.45 155 254 155C254.55 155 255 154.55 255 154V151H256L261 154V142L256 145Z" fill="#323232"/>
<path d="M263.5 148C263.5 146.67 262.92 145.47 262 144.65V151.34C262.92 150.53 263.5 149.33 263.5 148Z" fill="#323232"/>
</g>
<g clip-path="url(#clip14_17_18094)">
<path d="M316 138C310.47 138 306 142.47 306 148C306 153.53 310.47 158 316 158C321.53 158 326 153.53 326 148C326 142.47 321.53 138 316 138ZM320.3 152.3C319.91 152.69 319.28 152.69 318.89 152.3L316 149.41L313.11 152.3C312.72 152.69 312.09 152.69 311.7 152.3C311.31 151.91 311.31 151.28 311.7 150.89L314.59 148L311.7 145.11C311.31 144.72 311.31 144.09 311.7 143.7C312.09 143.31 312.72 143.31 313.11 143.7L316 146.59L318.89 143.7C319.28 143.31 319.91 143.31 320.3 143.7C320.69 144.09 320.69 144.72 320.3 145.11L317.41 148L320.3 150.89C320.68 151.27 320.68 151.91 320.3 152.3Z" fill="#323232"/>
</g>
<g clip-path="url(#clip15_17_18094)">
<path d="M369 152.17L365.53 148.7C365.14 148.31 364.51 148.31 364.12 148.7C363.73 149.09 363.73 149.72 364.12 150.11L368.3 154.29C368.69 154.68 369.32 154.68 369.71 154.29L380.29 143.71C380.68 143.32 380.68 142.69 380.29 142.3C379.9 141.91 379.27 141.91 378.88 142.3L369 152.17Z" fill="#323232"/>
</g>
<g clip-path="url(#clip16_17_18094)">
<path d="M430.71 142.71C430.32 142.32 429.69 142.32 429.3 142.71L424.71 147.3C424.32 147.69 424.32 148.32 424.71 148.71L429.3 153.3C429.69 153.69 430.32 153.69 430.71 153.3C431.1 152.91 431.1 152.28 430.71 151.89L426.83 148L430.71 144.12C431.1 143.73 431.09 143.09 430.71 142.71Z" fill="#323232"/>
</g>
<g clip-path="url(#clip17_17_18094)">
<path d="M481.29 142.71C480.9 143.1 480.9 143.73 481.29 144.12L485.17 148L481.29 151.88C480.9 152.27 480.9 152.9 481.29 153.29C481.68 153.68 482.31 153.68 482.7 153.29L487.29 148.7C487.68 148.31 487.68 147.68 487.29 147.29L482.7 142.7C482.32 142.32 481.68 142.32 481.29 142.71Z" fill="#323232"/>
</g>
<g clip-path="url(#clip18_17_18094)">
<path d="M546.3 141.71C545.91 141.32 545.28 141.32 544.89 141.71L540 146.59L535.11 141.7C534.72 141.31 534.09 141.31 533.7 141.7C533.31 142.09 533.31 142.72 533.7 143.11L538.59 148L533.7 152.89C533.31 153.28 533.31 153.91 533.7 154.3C534.09 154.69 534.72 154.69 535.11 154.3L540 149.41L544.89 154.3C545.28 154.69 545.91 154.69 546.3 154.3C546.69 153.91 546.69 153.28 546.3 152.89L541.41 148L546.3 143.11C546.68 142.73 546.68 142.09 546.3 141.71Z" fill="#323232"/>
</g>
<g clip-path="url(#clip19_17_18094)">
<path d="M604.08 147.42L600.04 141.77C599.7 141.29 599.15 141 598.56 141C597.07 141 596.21 142.68 597.07 143.89L600 148L597.07 152.11C596.2 153.32 597.07 155 598.56 155C599.15 155 599.71 154.71 600.05 154.23L604.09 148.58C604.33 148.23 604.33 147.77 604.08 147.42Z" fill="#323232"/>
<path d="M597.08 147.42L593.05 141.77C592.7 141.29 592.15 141 591.56 141C590.07 141 589.2 142.68 590.07 143.89L593 148L590.07 152.11C589.2 153.32 590.07 155 591.56 155C592.15 155 592.71 154.71 593.05 154.23L597.09 148.58C597.33 148.23 597.33 147.77 597.08 147.42Z" fill="#323232"/>
</g>
<g clip-path="url(#clip20_17_18094)">
<path d="M94.29 197.71C93.9 198.1 93.9 198.73 94.29 199.12L98.17 203H83C82.45 203 82 203.45 82 204C82 204.55 82.45 205 83 205H98.18L94.3 208.88C93.91 209.27 93.91 209.9 94.3 210.29C94.69 210.68 95.32 210.68 95.71 210.29L101.3 204.7C101.69 204.31 101.69 203.68 101.3 203.29L95.7 197.71C95.32 197.32 94.68 197.32 94.29 197.71Z" fill="#323232"/>
</g>
<g clip-path="url(#clip21_17_18094)">
<path d="M147.29 200.71L142.7 205.3C142.31 205.69 142.31 206.32 142.7 206.71C143.09 207.1 143.72 207.1 144.11 206.71L148 202.83L151.88 206.71C152.27 207.1 152.9 207.1 153.29 206.71C153.68 206.32 153.68 205.69 153.29 205.3L148.7 200.71C148.32 200.32 147.68 200.32 147.29 200.71Z" fill="#323232"/>
</g>
<g clip-path="url(#clip22_17_18094)">
<path d="M207.88 201.29L204 205.17L200.12 201.29C199.73 200.9 199.1 200.9 198.71 201.29C198.32 201.68 198.32 202.31 198.71 202.7L203.3 207.29C203.69 207.68 204.32 207.68 204.71 207.29L209.3 202.7C209.69 202.31 209.69 201.68 209.3 201.29C208.91 200.91 208.27 200.9 207.88 201.29Z" fill="#323232"/>
</g>
<g clip-path="url(#clip23_17_18094)">
<path d="M265.7 207.89L261.82 204L265.71 200.11C266.1 199.72 266.1 199.09 265.71 198.7C265.32 198.31 264.69 198.31 264.3 198.7L259.71 203.29C259.32 203.68 259.32 204.31 259.71 204.7L264.3 209.29C264.69 209.68 265.32 209.68 265.71 209.29C266.09 208.91 266.09 208.27 265.7 207.89ZM255 198C255.55 198 256 198.45 256 199V209C256 209.55 255.55 210 255 210C254.45 210 254 209.55 254 209V199C254 198.45 254.45 198 255 198Z" fill="#323232"/>
</g>
<g clip-path="url(#clip24_17_18094)">
<path d="M310 206C309.45 206 309 206.45 309 207V210C309 210.55 309.45 211 310 211H313C313.55 211 314 210.55 314 210C314 209.45 313.55 209 313 209H311V207C311 206.45 310.55 206 310 206ZM310 202C310.55 202 311 201.55 311 201V199H313C313.55 199 314 198.55 314 198C314 197.45 313.55 197 313 197H310C309.45 197 309 197.45 309 198V201C309 201.55 309.45 202 310 202ZM321 209H319C318.45 209 318 209.45 318 210C318 210.55 318.45 211 319 211H322C322.55 211 323 210.55 323 210V207C323 206.45 322.55 206 322 206C321.45 206 321 206.45 321 207V209ZM318 198C318 198.55 318.45 199 319 199H321V201C321 201.55 321.45 202 322 202C322.55 202 323 201.55 323 201V198C323 197.45 322.55 197 322 197H319C318.45 197 318 197.45 318 198Z" fill="#323232"/>
</g>
<g clip-path="url(#clip25_17_18094)">
<path d="M366 208H368V210C368 210.55 368.45 211 369 211C369.55 211 370 210.55 370 210V207C370 206.45 369.55 206 369 206H366C365.45 206 365 206.45 365 207C365 207.55 365.45 208 366 208ZM368 200H366C365.45 200 365 200.45 365 201C365 201.55 365.45 202 366 202H369C369.55 202 370 201.55 370 201V198C370 197.45 369.55 197 369 197C368.45 197 368 197.45 368 198V200ZM375 211C375.55 211 376 210.55 376 210V208H378C378.55 208 379 207.55 379 207C379 206.45 378.55 206 378 206H375C374.45 206 374 206.45 374 207V210C374 210.55 374.45 211 375 211ZM376 200V198C376 197.45 375.55 197 375 197C374.45 197 374 197.45 374 198V201C374 201.55 374.45 202 375 202H378C378.55 202 379 201.55 379 201C379 200.45 378.55 200 378 200H376Z" fill="#323232"/>
</g>
<g clip-path="url(#clip26_17_18094)">
<path d="M436 195H428C427.45 195 427 195.45 427 196V197.61C427 197.61 427 197.61 427.01 197.62L432.01 202.12C432.64 202.68 433 203.5 433 204.35V205H435V207H433V209H435V211H433V213H436C436.55 213 437 212.55 437 212V196C437 195.45 436.55 195 436 195ZM431 199H429V197H431V199ZM435 203H433V201H435V203ZM435 199H433V197H435V199Z" fill="#323232"/>
<path d="M431 212V204.35C431 204.07 430.88 203.8 430.67 203.61L425.67 199.11C425.48 198.93 425.24 198.85 425 198.85C424.76 198.85 424.52 198.94 424.33 199.11L419.33 203.61C419.12 203.79 419 204.06 419 204.35V212C419 212.55 419.45 213 420 213H422C422.55 213 423 212.55 423 212V208H427V212C427 212.55 427.45 213 428 213H430C430.55 213 431 212.55 431 212Z" fill="#323232"/>
</g>
<g clip-path="url(#clip27_17_18094)">
<path d="M478.29 200.11L482.18 204L478.29 207.89C477.9 208.28 477.9 208.91 478.29 209.3C478.68 209.69 479.31 209.69 479.7 209.3L484.29 204.71C484.68 204.32 484.68 203.69 484.29 203.3L479.7 198.7C479.31 198.31 478.68 198.31 478.29 198.7C477.91 199.09 477.91 199.73 478.29 200.11ZM489 198C489.55 198 490 198.45 490 199V209C490 209.55 489.55 210 489 210C488.45 210 488 209.55 488 209V199C488 198.45 488.45 198 489 198Z" fill="#323232"/>
</g>
<g clip-path="url(#clip28_17_18094)">
<path d="M547 207H533C532.45 207 532 206.55 532 206C532 205.45 532.45 205 533 205H547C547.55 205 548 205.45 548 206C548 206.55 547.55 207 547 207ZM547 209H533C532.45 209 532 209.45 532 210C532 210.55 532.45 211 533 211H547C547.55 211 548 210.55 548 210C548 209.45 547.55 209 547 209ZM543 203L547.58 199.75C547.84 199.56 548 199.26 548 198.94C548 198.13 547.08 197.65 546.42 198.12L543 200.55L538 197L532.48 200.36C532.18 200.55 532 200.87 532 201.22C532 202 532.85 202.48 533.52 202.07L537.92 199.39L543 203Z" fill="#323232"/>
</g>
<g clip-path="url(#clip29_17_18094)">
<path d="M588 210H604C604.55 210 605 209.55 605 209C605 208.45 604.55 208 604 208H588C587.45 208 587 208.45 587 209C587 209.55 587.45 210 588 210ZM588 205H604C604.55 205 605 204.55 605 204C605 203.45 604.55 203 604 203H588C587.45 203 587 203.45 587 204C587 204.55 587.45 205 588 205ZM587 199C587 199.55 587.45 200 588 200H604C604.55 200 605 199.55 605 199C605 198.45 604.55 198 604 198H588C587.45 198 587 198.45 587 199Z" fill="#323232"/>
</g>
<g clip-path="url(#clip30_17_18094)">
<path d="M84 266H95C95.55 266 96 265.55 96 265C96 264.45 95.55 264 95 264H84C83.45 264 83 264.45 83 265C83 265.55 83.45 266 84 266ZM84 261H92C92.55 261 93 260.55 93 260C93 259.45 92.55 259 92 259H84C83.45 259 83 259.45 83 260C83 260.55 83.45 261 84 261ZM83 255C83 255.55 83.45 256 84 256H95C95.55 256 96 255.55 96 255C96 254.45 95.55 254 95 254H84C83.45 254 83 254.45 83 255ZM100.3 262.88L97.42 260L100.3 257.12C100.69 256.73 100.69 256.1 100.3 255.71C99.91 255.32 99.28 255.32 98.89 255.71L95.3 259.3C94.91 259.69 94.91 260.32 95.3 260.71L98.89 264.3C99.28 264.69 99.91 264.69 100.3 264.3C100.68 263.91 100.69 263.27 100.3 262.88Z" fill="#323232"/>
</g>
<g clip-path="url(#clip31_17_18094)">
<path d="M142 258C140.9 258 140 258.9 140 260C140 261.1 140.9 262 142 262C143.1 262 144 261.1 144 260C144 258.9 143.1 258 142 258ZM154 258C152.9 258 152 258.9 152 260C152 261.1 152.9 262 154 262C155.1 262 156 261.1 156 260C156 258.9 155.1 258 154 258ZM148 258C146.9 258 146 258.9 146 260C146 261.1 146.9 262 148 262C149.1 262 150 261.1 150 260C150 258.9 149.1 258 148 258Z" fill="#323232"/>
</g>
<g clip-path="url(#clip32_17_18094)">
<path d="M204 256C205.1 256 206 255.1 206 254C206 252.9 205.1 252 204 252C202.9 252 202 252.9 202 254C202 255.1 202.9 256 204 256ZM204 258C202.9 258 202 258.9 202 260C202 261.1 202.9 262 204 262C205.1 262 206 261.1 206 260C206 258.9 205.1 258 204 258ZM204 264C202.9 264 202 264.9 202 266C202 267.1 202.9 268 204 268C205.1 268 206 267.1 206 266C206 264.9 205.1 264 204 264Z" fill="#323232"/>
</g>
<g clip-path="url(#clip33_17_18094)">
<path d="M253.71 257.7C254.1 258.09 254.73 258.09 255.12 257.7L259 253.83V269C259 269.55 259.45 270 260 270C260.55 270 261 269.55 261 269V253.83L264.88 257.71C265.27 258.1 265.9 258.1 266.29 257.71C266.68 257.32 266.68 256.69 266.29 256.3L260.7 250.7C260.31 250.31 259.68 250.31 259.29 250.7L253.71 256.29C253.32 256.68 253.32 257.32 253.71 257.7Z" fill="#323232"/>
</g>
<g clip-path="url(#clip34_17_18094)">
<path d="M313 254C313 254.56 313.45 255 314 255H319.59L308.7 265.89C308.31 266.28 308.31 266.91 308.7 267.3C309.09 267.69 309.72 267.69 310.11 267.3L321 256.41V262C321 262.55 321.45 263 322 263C322.55 263 323 262.55 323 262V254C323 253.45 322.55 253 322 253H314C313.45 253 313 253.45 313 254Z" fill="#323232"/>
</g>
<g clip-path="url(#clip35_17_18094)">
<path d="M366 263C366.56 263 367 262.55 367 262V256.41L377.89 267.3C378.28 267.69 378.91 267.69 379.3 267.3C379.69 266.91 379.69 266.28 379.3 265.89L368.41 255H374C374.55 255 375 254.55 375 254C375 253.45 374.55 253 374 253H366C365.45 253 365 253.45 365 254V262C365 262.55 365.45 263 366 263Z" fill="#323232"/>
</g>
<g clip-path="url(#clip36_17_18094)">
<path d="M439 256V266C439 267.1 438.1 268 437 268H421C420.45 268 420 267.55 420 267C420 266.45 420.45 266 421 266H437V256C437 255.45 437.45 255 438 255C438.55 255 439 255.45 439 256ZM420 264C418.34 264 417 262.66 417 261V255C417 253.34 418.34 252 420 252H432C433.66 252 435 253.34 435 255V262C435 263.1 434.1 264 433 264H420ZM423 258C423 259.66 424.34 261 426 261C427.66 261 429 259.66 429 258C429 256.34 427.66 255 426 255C424.34 255 423 256.34 423 258Z" fill="#323232"/>
</g>
<g clip-path="url(#clip37_17_18094)">
<path d="M489.65 254.35C488.02 252.72 485.71 251.78 483.17 252.04C479.5 252.41 476.48 255.39 476.07 259.06C475.52 263.91 479.27 268 484 268C487.19 268 489.93 266.13 491.21 263.44C491.53 262.77 491.05 262 490.31 262C489.94 262 489.59 262.2 489.43 262.53C488.3 264.96 485.59 266.5 482.63 265.84C480.41 265.35 478.62 263.54 478.15 261.32C477.31 257.44 480.26 254 484 254C485.66 254 487.14 254.69 488.22 255.78L486.71 257.29C486.08 257.92 486.52 259 487.41 259H491C491.55 259 492 258.55 492 258V254.41C492 253.52 490.92 253.07 490.29 253.7L489.65 254.35Z" fill="#323232"/>
</g>
<g clip-path="url(#clip38_17_18094)">
<path d="M546.3 262.29C545.91 261.9 545.28 261.9 544.89 262.29L541 266.17V251C541 250.45 540.55 250 540 250C539.45 250 539 250.45 539 251V266.18L535.12 262.3C534.73 261.91 534.1 261.91 533.71 262.3C533.32 262.69 533.32 263.32 533.71 263.71L539.3 269.3C539.69 269.69 540.32 269.69 540.71 269.3L546.3 263.71C546.68 263.32 546.68 262.68 546.3 262.29Z" fill="#323232"/>
</g>
<g clip-path="url(#clip39_17_18094)">
<path d="M602 257C601.44 257 601 257.45 601 258V263.59L590.12 252.7C589.73 252.31 589.1 252.31 588.71 252.7C588.32 253.09 588.32 253.72 588.71 254.11L599.59 265H594C593.45 265 593 265.45 593 266C593 266.55 593.45 267 594 267H602C602.55 267 603 266.55 603 266V258C603 257.45 602.55 257 602 257Z" fill="#323232"/>
</g>
<g clip-path="url(#clip40_17_18094)">
<path d="M95 322C95 321.44 94.55 321 94 321H88.41L99.3 310.11C99.69 309.72 99.69 309.09 99.3 308.7C98.91 308.31 98.28 308.31 97.89 308.7L87 319.59V314C87 313.45 86.55 313 86 313C85.45 313 85 313.45 85 314V322C85 322.55 85.45 323 86 323H94C94.55 323 95 322.55 95 322Z" fill="#323232"/>
</g>
<g clip-path="url(#clip41_17_18094)">
<path d="M141.71 319.71L146.29 324.29C146.68 324.68 147.32 324.68 147.71 324.29C148.1 323.9 148.1 323.26 147.71 322.87L144.83 320H155C155.55 320 156 319.55 156 319V309C156 308.45 155.55 308 155 308C154.45 308 154 308.45 154 309V318H144.83L147.71 315.13C148.1 314.74 148.1 314.1 147.71 313.71C147.32 313.32 146.68 313.32 146.29 313.71L141.71 318.29C141.32 318.68 141.32 319.32 141.71 319.71Z" fill="#323232"/>
</g>
<g clip-path="url(#clip42_17_18094)">
<path d="M210.29 319.71L205.71 324.29C205.32 324.68 204.68 324.68 204.29 324.29C203.9 323.9 203.9 323.26 204.29 322.87L207.17 320H197C196.45 320 196 319.55 196 319V309C196 308.45 196.45 308 197 308C197.55 308 198 308.45 198 309V318H207.17L204.29 315.13C203.9 314.74 203.9 314.1 204.29 313.71C204.68 313.32 205.32 313.32 205.71 313.71L210.29 318.29C210.68 318.68 210.68 319.32 210.29 319.71Z" fill="#323232"/>
</g>
<g clip-path="url(#clip43_17_18094)">
<path d="M256.5 312.62V319.38L253.12 316L256.5 312.62ZM251.71 315.29C251.32 315.68 251.32 316.31 251.71 316.7L256.3 321.29C256.92 321.92 258 321.48 258 320.59V311.41C258 310.52 256.92 310.07 256.29 310.7L251.71 315.29ZM262 311.41V320.58C262 321.47 263.08 321.92 263.71 321.29L268.3 316.7C268.69 316.31 268.69 315.68 268.3 315.29L263.71 310.7C263.08 310.08 262 310.52 262 311.41Z" fill="#323232"/>
</g>
<g clip-path="url(#clip44_17_18094)">
<path d="M319.5 319.38V312.62L322.88 316L319.5 319.38ZM324.29 316.71C324.68 316.32 324.68 315.69 324.29 315.3L319.7 310.71C319.08 310.08 318 310.52 318 311.41V320.58C318 321.47 319.08 321.92 319.71 321.29L324.29 316.71ZM314 320.59V311.41C314 310.52 312.92 310.07 312.29 310.7L307.7 315.29C307.31 315.68 307.31 316.31 307.7 316.7L312.29 321.29C312.92 321.92 314 321.48 314 320.59Z" fill="#323232"/>
</g>
<g clip-path="url(#clip45_17_18094)">
<path d="M368.12 323.3C368.51 323.69 369.14 323.69 369.53 323.3L372 320.83L374.47 323.3C374.86 323.69 375.49 323.69 375.88 323.3C376.27 322.91 376.27 322.28 375.88 321.89L372.71 318.72C372.32 318.33 371.69 318.33 371.3 318.72L368.13 321.89C367.73 322.27 367.73 322.91 368.12 323.3ZM375.88 308.7C375.49 308.31 374.86 308.31 374.47 308.7L372 311.17L369.53 308.7C369.14 308.31 368.51 308.31 368.12 308.7C367.73 309.09 367.73 309.73 368.12 310.12L371.29 313.29C371.68 313.68 372.31 313.68 372.7 313.29L375.87 310.12C376.27 309.73 376.27 309.09 375.88 308.7Z" fill="#323232"/>
</g>
<g clip-path="url(#clip46_17_18094)">
<path d="M428 309.83L430.46 312.29C430.85 312.68 431.48 312.68 431.87 312.29C432.26 311.9 432.26 311.27 431.87 310.88L428.7 307.7C428.31 307.31 427.68 307.31 427.29 307.7L424.12 310.88C423.73 311.27 423.73 311.9 424.12 312.29C424.51 312.68 425.14 312.68 425.53 312.29L428 309.83ZM428 322.17L425.54 319.71C425.15 319.32 424.52 319.32 424.13 319.71C423.74 320.1 423.74 320.73 424.13 321.12L427.3 324.3C427.69 324.69 428.32 324.69 428.71 324.3L431.88 321.13C432.27 320.74 432.27 320.11 431.88 319.72C431.49 319.33 430.86 319.33 430.47 319.72L428 322.17Z" fill="#323232"/>
</g>
<g clip-path="url(#clip47_17_18094)">
<path d="M481.7 322.3C482.09 321.91 482.09 321.28 481.7 320.89L477.83 317H493C493.55 317 494 316.55 494 316C494 315.45 493.55 315 493 315H477.83L481.71 311.12C482.1 310.73 482.1 310.1 481.71 309.71C481.32 309.32 480.69 309.32 480.3 309.71L474.7 315.3C474.31 315.69 474.31 316.32 474.7 316.71L480.29 322.3C480.68 322.68 481.32 322.68 481.7 322.3Z" fill="#323232"/>
</g>
<defs>
<clipPath id="clip0_17_18094">
<rect width="24" height="24" fill="white" transform="translate(80 80)"/>
</clipPath>
<clipPath id="clip1_17_18094">
<rect width="24" height="24" fill="white" transform="translate(136 80)"/>
</clipPath>
<clipPath id="clip2_17_18094">
<rect width="24" height="24" fill="white" transform="translate(192 80)"/>
</clipPath>
<clipPath id="clip3_17_18094">
<rect width="24" height="24" fill="white" transform="translate(248 80)"/>
</clipPath>
<clipPath id="clip4_17_18094">
<rect width="24" height="24" fill="white" transform="translate(304 80)"/>
</clipPath>
<clipPath id="clip5_17_18094">
<rect width="24" height="24" fill="white" transform="translate(360 80)"/>
</clipPath>
<clipPath id="clip6_17_18094">
<rect width="24" height="24" fill="white" transform="translate(416 80)"/>
</clipPath>
<clipPath id="clip7_17_18094">
<rect width="24" height="24" fill="white" transform="translate(472 80)"/>
</clipPath>
<clipPath id="clip8_17_18094">
<rect width="24" height="24" fill="white" transform="translate(528 80)"/>
</clipPath>
<clipPath id="clip9_17_18094">
<rect width="24" height="24" fill="white" transform="translate(584 80)"/>
</clipPath>
<clipPath id="clip10_17_18094">
<rect width="24" height="24" fill="white" transform="translate(80 136)"/>
</clipPath>
<clipPath id="clip11_17_18094">
<rect width="24" height="24" fill="white" transform="translate(136 136)"/>
</clipPath>
<clipPath id="clip12_17_18094">
<rect width="24" height="24" fill="white" transform="translate(192 136)"/>
</clipPath>
<clipPath id="clip13_17_18094">
<rect width="24" height="24" fill="white" transform="translate(248 136)"/>
</clipPath>
<clipPath id="clip14_17_18094">
<rect width="24" height="24" fill="white" transform="translate(304 136)"/>
</clipPath>
<clipPath id="clip15_17_18094">
<rect width="24" height="24" fill="white" transform="translate(360 136)"/>
</clipPath>
<clipPath id="clip16_17_18094">
<rect width="24" height="24" fill="white" transform="translate(416 136)"/>
</clipPath>
<clipPath id="clip17_17_18094">
<rect width="24" height="24" fill="white" transform="translate(472 136)"/>
</clipPath>
<clipPath id="clip18_17_18094">
<rect width="24" height="24" fill="white" transform="translate(528 136)"/>
</clipPath>
<clipPath id="clip19_17_18094">
<rect width="24" height="24" fill="white" transform="translate(584 136)"/>
</clipPath>
<clipPath id="clip20_17_18094">
<rect width="24" height="24" fill="white" transform="translate(80 192)"/>
</clipPath>
<clipPath id="clip21_17_18094">
<rect width="24" height="24" fill="white" transform="translate(136 192)"/>
</clipPath>
<clipPath id="clip22_17_18094">
<rect width="24" height="24" fill="white" transform="translate(192 192)"/>
</clipPath>
<clipPath id="clip23_17_18094">
<rect width="24" height="24" fill="white" transform="translate(248 192)"/>
</clipPath>
<clipPath id="clip24_17_18094">
<rect width="24" height="24" fill="white" transform="translate(304 192)"/>
</clipPath>
<clipPath id="clip25_17_18094">
<rect width="24" height="24" fill="white" transform="translate(360 192)"/>
</clipPath>
<clipPath id="clip26_17_18094">
<rect width="24" height="24" fill="white" transform="translate(416 192)"/>
</clipPath>
<clipPath id="clip27_17_18094">
<rect width="24" height="24" fill="white" transform="translate(472 192)"/>
</clipPath>
<clipPath id="clip28_17_18094">
<rect width="24" height="24" fill="white" transform="translate(528 192)"/>
</clipPath>
<clipPath id="clip29_17_18094">
<rect width="24" height="24" fill="white" transform="translate(584 192)"/>
</clipPath>
<clipPath id="clip30_17_18094">
<rect width="24" height="24" fill="white" transform="translate(80 248)"/>
</clipPath>
<clipPath id="clip31_17_18094">
<rect width="24" height="24" fill="white" transform="translate(136 248)"/>
</clipPath>
<clipPath id="clip32_17_18094">
<rect width="24" height="24" fill="white" transform="translate(192 248)"/>
</clipPath>
<clipPath id="clip33_17_18094">
<rect width="24" height="24" fill="white" transform="translate(248 248)"/>
</clipPath>
<clipPath id="clip34_17_18094">
<rect width="24" height="24" fill="white" transform="translate(304 248)"/>
</clipPath>
<clipPath id="clip35_17_18094">
<rect width="24" height="24" fill="white" transform="translate(360 248)"/>
</clipPath>
<clipPath id="clip36_17_18094">
<rect width="24" height="24" fill="white" transform="translate(416 248)"/>
</clipPath>
<clipPath id="clip37_17_18094">
<rect width="24" height="24" fill="white" transform="translate(472 248)"/>
</clipPath>
<clipPath id="clip38_17_18094">
<rect width="24" height="24" fill="white" transform="translate(528 248)"/>
</clipPath>
<clipPath id="clip39_17_18094">
<rect width="24" height="24" fill="white" transform="translate(584 248)"/>
</clipPath>
<clipPath id="clip40_17_18094">
<rect width="24" height="24" fill="white" transform="translate(80 304)"/>
</clipPath>
<clipPath id="clip41_17_18094">
<rect width="24" height="24" fill="white" transform="translate(136 304)"/>
</clipPath>
<clipPath id="clip42_17_18094">
<rect width="24" height="24" fill="white" transform="translate(192 304)"/>
</clipPath>
<clipPath id="clip43_17_18094">
<rect width="24" height="24" fill="white" transform="translate(248 304)"/>
</clipPath>
<clipPath id="clip44_17_18094">
<rect width="24" height="24" fill="white" transform="translate(304 304)"/>
</clipPath>
<clipPath id="clip45_17_18094">
<rect width="24" height="24" fill="white" transform="translate(360 304)"/>
</clipPath>
<clipPath id="clip46_17_18094">
<rect width="24" height="24" fill="white" transform="translate(416 304)"/>
</clipPath>
<clipPath id="clip47_17_18094">
<rect width="24" height="24" fill="white" transform="translate(472 304)"/>
</clipPath>
</defs>
</svg>
