<svg width="688" height="520" viewBox="0 0 688 520" fill="none" xmlns="http://www.w3.org/2000/svg">
<rect x="0.5" y="0.5" width="687" height="519" rx="31.5" stroke="#CCCCCC"/>
<g clip-path="url(#clip0_17_18157)">
<path d="M97 91H100C101.11 91 102 90.1 102 89V85C102 83.89 101.1 83 100 83H97C95.89 83 95 83.9 95 85V86H89.01V85C89.01 83.89 88.11 83 87.01 83H84C82.9 83 82 83.9 82 85V89C82 90.11 82.9 91 84 91H87C88.11 91 89 90.1 89 89V88H91V95.01C91 96.66 92.34 98 93.99 98H95V99C95 100.11 95.9 101 97 101H100C101.11 101 102 100.1 102 99V95C102 93.89 101.1 93 100 93H97C95.89 93 95 93.9 95 95V96H93.99C93.45 96 93 95.55 93 95.01V88H95V89C95 90.1 95.9 91 97 91Z" fill="#323232"/>
</g>
<g clip-path="url(#clip1_17_18157)">
<path d="M141 96C141 99.87 144.13 103 148 103C151.87 103 155 99.87 155 96V92H141V96ZM152.12 84.37L154.22 82.27L153.4 81.44L151.1 83.75C150.16 83.28 149.12 83 148 83C146.88 83 145.84 83.28 144.91 83.75L142.6 81.44L141.78 82.27L143.88 84.37C142.14 85.64 141 87.68 141 90V91H155V90C155 87.68 153.86 85.64 152.12 84.37ZM145 89C144.45 89 144 88.55 144 88C144 87.45 144.45 87 145 87C145.55 87 146 87.45 146 88C146 88.55 145.55 89 145 89ZM151 89C150.45 89 150 88.55 150 88C150 87.45 150.45 87 151 87C151.55 87 152 87.45 152 88C152 88.55 151.55 89 151 89Z" fill="#323232"/>
</g>
<g clip-path="url(#clip2_17_18157)">
<path d="M214 91V93H201V89C201 87.9 201.9 87 203 87H210C212.21 87 214 88.79 214 91ZM194 95C194 95.55 194.45 96 195 96H200V97C200 97.55 200.45 98 201 98H207C207.55 98 208 97.55 208 97V96H213C213.55 96 214 95.55 214 95C214 94.45 213.55 94 213 94H195C194.45 94 194 94.45 194 95ZM199.14 92.1C200.3 90.91 200.28 89.02 199.1 87.86C197.91 86.7 196.02 86.72 194.86 87.9C193.7 89.09 193.72 90.98 194.9 92.14C196.09 93.3 197.98 93.28 199.14 92.1Z" fill="#323232"/>
</g>
<g clip-path="url(#clip3_17_18157)">
<path d="M270.25 94.29L269.56 96.18L257.2 91.71L258.59 87.92C258.97 86.89 260.11 86.36 261.15 86.73L267.84 89.14C269.94 89.9 271.02 92.2 270.25 94.29ZM250.45 92.48L256 94.48V98C256 98.55 256.45 99 257 99H263C263.55 99 264 98.55 264 98V97.37L267.58 98.66C268.1 98.85 268.68 98.58 268.87 98.06C269.06 97.54 268.79 96.96 268.27 96.77L251.13 90.59C250.61 90.4 250.03 90.67 249.84 91.19C249.66 91.71 249.93 92.29 250.45 92.48ZM255.3 90.2C256.79 89.48 257.42 87.69 256.71 86.2C255.99 84.71 254.2 84.08 252.7 84.8C251.21 85.51 250.58 87.3 251.3 88.8C252.01 90.29 253.8 90.92 255.3 90.2Z" fill="#323232"/>
</g>
<g clip-path="url(#clip4_17_18157)">
<path d="M311 93C312.65 93 314 91.65 314 90C314 88.35 312.65 87 311 87C309.35 87 308 88.35 308 90C308 91.65 309.35 93 311 93ZM323 87H317C315.9 87 315 87.9 315 89V94H307V88C307 87.45 306.55 87 306 87C305.45 87 305 87.45 305 88V95C305 96.1 305.9 97 307 97H325C326.1 97 327 96.1 327 95V91C327 88.79 325.21 87 323 87Z" fill="#323232"/>
</g>
<g clip-path="url(#clip5_17_18157)">
<path d="M364 92V84C364 83.45 363.55 83 363 83C362.45 83 362 83.45 362 84V92C362 94.76 364.24 97 367 97H372C372.55 97 373 96.55 373 96C373 95.45 372.55 95 372 95H367C365.34 95 364 93.66 364 92ZM382.83 97.24C382.45 96.52 381.54 96.27 380.8 96.61L379.71 97.11L376.3 90.13C375.96 89.45 375.27 89 374.51 89H371V83H365V91C365 92.66 366.34 94 368 94H375L377.56 99.25C378.04 100.23 379.2 100.64 380.19 100.19L382.14 99.3C382.9 98.94 383.23 98 382.83 97.24Z" fill="#323232"/>
</g>
<g clip-path="url(#clip6_17_18157)">
<path d="M421 92V84C421 83.45 420.55 83 420 83C419.45 83 419 83.45 419 84V92C419 94.76 421.24 97 424 97H429C429.55 97 430 96.55 430 96C430 95.45 429.55 95 429 95H424C422.34 95 421 93.66 421 92ZM436.5 98H435V91C435 89.9 434.1 89 433 89H428V83H422V91C422 92.65 423.35 94 425 94H432V99C432 100.1 432.9 101 434 101H436.5C437.33 101 438 100.33 438 99.5C438 98.67 437.33 98 436.5 98Z" fill="#323232"/>
</g>
<g clip-path="url(#clip7_17_18157)">
<path d="M491.97 99.2C492.15 100.16 491.42 101 490.5 101H487.81C486.51 101 485.55 99.78 485.87 98.51L487 94H481C479.35 94 478 92.65 478 91V83H484V89H489C490.1 89 491 89.9 491 91L489 98H490.44C491.17 98 491.83 98.49 491.97 99.2ZM477 92V84C477 83.45 476.55 83 476 83C475.45 83 475 83.45 475 84V92C475 94.76 477.24 97 480 97H483C483.55 97 484 96.55 484 96C484 95.45 483.55 95 483 95H480C478.34 95 477 93.66 477 92Z" fill="#323232"/>
</g>
<g clip-path="url(#clip8_17_18157)">
<path d="M533.35 85.64C532.45 85 532.23 83.76 532.86 82.85C533.49 81.95 534.74 81.73 535.65 82.36C536.55 83 536.77 84.24 536.14 85.15C535.5 86.05 534.26 86.27 533.35 85.64ZM544 100C544 99.45 543.55 99 543 99H536.93C535.45 99 534.19 97.92 533.97 96.46L532.16 87.78C532.07 87.33 531.67 87 531.2 87C530.58 87 530.12 87.57 530.24 88.18L531.99 96.76C532.37 99.2 534.47 101 536.94 101H543C543.55 101 544 100.55 544 100ZM543.54 95H539.35L538.32 90.9C539.6 91.62 540.95 92.18 542.42 92.2C543 92.21 543.47 91.71 543.47 91.13C543.47 90.54 542.98 90.09 542.39 90.07C541.08 90.03 539.76 89.51 538.78 88.74L537.14 87.47C536.91 87.29 536.65 87.17 536.38 87.09C536.06 87 535.72 86.97 535.39 87.03H535.37C534.14 87.25 533.32 88.42 533.53 89.64L534.88 95.56C535.16 96.98 536.39 98 537.83 98H544.68L547.77 100.42C548.19 100.75 548.79 100.71 549.16 100.34C549.61 99.89 549.56 99.16 549.06 98.77L544.77 95.42C544.42 95.15 543.99 95 543.54 95Z" fill="#323232"/>
</g>
<g clip-path="url(#clip9_17_18157)">
<path d="M591.59 85.41C590.81 84.63 590.81 83.36 591.59 82.58C592.37 81.8 593.64 81.8 594.42 82.58C595.2 83.36 595.2 84.63 594.42 85.41C593.63 86.2 592.37 86.2 591.59 85.41ZM590 96V88C590 87.45 589.55 87 589 87C588.45 87 588 87.45 588 88V96C588 98.76 590.24 101 593 101H598C598.55 101 599 100.55 599 100C599 99.45 598.55 99 598 99H593C591.34 99 590 97.66 590 96ZM603.28 99.35L599.51 95.58C599.14 95.21 598.63 95 598.1 95H595.5V91.32C596.59 92.21 598.16 93.02 599.7 93.34C600.37 93.48 601 92.98 601 92.3C601 91.77 600.61 91.34 600.08 91.25C598.66 91.01 597.2 90.24 596.33 89.28L594.93 87.73C594.74 87.52 594.5 87.35 594.24 87.23C593.95 87.09 593.62 87 593.28 87H593.25C592.01 87 591 88.01 591 89.25V95C591 96.66 592.34 98 594 98H599.07L601.85 100.78C602.24 101.17 602.89 101.17 603.28 100.78C603.68 100.39 603.68 99.75 603.28 99.35Z" fill="#323232"/>
</g>
<g clip-path="url(#clip10_17_18157)">
<path d="M95.9802 146.28L94.6002 147.66C94.4002 147.86 94.4002 148.17 94.6002 148.37L95.9802 149.75C96.2602 150.03 96.7302 149.9 96.8302 149.52C96.9402 149.02 97.0002 148.52 97.0002 148C97.0002 147.49 96.9402 146.99 96.8202 146.52C96.7302 146.14 96.2602 146 95.9802 146.28ZM100.1 143.78C99.8502 143.23 99.1202 143.11 98.7002 143.54C98.4402 143.8 98.3902 144.18 98.5302 144.52C98.9902 145.59 99.2502 146.76 99.2502 147.99C99.2502 149.23 98.9902 150.41 98.5202 151.48C98.3802 151.8 98.4302 152.17 98.6802 152.42C99.0902 152.83 99.7802 152.71 100.03 152.19C100.66 150.89 101.01 149.43 101.01 147.89C101 146.44 100.68 145.04 100.1 143.78ZM91.3902 148L94.9802 144.42C95.3702 144.03 95.3702 143.4 94.9802 143L90.6902 138.71C90.0602 138.08 88.9802 138.53 88.9802 139.42V145.6L85.0902 141.7C84.7002 141.31 84.0702 141.31 83.6802 141.7C83.2902 142.09 83.2902 142.72 83.6802 143.11L88.5702 148L83.6802 152.89C83.2902 153.28 83.2902 153.91 83.6802 154.3C84.0702 154.69 84.7002 154.69 85.0902 154.3L88.9802 150.41V156.59C88.9802 157.48 90.0602 157.93 90.6902 157.3L94.9902 153C95.3802 152.61 95.3802 151.98 94.9902 151.58L91.3902 148ZM90.9802 141.83L92.8602 143.71L90.9802 145.59V141.83ZM90.9802 154.17V150.41L92.8602 152.29L90.9802 154.17Z" fill="#323232"/>
</g>
<g clip-path="url(#clip11_17_18157)">
<path d="M158 144.54V142C158 140.9 157.1 140 156 140H140C138.9 140 138.01 140.89 138.01 142V144.54C138.01 145.23 138.34 145.91 138.95 146.23C139.58 146.58 140 147.24 140 148C140 148.76 139.57 149.43 138.94 149.76C138.34 150.09 138 150.77 138 151.46V154C138 155.1 138.9 156 140 156H156C157.1 156 158 155.1 158 154V151.46C158 150.77 157.66 150.09 157.06 149.76C156.43 149.42 156 148.76 156 148C156 147.24 156.43 146.58 157.06 146.24C157.66 145.91 158 145.23 158 144.54ZM149 153.5H147V151.5H149V153.5ZM149 149H147V147H149V149ZM149 144.5H147V142.5H149V144.5Z" fill="#323232"/>
</g>
<g clip-path="url(#clip12_17_18157)">
<path d="M213.71 147.29L204.71 138.29C204.32 137.9 203.69 137.9 203.3 138.29L200.21 141.38L205 146.17V143.5L208.15 146.65C208.35 146.85 208.35 147.16 208.15 147.36L207.17 148.34L210.62 151.79L213.71 148.7C214.09 148.32 214.09 147.69 213.71 147.29Z" fill="#323232"/>
<path d="M198.79 142.79L195.51 139.51C195.12 139.12 194.49 139.12 194.1 139.51C193.71 139.9 193.71 140.53 194.1 140.92L197.38 144.2L194.29 147.29C193.9 147.68 193.9 148.31 194.29 148.7L203.29 157.7C203.68 158.09 204.31 158.09 204.7 157.7L207.79 154.61L211.07 157.89C211.46 158.28 212.09 158.28 212.48 157.89C212.87 157.5 212.87 156.87 212.48 156.48L198.79 142.79ZM201.99 150C201.99 150.55 201.54 151 200.99 151C200.44 151 199.99 150.55 199.99 150V147C199.99 146.95 200.01 146.9 200.02 146.85L201.99 148.82V150Z" fill="#323232"/>
</g>
<g clip-path="url(#clip13_17_18157)">
<path d="M268 152H270V150H268V152ZM268 144V147C268 147.55 268.45 148 269 148C269.55 148 270 147.55 270 147V144C270 143.45 269.55 143 269 143C268.45 143 268 143.45 268 144ZM258 140C253.58 140 250 143.58 250 148C250 152.42 253.58 156 258 156C262.42 156 266 152.42 266 148C266 143.58 262.42 140 258 140ZM258 150C256.9 150 256 149.1 256 148C256 146.9 256.9 146 258 146C259.1 146 260 146.9 260 148C260 149.1 259.1 150 258 150Z" fill="#323232"/>
</g>
<g clip-path="url(#clip14_17_18157)">
<path d="M316 138C310.48 138 306 142.48 306 148C306 153.52 310.48 158 316 158C321.52 158 326 153.52 326 148C326 142.48 321.52 138 316 138ZM316 156C311.58 156 308 152.42 308 148C308 146.15 308.63 144.45 309.69 143.1L320.9 154.31C319.55 155.37 317.85 156 316 156ZM322.31 152.9L311.1 141.69C312.45 140.63 314.15 140 316 140C320.42 140 324 143.58 324 148C324 149.85 323.37 151.55 322.31 152.9Z" fill="#323232"/>
</g>
<g clip-path="url(#clip15_17_18157)">
<path d="M372 138C366.5 138 362 142.5 362 148C362 153.5 366.5 158 372 158C377.5 158 382 153.5 382 148C382 142.5 377.5 138 372 138ZM364 148C364 143.6 367.6 140 372 140C373.8 140 375.5 140.6 376.9 141.7L365.7 152.9C364.6 151.5 364 149.8 364 148ZM372 156C370.2 156 368.5 155.4 367.1 154.3L378.3 143.1C379.4 144.5 380 146.2 380 148C380 152.4 376.4 156 372 156Z" fill="#323232"/>
</g>
<g clip-path="url(#clip16_17_18157)">
<path d="M433 147V149H432.12L436.45 153.33C437.43 151.79 438 149.96 438 148C438 142.48 433.52 138 428 138C426.04 138 424.21 138.57 422.67 139.55L430.12 147H433ZM437.17 156.88L419.12 138.83C418.73 138.44 418.1 138.44 417.71 138.83C417.32 139.22 417.32 139.85 417.71 140.24L419.78 142.31C418.66 143.93 418 145.89 418 148C418 153.52 422.48 158 428 158C430.11 158 432.07 157.34 433.68 156.22L435.75 158.29C436.14 158.68 436.77 158.68 437.16 158.29C437.56 157.9 437.56 157.27 437.17 156.88ZM423 149V147H424.46L426.46 149H423Z" fill="#323232"/>
</g>
<g clip-path="url(#clip17_17_18157)">
<path d="M484 138C478.48 138 474 142.48 474 148C474 153.52 478.48 158 484 158C489.52 158 494 153.52 494 148C494 142.48 489.52 138 484 138ZM488 149H480C479.45 149 479 148.55 479 148C479 147.45 479.45 147 480 147H488C488.55 147 489 147.45 489 148C489 148.55 488.55 149 488 149Z" fill="#323232"/>
</g>
<g clip-path="url(#clip18_17_18157)">
<path d="M546.92 141.01C546.72 140.42 546.16 140 545.5 140H534.5C533.84 140 533.29 140.42 533.08 141.01L531.11 146.68C531.04 146.89 531 147.11 531 147.34V154.5C531 155.33 531.67 156 532.5 156C533.33 156 534 155.33 534 154.5V154H546V154.5C546 155.32 546.67 156 547.5 156C548.32 156 549 155.33 549 154.5V147.34C549 147.12 548.96 146.89 548.89 146.68L546.92 141.01ZM534.5 151C533.67 151 533 150.33 533 149.5C533 148.67 533.67 148 534.5 148C535.33 148 536 148.67 536 149.5C536 150.33 535.33 151 534.5 151ZM545.5 151C544.67 151 544 150.33 544 149.5C544 148.67 544.67 148 545.5 148C546.33 148 547 148.67 547 149.5C547 150.33 546.33 151 545.5 151ZM533 146L534.27 142.18C534.41 141.78 534.79 141.5 535.22 141.5H544.78C545.21 141.5 545.59 141.78 545.73 142.18L547 146H533Z" fill="#323232"/>
</g>
<g clip-path="url(#clip19_17_18157)">
<path d="M602 144H601V142C601 139.24 598.76 137 596 137C593.24 137 591 139.24 591 142V144H590C588.9 144 588 144.9 588 146V156C588 157.1 588.9 158 590 158H602C603.1 158 604 157.1 604 156V146C604 144.9 603.1 144 602 144ZM592.9 142C592.9 140.29 594.29 138.9 596 138.9C597.71 138.9 599.1 140.29 599.1 142V144H592.9V142ZM599 152H597V154C597 154.55 596.55 155 596 155C595.45 155 595 154.55 595 154V152H593C592.45 152 592 151.55 592 151C592 150.45 592.45 150 593 150H595V148C595 147.45 595.45 147 596 147C596.55 147 597 147.45 597 148V150H599C599.55 150 600 150.45 600 151C600 151.55 599.55 152 599 152Z" fill="#323232"/>
</g>
<g clip-path="url(#clip20_17_18157)">
<path d="M96 202.53C95.71 202.24 95.23 202.24 94.94 202.53L90.59 206.88L89 205.29C88.71 205 88.23 205 87.94 205.29C87.65 205.58 87.65 206.06 87.94 206.35L89.88 208.29C90.27 208.68 90.9 208.68 91.29 208.29L95.99 203.59C96.29 203.3 96.29 202.82 96 202.53ZM99 195H98V194C98 193.45 97.55 193 97 193C96.45 193 96 193.45 96 194V195H88V194C88 193.45 87.55 193 87 193C86.45 193 86 193.45 86 194V195H85C83.89 195 83.01 195.9 83.01 197L83 211C83 212.1 83.89 213 85 213H99C100.1 213 101 212.1 101 211V197C101 195.9 100.1 195 99 195ZM98 211H86C85.45 211 85 210.55 85 210V200H99V210C99 210.55 98.55 211 98 211Z" fill="#323232"/>
</g>
<g clip-path="url(#clip21_17_18157)">
<path d="M145.84 208.47L147.75 206.56L149.66 208.47C149.95 208.76 150.43 208.76 150.72 208.47C151.01 208.18 151.01 207.7 150.72 207.41L148.81 205.5L150.72 203.59C151.01 203.3 151.01 202.82 150.72 202.53C150.43 202.24 149.95 202.24 149.66 202.53L147.75 204.44L145.84 202.53C145.55 202.24 145.07 202.24 144.78 202.53C144.49 202.82 144.49 203.3 144.78 203.59L146.69 205.5L144.78 207.41C144.49 207.7 144.49 208.18 144.78 208.47C145.07 208.76 145.55 208.76 145.84 208.47ZM155 195H154V194C154 193.45 153.55 193 153 193C152.45 193 152 193.45 152 194V195H144V194C144 193.45 143.55 193 143 193C142.45 193 142 193.45 142 194V195H141C139.89 195 139.01 195.9 139.01 197L139 211C139 212.1 139.89 213 141 213H155C156.1 213 157 212.1 157 211V197C157 195.9 156.1 195 155 195ZM154 211H142C141.45 211 141 210.55 141 210V200H155V210C155 210.55 154.55 211 154 211Z" fill="#323232"/>
</g>
<g clip-path="url(#clip22_17_18157)">
<path d="M208 202H200C199.45 202 199 202.45 199 203C199 203.55 199.45 204 200 204H208C208.55 204 209 203.55 209 203C209 202.45 208.55 202 208 202ZM211 195H210V194C210 193.45 209.55 193 209 193C208.45 193 208 193.45 208 194V195H200V194C200 193.45 199.55 193 199 193C198.45 193 198 193.45 198 194V195H197C195.89 195 195 195.9 195 197V211C195 212.1 195.89 213 197 213H211C212.1 213 213 212.1 213 211V197C213 195.9 212.1 195 211 195ZM210 211H198C197.45 211 197 210.55 197 210V200H211V210C211 210.55 210.55 211 210 211ZM205 206H200C199.45 206 199 206.45 199 207C199 207.55 199.45 208 200 208H205C205.55 208 206 207.55 206 207C206 206.45 205.55 206 205 206Z" fill="#323232"/>
</g>
<g clip-path="url(#clip23_17_18157)">
<path d="M268 198H260L258.59 196.59C258.21 196.21 257.7 196 257.17 196H252C250.9 196 250 196.9 250 198V210C250 211.1 250.9 212 252 212H268C269.1 212 270 211.1 270 210V200C270 198.9 269.1 198 268 198ZM264.94 208.41L263 207.28L261.06 208.41C260.68 208.63 260.22 208.29 260.32 207.86L260.83 205.66L259.14 204.2C258.81 203.91 258.98 203.36 259.42 203.32L261.65 203.13L262.53 201.07C262.7 200.67 263.28 200.67 263.45 201.07L264.33 203.13L266.56 203.32C267 203.36 267.18 203.91 266.84 204.2L265.15 205.66L265.66 207.86C265.77 208.29 265.31 208.63 264.94 208.41Z" fill="#323232"/>
</g>
<g clip-path="url(#clip24_17_18157)">
<path d="M314.5 209.15L318.48 206.87C319.15 206.49 319.15 205.52 318.48 205.13L314.5 202.85C313.83 202.47 313 202.96 313 203.72V208.27C313 209.04 313.83 209.53 314.5 209.15ZM325 198H317.41L320.35 195.06C320.55 194.86 320.55 194.55 320.35 194.35C320.15 194.15 319.84 194.15 319.64 194.35L316 197.99L312.36 194.35C312.16 194.15 311.85 194.15 311.65 194.35C311.45 194.55 311.45 194.86 311.65 195.06L314.59 198H307C305.9 198 305 198.89 305 200V212C305 213.1 305.9 214 307 214H325C326.1 214 327 213.1 327 212V200C327 198.89 326.1 198 325 198ZM324 212H308C307.45 212 307 211.55 307 211V201C307 200.45 307.45 200 308 200H324C324.55 200 325 200.45 325 201V211C325 211.55 324.55 212 324 212Z" fill="#323232"/>
</g>
<g clip-path="url(#clip25_17_18157)">
<path d="M380 194H364C362.9 194 362 194.9 362 196V214L366 210H380C381.1 210 382 209.1 382 208V196C382 194.9 381.1 194 380 194ZM365.63 205.19L368.12 201.99C368.32 201.74 368.7 201.73 368.9 201.98L371 204.51L374.1 200.52C374.3 200.26 374.7 200.26 374.9 200.53L378.41 205.21C378.66 205.54 378.42 206.01 378.01 206.01H366.02C365.61 206 365.37 205.52 365.63 205.19Z" fill="#323232"/>
</g>
<g clip-path="url(#clip26_17_18157)">
<path d="M438 195H423C422.31 195 421.77 195.35 421.41 195.88L416.37 203.45C416.15 203.79 416.15 204.22 416.37 204.56L421.41 212.12C421.77 212.64 422.38 213 423.07 213H438C439.1 213 440 212.1 440 211V197C440 195.9 439.1 195 438 195ZM425 205.5C424.17 205.5 423.5 204.83 423.5 204C423.5 203.17 424.17 202.5 425 202.5C425.83 202.5 426.5 203.17 426.5 204C426.5 204.83 425.83 205.5 425 205.5ZM430 205.5C429.17 205.5 428.5 204.83 428.5 204C428.5 203.17 429.17 202.5 430 202.5C430.83 202.5 431.5 203.17 431.5 204C431.5 204.83 430.83 205.5 430 205.5ZM435 205.5C434.17 205.5 433.5 204.83 433.5 204C433.5 203.17 434.17 202.5 435 202.5C435.83 202.5 436.5 203.17 436.5 204C436.5 204.83 435.83 205.5 435 205.5Z" fill="#323232"/>
</g>
<g clip-path="url(#clip27_17_18157)">
<path d="M487.9 197C487.73 197 487.58 197.09 487.49 197.23L487.42 197.38L482.24 209.03C482.08 209.32 481.98 209.64 481.98 209.99C481.98 211.1 482.88 212 483.99 212C484.95 212 485.76 211.32 485.95 210.41L485.96 210.38L488.4 197.5C488.4 197.22 488.18 197 487.9 197ZM474.06 202.06C474.57 202.57 475.39 202.61 475.95 202.15C478.71 199.89 482.19 198.97 485.53 199.39L486.72 196.71C482.37 195.93 477.76 197.01 474.15 199.96C473.51 200.49 473.47 201.47 474.06 202.06ZM493.94 202.06C494.53 201.47 494.49 200.49 493.84 199.96C492.48 198.85 490.98 198.01 489.4 197.43L488.87 200.25C490 200.72 491.06 201.34 492.04 202.14C492.62 202.6 493.43 202.57 493.94 202.06ZM489.91 206.09C490.51 205.49 490.47 204.46 489.77 203.97C489.31 203.64 488.83 203.36 488.33 203.11L487.78 206.03C487.89 206.1 488 206.17 488.1 206.25C488.67 206.65 489.43 206.57 489.91 206.09ZM478.08 206.08C478.58 206.58 479.35 206.62 479.93 206.21C480.87 205.55 481.94 205.15 483.03 204.99L484.31 202.11C482.18 202.05 480.03 202.65 478.22 203.95C477.53 204.46 477.48 205.48 478.08 206.08Z" fill="#323232"/>
</g>
<g clip-path="url(#clip28_17_18157)">
<path d="M550 208V207.5C550 206.12 548.88 205 547.5 205C546.12 205 545 206.12 545 207.5V208C544.45 208 544 208.45 544 209V213C544 213.55 544.45 214 545 214H550C550.55 214 551 213.55 551 213V209C551 208.45 550.55 208 550 208ZM549 208H546V207.5C546 206.67 546.67 206 547.5 206C548.33 206 549 206.67 549 207.5V208ZM547.5 203C547.67 203 547.83 203.03 548 203.05V195.41C548 194.52 546.92 194.07 546.29 194.7L530.71 210.29C530.08 210.92 530.52 212 531.41 212H542V209C542 208.08 542.42 207.26 543.07 206.7C543.45 204.6 545.29 203 547.5 203Z" fill="#323232"/>
</g>
<g clip-path="url(#clip29_17_18157)">
<path d="M592.9 198C592.9 196.29 594.29 194.9 596 194.9C597.71 194.9 599.1 196.29 599.1 198V200H594.44L604 209.56V202C604 200.9 603.1 200 602 200H601V198C601 195.24 598.76 193 596 193C593.68 193 591.74 194.59 591.18 196.74L592.9 198.46V198ZM589.12 197.51C588.73 197.12 588.1 197.12 587.71 197.51C587.32 197.9 587.32 198.53 587.71 198.92L589.04 200.25C588.42 200.6 588 201.25 588 202V212C588 213.1 588.9 214 590 214H602.78L603.07 214.29C603.46 214.68 604.09 214.68 604.48 214.29C604.87 213.9 604.87 213.27 604.48 212.88L589.12 197.51Z" fill="#323232"/>
</g>
<g clip-path="url(#clip30_17_18157)">
<path d="M88.9 254C88.9 252.29 90.29 250.9 92 250.9C93.71 250.9 95.1 252.29 95.1 254V256H90.44L100 265.56V258C100 256.9 99.1 256 98 256H97V254C97 251.24 94.76 249 92 249C89.68 249 87.74 250.59 87.18 252.74L88.9 254.46V254ZM85.12 253.51C84.73 253.12 84.1 253.12 83.71 253.51C83.32 253.9 83.32 254.53 83.71 254.92L85.04 256.25C84.42 256.6 84 257.25 84 258V268C84 269.1 84.9 270 86 270H98.78L99.07 270.29C99.46 270.68 100.09 270.68 100.48 270.29C100.87 269.9 100.87 269.27 100.48 268.88L85.12 253.51Z" fill="#323232"/>
</g>
<g clip-path="url(#clip31_17_18157)">
<path d="M157 251H139C137.9 251 137 251.9 137 253V265C137 266.1 137.9 267 139 267H144V268C144 268.55 144.45 269 145 269H151C151.55 269 152 268.55 152 268V267H157C158.1 267 158.99 266.1 158.99 265L159 253C159 251.89 158.1 251 157 251ZM156 265H140C139.45 265 139 264.55 139 264V254C139 253.45 139.45 253 140 253H156C156.55 253 157 253.45 157 254V264C157 264.55 156.55 265 156 265ZM150.48 259.87L146.5 262.15C145.83 262.53 145 262.04 145 261.28V256.72C145 255.95 145.83 255.47 146.5 255.85L150.48 258.13C151.15 258.52 151.15 259.48 150.48 259.87Z" fill="#323232"/>
</g>
<g clip-path="url(#clip32_17_18157)">
<path d="M213 251H195C193.9 251 193 251.9 193 253V265C193 266.1 193.9 267 195 267H200V268C200 268.55 200.45 269 201 269H207C207.55 269 208 268.55 208 268V267H213C214.1 267 214.99 266.1 214.99 265L215 253C215 251.89 214.1 251 213 251ZM212 265H196C195.45 265 195 264.55 195 264V254C195 253.45 195.45 253 196 253H212C212.55 253 213 253.45 213 254V264C213 264.55 212.55 265 212 265Z" fill="#323232"/>
</g>
<g clip-path="url(#clip33_17_18157)">
<path d="M267.23 263.26L264.69 262.97C264.08 262.9 263.48 263.11 263.05 263.54L261.21 265.38C258.38 263.94 256.06 261.63 254.62 258.79L256.47 256.94C256.9 256.51 257.11 255.91 257.04 255.3L256.75 252.78C256.63 251.77 255.78 251.01 254.76 251.01H253.03C251.9 251.01 250.96 251.95 251.03 253.08C251.56 261.62 258.39 268.44 266.92 268.97C268.05 269.04 268.99 268.1 268.99 266.97V265.24C269 264.23 268.24 263.38 267.23 263.26ZM264.79 254.01L262.34 256.46C262.14 256.66 262.14 256.98 262.34 257.17C262.54 257.37 262.86 257.37 263.05 257.17L265 255.23V258.38C265 258.58 265.12 258.77 265.31 258.85C265.37 258.88 265.44 258.89 265.5 258.89C265.63 258.89 265.76 258.84 265.86 258.74L268.04 256.56C268.24 256.36 268.24 256.04 268.04 255.85L266.21 254.02L268.04 252.19C268.13 252.1 268.19 251.97 268.19 251.83C268.19 251.69 268.14 251.57 268.04 251.47L265.86 249.29C265.72 249.15 265.5 249.1 265.31 249.18C265.12 249.26 265 249.44 265 249.64V252.79L263.05 250.84C262.85 250.64 262.53 250.64 262.34 250.84C262.14 251.04 262.14 251.36 262.34 251.55L264.79 254.01ZM266.01 250.86L266.97 251.82L266.01 252.78V250.86ZM266.01 255.23L266.97 256.19L266.01 257.15V255.23Z" fill="#323232"/>
</g>
<g clip-path="url(#clip34_17_18157)">
<path d="M323.23 263.26L320.69 262.97C320.08 262.9 319.48 263.11 319.05 263.54L317.21 265.38C314.38 263.94 312.06 261.63 310.62 258.79L312.47 256.94C312.9 256.51 313.11 255.91 313.04 255.3L312.75 252.78C312.63 251.77 311.78 251.01 310.76 251.01H309.03C307.9 251.01 306.96 251.95 307.03 253.08C307.56 261.62 314.39 268.44 322.92 268.97C324.05 269.04 324.99 268.1 324.99 266.97V265.24C325 264.23 324.24 263.38 323.23 263.26ZM317 259H321C321.55 259 322 258.55 322 258C322 257.45 321.55 257 321 257H319.41L323.72 252.69C324.11 252.3 324.11 251.67 323.72 251.28C323.33 250.89 322.7 250.89 322.31 251.28L318 255.59V254C318 253.45 317.55 253 317 253C316.45 253 316 253.45 316 254V258C316 258.55 316.45 259 317 259Z" fill="#323232"/>
</g>
<g clip-path="url(#clip35_17_18157)">
<path d="M382.65 253.65L378.86 249.86C378.54 249.54 378 249.76 378 250.21V252H374.5C374.22 252 374 252.22 374 252.5V255.5C374 255.78 374.22 256 374.5 256H378V257.79C378 258.24 378.54 258.46 378.85 258.14L382.64 254.35C382.84 254.16 382.84 253.84 382.65 253.65ZM379.23 263.26L376.69 262.97C376.08 262.9 375.48 263.11 375.05 263.54L373.21 265.38C370.38 263.94 368.06 261.63 366.62 258.79L368.47 256.94C368.9 256.51 369.11 255.91 369.04 255.3L368.75 252.78C368.63 251.77 367.78 251.01 366.76 251.01H365.03C363.9 251.01 362.96 251.95 363.03 253.08C363.56 261.62 370.39 268.44 378.92 268.97C380.05 269.04 380.99 268.1 380.99 266.97V265.24C381 264.23 380.24 263.38 379.23 263.26Z" fill="#323232"/>
</g>
<g clip-path="url(#clip36_17_18157)">
<path d="M428.88 253.05C432.06 253.45 434.55 255.94 434.95 259.12C435.01 259.63 435.44 260 435.94 260C435.98 260 436.02 260 436.06 259.99C436.61 259.92 437 259.42 436.93 258.87C436.42 254.78 433.21 251.57 429.12 251.06C428.57 251 428.07 251.39 428.01 251.94C427.94 252.49 428.33 252.99 428.88 253.05ZM429.26 255.16C428.73 255.02 428.18 255.34 428.04 255.88C427.9 256.42 428.22 256.96 428.76 257.1C429.81 257.37 430.63 258.19 430.91 259.25C431.03 259.7 431.43 260 431.88 260C431.96 260 432.05 259.99 432.13 259.97C432.66 259.83 432.98 259.28 432.85 258.75C432.38 256.98 431.01 255.61 429.26 255.16ZM435.23 263.26L432.69 262.97C432.08 262.9 431.48 263.11 431.05 263.54L429.21 265.38C426.38 263.94 424.06 261.63 422.62 258.79L424.47 256.94C424.9 256.51 425.11 255.91 425.04 255.3L424.75 252.78C424.63 251.77 423.78 251.01 422.76 251.01H421.03C419.9 251.01 418.96 251.95 419.03 253.08C419.56 261.62 426.39 268.44 434.92 268.97C436.05 269.04 436.99 268.1 436.99 266.97V265.24C437 264.23 436.24 263.38 435.23 263.26Z" fill="#323232"/>
</g>
<g clip-path="url(#clip37_17_18157)">
<path d="M491.23 263.26L488.69 262.97C488.08 262.9 487.48 263.11 487.05 263.54L485.21 265.38C482.38 263.94 480.06 261.63 478.62 258.79L480.47 256.94C480.9 256.51 481.11 255.91 481.04 255.3L480.75 252.78C480.63 251.77 479.78 251.01 478.76 251.01H477.03C475.9 251.01 474.96 251.95 475.03 253.08C475.56 261.62 482.39 268.44 490.92 268.97C492.05 269.04 492.99 268.1 492.99 266.97V265.24C493 264.23 492.24 263.38 491.23 263.26ZM492 252V251.5C492 250.12 490.88 249 489.5 249C488.12 249 487 250.12 487 251.5V252C486.45 252 486 252.45 486 253V257C486 257.55 486.45 258 487 258H492C492.55 258 493 257.55 493 257V253C493 252.45 492.55 252 492 252ZM491 252H488V251.5C488 250.67 488.67 250 489.5 250C490.33 250 491 250.67 491 251.5V252Z" fill="#323232"/>
</g>
<g clip-path="url(#clip38_17_18157)">
<path d="M551.09 264.2C544.76 258.61 535.23 258.61 528.91 264.2C528.07 264.94 528.07 266.25 528.86 267.04L530.06 268.24C530.77 268.95 531.9 269.01 532.68 268.39L534.65 266.82C535.12 266.45 535.4 265.88 535.4 265.27V262.7C538.38 261.73 541.61 261.72 544.6 262.7V265.28C544.6 265.88 544.88 266.45 545.35 266.83L547.31 268.39C548.1 269.01 549.22 268.95 549.93 268.24L551.13 267.04C551.93 266.25 551.92 264.94 551.09 264.2ZM534 257C534.55 257 535 256.55 535 256V254.43L539.24 258.67C539.63 259.06 540.26 259.06 540.65 258.67L546.31 253.01C546.7 252.62 546.7 251.99 546.31 251.6C545.92 251.21 545.29 251.21 544.9 251.6L539.95 256.55L536.4 253H538C538.55 253 539 252.55 539 252C539 251.45 538.55 251 538 251H534C533.45 251 533 251.45 533 252V256C533 256.55 533.45 257 534 257Z" fill="#323232"/>
</g>
<g clip-path="url(#clip39_17_18157)">
<path d="M600 251C599.45 251 599 251.45 599 252V257C599 257.55 599.45 258 600 258C600.55 258 601 257.55 601 257V252C601 251.45 600.55 251 600 251ZM603 252V257C603 257.55 603.45 258 604 258C604.55 258 605 257.55 605 257V252C605 251.45 604.55 251 604 251C603.45 251 603 251.45 603 252ZM603.23 263.26L600.69 262.97C600.08 262.9 599.48 263.11 599.05 263.54L597.21 265.38C594.38 263.94 592.06 261.63 590.62 258.79L592.47 256.94C592.9 256.51 593.11 255.91 593.04 255.3L592.75 252.78C592.63 251.77 591.78 251.01 590.76 251.01H589.03C587.9 251.01 586.96 251.95 587.03 253.08C587.56 261.62 594.39 268.44 602.92 268.97C604.05 269.04 604.99 268.1 604.99 266.97V265.24C605 264.23 604.24 263.38 603.23 263.26Z" fill="#323232"/>
</g>
<g clip-path="url(#clip40_17_18157)">
<path d="M96.01 311L96 308C96 307.45 95.55 307 95 307C94.45 307 94 307.45 94 308V311H90V308C90 307.45 89.55 307 89 307C88.45 307 88 307.45 88 308V311H87.99C86.9 311 86 311.9 86 312.99V317.65C86 318.18 86.21 318.69 86.58 319.06L89.5 322V324C89.5 324.55 89.95 325 90.5 325H93.5C94.05 325 94.5 324.55 94.5 324V322L97.42 319.08C97.79 318.7 98 318.19 98 317.66V312.99C98 311.89 97.11 311 96.01 311Z" fill="#323232"/>
</g>
<g clip-path="url(#clip41_17_18157)">
<path d="M154 317.66V312.99C154 311.99 152.99 310.99 152 311V308C152 307.45 151.55 307 151 307C150.45 307 150 307.45 150 308V311H146.12L153.75 318.63C153.9 318.33 154 318 154 317.66ZM146 308C146 307.45 145.55 307 145 307C144.45 307 144 307.45 144 308V308.88L146 310.88V308ZM156.15 323.86L148.49 316.2L143.39 311.1L140.83 308.54C140.44 308.15 139.81 308.15 139.42 308.54C139.03 308.93 139.03 309.56 139.42 309.95L142.05 312.58C142.02 312.71 142 312.85 142 312.99V317.65C142 318.18 142.21 318.69 142.58 319.06L145.5 322V324C145.5 324.55 145.95 325 146.5 325H149.5C150.05 325 150.5 324.55 150.5 324V322L150.98 321.52L154.74 325.28C155.13 325.67 155.76 325.67 156.15 325.28C156.54 324.89 156.54 324.25 156.15 323.86Z" fill="#323232"/>
</g>
<g clip-path="url(#clip42_17_18157)">
<path d="M204 325C205.105 325 206 324.105 206 323C206 321.895 205.105 321 204 321C202.895 321 202 321.895 202 323C202 324.105 202.895 325 204 325Z" fill="#323232"/>
<path d="M204 307C202.9 307 202 307.9 202 309V317C202 318.1 202.9 319 204 319C205.1 319 206 318.1 206 317V309C206 307.9 205.1 307 204 307Z" fill="#323232"/>
</g>
<g clip-path="url(#clip43_17_18157)">
<path d="M266 306H258.83C258.3 306 257.79 306.21 257.41 306.59L252.6 311.42C252.23 311.79 252 312.3 252 312.82V324C252 325.1 252.9 326 254 326H266C267.1 326 268 325.1 268 324V308C268 306.9 267.1 306 266 306ZM259 312C258.45 312 258 311.55 258 311V309C258 308.45 258.45 308 259 308C259.55 308 260 308.45 260 309V311C260 311.55 259.55 312 259 312ZM262 312C261.45 312 261 311.55 261 311V309C261 308.45 261.45 308 262 308C262.55 308 263 308.45 263 309V311C263 311.55 262.55 312 262 312ZM265 312C264.45 312 264 311.55 264 311V309C264 308.45 264.45 308 265 308C265.55 308 266 308.45 266 309V311C266 311.55 265.55 312 265 312Z" fill="#323232"/>
</g>
<g clip-path="url(#clip44_17_18157)">
<path d="M322 306H314.83C314.3 306 313.79 306.21 313.41 306.59L308.6 311.42C308.23 311.79 308.02 312.3 308.02 312.82L308 324C308 325.1 308.9 326 310 326H322C323.1 326 324 325.1 324 324V308C324 306.9 323.1 306 322 306ZM317 321H315V319H317V321ZM316 317C315.45 317 315 316.55 315 316V313C315 312.45 315.45 312 316 312C316.55 312 317 312.45 317 313V316C317 316.55 316.55 317 316 317Z" fill="#323232"/>
</g>
<g clip-path="url(#clip45_17_18157)">
<path d="M380 306H364C362.9 306 362 306.9 362 308V326L366 322H380C381.1 322 382 321.1 382 320V308C382 306.9 381.1 306 380 306ZM369 315H367V313H369V315ZM373 315H371V313H373V315ZM377 315H375V313H377V315Z" fill="#323232"/>
</g>
<g clip-path="url(#clip46_17_18157)">
<path d="M436 306H420C418.9 306 418 306.9 418 308V326L422 322H436C437.1 322 438 321.1 438 320V308C438 306.9 437.1 306 436 306ZM429 318H427V316H429V318ZM428 314C427.45 314 427 313.55 427 313V311C427 310.45 427.45 310 428 310C428.55 310 429 310.45 429 311V313C429 313.55 428.55 314 428 314Z" fill="#323232"/>
</g>
<g clip-path="url(#clip47_17_18157)">
<path d="M493 316.22C493 310.73 488.74 307 484 307C479.31 307 475 310.65 475 316.28C474.4 316.62 474 317.26 474 318V320C474 321.1 474.9 322 476 322C476.55 322 477 321.55 477 321V316.19C477 312.36 479.95 309.01 483.78 308.9C487.74 308.78 491 311.96 491 315.9V323H484C483.45 323 483 323.45 483 324C483 324.55 483.45 325 484 325H491C492.1 325 493 324.1 493 323V321.78C493.59 321.47 494 320.86 494 320.14V317.84C494 317.14 493.59 316.53 493 316.22Z" fill="#323232"/>
<path d="M481 318C481.552 318 482 317.552 482 317C482 316.448 481.552 316 481 316C480.448 316 480 316.448 480 317C480 317.552 480.448 318 481 318Z" fill="#323232"/>
<path d="M487 318C487.552 318 488 317.552 488 317C488 316.448 487.552 316 487 316C486.448 316 486 316.448 486 317C486 317.552 486.448 318 487 318Z" fill="#323232"/>
<path d="M490 315.03C489.52 312.18 487.04 310 484.05 310C481.02 310 477.76 312.51 478.02 316.45C480.49 315.44 482.35 313.24 482.88 310.56C484.19 313.19 486.88 315 490 315.03Z" fill="#323232"/>
</g>
<g clip-path="url(#clip48_17_18157)">
<path d="M540 308V306.21C540 305.76 539.46 305.54 539.15 305.86L536.35 308.65C536.15 308.85 536.15 309.16 536.35 309.36L539.14 312.15C539.46 312.46 540 312.24 540 311.79V310C543.31 310 546 312.69 546 316C546 316.79 545.85 317.56 545.56 318.25C545.41 318.61 545.52 319.02 545.79 319.29C546.3 319.8 547.16 319.62 547.43 318.95C547.8 318.04 548 317.04 548 316C548 311.58 544.42 308 540 308ZM540 322C536.69 322 534 319.31 534 316C534 315.21 534.15 314.44 534.44 313.75C534.59 313.39 534.48 312.98 534.21 312.71C533.7 312.2 532.84 312.38 532.57 313.05C532.2 313.96 532 314.96 532 316C532 320.42 535.58 324 540 324V325.79C540 326.24 540.54 326.46 540.85 326.14L543.64 323.35C543.84 323.15 543.84 322.84 543.64 322.64L540.85 319.85C540.54 319.54 540 319.76 540 320.21V322Z" fill="#323232"/>
</g>
<g clip-path="url(#clip49_17_18157)">
<path d="M594 309.74V309.55C594 308.87 593.29 308.44 592.68 308.73C592.49 308.82 592.32 308.93 592.14 309.03L593.6 310.49C593.84 310.31 594 310.04 594 309.74ZM604 316C604 313.79 603.09 311.8 601.64 310.36L603.15 308.85C603.46 308.54 603.24 308 602.79 308H598V312.79C598 313.24 598.54 313.46 598.85 313.14L600.24 311.75C601.32 312.85 602 314.34 602 316C602 316.85 601.82 317.66 601.5 318.39L602.98 319.87C603.62 318.72 604 317.41 604 316ZM587.57 308.7C587.18 309.09 587.18 309.72 587.57 310.11L589.22 311.76C588.45 313 588 314.44 588 316C588 318.21 588.91 320.2 590.36 321.64L588.85 323.15C588.54 323.46 588.76 324 589.21 324H593.5C593.78 324 594 323.78 594 323.5V319.21C594 318.76 593.46 318.54 593.15 318.86L591.76 320.25C590.68 319.15 590 317.66 590 316C590 315 590.26 314.07 590.69 313.24L598.76 321.31C598.75 321.33 598.75 321.33 598.75 321.35C598.32 321.47 598 321.83 598 322.26V322.44C598 323.12 598.71 323.55 599.32 323.26C599.63 323.12 599.93 322.95 600.22 322.77L602.09 324.64C602.48 325.03 603.11 325.03 603.5 324.64C603.89 324.25 603.89 323.62 603.5 323.23L588.98 308.7C588.59 308.31 587.96 308.31 587.57 308.7Z" fill="#323232"/>
</g>
<g clip-path="url(#clip50_17_18157)">
<path d="M83 372C83 374.21 83.91 376.2 85.36 377.64L83.85 379.15C83.54 379.46 83.76 380 84.21 380H88.5C88.78 380 89 379.78 89 379.5V375.21C89 374.76 88.46 374.54 88.15 374.86L86.76 376.25C85.68 375.15 85 373.66 85 372C85 369.61 86.4 367.54 88.43 366.58C88.77 366.42 89 366.11 89 365.74V365.55C89 364.87 88.29 364.44 87.68 364.73C84.92 365.99 83 368.77 83 372ZM91 377H93V375H91V377ZM99.79 364H95.5C95.22 364 95 364.22 95 364.5V368.79C95 369.24 95.54 369.46 95.85 369.14L97.24 367.75C98.32 368.85 99 370.34 99 372C99 374.39 97.6 376.46 95.57 377.42C95.23 377.58 95 377.89 95 378.26V378.44C95 379.12 95.71 379.55 96.32 379.26C99.08 378.01 101 375.23 101 372C101 369.79 100.09 367.8 98.64 366.36L100.15 364.85C100.46 364.54 100.24 364 99.79 364ZM92 373C92.55 373 93 372.55 93 372V368C93 367.45 92.55 367 92 367C91.45 367 91 367.45 91 368V372C91 372.55 91.45 373 92 373Z" fill="#323232"/>
</g>
<g clip-path="url(#clip51_17_18157)">
<path d="M153 361.01L143 361C141.9 361 141 361.9 141 363V381C141 382.1 141.9 383 143 383H153C154.1 383 155 382.1 155 381V363C155 361.9 154.1 361.01 153 361.01ZM153 379H143V365H153V379ZM150.79 373H149V369C149 368.45 148.55 368 148 368C147.45 368 147 368.45 147 369V373H145.21C144.76 373 144.54 373.54 144.86 373.85L147.65 376.64C147.85 376.84 148.16 376.84 148.36 376.64L151.15 373.85C151.46 373.54 151.24 373 150.79 373Z" fill="#323232"/>
</g>
<g clip-path="url(#clip52_17_18157)">
<path d="M195.14 376.09C194.54 375.99 194 376.48 194 377.09C194 377.58 194.36 377.99 194.85 378.07C196.93 378.43 198.57 380.07 198.93 382.15C199.01 382.64 199.42 383 199.91 383C200.52 383 201 382.46 200.91 381.86C200.43 378.91 198.1 376.57 195.14 376.09ZM194 380V383H197C197 381.34 195.66 380 194 380ZM195.11 372.06C194.52 372 194 372.46 194 373.05C194 373.55 194.37 373.99 194.87 374.04C199.14 374.45 202.54 377.85 202.95 382.12C203 382.62 203.43 383 203.94 383C204.53 383 205 382.49 204.94 381.9C204.43 376.7 200.31 372.58 195.11 372.06ZM209 361.01L199 361C197.9 361 197 361.9 197 363V370.37C197.69 370.53 198.36 370.74 199 371.01V365H209V378H205.97C206.49 379.25 206.81 380.59 206.92 382H209C210.1 382 211 381.1 211 380V363C211 361.9 210.1 361.01 209 361.01Z" fill="#323232"/>
</g>
<g clip-path="url(#clip53_17_18157)">
<path d="M266.92 365.01C266.72 364.42 266.16 364 265.5 364H254.5C253.84 364 253.29 364.42 253.08 365.01L251.11 370.68C251.04 370.89 251 371.11 251 371.34V378.5C251 379.33 251.67 380 252.5 380C253.33 380 254 379.33 254 378.5V378H266V378.5C266 379.32 266.67 380 267.5 380C268.32 380 269 379.33 269 378.5V371.34C269 371.12 268.96 370.89 268.89 370.68L266.92 365.01ZM254.5 375C253.67 375 253 374.33 253 373.5C253 372.67 253.67 372 254.5 372C255.33 372 256 372.67 256 373.5C256 374.33 255.33 375 254.5 375ZM265.5 375C264.67 375 264 374.33 264 373.5C264 372.67 264.67 372 265.5 372C266.33 372 267 372.67 267 373.5C267 374.33 266.33 375 265.5 375ZM253 370L254.27 366.18C254.41 365.78 254.79 365.5 255.22 365.5H264.78C265.21 365.5 265.59 365.78 265.73 366.18L267 370H253Z" fill="#323232"/>
</g>
<g clip-path="url(#clip54_17_18157)">
<path d="M325 368V377.88L326.85 379.73C326.95 379.51 327 379.26 327 379V367C327 365.89 326.1 365 325 365H317.41L320.35 362.06C320.55 361.86 320.55 361.55 320.35 361.35C320.15 361.15 319.84 361.15 319.64 361.35L316 364.99L312.36 361.35C312.16 361.15 311.85 361.15 311.65 361.35C311.45 361.55 311.45 361.86 311.65 362.06L314.59 365H312.12L314.12 367H324C324.55 367 325 367.45 325 368ZM307.12 362.83C306.73 362.44 306.1 362.44 305.71 362.83C305.32 363.22 305.32 363.85 305.71 364.24L306.53 365.06C305.65 365.28 305 366.06 305 367V379C305 380.1 305.9 381 307 381H322.46L323.75 382.29C324.14 382.68 324.77 382.68 325.16 382.29C325.52 381.93 325.53 381.37 325.23 380.98H325.26L307.12 362.83ZM307 378V368C307 367.45 307.45 367 308 367H308.46L320.46 379H308C307.45 379 307 378.55 307 378Z" fill="#323232"/>
</g>
<g clip-path="url(#clip55_17_18157)">
<path d="M361 375C361.55 375 362 374.55 362 374V370C362 369.45 361.55 369 361 369C360.45 369 360 369.45 360 370V374C360 374.55 360.45 375 361 375ZM364 377C364.55 377 365 376.55 365 376V368C365 367.45 364.55 367 364 367C363.45 367 363 367.45 363 368V376C363 376.55 363.45 377 364 377ZM382 370V374C382 374.55 382.45 375 383 375C383.55 375 384 374.55 384 374V370C384 369.45 383.55 369 383 369C382.45 369 382 369.45 382 370ZM380 377C380.55 377 381 376.55 381 376V368C381 367.45 380.55 367 380 367C379.45 367 379 367.45 379 368V376C379 376.55 379.45 377 380 377ZM376.5 363H367.5C366.67 363 366 363.67 366 364.5V379.5C366 380.33 366.67 381 367.5 381H376.5C377.33 381 378 380.33 378 379.5V364.5C378 363.67 377.33 363 376.5 363ZM376 379H368V365H376V379Z" fill="#323232"/>
</g>
<g clip-path="url(#clip56_17_18157)">
<path d="M436 362H420C418.9 362 418.01 362.9 418.01 364L418 382L422 378H436C437.1 378 438 377.1 438 376V364C438 362.9 437.1 362 436 362ZM432.38 372.7L430 370.8V373C430 373.55 429.55 374 429 374H423C422.45 374 422 373.55 422 373V367C422 366.45 422.45 366 423 366H429C429.55 366 430 366.45 430 367V369.2L432.38 367.3C433.03 366.78 434 367.24 434 368.08V371.92C434 372.76 433.03 373.22 432.38 372.7Z" fill="#323232"/>
</g>
<g clip-path="url(#clip57_17_18157)">
<path d="M490.92 372C490.96 372.33 491 372.66 491 373C491 375.08 490.2 376.97 488.9 378.39C488.64 377.58 487.9 377 487 377H486V374C486 373.45 485.55 373 485 373H479V371H481C481.55 371 482 370.55 482 370V368H484C485.1 368 486 367.1 486 366V363.46C485.05 363.16 484.05 363 483 363C477.48 363 473 367.48 473 373C473 378.52 477.48 383 483 383C488.52 383 493 378.52 493 373C493 372.66 492.98 372.33 492.95 372H490.92ZM482 380.93C478.05 380.44 475 377.08 475 373C475 372.38 475.08 371.79 475.21 371.21L480 376V377C480 378.1 480.9 379 482 379V380.93ZM494 364V363.5C494 362.12 492.88 361 491.5 361C490.12 361 489 362.12 489 363.5V364C488.45 364 488 364.45 488 365V369C488 369.55 488.45 370 489 370H494C494.55 370 495 369.55 495 369V365C495 364.45 494.55 364 494 364ZM493 364H490V363.5C490 362.67 490.67 362 491.5 362C492.33 362 493 362.67 493 363.5V364Z" fill="#323232"/>
</g>
<g clip-path="url(#clip58_17_18157)">
<path d="M533.5 381V374.5H533C532.45 374.5 532 374.05 532 373.5V369C532 367.9 532.9 367 534 367H537C538.1 367 539 367.9 539 369V373.5C539 374.05 538.55 374.5 538 374.5H537.5V381C537.5 381.55 537.05 382 536.5 382H534.5C533.95 382 533.5 381.55 533.5 381ZM546 381V376H547.61C548.29 376 548.77 375.33 548.56 374.68L546.46 368.37C546.18 367.55 545.42 367 544.56 367H544.44C543.58 367 542.81 367.55 542.54 368.37L540.44 374.68C540.22 375.33 540.7 376 541.39 376H543V381C543 381.55 543.45 382 544 382H545C545.55 382 546 381.55 546 381ZM535.5 366C536.61 366 537.5 365.11 537.5 364C537.5 362.89 536.61 362 535.5 362C534.39 362 533.5 362.89 533.5 364C533.5 365.11 534.39 366 535.5 366ZM544.5 366C545.61 366 546.5 365.11 546.5 364C546.5 362.89 545.61 362 544.5 362C543.39 362 542.5 362.89 542.5 364C542.5 365.11 543.39 366 544.5 366Z" fill="#323232"/>
</g>
<g clip-path="url(#clip59_17_18157)">
<path d="M586.06 370.06C586.57 370.57 587.38 370.62 587.93 370.16C592.6 366.32 599.38 366.32 604.06 370.15C604.62 370.61 605.44 370.57 605.95 370.06C606.54 369.47 606.5 368.49 605.85 367.96C600.14 363.29 591.88 363.29 586.16 367.96C585.51 368.48 585.46 369.46 586.06 370.06ZM593.82 377.82L595.29 379.29C595.68 379.68 596.31 379.68 596.7 379.29L598.17 377.82C598.64 377.35 598.54 376.54 597.94 376.23C596.72 375.6 595.26 375.6 594.03 376.23C593.46 376.54 593.35 377.35 593.82 377.82ZM590.09 374.09C590.58 374.58 591.35 374.63 591.92 374.22C594.36 372.49 597.64 372.49 600.08 374.22C600.65 374.62 601.42 374.58 601.91 374.09L601.92 374.08C602.52 373.48 602.48 372.46 601.79 371.97C598.35 369.48 593.66 369.48 590.21 371.97C589.52 372.47 589.48 373.48 590.09 374.09Z" fill="#323232"/>
</g>
<g clip-path="url(#clip60_17_18157)">
<path d="M100.06 426.14C100.62 426.6 101.44 426.56 101.95 426.05C102.54 425.46 102.5 424.48 101.85 423.95C98.26 421.01 93.65 419.92 89.3 420.69L91.89 423.28C94.78 423.25 97.69 424.2 100.06 426.14ZM97.79 427.97C97.01 427.4 96.16 426.97 95.27 426.67L98.22 429.62C98.46 429.04 98.32 428.35 97.79 427.97ZM93.95 432.23C92.73 431.6 91.27 431.6 90.04 432.23C89.45 432.54 89.34 433.35 89.81 433.82L91.28 435.29C91.67 435.68 92.3 435.68 92.69 435.29L94.16 433.82C94.65 433.35 94.55 432.54 93.95 432.23ZM99.68 433.9L84.12 418.34C83.73 417.95 83.1 417.95 82.71 418.34C82.32 418.73 82.32 419.36 82.71 419.75L85.05 422.1C84.04 422.6 83.06 423.21 82.16 423.95C81.51 424.48 81.47 425.46 82.06 426.05C82.57 426.56 83.38 426.61 83.93 426.15C84.93 425.33 86.03 424.69 87.18 424.22L89.41 426.45C88.28 426.75 87.2 427.25 86.22 427.96C85.53 428.46 85.49 429.47 86.09 430.07L86.1 430.08C86.59 430.57 87.36 430.62 87.93 430.21C89.12 429.37 90.51 428.95 91.9 428.92L98.27 435.29C98.66 435.68 99.29 435.68 99.68 435.29C100.07 434.92 100.07 434.29 99.68 433.9Z" fill="#323232"/>
</g>
<defs>
<clipPath id="clip0_17_18157">
<rect width="24" height="24" fill="white" transform="translate(80 80)"/>
</clipPath>
<clipPath id="clip1_17_18157">
<rect width="24" height="24" fill="white" transform="translate(136 80)"/>
</clipPath>
<clipPath id="clip2_17_18157">
<rect width="24" height="24" fill="white" transform="translate(192 80)"/>
</clipPath>
<clipPath id="clip3_17_18157">
<rect width="24" height="24" fill="white" transform="translate(248 80)"/>
</clipPath>
<clipPath id="clip4_17_18157">
<rect width="24" height="24" fill="white" transform="translate(304 80)"/>
</clipPath>
<clipPath id="clip5_17_18157">
<rect width="24" height="24" fill="white" transform="translate(360 80)"/>
</clipPath>
<clipPath id="clip6_17_18157">
<rect width="24" height="24" fill="white" transform="translate(416 80)"/>
</clipPath>
<clipPath id="clip7_17_18157">
<rect width="24" height="24" fill="white" transform="translate(472 80)"/>
</clipPath>
<clipPath id="clip8_17_18157">
<rect width="24" height="24" fill="white" transform="translate(528 80)"/>
</clipPath>
<clipPath id="clip9_17_18157">
<rect width="24" height="24" fill="white" transform="translate(584 80)"/>
</clipPath>
<clipPath id="clip10_17_18157">
<rect width="24" height="24" fill="white" transform="translate(80 136)"/>
</clipPath>
<clipPath id="clip11_17_18157">
<rect width="24" height="24" fill="white" transform="translate(136 136)"/>
</clipPath>
<clipPath id="clip12_17_18157">
<rect width="24" height="24" fill="white" transform="translate(192 136)"/>
</clipPath>
<clipPath id="clip13_17_18157">
<rect width="24" height="24" fill="white" transform="translate(248 136)"/>
</clipPath>
<clipPath id="clip14_17_18157">
<rect width="24" height="24" fill="white" transform="translate(304 136)"/>
</clipPath>
<clipPath id="clip15_17_18157">
<rect width="24" height="24" fill="white" transform="translate(360 136)"/>
</clipPath>
<clipPath id="clip16_17_18157">
<rect width="24" height="24" fill="white" transform="translate(416 136)"/>
</clipPath>
<clipPath id="clip17_17_18157">
<rect width="24" height="24" fill="white" transform="translate(472 136)"/>
</clipPath>
<clipPath id="clip18_17_18157">
<rect width="24" height="24" fill="white" transform="translate(528 136)"/>
</clipPath>
<clipPath id="clip19_17_18157">
<rect width="24" height="24" fill="white" transform="translate(584 136)"/>
</clipPath>
<clipPath id="clip20_17_18157">
<rect width="24" height="24" fill="white" transform="translate(80 192)"/>
</clipPath>
<clipPath id="clip21_17_18157">
<rect width="24" height="24" fill="white" transform="translate(136 192)"/>
</clipPath>
<clipPath id="clip22_17_18157">
<rect width="24" height="24" fill="white" transform="translate(192 192)"/>
</clipPath>
<clipPath id="clip23_17_18157">
<rect width="24" height="24" fill="white" transform="translate(248 192)"/>
</clipPath>
<clipPath id="clip24_17_18157">
<rect width="24" height="24" fill="white" transform="translate(304 192)"/>
</clipPath>
<clipPath id="clip25_17_18157">
<rect width="24" height="24" fill="white" transform="translate(360 192)"/>
</clipPath>
<clipPath id="clip26_17_18157">
<rect width="24" height="24" fill="white" transform="translate(416 192)"/>
</clipPath>
<clipPath id="clip27_17_18157">
<rect width="24" height="24" fill="white" transform="translate(472 192)"/>
</clipPath>
<clipPath id="clip28_17_18157">
<rect width="24" height="24" fill="white" transform="translate(528 192)"/>
</clipPath>
<clipPath id="clip29_17_18157">
<rect width="24" height="24" fill="white" transform="translate(584 192)"/>
</clipPath>
<clipPath id="clip30_17_18157">
<rect width="24" height="24" fill="white" transform="translate(80 248)"/>
</clipPath>
<clipPath id="clip31_17_18157">
<rect width="24" height="24" fill="white" transform="translate(136 248)"/>
</clipPath>
<clipPath id="clip32_17_18157">
<rect width="24" height="24" fill="white" transform="translate(192 248)"/>
</clipPath>
<clipPath id="clip33_17_18157">
<rect width="24" height="24" fill="white" transform="translate(248 248)"/>
</clipPath>
<clipPath id="clip34_17_18157">
<rect width="24" height="24" fill="white" transform="translate(304 248)"/>
</clipPath>
<clipPath id="clip35_17_18157">
<rect width="24" height="24" fill="white" transform="translate(360 248)"/>
</clipPath>
<clipPath id="clip36_17_18157">
<rect width="24" height="24" fill="white" transform="translate(416 248)"/>
</clipPath>
<clipPath id="clip37_17_18157">
<rect width="24" height="24" fill="white" transform="translate(472 248)"/>
</clipPath>
<clipPath id="clip38_17_18157">
<rect width="24" height="24" fill="white" transform="translate(528 248)"/>
</clipPath>
<clipPath id="clip39_17_18157">
<rect width="24" height="24" fill="white" transform="translate(584 248)"/>
</clipPath>
<clipPath id="clip40_17_18157">
<rect width="24" height="24" fill="white" transform="translate(80 304)"/>
</clipPath>
<clipPath id="clip41_17_18157">
<rect width="24" height="24" fill="white" transform="translate(136 304)"/>
</clipPath>
<clipPath id="clip42_17_18157">
<rect width="24" height="24" fill="white" transform="translate(192 304)"/>
</clipPath>
<clipPath id="clip43_17_18157">
<rect width="24" height="24" fill="white" transform="translate(248 304)"/>
</clipPath>
<clipPath id="clip44_17_18157">
<rect width="24" height="24" fill="white" transform="translate(304 304)"/>
</clipPath>
<clipPath id="clip45_17_18157">
<rect width="24" height="24" fill="white" transform="translate(360 304)"/>
</clipPath>
<clipPath id="clip46_17_18157">
<rect width="24" height="24" fill="white" transform="translate(416 304)"/>
</clipPath>
<clipPath id="clip47_17_18157">
<rect width="24" height="24" fill="white" transform="translate(472 304)"/>
</clipPath>
<clipPath id="clip48_17_18157">
<rect width="24" height="24" fill="white" transform="translate(528 304)"/>
</clipPath>
<clipPath id="clip49_17_18157">
<rect width="24" height="24" fill="white" transform="translate(584 304)"/>
</clipPath>
<clipPath id="clip50_17_18157">
<rect width="24" height="24" fill="white" transform="translate(80 360)"/>
</clipPath>
<clipPath id="clip51_17_18157">
<rect width="24" height="24" fill="white" transform="translate(136 360)"/>
</clipPath>
<clipPath id="clip52_17_18157">
<rect width="24" height="24" fill="white" transform="translate(192 360)"/>
</clipPath>
<clipPath id="clip53_17_18157">
<rect width="24" height="24" fill="white" transform="translate(248 360)"/>
</clipPath>
<clipPath id="clip54_17_18157">
<rect width="24" height="24" fill="white" transform="translate(304 360)"/>
</clipPath>
<clipPath id="clip55_17_18157">
<rect width="24" height="24" fill="white" transform="translate(360 360)"/>
</clipPath>
<clipPath id="clip56_17_18157">
<rect width="24" height="24" fill="white" transform="translate(416 360)"/>
</clipPath>
<clipPath id="clip57_17_18157">
<rect width="24" height="24" fill="white" transform="translate(472 360)"/>
</clipPath>
<clipPath id="clip58_17_18157">
<rect width="24" height="24" fill="white" transform="translate(528 360)"/>
</clipPath>
<clipPath id="clip59_17_18157">
<rect width="24" height="24" fill="white" transform="translate(584 360)"/>
</clipPath>
<clipPath id="clip60_17_18157">
<rect width="24" height="24" fill="white" transform="translate(80 416)"/>
</clipPath>
</defs>
</svg>
