<svg width="48" height="48" viewBox="0 0 48 48" fill="none" xmlns="http://www.w3.org/2000/svg">
<g clip-path="url(#clip0_17_18363)">
<path d="M38 4H10C7.78 4 6 5.8 6 8V36C6 38.2 7.8 40 10 40H18L22.58 44.58C23.36 45.36 24.62 45.36 25.4 44.58L30 40H38C40.2 40 42 38.2 42 36V8C42 5.8 40.2 4 38 4ZM24 10.6C26.98 10.6 29.4 13.02 29.4 16C29.4 18.98 26.98 21.4 24 21.4C21.02 21.4 18.6 18.98 18.6 16C18.6 13.02 21.02 10.6 24 10.6ZM36 32H12V30.2C12 26.2 20 24 24 24C28 24 36 26.2 36 30.2V32Z" fill="#323232"/>
</g>
<defs>
<clipPath id="clip0_17_18363">
<rect width="48" height="48" fill="white"/>
</clipPath>
</defs>
</svg>
