<svg width="688" height="520" viewBox="0 0 688 520" fill="none" xmlns="http://www.w3.org/2000/svg">
<rect x="0.5" y="0.5" width="687" height="519" rx="31.5" stroke="#CCCCCC"/>
<g clip-path="url(#clip0_17_18227)">
<path d="M101 91H97.83L100.37 88.46C100.76 88.07 100.76 87.44 100.37 87.05C99.98 86.66 99.34 86.66 98.95 87.05L95 91H93V89L96.95 85.05C97.34 84.66 97.34 84.02 96.95 83.63C96.56 83.24 95.93 83.24 95.54 83.63L93 86.17V83C93 82.45 92.55 82 92 82C91.45 82 91 82.45 91 83V86.17L88.46 83.63C88.07 83.24 87.44 83.24 87.05 83.63C86.66 84.02 86.66 84.66 87.05 85.05L91 89V91H89L85.05 87.05C84.66 86.66 84.02 86.66 83.63 87.05C83.24 87.44 83.24 88.07 83.63 88.46L86.17 91H83C82.45 91 82 91.45 82 92C82 92.55 82.45 93 83 93H86.17L83.63 95.54C83.24 95.93 83.24 96.56 83.63 96.95C84.02 97.34 84.66 97.34 85.05 96.95L89 93H91V95L87.05 98.95C86.66 99.34 86.66 99.98 87.05 100.37C87.44 100.76 88.07 100.76 88.46 100.37L91 97.83V101C91 101.55 91.45 102 92 102C92.55 102 93 101.55 93 101V97.83L95.54 100.37C95.93 100.76 96.56 100.76 96.95 100.37C97.34 99.98 97.34 99.34 96.95 98.95L93 95V93H95L98.95 96.95C99.34 97.34 99.98 97.34 100.37 96.95C100.76 96.56 100.76 95.93 100.37 95.54L97.83 93H101C101.55 93 102 92.55 102 92C102 91.45 101.55 91 101 91Z" fill="#323232"/>
</g>
<g clip-path="url(#clip1_17_18227)">
<path d="M158.41 90.41L153.58 85.58C153.21 85.21 152.7 85 152.17 85H139C137.9 85 137 85.89 137 87V94C137 95.1 137.9 96 139 96C139 97.66 140.34 99 142 99C143.66 99 145 97.66 145 96H151C151 97.66 152.34 99 154 99C155.66 99 157 97.66 157 96C158.1 96 159 95.1 159 94V91.83C159 91.3 158.79 90.79 158.41 90.41ZM139 90V88C139 87.45 139.45 87 140 87H143V91H140C139.45 91 139 90.55 139 90ZM142 97.25C141.31 97.25 140.75 96.69 140.75 96C140.75 95.31 141.31 94.75 142 94.75C142.69 94.75 143.25 95.31 143.25 96C143.25 96.69 142.69 97.25 142 97.25ZM149 91H145V87H149V91ZM154 97.25C153.31 97.25 152.75 96.69 152.75 96C152.75 95.31 153.31 94.75 154 94.75C154.69 94.75 155.25 95.31 155.25 96C155.25 96.69 154.69 97.25 154 97.25ZM151 91V87H152L156 91H151Z" fill="#323232"/>
</g>
<g clip-path="url(#clip2_17_18227)">
<path d="M212.22 86.86C210.22 86.26 208.16 86.82 206.83 88.15L204 90.66L202.48 92H202.49L199.8 94.39C198.99 95.2 197.85 95.54 196.68 95.31C195.43 95.06 194.4 94.06 194.11 92.82C193.59 90.59 195.27 88.62 197.4 88.62C198.31 88.62 199.16 88.97 199.84 89.65L200.31 90.06C200.69 90.4 201.26 90.4 201.64 90.06C202.09 89.66 202.09 88.96 201.64 88.56L201.22 88.2C200.2 87.18 198.84 86.62 197.4 86.62C194.42 86.62 192 89.04 192 92C192 94.96 194.42 97.38 197.4 97.38C198.84 97.38 200.2 96.82 201.17 95.85L204 93.35L204.01 93.36L205.52 92H205.51L208.2 89.61C209.01 88.8 210.15 88.46 211.32 88.69C212.57 88.94 213.6 89.94 213.89 91.18C214.41 93.41 212.73 95.38 210.6 95.38C209.7 95.38 208.84 95.03 208.16 94.35L207.68 93.93C207.3 93.59 206.73 93.59 206.35 93.93C205.9 94.33 205.9 95.03 206.35 95.43L206.77 95.8C207.79 96.81 209.14 97.37 210.59 97.37C213.86 97.37 216.45 94.47 215.92 91.12C215.62 89.13 214.15 87.43 212.22 86.86Z" fill="#323232"/>
</g>
<g clip-path="url(#clip3_17_18227)">
<path d="M265 91V85C265 83.9 264.1 83 263 83H257C255.9 83 255 83.9 255 85V87H253C251.9 87 251 87.9 251 89V99C251 100.1 251.9 101 253 101H258C258.55 101 259 100.55 259 100V97H261V100C261 100.55 261.45 101 262 101H267C268.1 101 269 100.1 269 99V93C269 91.9 268.1 91 267 91H265ZM255 99H253V97H255V99ZM255 95H253V93H255V95ZM255 91H253V89H255V91ZM259 95H257V93H259V95ZM259 91H257V89H259V91ZM259 87H257V85H259V87ZM263 95H261V93H263V95ZM263 91H261V89H263V91ZM263 87H261V85H263V87ZM267 99H265V97H267V99ZM267 95H265V93H267V95Z" fill="#323232"/>
</g>
<g clip-path="url(#clip4_17_18227)">
<path d="M318 89C318 89.55 317.55 90 317 90H315.42C315.14 90 314.87 89.94 314.62 89.83L312.32 88.82L311 92.75V101C311 101.55 310.55 102 310 102H308C307.45 102 307 101.55 307 101V92.33C307 92.11 307.04 91.89 307.11 91.68L308.59 87.36C308.96 86.25 310.22 85.69 311.3 86.18L315.45 88.01L317 88C317.55 88 318 88.45 318 89ZM312 81C310.9 81 310 81.9 310 83C310 84.1 310.9 85 312 85C313.1 85 314 84.1 314 83C314 81.9 313.1 81 312 81ZM314 99H324C324.55 99 325 98.55 325 98C325 97.45 324.55 97 324 97H314C313.45 97 313 97.45 313 98C313 98.55 313.45 99 314 99ZM323.5 96C324.33 96 325 95.33 325 94.5C325 93.67 324.33 93 323.5 93C322.67 93 322 93.67 322 94.5C322 95.33 322.67 96 323.5 96ZM317 92C317 91.45 316.55 91 316 91H314C313.45 91 313 91.45 313 92C313 92.55 313.45 93 314 93H315V94C315 95.1 315.9 96 317 96H319C320.1 96 321 95.1 321 94V92C321 91.45 320.55 91 320 91C319.45 91 319 91.45 319 92V93H317V92Z" fill="#323232"/>
</g>
<g clip-path="url(#clip5_17_18227)">
<path d="M380 88V100C380 101.1 379.1 102 378 102H366C364.9 102 364 101.1 364 100V88C364 86.14 365.28 84.59 367 84.14V83.5C367 82.67 367.67 82 368.5 82C369.33 82 370 82.67 370 83.5V84H374V83.5C374 82.67 374.67 82 375.5 82C376.33 82 377 82.67 377 83.5V84.14C378.72 84.59 380 86.14 380 88ZM366 93C366 93.55 366.45 94 367 94H376V95C376 95.55 376.45 96 377 96C377.55 96 378 95.55 378 95V93C378 92.45 377.55 92 377 92H367C366.45 92 366 92.45 366 93Z" fill="#323232"/>
</g>
<g clip-path="url(#clip6_17_18227)">
<path d="M423 89C424.105 89 425 88.1046 425 87C425 85.8954 424.105 85 423 85C421.895 85 421 85.8954 421 87C421 88.1046 421.895 89 423 89Z" fill="#323232"/>
<path d="M437 93H436V84.83C436 83.27 434.73 82 433.17 82C432.42 82 431.7 82.3 431.17 82.83L429.92 84.08C429.76 84.03 429.59 84 429.41 84C429.01 84 428.64 84.12 428.33 84.32L431.09 87.08C431.29 86.77 431.41 86.4 431.41 86C431.41 85.82 431.38 85.66 431.34 85.49L432.59 84.24C432.74 84.09 432.95 84 433.17 84C433.63 84 434 84.37 434 84.83V93H427.15C426.85 92.79 426.58 92.55 426.33 92.28L424.93 90.73C424.74 90.52 424.5 90.35 424.24 90.23C423.93 90.08 423.59 90 423.24 90C422 90.01 421 91.01 421 92.25V93H419C418.45 93 418 93.45 418 94V99C418 100.1 418.9 101 420 101C420 101.55 420.45 102 421 102H435C435.55 102 436 101.55 436 101C437.1 101 438 100.1 438 99V94C438 93.45 437.55 93 437 93Z" fill="#323232"/>
</g>
<g clip-path="url(#clip7_17_18227)">
<path d="M485.13 94.56L486.56 93.13L492.29 98.86C492.68 99.25 492.68 99.89 492.29 100.29C491.9 100.68 491.26 100.68 490.86 100.29L485.13 94.56ZM489.42 88.83L490.69 87.56C491.58 86.67 491.46 85.13 490.38 84.48C486.49 82.1 481.35 82.59 477.98 85.95C481.91 84.65 486.29 85.7 489.42 88.83ZM477.95 85.98C474.59 89.35 474.1 94.49 476.47 98.38C477.13 99.46 478.66 99.59 479.55 98.69L480.82 97.42C477.7 94.29 476.65 89.91 477.95 85.98ZM477.97 85.96L477.96 85.97C477.58 88.98 479.13 92.85 482.26 95.99L487.99 90.26C484.86 87.13 480.98 85.58 477.97 85.96Z" fill="#323232"/>
</g>
<g clip-path="url(#clip8_17_18227)">
<path d="M544 91V85H548C549.1 85 550 85.9 550 87V91H544ZM548 99C549.1 99 550 98.1 550 97V93H544V99H548ZM542 85V99H532C530.9 99 530 98.1 530 97V87C530 85.9 530.9 85 532 85H542ZM537.5 92C537.5 91.17 536.83 90.5 536 90.5C535.17 90.5 534.5 91.17 534.5 92C534.5 92.83 535.17 93.5 536 93.5C536.83 93.5 537.5 92.83 537.5 92Z" fill="#323232"/>
</g>
<g clip-path="url(#clip9_17_18227)">
<path d="M597 96H595C594.45 96 594 95.55 594 95H587.01V99C587.01 100.1 587.91 101 589.01 101H603C604.1 101 605 100.1 605 99V95H598C598 95.55 597.55 96 597 96ZM604 87H600C600 84.79 598.21 83 596 83C593.79 83 592 84.79 592 87H588C586.9 87 586 87.9 586 89V92C586 93.11 586.89 94 588 94H594V93C594 92.45 594.45 92 595 92H597C597.55 92 598 92.45 598 93V94H604C605.1 94 606 93.1 606 92V89C606 87.9 605.1 87 604 87ZM594 87C594 85.9 594.9 85 596 85C597.1 85 598 85.9 598 87H593.99H594Z" fill="#323232"/>
</g>
<g clip-path="url(#clip10_17_18227)">
<path d="M99.7301 150.23L87.7101 138.21C87.3201 137.82 86.6901 137.82 86.3001 138.21L83.7001 140.8C83.3601 141.14 83.3101 141.68 83.5901 142.08L91.2401 153.06C90.4601 153.84 90.4601 155.11 91.2401 155.89L92.6501 157.3C93.4301 158.08 94.7001 158.08 95.4801 157.3L99.7201 153.06C100.51 152.28 100.51 151.01 99.7301 150.23ZM94.0701 155.88L92.6601 154.47L96.9001 150.23L98.3101 151.64L94.0701 155.88Z" fill="#323232"/>
</g>
<g clip-path="url(#clip11_17_18227)">
<path d="M155 139H141C139.9 139 139 139.9 139 141V155C139 156.1 139.9 157 141 157H155C156.1 157 157 156.1 157 155V141C157 139.9 156.1 139 155 139ZM143.5 154C142.67 154 142 153.33 142 152.5C142 151.67 142.67 151 143.5 151C144.33 151 145 151.67 145 152.5C145 153.33 144.33 154 143.5 154ZM143.5 145C142.67 145 142 144.33 142 143.5C142 142.67 142.67 142 143.5 142C144.33 142 145 142.67 145 143.5C145 144.33 144.33 145 143.5 145ZM148 149.5C147.17 149.5 146.5 148.83 146.5 148C146.5 147.17 147.17 146.5 148 146.5C148.83 146.5 149.5 147.17 149.5 148C149.5 148.83 148.83 149.5 148 149.5ZM152.5 154C151.67 154 151 153.33 151 152.5C151 151.67 151.67 151 152.5 151C153.33 151 154 151.67 154 152.5C154 153.33 153.33 154 152.5 154ZM152.5 145C151.67 145 151 144.33 151 143.5C151 142.67 151.67 142 152.5 142C153.33 142 154 142.67 154 143.5C154 144.33 153.33 145 152.5 145Z" fill="#323232"/>
</g>
<g clip-path="url(#clip12_17_18227)">
<path d="M209 137H199C197.9 137 197 137.9 197 139V157C197 158.1 197.9 159 199 159H209C210.1 159 211 158.1 211 157V139C211 137.9 210.1 137 209 137ZM209 154H199V142H209V154ZM204.5 147V145.12C204.5 144.59 203.79 144.42 203.55 144.9L201.86 148.28C201.7 148.61 201.94 149 202.31 149H203.5V150.88C203.5 151.41 204.21 151.58 204.45 151.1L206.14 147.72C206.3 147.39 206.06 147 205.69 147H204.5Z" fill="#323232"/>
</g>
<g clip-path="url(#clip13_17_18227)">
<path d="M269.6 154.2L261 147.75V146.84C262.65 146.35 263.8 144.67 263.43 142.79C263.17 141.48 262.13 140.39 260.82 140.09C259.06 139.69 257.45 140.62 256.8 142.07C256.5 142.74 256.98 143.5 257.71 143.5C258.1 143.5 258.46 143.28 258.61 142.93C258.84 142.38 259.37 142 260 142C260.83 142 261.5 142.67 261.5 143.5C261.5 144.34 260.81 145.02 259.97 145C259.43 144.99 259 145.45 259 145.99V147.75L250.4 154.2C249.63 154.78 250.04 156 251 156H260H269C269.96 156 270.37 154.78 269.6 154.2ZM254 154L260 149.5L266 154H254Z" fill="#323232"/>
</g>
<g clip-path="url(#clip14_17_18227)">
<path d="M318.5 147.75C319.19 147.75 319.75 147.19 319.75 146.5C319.75 145.81 319.19 145.25 318.5 145.25C317.81 145.25 317.25 145.81 317.25 146.5C317.25 147.19 317.81 147.75 318.5 147.75Z" fill="#323232"/>
<path d="M313.5 147.75C314.19 147.75 314.75 147.19 314.75 146.5C314.75 145.81 314.19 145.25 313.5 145.25C312.81 145.25 312.25 145.81 312.25 146.5C312.25 147.19 312.81 147.75 313.5 147.75Z" fill="#323232"/>
<path d="M320.1 150H311.9C311.71 150 311.58 150.2 311.67 150.37C312.5 151.94 314.13 153 316 153C317.87 153 319.5 151.94 320.33 150.37C320.41 150.2 320.28 150 320.1 150ZM326.94 147.34C326.69 145.83 325.58 144.6 324.13 144.17C323.6 143.05 322.85 142.07 321.94 141.26C320.36 139.85 318.28 139 316 139C313.72 139 311.64 139.85 310.06 141.26C309.14 142.07 308.39 143.06 307.87 144.17C306.42 144.6 305.31 145.82 305.06 147.34C305.02 147.55 305 147.77 305 148C305 148.23 305.02 148.45 305.06 148.66C305.31 150.17 306.42 151.4 307.87 151.83C308.39 152.94 309.14 153.92 310.04 154.72C311.62 156.14 313.71 157 316 157C318.29 157 320.38 156.14 321.97 154.72C322.87 153.92 323.62 152.93 324.14 151.83C325.58 151.4 326.69 150.18 326.94 148.66C326.98 148.45 327 148.23 327 148C327 147.77 326.98 147.55 326.94 147.34ZM323 150C322.9 150 322.81 149.98 322.71 149.97C322.51 150.64 322.22 151.26 321.85 151.83C320.6 153.74 318.45 155 316 155C313.55 155 311.4 153.74 310.15 151.83C309.78 151.26 309.49 150.64 309.29 149.97C309.19 149.98 309.1 150 309 150C307.9 150 307 149.1 307 148C307 146.9 307.9 146 309 146C309.1 146 309.19 146.02 309.29 146.03C309.49 145.36 309.78 144.74 310.15 144.17C311.4 142.26 313.55 141 316 141C318.45 141 320.6 142.26 321.85 144.17C322.22 144.74 322.51 145.36 322.71 146.03C322.81 146.02 322.9 146 323 146C324.1 146 325 146.9 325 148C325 149.1 324.1 150 323 150Z" fill="#323232"/>
</g>
<g clip-path="url(#clip15_17_18227)">
<path d="M373 139.08V146H381C381 141.97 378.02 138.63 374.14 138.08C373.54 137.99 373 138.47 373 139.08ZM379.32 151.89C380.37 150.54 381 148.84 381 147H366.44L365.76 145.57C365.6 145.22 365.24 145 364.86 145H363C362.45 145 362 145.45 362 146C362 146.55 362.45 147 363 147H364.22C364.22 147 366.11 151.07 366.34 151.42C365.01 152.13 364.2 153.69 364.6 155.36C364.9 156.62 365.94 157.63 367.2 157.91C369.3 158.37 371.18 156.95 371.45 155H373.53C373.8 156.94 375.67 158.36 377.75 157.92C379.02 157.65 380.06 156.65 380.38 155.39C380.73 154 380.24 152.71 379.32 151.89ZM368 156C367.17 156 366.5 155.33 366.5 154.5C366.5 153.67 367.17 153 368 153C368.83 153 369.5 153.67 369.5 154.5C369.5 155.33 368.83 156 368 156ZM377 156C376.17 156 375.5 155.33 375.5 154.5C375.5 153.67 376.17 153 377 153C377.83 153 378.5 153.67 378.5 154.5C378.5 155.33 377.83 156 377 156Z" fill="#323232"/>
</g>
<g clip-path="url(#clip16_17_18227)">
<path d="M428 143V141C428 139.9 427.1 139 426 139H420C418.9 139 418 139.9 418 141V155C418 156.1 418.9 157 420 157H436C437.1 157 438 156.1 438 155V145C438 143.9 437.1 143 436 143H428ZM426 155H420V153H426V155ZM426 151H420V149H426V151ZM426 147H420V145H426V147ZM426 143H420V141H426V143ZM436 155H428V145H436V155ZM434 147H430V149H434V147ZM434 151H430V153H434V151Z" fill="#323232"/>
</g>
<g clip-path="url(#clip17_17_18227)">
<path d="M490 146V143.17C490 141.55 488.78 140.09 487.16 140C485.95 139.94 484.89 140.59 484.36 141.57C484.01 142.22 484.53 143 485.27 143H485.28C485.62 143 485.96 142.84 486.12 142.54C486.28 142.22 486.62 142 487 142C487.55 142 488 142.45 488 143V146H480C481.1 146 482 145.1 482 144V141C482 140.45 481.55 140 481 140H477C476.45 140 476 140.45 476 141V144C476 145.1 476.9 146 478 146H475C474.45 146 474 146.45 474 147C474 147.55 474.45 148 475 148H476V155C476 155.55 476.45 156 477 156H491C491.55 156 492 155.55 492 155V148H493C493.55 148 494 147.55 494 147C494 146.45 493.55 146 493 146H490ZM485 154H483V148H485V154Z" fill="#323232"/>
</g>
<g clip-path="url(#clip18_17_18227)">
<path d="M530.1 139.51C529.71 139.9 529.71 140.53 530.1 140.92L537.29 148.11C537.47 148.31 537.47 148.61 537.28 148.81C537.18 148.91 537.05 148.96 536.93 148.96C536.81 148.96 536.67 148.91 536.58 148.81L534.87 147.1C534.76 147.5 534.61 147.88 534.42 148.22L535.82 149.62C536.02 149.82 536.02 150.13 535.82 150.33C535.72 150.43 535.59 150.48 535.47 150.48C535.35 150.48 535.21 150.43 535.12 150.33L533.85 149.06C533.61 149.35 533.35 149.62 533.08 149.86L534.36 151.14C534.56 151.34 534.56 151.65 534.36 151.85C534.26 151.95 534.13 152 534 152C533.87 152 533.74 151.95 533.65 151.85L532.27 150.47C531.56 150.94 530.84 151.28 530.25 151.51C529.49 151.81 529 152.55 529 153.37V154C529 155.1 529.9 156 531 156H537.67C538.2 156 538.71 155.79 539.08 155.41L541.82 152.67L547.05 157.9C547.44 158.29 548.07 158.29 548.46 157.9C548.85 157.51 548.85 156.88 548.46 156.49L531.51 139.51C531.12 139.12 530.49 139.12 530.1 139.51ZM546.51 151.68L545.1 150.27L549.58 145.79C550.36 146.57 550.36 147.84 549.58 148.62L546.51 151.68ZM548.88 145.08L544.4 149.56L537.3 142.47L540.39 139.4C541.17 138.62 542.43 138.63 543.21 139.4L548.88 145.08Z" fill="#323232"/>
</g>
<g clip-path="url(#clip19_17_18227)">
<path d="M597 146.17L594.5 143.67V138.25C594.5 137.56 595.06 137 595.75 137C596.44 137 597 137.56 597 138.25V146.17ZM604 141.32C604 140.67 603.53 140.07 602.88 140C602.13 139.92 601.5 140.51 601.5 141.24V146.49C601.5 146.77 601.28 146.99 601 146.99C600.72 146.99 600.5 146.77 600.5 146.49V139.31C600.5 138.66 600.03 138.06 599.38 137.99C598.63 137.93 598 138.52 598 139.25V147.17L604 153.17V141.32ZM593.5 140.25C593.5 139.56 592.94 139 592.25 139C591.58 139 591.05 139.53 591.01 140.18L593.5 142.67V140.25ZM601 158C601.62 158 602.18 157.81 602.65 157.48L602.63 157.46L603.07 157.9C603.46 158.29 604.09 158.29 604.48 157.9C604.87 157.51 604.87 156.88 604.48 156.49L587.51 139.51C587.12 139.12 586.49 139.12 586.1 139.51C585.71 139.9 585.71 140.53 586.1 140.92L591.02 145.84L591 145.83V150.13L588.4 148.65C588.23 148.56 588.06 148.51 587.86 148.51C587.6 148.51 587.36 148.6 587.16 148.77L586 149.88L592.8 157.06C593.37 157.66 594.15 158 594.98 158H601Z" fill="#323232"/>
</g>
<g clip-path="url(#clip20_17_18227)">
<path d="M81.94 203.79C81.34 204.36 81 205.14 81 205.97V212C81 213.66 82.34 215 84 215H97.68C98.33 215 98.93 214.53 99 213.88C99.08 213.13 98.49 212.5 97.76 212.5H92.5C92.22 212.5 92 212.28 92 212C92 211.72 92.22 211.5 92.5 211.5H99.68C100.33 211.5 100.93 211.03 101 210.38C101.08 209.63 100.49 209 99.76 209H92.5C92.22 209 92 208.78 92 208.5C92 208.22 92.22 208 92.5 208H100.68C101.33 208 101.93 207.53 102 206.88C102.08 206.13 101.49 205.5 100.76 205.5H92.5C92.22 205.5 92 205.28 92 205C92 204.72 92.22 204.5 92.5 204.5H98.68C99.33 204.5 99.93 204.03 100 203.38C100.08 202.63 99.49 202 98.76 202H88.86L90.35 199.39C90.44 199.23 90.49 199.06 90.49 198.86C90.49 198.6 90.4 198.36 90.23 198.16L89.81 197.71C89.43 197.32 88.8 197.3 88.4 197.68L81.94 203.79ZM96.99 200.07C96.99 200.59 96.57 201 96.06 201C95.54 201 95.13 200.58 95.13 200.07C95.16 199.4 94.91 198.74 94.42 198.21L94.35 198.15C93.45 197.26 92.97 196.12 93.01 194.93C93 194.42 93.42 194 93.93 194C94.44 194 94.86 194.42 94.86 194.93C94.83 195.6 95.08 196.26 95.57 196.79L95.64 196.86C96.55 197.74 97.03 198.88 96.99 200.07ZM101 200.07C101 200.58 100.58 201 100.06 201C99.54 201 99.13 200.58 99.13 200.07C99.16 199.4 98.91 198.74 98.42 198.21L98.35 198.15C97.45 197.26 96.97 196.12 97.01 194.93C97.01 194.42 97.43 194 97.94 194C98.45 194 98.87 194.42 98.87 194.93C98.84 195.6 99.09 196.26 99.58 196.79L99.65 196.86C100.55 197.74 101.03 198.88 101 200.07Z" fill="#323232"/>
</g>
<g clip-path="url(#clip21_17_18227)">
<path d="M155 195H141C139.9 195 139 195.9 139 197V211C139 212.1 139.9 213 141 213H155C156.1 213 157 212.1 157 211V197C157 195.9 156.1 195 155 195ZM144.5 198C145.19 198 145.75 198.56 145.75 199.25C145.75 199.94 145.19 200.5 144.5 200.5C143.81 200.5 143.25 199.94 143.25 199.25C143.25 198.56 143.81 198 144.5 198ZM147 205C147 205.55 146.55 206 146 206V209C146 209.55 145.55 210 145 210H144C143.45 210 143 209.55 143 209V206C142.45 206 142 205.55 142 205V203.5C142 202.4 142.9 201.5 144 201.5H145C146.1 201.5 147 202.4 147 203.5V205ZM153.52 205.76L151.92 208.32C151.72 208.63 151.27 208.63 151.07 208.32L149.47 205.76C149.27 205.43 149.51 205 149.9 205H153.1C153.49 205 153.73 205.43 153.52 205.76ZM153.1 203H149.9C149.51 203 149.27 202.57 149.48 202.23L151.08 199.67C151.28 199.36 151.73 199.36 151.93 199.67L153.53 202.23C153.73 202.57 153.49 203 153.1 203Z" fill="#323232"/>
</g>
<g clip-path="url(#clip22_17_18227)">
<path d="M211 195H197C195.9 195 195 195.9 195 197V211C195 212.1 195.9 213 197 213H211C212.1 213 213 212.1 213 211V197C213 195.9 212.1 195 211 195ZM209 201H207.3L202.59 209.49C202.41 209.8 202.07 210 201.71 210H199C198.17 210 197.5 209.33 197.5 208.5C197.5 207.67 198.17 207 199 207H200.7L205.41 198.51C205.59 198.2 205.93 198 206.29 198H209C209.83 198 210.5 198.67 210.5 199.5C210.5 200.33 209.83 201 209 201Z" fill="#323232"/>
</g>
<g clip-path="url(#clip23_17_18227)">
<path d="M254.5 194C255.6 194 256.5 194.9 256.5 196C256.5 197.1 255.6 198 254.5 198C253.4 198 252.5 197.1 252.5 196C252.5 194.9 253.4 194 254.5 194ZM263.5 201.5C263.5 202.33 264.17 203 265 203C265.83 203 266.5 202.33 266.5 201.5C266.5 200.67 265.83 200 265 200C264.17 200 263.5 200.67 263.5 201.5ZM266.5 204H263.66C263.08 204.01 262.52 204.32 262.21 204.86L261.29 206.18L257.72 200C257.35 199.37 256.69 199.01 256.01 199H253C251.9 199 251 199.9 251 201V206C251 206.55 251.45 207 252 207H252.5V213C252.5 213.55 252.95 214 253.5 214H256.5C257.05 214 257.5 213.55 257.5 213V203.61L259.74 207.5C259.92 207.81 260.25 208 260.61 208H261.71C262.04 208 262.34 207.84 262.53 207.57L263 206.9V213C263 213.55 263.45 214 264 214H266C266.55 214 267 213.55 267 213V209C267.55 209 268 208.55 268 208V205.5C268 204.68 267.33 204 266.5 204Z" fill="#323232"/>
</g>
<g clip-path="url(#clip24_17_18227)">
<path d="M320 196C320 194.89 320.89 194 322 194C323.11 194 324 194.89 324 196C324 197.11 323.11 198 322 198C320.89 198 320 197.11 320 196ZM324 213V208H325.11C325.79 208 326.27 207.33 326.06 206.68L323.96 200.37C323.68 199.55 322.92 199 322.06 199H321.94C321.08 199 320.31 199.55 320.04 200.37L319.18 202.95C320.26 203.55 321 204.68 321 206V214H323C323.55 214 324 213.55 324 213ZM316.5 203.5C317.33 203.5 318 202.83 318 202C318 201.17 317.33 200.5 316.5 200.5C315.67 200.5 315 201.17 315 202C315 202.83 315.67 203.5 316.5 203.5ZM309.5 198C310.61 198 311.5 197.11 311.5 196C311.5 194.89 310.61 194 309.5 194C308.39 194 307.5 194.89 307.5 196C307.5 197.11 308.39 198 309.5 198ZM311.5 213V207H312C312.55 207 313 206.55 313 206V201C313 199.9 312.1 199 311 199H308C306.9 199 306 199.9 306 201V206C306 206.55 306.45 207 307 207H307.5V213C307.5 213.55 307.95 214 308.5 214H310.5C311.05 214 311.5 213.55 311.5 213ZM314 206V209C314 209.55 314.45 210 315 210V213C315 213.55 315.45 214 316 214H317C317.55 214 318 213.55 318 213V210C318.55 210 319 209.55 319 209V206C319 205.18 318.32 204.5 317.5 204.5H315.5C314.68 204.5 314 205.18 314 206Z" fill="#323232"/>
</g>
<g clip-path="url(#clip25_17_18227)">
<path d="M381 203C381 202.45 380.55 202 380 202H379V199L376.71 196.71C376.32 196.32 375.69 196.32 375.3 196.71L374 198L372.71 196.71C372.32 196.32 371.69 196.32 371.3 196.71L370 198L368.71 196.71C368.32 196.32 367.69 196.32 367.3 196.71L365 199V202H364C363.45 202 363 202.45 363 203C363 203.55 363.45 204 364 204H365V206H364C363.45 206 363 206.45 363 207C363 207.55 363.45 208 364 208H365V211C365 211.55 365.45 212 366 212H378C378.55 212 379 211.55 379 211V208H380C380.55 208 381 207.55 381 207C381 206.45 380.55 206 380 206H379V204H380C380.55 204 381 203.55 381 203ZM376 198.83L377 199.83V202H375V199.83L375.41 199.42L376 198.83ZM372 198.83L372.59 199.42L373 199.83V202H371V199.83L371.41 199.42L372 198.83ZM371 206V204H373V206H371ZM373 208V210H371V208H373ZM367 199.83L368 198.83L368.59 199.42L369 199.83V202H367V199.83ZM367 204H369V206H367V204ZM367 208H369V210H367V208ZM377 210H375V208H377V210ZM377 206H375V204H377V206Z" fill="#323232"/>
</g>
<g clip-path="url(#clip26_17_18227)">
<path d="M423 211H433V212C433 213.1 432.1 214 431 214H425C423.9 214 423 213.1 423 212V211ZM423 210H433V205H423V210ZM433 196.23V199.77C433 200.4 432.42 200.88 431.79 200.75L429.85 200.34C429.85 200.36 429.85 200.35 429.84 200.37C431.38 200.99 432.55 202.35 432.9 204H423.1C423.44 202.34 424.62 200.98 426.17 200.36C425.84 200.1 425.57 199.78 425.37 199.41L421.49 198.6C421.2 198.54 421 198.29 421 198C421 197.71 421.2 197.46 421.49 197.4L425.37 196.59C425.87 195.65 426.86 195 428 195C428.7 195 429.34 195.25 429.85 195.66L431.79 195.25C432.42 195.12 433 195.6 433 196.23ZM429 198C428.97 197.41 428.55 197 428 197C427.45 197 427 197.45 427 198C427 198.55 427.45 199 428 199C428.55 199 429 198.55 429 198Z" fill="#323232"/>
</g>
<g clip-path="url(#clip27_17_18227)">
<path d="M492.57 206.86L493.29 206.14C493.68 205.75 493.68 205.12 493.29 204.73L493.27 204.71C492.88 204.32 492.25 204.32 491.86 204.71L489 207.57L480.43 199L483.29 196.14C483.68 195.75 483.68 195.12 483.29 194.73L483.27 194.71C482.88 194.32 482.25 194.32 481.86 194.71L481.14 195.43L480.42 194.71C480.03 194.32 479.39 194.32 479 194.71L477.57 196.14L476.85 195.42C476.46 195.03 475.81 195.03 475.42 195.42C475.03 195.81 475.03 196.46 475.42 196.85L476.14 197.57L474.71 199C474.32 199.39 474.32 200.02 474.71 200.41L475.43 201.13L474.71 201.86C474.32 202.25 474.32 202.88 474.71 203.27L474.73 203.29C475.12 203.68 475.75 203.68 476.14 203.29L479 200.43L487.57 209L484.71 211.86C484.32 212.25 484.32 212.88 484.71 213.27L484.73 213.29C485.12 213.68 485.75 213.68 486.14 213.29L486.86 212.57L487.58 213.29C487.97 213.68 488.6 213.68 488.99 213.29L490.42 211.86L491.14 212.58C491.53 212.97 492.18 212.97 492.57 212.58C492.96 212.19 492.96 211.54 492.57 211.15L491.85 210.43L493.29 209C493.68 208.61 493.68 207.98 493.29 207.59L492.57 206.86Z" fill="#323232"/>
</g>
<g clip-path="url(#clip28_17_18227)">
<path d="M538.8 195.9L532.8 200.4C532.3 200.78 532 201.37 532 202V211C532 212.1 532.9 213 534 213H546C547.1 213 548 212.1 548 211V202C548 201.37 547.7 200.78 547.2 200.4L541.2 195.9C540.49 195.37 539.51 195.37 538.8 195.9ZM540.5 204.5C540.5 205.33 539.83 206 539 206V209.5C539 209.78 538.78 210 538.5 210C538.22 210 538 209.78 538 209.5V206C537.17 206 536.5 205.33 536.5 204.5V202C536.5 201.72 536.72 201.5 537 201.5C537.28 201.5 537.5 201.72 537.5 202V204.5H538V202C538 201.72 538.22 201.5 538.5 201.5C538.78 201.5 539 201.72 539 202V204.5H539.5V202C539.5 201.72 539.72 201.5 540 201.5C540.28 201.5 540.5 201.72 540.5 202V204.5ZM542.5 210C542.22 210 542 209.78 542 209.5V206.5H541.5C541.22 206.5 541 206.28 541 206V203.5C541 202.62 541.57 201.87 542.36 201.61C542.67 201.5 543 201.75 543 202.09V209.5C543 209.78 542.78 210 542.5 210Z" fill="#323232"/>
</g>
<g clip-path="url(#clip29_17_18227)">
<path d="M603 204H604.7C605.16 204 605.38 203.43 605.03 203.13L596.67 195.6C596.29 195.26 595.71 195.26 595.33 195.6L586.97 203.13C586.63 203.43 586.84 204 587.3 204H589V207H588C587.45 207 587 207.45 587 208C587 208.55 587.45 209 588 209H589V211C589 211.55 589.45 212 590 212C590.55 212 591 211.55 591 211V209H595V211C595 211.55 595.45 212 596 212C596.55 212 597 211.55 597 211V209H601V211C601 211.55 601.45 212 602 212C602.55 212 603 211.55 603 211V209H604C604.55 209 605 208.55 605 208C605 207.45 604.55 207 604 207H603V204ZM591 207V202.19L595 198.59V207H591ZM597 207V198.59L601 202.19V207H597Z" fill="#323232"/>
</g>
<g clip-path="url(#clip30_17_18227)">
<path d="M100 251H86C84.9 251 84 251.9 84 253V261C84 263.21 85.79 265 88 265H94C96.21 265 98 263.21 98 261V258H100C101.11 258 102 257.1 102 256V253C102 251.9 101.1 251 100 251ZM100 256H98V253H100V256ZM85 267H99C99.55 267 100 267.45 100 268C100 268.55 99.55 269 99 269H85C84.45 269 84 268.55 84 268C84 267.45 84.45 267 85 267Z" fill="#323232"/>
</g>
<g clip-path="url(#clip31_17_18227)">
<path d="M155.5 269C156.328 269 157 268.328 157 267.5C157 266.672 156.328 266 155.5 266C154.672 266 154 266.672 154 267.5C154 268.328 154.672 269 155.5 269Z" fill="#323232"/>
<path d="M147 266.03V256.98L151.22 254.83C151.95 254.46 151.95 253.4 151.21 253.04L146.45 250.71C145.78 250.38 145 250.86 145 251.6V267C145 267.55 144.55 268 144 268C143.45 268 143 267.55 143 267V266.27C141.21 266.62 140 267.26 140 268C140 269.1 142.69 270 146 270C149.31 270 152 269.1 152 268C152 267.01 149.84 266.19 147 266.03Z" fill="#323232"/>
</g>
<g clip-path="url(#clip32_17_18227)">
<path d="M207.64 259.02C208.19 257.55 209.07 256.24 210.2 255.19C210.58 254.83 210.24 254.19 209.74 254.34C206.42 255.32 203.99 258.39 204 262.03C204.95 260.75 206.2 259.72 207.64 259.02ZM203.42 256.85C202.82 255.29 201.79 253.94 200.46 252.98C200.04 252.68 199.5 253.17 199.74 253.63C200.54 255.15 201 256.88 201 258.71C201 258.92 200.97 259.12 200.96 259.32C201.39 259.56 201.79 259.84 202.18 260.14C202.39 258.96 202.83 257.85 203.42 256.85ZM204 268H195C194.45 268 194 267.55 194 267C194 266.45 194.45 266 195 266H199.75C199.18 263.81 197.71 261.98 195.75 260.94C195.59 260.86 195.49 260.69 195.49 260.5C195.49 260.23 195.71 260.01 195.98 260C195.99 260 196 260 196 260C200.42 260 204 263.58 204 268ZM212.26 260.94C210.3 261.98 208.82 263.81 208.26 266H213C213.55 266 214 266.45 214 267C214 267.55 213.55 268 213 268H208H206C206 267.32 205.93 266.65 205.8 266C205.65 265.28 205.42 264.58 205.13 263.93C206.52 261.58 209.07 260 212 260C212.01 260 212.02 260 212.02 260C212.29 260 212.51 260.23 212.51 260.5C212.52 260.69 212.41 260.85 212.26 260.94Z" fill="#323232"/>
</g>
<g clip-path="url(#clip33_17_18227)">
<path d="M255 256C256.105 256 257 255.105 257 254C257 252.895 256.105 252 255 252C253.895 252 253 252.895 253 254C253 255.105 253.895 256 255 256Z" fill="#323232"/>
<path d="M269 260H259.15C258.84 259.78 258.56 259.54 258.33 259.28L256.93 257.73C256.74 257.52 256.5 257.35 256.24 257.23C255.95 257.09 255.62 257 255.28 257H255.25C254.01 257 253 258.01 253 259.25V260H251C250.45 260 250 260.45 250 261V268C250 269.1 250.9 270 252 270H268C269.1 270 270 269.1 270 268V261C270 260.45 269.55 260 269 260ZM255 267C255 267.55 254.55 268 254 268C253.45 268 253 267.55 253 267V263C253 262.45 253.45 262 254 262C254.55 262 255 262.45 255 263V267ZM259 267C259 267.55 258.55 268 258 268C257.45 268 257 267.55 257 267V263C257 262.45 257.45 262 258 262C258.55 262 259 262.45 259 263V267ZM263 267C263 267.55 262.55 268 262 268C261.45 268 261 267.55 261 267V263C261 262.45 261.45 262 262 262C262.55 262 263 262.45 263 263V267ZM267 267C267 267.55 266.55 268 266 268C265.45 268 265 267.55 265 267V263C265 262.45 265.45 262 266 262C266.55 262 267 262.45 267 263V267ZM263.06 258C263.56 258 263.99 257.61 264 257.11C264.04 255.71 263.42 254.63 262.65 253.86C262 253.14 261.85 252.59 261.88 251.95C261.9 251.43 261.47 251 260.94 251C260.44 251 260.01 251.4 260 251.9C259.97 253.19 260.5 254.33 261.35 255.15C261.96 255.74 262.13 256.42 262.13 257.04C262.12 257.56 262.53 258 263.06 258ZM267.06 258C267.56 258 267.99 257.61 268 257.11C268.04 255.71 267.42 254.63 266.65 253.86C266 253.14 265.85 252.59 265.88 251.95C265.9 251.43 265.47 251 264.94 251C264.44 251 264.01 251.4 264 251.9C263.97 253.19 264.5 254.33 265.35 255.15C265.96 255.74 266.13 256.42 266.13 257.04C266.12 257.56 266.53 258 267.06 258Z" fill="#323232"/>
</g>
<g clip-path="url(#clip34_17_18227)">
<path d="M323 257.3V253C323 252.45 322.55 252 322 252H321C320.45 252 320 252.45 320 253V254.6L316.67 251.6C316.29 251.26 315.71 251.26 315.33 251.6L306.97 259.13C306.63 259.43 306.84 260 307.3 260H309V267C309 267.55 309.45 268 310 268H313C313.55 268 314 267.55 314 267V262H318V267C318 267.55 318.45 268 319 268H322C322.55 268 323 267.55 323 267V260H324.7C325.16 260 325.38 259.43 325.03 259.13L323 257.3ZM314 258C314 256.9 314.9 256 316 256C317.1 256 318 256.9 318 258H314Z" fill="#323232"/>
</g>
<g clip-path="url(#clip35_17_18227)">
<path d="M379 260H380.7C381.16 260 381.38 259.43 381.03 259.13L372.67 251.6C372.29 251.26 371.71 251.26 371.33 251.6L362.97 259.13C362.63 259.43 362.84 260 363.3 260H365V267C365 267.55 365.45 268 366 268C366.55 268 367 267.55 367 267V266H377V267C377 267.55 377.45 268 378 268C378.55 268 379 267.55 379 267V260ZM367.21 258H376.79L377 258.19V260H367V258.19L367.21 258ZM374.57 256H369.43L372 253.69L374.57 256ZM367 264V262H377V264H367Z" fill="#323232"/>
</g>
<g clip-path="url(#clip36_17_18227)">
<path d="M434 250.01L422 250C420.9 250 420 250.89 420 252V268C420 269.1 420.9 270 422 270H434C435.1 270 436 269.1 436 268V252C436 250.89 435.1 250.01 434 250.01ZM433 268H423C422.45 268 422 267.55 422 267V259.98C422 259.43 422.45 258.98 423 258.98H433C433.55 258.98 434 259.43 434 259.98V267C434 267.55 433.55 268 433 268ZM433 257H423C422.45 257 422 256.55 422 256V253C422 252.45 422.45 252 423 252H433C433.55 252 434 252.45 434 253V256C434 256.55 433.55 257 433 257ZM425 253C425.55 253 426 253.45 426 254V255C426 255.55 425.55 256 425 256C424.45 256 424 255.55 424 255V254C424 253.45 424.45 253 425 253ZM425 260C425.55 260 426 260.45 426 261V264C426 264.55 425.55 265 425 265C424.45 265 424 264.55 424 264V261C424 260.45 424.45 260 425 260Z" fill="#323232"/>
</g>
<g clip-path="url(#clip37_17_18227)">
<path d="M492 267H491V253C491 252.45 490.55 252 490 252H486C486 251.45 485.55 251 485 251H478C477.45 251 477 251.45 477 252V267H476C475.45 267 475 267.45 475 268C475 268.55 475.45 269 476 269H485C485.55 269 486 268.55 486 268V254H489V268C489 268.55 489.45 269 490 269H492C492.55 269 493 268.55 493 268C493 267.45 492.55 267 492 267ZM484 261H482V259H484V261Z" fill="#323232"/>
</g>
<g clip-path="url(#clip38_17_18227)">
<path d="M534.15 257.97C533.69 257.51 533.77 256.73 534.33 256.4C534.73 256.18 535.21 256 535.75 256C536.55 256 537.14 256.39 537.56 256.67C537.87 256.88 538.07 257 538.25 257C538.38 257 538.51 256.95 538.64 256.88C539.03 256.66 539.52 256.72 539.84 257.04C540.3 257.5 540.22 258.28 539.66 258.6C539.27 258.83 538.79 259 538.25 259C537.46 259 536.88 258.62 536.46 258.34C536.13 258.12 535.94 258 535.75 258C535.62 258 535.49 258.05 535.36 258.12C534.96 258.35 534.47 258.28 534.15 257.97ZM535.75 263C535.94 263 536.13 263.12 536.46 263.34C536.88 263.62 537.46 264 538.25 264C538.79 264 539.27 263.83 539.66 263.6C540.22 263.28 540.3 262.5 539.84 262.04C539.52 261.72 539.03 261.66 538.64 261.88C538.51 261.95 538.38 262 538.25 262C538.07 262 537.87 261.88 537.56 261.67C537.14 261.39 536.55 261 535.75 261C535.21 261 534.73 261.18 534.33 261.4C533.77 261.73 533.69 262.51 534.15 262.96C534.47 263.28 534.96 263.34 535.35 263.12C535.49 263.05 535.62 263 535.75 263ZM550 254V266C550 267.1 549.1 268 548 268H532C530.9 268 530 267.1 530 266V254C530 252.9 530.9 252 532 252H548C549.1 252 550 252.9 550 254ZM542 254H532V266H542V254ZM547 264C547 263.45 546.55 263 546 263C545.45 263 545 263.45 545 264C545 264.55 545.45 265 546 265C546.55 265 547 264.55 547 264ZM547 260C547 259.45 546.55 259 546 259C545.45 259 545 259.45 545 260C545 260.55 545.45 261 546 261C546.55 261 547 260.55 547 260ZM547 255H545V257H547V255Z" fill="#323232"/>
</g>
<g clip-path="url(#clip39_17_18227)">
<path d="M594.8 251.9L588.8 256.4C588.3 256.78 588 257.37 588 258V267C588 268.1 588.9 269 590 269H602C603.1 269 604 268.1 604 267V258C604 257.37 603.7 256.78 603.2 256.4L597.2 251.9C596.49 251.37 595.51 251.37 594.8 251.9ZM593.75 260.5C594.44 260.5 595 261.06 595 261.75C595 262.44 594.44 263 593.75 263C593.06 263 592.5 262.44 592.5 261.75C592.5 261.06 593.06 260.5 593.75 260.5ZM600.5 266C600.22 266 600 265.78 600 265.5V264.5H592V265.5C592 265.78 591.78 266 591.5 266C591.22 266 591 265.78 591 265.5V259.5C591 259.22 591.22 259 591.5 259C591.78 259 592 259.22 592 259.5V263.5H595.5V260.5C595.5 260.22 595.72 260 596 260H599C600.1 260 601 260.9 601 262V265.5C601 265.78 600.78 266 600.5 266Z" fill="#323232"/>
</g>
<g clip-path="url(#clip40_17_18227)">
<path d="M86.9801 308.15C86.9901 308.15 86.9901 308.14 87.0001 308.14V307.5C87.0001 306.67 87.6701 306 88.5001 306C89.3301 306 90.0001 306.67 90.0001 307.5V308H94.0001V307.5C94.0001 306.67 94.6701 306 95.5001 306C96.3301 306 97.0001 306.67 97.0001 307.5V308.14C98.7201 308.59 100 310.14 100 312V321.17L97.9701 319.14C97.9801 319.09 98.0001 319.05 98.0001 319V317C98.0001 316.45 97.5501 316 97.0001 316H94.8301L86.9801 308.15ZM100.49 325.9C100.1 326.29 99.4701 326.29 99.0801 325.9L98.9401 325.76C98.6501 325.91 98.3401 326 98.0001 326H86.0001C84.9001 326 84.0001 325.1 84.0001 324V312C84.0001 311.64 84.0601 311.31 84.1501 310.98L82.1001 308.93C81.7101 308.54 81.7101 307.91 82.1001 307.52C82.4901 307.13 83.1201 307.13 83.5101 307.52L100.48 324.49C100.88 324.88 100.88 325.51 100.49 325.9ZM91.1701 318L89.1701 316H87.0001C86.4501 316 86.0001 316.45 86.0001 317C86.0001 317.55 86.4501 318 87.0001 318H91.1701Z" fill="#323232"/>
</g>
<g clip-path="url(#clip41_17_18227)">
<path d="M144.83 310L141.13 306.3C141.42 305.55 142.15 305 143 305L153 305.01C154.1 305.01 155 305.9 155 307V320.17L153 318.17V310H144.83ZM156.49 325.9C156.1 326.29 155.47 326.29 155.08 325.9L154.88 325.7C154.58 326.45 153.85 327 153 327H143C141.9 327 141 326.1 141 325V311.83L138.1 308.93C137.71 308.54 137.71 307.91 138.1 307.52C138.49 307.13 139.12 307.13 139.51 307.52L156.48 324.49C156.88 324.88 156.88 325.51 156.49 325.9ZM151.17 322L143 313.83V322H151.17Z" fill="#323232"/>
</g>
<g clip-path="url(#clip42_17_18227)">
<path d="M212.49 324.49L195.51 307.51C195.12 307.12 194.49 307.12 194.1 307.51C193.71 307.9 193.71 308.53 194.1 308.92L201.64 316.46L203 318V323H199C198.45 323 198 323.45 198 324C198 324.55 198.45 325 199 325H209C209.32 325 209.59 324.84 209.78 324.6L211.08 325.9C211.47 326.29 212.1 326.29 212.49 325.9C212.88 325.51 212.88 324.88 212.49 324.49ZM205 323V319.83L208.17 323H205ZM199.83 309L197.83 307H211.55C212.35 307 213 307.65 213 308.45C213 308.8 212.87 309.15 212.63 309.41L206.8 315.97L201.83 311H208.57L210.35 309H199.83Z" fill="#323232"/>
</g>
<g clip-path="url(#clip43_17_18227)">
<path d="M251.16 307.16C250.77 306.77 250.14 306.77 249.75 307.16C249.36 307.55 249.36 308.18 249.75 308.57L254.35 313.17L254.14 313.4H251.6C250.72 313.4 250 314.12 250 315V324.4C250 325.28 250.72 326 251.6 326H264.4C265.15 326 265.78 325.48 265.95 324.78L267.42 326.25C267.81 326.64 268.44 326.64 268.83 326.25C269.22 325.86 269.22 325.23 268.83 324.84L251.16 307.16ZM258 324C255.79 324 254 322.21 254 320C254 318.05 255.4 316.43 257.25 316.08L258.82 317.65C258.56 317.56 258.29 317.5 258 317.5C256.62 317.5 255.5 318.62 255.5 320C255.5 321.38 256.62 322.5 258 322.5C259.38 322.5 260.5 321.38 260.5 320C260.5 319.71 260.44 319.44 260.35 319.18L261.92 320.75C261.57 322.6 259.95 324 258 324ZM266 319.17L258.83 312H259.7C260.26 312 260.8 312.24 261.18 312.65L261.87 313.4H264.41C265.29 313.4 266.01 314.12 266.01 315V319.17H266ZM268.4 309.6H269.15C269.53 309.6 269.77 310.01 269.59 310.34L267 315V311H266.5C266.22 311 266 310.78 266 310.5V306.5C266 306.22 266.22 306 266.5 306H269.23C269.59 306 269.83 306.37 269.69 306.7L268.4 309.6Z" fill="#323232"/>
</g>
<g clip-path="url(#clip44_17_18227)">
<path d="M320 326C320 326.55 319.55 327 319 327H306C305.45 327 305 326.55 305 326C305 325.45 305.45 325 306 325H319C319.55 325 320 325.45 320 326ZM326.89 310.1C326.95 309.51 326.49 309 325.9 309H322V306C322 305.45 321.55 305 321 305C320.45 305 320 305.45 320 306V309H316.1C315.51 309 315.05 309.51 315.1 310.1L315.34 312.51L322 319.17L325.62 322.79L326.89 310.1ZM325.19 326.61C325.58 326.22 325.58 325.59 325.19 325.2L316 316L313.01 313.01L306.81 306.81C306.42 306.42 305.79 306.42 305.4 306.81C305 307.2 305 307.83 305.39 308.22L310.38 313.21C307.82 313.75 305.62 315.29 305.1 317.84C304.99 318.45 305.49 319 306.1 319H316.17L318.17 321H306C305.45 321 305 321.45 305 322C305 322.55 305.45 323 306 323H319C319.32 323 319.59 322.84 319.78 322.6L323.78 326.6C324.17 327 324.8 327 325.19 326.61Z" fill="#323232"/>
</g>
<g clip-path="url(#clip45_17_18227)">
<path d="M374 310H377V317.88L379 319.88V309C379 308.45 378.55 308 378 308H374C374 307.45 373.55 307 373 307H366.12L374 314.88V310ZM381.17 324.88L372 315.71V317H370V315H371.29L363.12 306.83C362.73 306.44 362.1 306.44 361.71 306.83C361.32 307.22 361.32 307.85 361.71 308.24L365 311.54V323H364C363.45 323 363 323.45 363 324C363 324.55 363.45 325 364 325H373C373.55 325 374 324.55 374 324V320.54L379.75 326.29C380.14 326.68 380.77 326.68 381.16 326.29C381.56 325.9 381.56 325.27 381.17 324.88Z" fill="#323232"/>
</g>
<g clip-path="url(#clip46_17_18227)">
<path d="M426.94 312.12L423.48 308.66L424.4 307.65C424.78 307.24 425.32 307 425.88 307H430.12C430.68 307 431.22 307.24 431.59 307.65L432.83 309H436C437.1 309 438 309.9 438 311V323C438 323.05 437.99 323.1 437.98 323.16L432.88 318.06C432.96 317.71 433 317.36 433 317C433 314.24 430.76 312 428 312C427.64 312 427.29 312.04 426.94 312.12ZM435.78 326.61L434.17 325H420C418.9 325 418 324.1 418 323V311C418 310.41 418.27 309.88 418.68 309.51L417.39 308.22C417 307.83 417 307.2 417.39 306.81C417.78 306.42 418.41 306.42 418.8 306.81L437.18 325.19C437.57 325.58 437.57 326.21 437.18 326.6C436.8 327 436.17 327 435.78 326.61ZM430.49 321.32L428.99 319.82C428.67 319.92 428.35 320 428 320C426.34 320 425 318.66 425 317C425 316.65 425.08 316.33 425.19 316.02L423.69 314.52C423.25 315.24 423 316.09 423 317C423 319.76 425.24 322 428 322C428.91 322 429.76 321.75 430.49 321.32Z" fill="#323232"/>
</g>
<g clip-path="url(#clip47_17_18227)">
<path d="M480 324C480 325.1 479.1 326 478 326C476.9 326 476 325.1 476 324C476 322.9 476.9 322 478 322C479.1 322 480 322.9 480 324ZM486.3 308.1C485.03 307.4 483.56 307 482 307C480.77 307 479.61 307.26 478.54 307.71L482.91 312.08L486.3 308.1ZM492.49 325.9C492.88 325.51 492.88 324.88 492.49 324.49L482.67 314.67L475.51 307.51C475.12 307.12 474.49 307.12 474.1 307.51C473.71 307.9 473.71 308.53 474.1 308.92L481.36 316.18L478.7 319.3C478.15 319.95 478.61 320.95 479.46 320.95H486.12L487.29 322.12C486.41 322.45 485.82 323.37 486.03 324.4C486.18 325.16 486.81 325.79 487.57 325.94C488.6 326.15 489.52 325.56 489.85 324.68L491.05 325.88C491.46 326.29 492.09 326.29 492.49 325.9ZM489 310.27C489.58 309.59 489.97 309 490.65 309C491.33 309 491.87 309.52 491.98 310.21C492.08 310.66 492.48 311 492.96 311C493.51 311 493.96 310.55 493.96 310C493.96 309.94 493.96 309.89 493.95 309.84V309.83C493.65 308.22 492.3 307 490.65 307C488.99 307 488.11 308.27 487.47 309.03L483.97 313.14L489 318.17V310.27Z" fill="#323232"/>
</g>
<g clip-path="url(#clip48_17_18227)">
<path d="M534.11 309.56C535.3 309.7 536.14 310.14 537 311L538 312L534.75 315.25C535.06 315.37 535.31 315.52 535.52 315.64C535.89 315.87 536.11 316 536.67 316C537.23 316 537.45 315.87 537.82 315.64C538.28 315.37 538.9 315 540.01 315C541.12 315 541.74 315.37 542.19 315.64C542.56 315.86 542.79 316 543.34 316C543.89 316 544.12 315.87 544.49 315.64C544.61 315.57 544.75 315.49 544.9 315.41L538.48 309C537.22 307.74 536.04 307.2 534.3 307.05C533.6 306.99 533 307.56 533 308.26V308.35C533 308.98 533.49 309.48 534.11 309.56ZM549.35 322.91C549.18 322.85 549.03 322.76 548.85 322.64C548.4 322.37 547.78 322 546.67 322C545.56 322 544.94 322.37 544.49 322.64C544.12 322.87 543.89 323 543.34 323C542.79 323 542.56 322.86 542.19 322.64C541.74 322.37 541.12 322 540.01 322C538.9 322 538.28 322.37 537.82 322.64C537.45 322.87 537.23 323 536.67 323C536.11 323 535.89 322.87 535.52 322.64C535.07 322.37 534.45 322 533.34 322C532.23 322 531.61 322.37 531.15 322.64C530.97 322.75 530.82 322.84 530.65 322.91C530.27 323.04 530 323.36 530 323.76V323.88C530 324.55 530.66 325.01 531.3 324.79C531.67 324.66 531.95 324.49 532.19 324.35C532.56 324.13 532.79 324 533.34 324C533.89 324 534.12 324.13 534.49 324.36C534.94 324.63 535.56 325 536.67 325C537.78 325 538.4 324.63 538.86 324.36C539.23 324.13 539.45 324 540.01 324C540.56 324 540.79 324.14 541.16 324.36C541.61 324.63 542.23 325 543.34 325C544.45 325 545.06 324.63 545.52 324.36C545.89 324.13 546.11 324 546.67 324C547.22 324 547.45 324.14 547.82 324.36C548.05 324.5 548.33 324.67 548.7 324.8C549.33 325.02 550 324.56 550 323.89V323.77C550 323.36 549.73 323.04 549.35 322.91ZM531.11 320.35C531.58 320.22 531.92 320.02 532.2 319.86C532.57 319.63 532.8 319.5 533.35 319.5C533.9 319.5 534.13 319.64 534.5 319.86C534.95 320.13 535.57 320.5 536.68 320.5C537.79 320.5 538.41 320.13 538.86 319.86C539.23 319.63 539.45 319.5 540.01 319.5C540.56 319.5 540.79 319.64 541.16 319.86C541.61 320.13 542.23 320.5 543.34 320.5C544.45 320.5 545.07 320.13 545.52 319.86C545.89 319.63 546.11 319.5 546.67 319.5C547.22 319.5 547.45 319.64 547.82 319.86C548.05 320 548.32 320.16 548.67 320.29C549.3 320.52 549.98 320.05 549.98 319.38V319.26C549.98 318.86 549.71 318.54 549.34 318.4C549.17 318.34 549.02 318.25 548.83 318.14C548.38 317.87 547.76 317.5 546.65 317.5C545.54 317.5 544.92 317.87 544.47 318.14C544.1 318.37 543.87 318.5 543.32 318.5C542.77 318.5 542.54 318.36 542.17 318.14C541.72 317.87 541.1 317.5 539.99 317.5C538.88 317.5 538.26 317.87 537.81 318.14C537.44 318.37 537.22 318.5 536.66 318.5C536.11 318.5 535.88 318.36 535.51 318.14C535.06 317.87 534.44 317.5 533.33 317.5C532.22 317.5 531.6 317.87 531.15 318.14C530.97 318.25 530.82 318.34 530.65 318.41C530.27 318.54 530 318.86 530 319.26V319.49C530 320.07 530.55 320.51 531.11 320.35Z" fill="#323232"/>
<path d="M544.5 312C545.881 312 547 310.881 547 309.5C547 308.119 545.881 307 544.5 307C543.119 307 542 308.119 542 309.5C542 310.881 543.119 312 544.5 312Z" fill="#323232"/>
</g>
<g clip-path="url(#clip49_17_18227)">
<path d="M606 316C606 310.52 601.6 306.07 596.14 306C592.52 305.95 589.29 308.03 587.43 311.14C584.1 316.69 586.98 322.27 592 324.25V324.5C592 325.33 592.67 326 593.5 326H598.5C599.33 326 600 325.33 600 324.5V324.25C603.53 322.86 606 319.69 606 316ZM604 316H600V309.08C602.39 310.47 604 313.05 604 316ZM598 308.26V316H594V308.26C594.64 308.1 595.31 308 596 308C596.69 308 597.36 308.1 598 308.26ZM588 316C588 313.05 589.61 310.47 592 309.08V316H588Z" fill="#323232"/>
</g>
<g clip-path="url(#clip50_17_18227)">
<path d="M93.0001 378H91.0001V376H93.0001V378ZM89.0001 375V379C89.0001 379.55 89.4501 380 90.0001 380H94.0001C94.5501 380 95.0001 379.55 95.0001 379V375C95.0001 374.45 94.5501 374 94.0001 374H90.0001C89.4501 374 89.0001 374.45 89.0001 375ZM99.0001 369.3V365C99.0001 364.45 98.5501 364 98.0001 364H97.0001C96.4501 364 96.0001 364.45 96.0001 365V366.6L92.6701 363.6C92.2901 363.26 91.7101 363.26 91.3301 363.6L82.9701 371.13C82.6301 371.43 82.8401 372 83.3001 372H84.6101C84.8601 372 85.1001 371.91 85.2801 371.74L92.0001 365.69L98.7101 371.74C98.9001 371.91 99.1401 372 99.3801 372H100.69C101.15 372 101.37 371.43 101.02 371.13L99.0001 369.3Z" fill="#323232"/>
</g>
<g clip-path="url(#clip51_17_18227)">
<path d="M157.75 377C157.75 376.78 157.72 376.58 157.69 376.37L158.53 375.64C158.71 375.48 158.75 375.22 158.63 375.01L158.04 373.99C157.92 373.78 157.67 373.69 157.45 373.77L156.39 374.13C156.07 373.86 155.71 373.65 155.31 373.5L155.09 372.41C155.04 372.18 154.84 372.01 154.6 372.01H153.42C153.18 372.01 152.98 372.18 152.93 372.41L152.71 373.5C152.31 373.65 151.95 373.86 151.63 374.13L150.57 373.77C150.34 373.69 150.1 373.79 149.98 373.99L149.39 375.01C149.27 375.22 149.31 375.48 149.49 375.64L150.33 376.37C150.3 376.58 150.27 376.78 150.27 377C150.27 377.22 150.3 377.42 150.33 377.63L149.49 378.36C149.31 378.52 149.27 378.78 149.39 378.99L149.98 380.01C150.1 380.22 150.35 380.31 150.57 380.23L151.63 379.87C151.95 380.14 152.31 380.35 152.71 380.5L152.93 381.59C152.98 381.82 153.18 381.99 153.42 381.99H154.6C154.84 381.99 155.04 381.82 155.09 381.59L155.31 380.5C155.71 380.35 156.07 380.14 156.39 379.87L157.45 380.23C157.68 380.31 157.92 380.21 158.04 380.01L158.63 378.99C158.75 378.78 158.71 378.52 158.53 378.36L157.69 377.63C157.72 377.42 157.75 377.22 157.75 377ZM154 379C152.9 379 152 378.1 152 377C152 375.9 152.9 375 154 375C155.1 375 156 375.9 156 377C156 378.1 155.1 379 154 379ZM150 371.26V366H153V370H155V365C155 364.45 154.55 364 154 364H150C150 363.45 149.55 363 149 363H142C141.45 363 141 363.45 141 364V379H140C139.45 379 139 379.45 139 380C139 380.55 139.45 381 140 381H148.26C147.47 379.87 147 378.49 147 377C147 374.62 148.19 372.53 150 371.26ZM146 372C146 371.45 146.45 371 147 371C147.55 371 148 371.45 148 372C148 372.55 147.55 373 147 373C146.45 373 146 372.55 146 372Z" fill="#323232"/>
</g>
<g clip-path="url(#clip52_17_18227)">
<path d="M195 377H213C213.55 377 214 377.45 214 378C214 378.55 213.55 379 213 379H195C194.45 379 194 378.55 194 378C194 377.45 194.45 377 195 377ZM205.84 367.79C205.94 367.55 206 367.28 206 367C206 365.9 205.1 365 204 365C202.9 365 202 365.9 202 367C202 367.28 202.06 367.55 202.16 367.79C198.25 368.6 195.27 371.93 195 376H213C212.73 371.93 209.75 368.6 205.84 367.79Z" fill="#323232"/>
</g>
<g clip-path="url(#clip53_17_18227)">
<path d="M269 377H268V371C268 369.9 267.1 369 266 369H255V368.26C255 367.8 254.44 367.56 254.11 367.89L252.37 369.63C252.17 369.83 252.17 370.16 252.37 370.37L254.11 372.11C254.44 372.44 255 372.21 255 371.74V371H259V374H253C252.45 374 252 374.45 252 375V377C252 378.1 252.9 379 254 379H256C256 380.66 257.34 382 259 382C260.66 382 262 380.66 262 379H269C269.55 379 270 378.55 270 378C270 377.45 269.55 377 269 377ZM259 380C258.45 380 258 379.55 258 379C258 378.45 258.45 378 259 378C259.55 378 260 378.45 260 379C260 379.55 259.55 380 259 380ZM266 374H262V371H265C265.55 371 266 371.45 266 372V374ZM258 366H265V366.74C265 367.2 265.56 367.44 265.89 367.11L267.63 365.37C267.83 365.17 267.83 364.84 267.63 364.63L265.89 362.89C265.56 362.56 265 362.79 265 363.26V364H258C257.45 364 257 364.45 257 365C257 365.55 257.45 366 258 366Z" fill="#323232"/>
</g>
<g clip-path="url(#clip54_17_18227)">
<path d="M324.5 373H326V376H324.5V373ZM322 373H323.5V376H322V373ZM321 374.5C321 373.67 320.33 373 319.5 373H318.66L320.84 375.18C320.94 374.97 321 374.74 321 374.5ZM322.96 362.35H323H322.96ZM322.85 364.73C323.23 364.35 323.52 363.89 323.69 363.38C323.85 362.88 323.5 362.37 322.98 362.36C322.64 362.37 322.37 362.61 322.26 362.94C322.08 363.49 321.64 363.93 321.09 364.11C320.75 364.22 320.5 364.5 320.5 364.85V365C320.5 365.37 320.77 365.69 321.14 365.75C323.07 366.06 324.5 367.75 324.5 369.77V371.25C324.5 371.66 324.84 372 325.25 372C325.66 372 326 371.66 326 371.25V369.76C326 367.54 324.72 365.62 322.85 364.73ZM318.61 368.65H320.03C321.08 368.65 322 369.39 322 370.7V371.25C322 371.66 322.33 372 322.75 372H322.76C323.17 372 323.51 371.67 323.51 371.25V370.36C323.51 368.55 321.91 367.2 320.04 367.2H318.74C317.72 367.2 316.8 366.47 316.67 365.45C316.55 364.5 317.13 363.75 317.97 363.52C318.29 363.43 318.51 363.14 318.51 362.8C318.51 362.31 318.05 361.94 317.58 362.08C316.16 362.49 315.13 363.81 315.16 365.36C315.18 367.21 316.77 368.65 318.61 368.65ZM308.12 365.29C307.73 364.9 307.1 364.9 306.71 365.29C306.32 365.68 306.32 366.31 306.71 366.7L313 373H307.5C306.67 373 306 373.67 306 374.5C306 375.33 306.67 376 307.5 376H316L322.29 382.29C322.68 382.68 323.31 382.68 323.7 382.29C324.09 381.9 324.09 381.27 323.7 380.88L308.12 365.29Z" fill="#323232"/>
</g>
<g clip-path="url(#clip55_17_18227)">
<path d="M375.5 376H363.5C362.67 376 362 376.67 362 377.5C362 378.33 362.67 379 363.5 379H375.5C376.33 379 377 378.33 377 377.5C377 376.67 376.33 376 375.5 376ZM378.85 367.73C379.47 367.12 379.85 366.28 379.85 365.35C379.85 363.84 378.85 362.56 377.47 362.14C376.99 362 376.5 362.36 376.5 362.86C376.5 363.19 376.71 363.48 377.02 363.57C377.79 363.8 378.35 364.51 378.35 365.35C378.35 366.17 377.82 366.86 377.08 367.11C376.75 367.22 376.5 367.5 376.5 367.85V368C376.5 368.37 376.77 368.69 377.14 368.75C379.07 369.06 380.5 370.75 380.5 372.77V374.25C380.5 374.66 380.84 375 381.25 375C381.66 375 382 374.66 382 374.25V372.76C382 370.54 380.72 368.62 378.85 367.73ZM376.03 370.2H374.73C373.71 370.2 372.79 369.47 372.66 368.45C372.54 367.5 373.12 366.75 373.96 366.52C374.28 366.43 374.5 366.14 374.5 365.8C374.5 365.31 374.04 364.94 373.57 365.08C372.15 365.49 371.12 366.81 371.15 368.36C371.18 370.2 372.77 371.65 374.61 371.65H376.03C377.08 371.65 378 372.39 378 373.7V374.25C378 374.66 378.33 375 378.75 375H378.76C379.17 375 379.51 374.67 379.51 374.25V373.36C379.5 371.55 377.9 370.2 376.03 370.2ZM378 376H379.5V379H378V376ZM380.5 376H382V379H380.5V376Z" fill="#323232"/>
</g>
<g clip-path="url(#clip56_17_18227)">
<path d="M430.25 366C430.66 366 431 366.34 431 366.75C431 367.16 430.66 367.5 430.25 367.5C429.84 367.5 429.5 367.16 429.5 366.75C429.5 366.34 429.84 366 430.25 366ZM430.25 364.5C429.01 364.5 428 365.51 428 366.75C428 367.99 429.01 369 430.25 369C431.49 369 432.5 367.99 432.5 366.75C432.5 365.51 431.49 364.5 430.25 364.5ZM436 365.5C436.28 365.5 436.5 365.72 436.5 366C436.5 366.28 436.28 366.5 436 366.5C435.72 366.5 435.5 366.28 435.5 366C435.5 365.72 435.72 365.5 436 365.5ZM436 364C434.9 364 434 364.9 434 366C434 367.1 434.9 368 436 368C437.1 368 438 367.1 438 366C438 364.9 437.1 364 436 364ZM434 362.5C434 363.33 433.33 364 432.5 364C431.67 364 431 363.33 431 362.5C431 361.67 431.67 361 432.5 361C433.33 361 434 361.67 434 362.5ZM417.94 371.79C417.34 372.35 417 373.14 417 373.97V380C417 381.66 418.34 383 420 383H433.68C434.33 383 434.93 382.53 435 381.88C435.08 381.13 434.49 380.5 433.76 380.5H428.5C428.22 380.5 428 380.28 428 380C428 379.72 428.22 379.5 428.5 379.5H435.68C436.33 379.5 436.93 379.03 437 378.38C437.08 377.63 436.49 377 435.76 377H428.5C428.22 377 428 376.78 428 376.5C428 376.22 428.22 376 428.5 376H436.68C437.33 376 437.93 375.53 438 374.88C438.08 374.13 437.49 373.5 436.76 373.5H428.5C428.22 373.5 428 373.28 428 373C428 372.72 428.22 372.5 428.5 372.5H434.68C435.33 372.5 435.93 372.03 436 371.38C436.08 370.63 435.49 370 434.76 370H424.86L426.35 367.39C426.44 367.23 426.49 367.06 426.49 366.86C426.49 366.6 426.4 366.36 426.23 366.16L425.81 365.71C425.43 365.32 424.8 365.3 424.4 365.68L417.94 371.79Z" fill="#323232"/>
</g>
<g clip-path="url(#clip57_17_18227)">
<path d="M487.49 369.63C487.33 367.21 486.46 364.84 484.85 362.87C484.44 362.37 483.69 362.37 483.28 362.87C481.63 364.85 480.71 367.22 480.51 369.63C481.79 370.31 482.97 371.19 484 372.26C485.03 371.2 486.21 370.32 487.49 369.63ZM480.99 372.28C480.85 372.18 480.69 372.09 480.54 371.99C480.69 372.1 480.85 372.18 480.99 372.28ZM487.41 372.03C487.28 372.12 487.14 372.19 487.01 372.29C487.14 372.19 487.28 372.12 487.41 372.03ZM484 375.45C482.05 372.48 478.86 370.42 475.17 370.06C474.53 370 474 370.53 474.06 371.17C474.51 375.97 477.71 379.95 482.04 381.5C482.67 381.73 483.33 381.9 484.01 382.01C484.69 381.89 485.34 381.72 485.98 381.5C490.31 379.95 493.51 375.98 493.96 371.17C494.02 370.53 493.48 370 492.85 370.06C489.14 370.42 485.95 372.48 484 375.45Z" fill="#323232"/>
</g>
<g clip-path="url(#clip58_17_18227)">
<path d="M547 369H545.44C545.77 368.45 545.97 367.82 545.99 367.14C546.03 366.11 545.56 365.15 544.83 364.43C543.29 362.89 542.09 362.87 541.01 363.14C540.2 362.45 539.16 362.02 538 362.02C536.11 362.02 534.49 363.13 533.73 364.73C532.15 365.26 531 366.74 531 368.5C531 370.36 532.28 371.91 534 372.36V379C534 380.1 534.9 381 536 381H543C544.1 381 545 380.1 545 379H547C548.1 379 549 378.1 549 377V371C549 369.9 548.1 369 547 369ZM535 370.5C533.9 370.5 533 369.6 533 368.5C533 367.65 533.55 366.9 534.37 366.62L535.17 366.35L535.53 365.59C536 364.62 536.94 364.02 538 364.02C538.79 364.02 539.39 364.37 539.74 364.67L540.52 365.32C540.52 365.32 541.16 365 541.99 365C543.09 365 543.99 365.9 543.99 367H540.99C537.67 367 537.15 370.5 535 370.5ZM547 377H545V371H547V377Z" fill="#323232"/>
</g>
<g clip-path="url(#clip59_17_18227)">
<path d="M603 363H589C587.9 363 587 363.9 587 365V379C587 380.1 587.9 381 589 381H603C604.1 381 605 380.1 605 379V365C605 363.9 604.1 363 603 363ZM601 368H599.58V371.33H597V374.66H594.42L594.45 378H591C590.45 378 590 377.55 590 377C590 376.45 590.45 376 591 376H592.42V372.67H595V369.33H597.58V366H601C601.55 366 602 366.45 602 367C602 367.55 601.55 368 601 368Z" fill="#323232"/>
</g>
<g clip-path="url(#clip60_17_18227)">
<path d="M101.9 424.89L100.85 420.52C100.63 419.62 99.85 419 98.94 419H96.73H94.72H93H91H89.28H87.26H85.05C84.15 419 83.36 419.63 83.15 420.52L82.1 424.89C81.86 425.91 82.08 426.95 82.72 427.77C82.8 427.88 82.91 427.96 83 428.06V435C83 436.1 83.9 437 85 437H99C100.1 437 101 436.1 101 435V428.06C101.09 427.97 101.2 427.88 101.28 427.78C101.92 426.96 102.15 425.91 101.9 424.89ZM87.02 421L86.44 425.86C86.36 426.51 85.84 427 85.23 427C84.74 427 84.43 426.71 84.3 426.53C84.04 426.2 83.95 425.77 84.05 425.36L85.05 421H87.02ZM98.91 420.99L99.96 425.36C100.06 425.78 99.97 426.2 99.71 426.53C99.57 426.71 99.27 427 98.77 427C98.16 427 97.63 426.51 97.56 425.86L96.98 421L98.91 420.99ZM95.51 425.52C95.56 425.91 95.44 426.3 95.18 426.59C94.95 426.85 94.63 427 94.22 427C93.55 427 93 426.41 93 425.69V421H94.96L95.51 425.52ZM91 425.69C91 426.41 90.45 427 89.71 427C89.37 427 89.06 426.85 88.82 426.59C88.57 426.3 88.45 425.91 88.49 425.52L89.04 421H91V425.69ZM98 435H86C85.45 435 85 434.55 85 434V428.97C85.08 428.98 85.15 429 85.23 429C86.1 429 86.89 428.64 87.47 428.05C88.07 428.65 88.87 429 89.78 429C90.65 429 91.43 428.64 92.01 428.07C92.6 428.64 93.4 429 94.3 429C95.14 429 95.94 428.65 96.54 428.05C97.12 428.64 97.91 429 98.78 429C98.86 429 98.93 428.98 99.01 428.97V434C99 434.55 98.55 435 98 435Z" fill="#323232"/>
</g>
<g clip-path="url(#clip61_17_18227)">
<path d="M154 436C154 437.1 153.1 438 152 438C150.9 438 150 437.1 150 436C150 434.9 150.9 434 152 434C153.1 434 154 434.9 154 436ZM142 434C140.9 434 140 434.9 140 436C140 437.1 140.9 438 142 438C143.1 438 144 437.1 144 436C144 434.9 143.1 434 142 434ZM150.3 420.1C149.03 419.4 147.56 419 146 419C144.49 419 143.07 419.38 141.83 420.03C141.24 420.34 141.15 421.15 141.61 421.61L145.6 425.6L150.3 420.1ZM157.94 421.83C157.65 420.22 156.3 419 154.65 419C152.99 419 152.11 420.27 151.47 421.03L142.71 431.31C142.16 431.96 142.62 432.96 143.47 432.96H151C152.1 432.96 153 432.06 153 430.96V422.27C153.58 421.59 153.97 421 154.65 421C155.33 421 155.87 421.52 155.98 422.21C156.08 422.66 156.48 423 156.96 423C157.51 423 157.96 422.55 157.96 422C157.96 421.94 157.95 421.89 157.94 421.83Z" fill="#323232"/>
</g>
<g clip-path="url(#clip62_17_18227)">
<path d="M214 426V418C214 417.45 213.55 417 213 417H207C206.45 417 206 417.45 206 418V426C206 427.86 207.28 429.41 209 429.86V437H208C207.45 437 207 437.45 207 438C207 438.55 207.45 439 208 439H212C212.55 439 213 438.55 213 438C213 437.45 212.55 437 212 437H211V429.86C212.72 429.41 214 427.86 214 426ZM212 419V422H208V419H212ZM201.86 425H200V424H201.86C203.17 424 204.36 423.06 204.49 421.76C204.64 420.26 203.47 419 202 419H200V418C200 417.45 199.55 417 199 417C198.45 417 198 417.45 198 418V419H196.14C194.83 419 193.64 419.94 193.51 421.24C193.36 422.74 194.53 424 196 424H198V425H196.14C194.83 425 193.64 425.94 193.51 427.24C193.36 428.74 194.53 430 196 430H198V438C198 438.55 198.45 439 199 439C199.55 439 200 438.55 200 438V430H202C203.47 430 204.64 428.74 204.49 427.24C204.36 425.94 203.17 425 201.86 425Z" fill="#323232"/>
</g>
<g clip-path="url(#clip63_17_18227)">
<path d="M263 420C263.55 420 264 420.45 264 421C264 421.55 263.55 422 263 422C262.45 422 262 421.55 262 421C262 420.45 262.45 420 263 420ZM262 423C262.55 423 263 423.45 263 424C263 424.55 262.55 425 262 425C261.45 425 261 424.55 261 424C261 423.45 261.45 423 262 423ZM260 420C260.55 420 261 420.45 261 421C261 421.55 260.55 422 260 422C259.45 422 259 421.55 259 421C259 420.45 259.45 420 260 420ZM265 425C264.45 425 264 424.55 264 424C264 423.45 264.45 423 265 423C265.55 423 266 423.45 266 424C266 424.55 265.55 425 265 425ZM266 422C265.45 422 265 421.55 265 421C265 420.45 265.45 420 266 420C266.55 420 267 420.45 267 421C267 421.55 266.55 422 266 422ZM268 425C267.45 425 267 424.55 267 424C267 423.45 267.45 423 268 423C268.55 423 269 423.45 269 424C269 424.55 268.55 425 268 425ZM269 422C268.45 422 268 421.55 268 421C268 420.45 268.45 420 269 420C269.55 420 270 420.45 270 421C270 421.55 269.55 422 269 422ZM262.62 430.38L260.1 432.9C257.6 431.47 255.53 429.4 254.1 426.9L256.62 424.38C256.86 424.14 256.96 423.8 256.9 423.48L256.16 419.8C256.07 419.34 255.66 419 255.18 419H251.03C250.47 419 250 419.47 250.03 420.03C250.2 422.92 251.05 425.63 252.43 428C254.01 430.73 256.28 432.99 259 434.57C261.37 435.94 264.08 436.8 266.97 436.97C267.53 437 268 436.53 268 435.97V431.82C268 431.34 267.66 430.93 267.2 430.84L263.53 430.11C263.2 430.04 262.86 430.14 262.62 430.38ZM263 426C263.55 426 264 426.45 264 427C264 427.55 263.55 428 263 428C262.45 428 262 427.55 262 427C262 426.45 262.45 426 263 426ZM260 426C260.55 426 261 426.45 261 427C261 427.55 260.55 428 260 428C259.45 428 259 427.55 259 427C259 426.45 259.45 426 260 426ZM266 428C265.45 428 265 427.55 265 427C265 426.45 265.45 426 266 426C266.55 426 267 426.45 267 427C267 427.55 266.55 428 266 428ZM269 428C268.45 428 268 427.55 268 427C268 426.45 268.45 426 269 426C269.55 426 270 426.45 270 427C270 427.55 269.55 428 269 428Z" fill="#323232"/>
</g>
<g clip-path="url(#clip64_17_18227)">
<path d="M321.12 422.28L318.5 422.92L317 421.77V419.88V419.4C317 419.14 317.22 418.92 317.5 418.92C317.73 418.92 317.93 419.08 317.99 419.28C318.1 419.7 318.49 420 318.94 420C319.49 420 319.94 419.55 319.94 419C319.94 418.9 319.92 418.8 319.89 418.7C319.59 417.72 318.63 417 317.5 417C316.12 417 315 418.07 315 419.4V419.88V421.77L313.5 422.92L310.88 422.28C310.5 422.19 310.16 422.55 310.28 422.92L315.05 437.31C315.2 437.77 315.6 438 316 438C316.4 438 316.8 437.77 316.95 437.31L321.72 422.92C321.84 422.55 321.5 422.19 321.12 422.28ZM315 430.8L313.03 424.86L313.95 425.09L314.71 424.51L315 424.29V430.8ZM317 430.8V424.29L317.28 424.51L318.04 425.09L318.96 424.86L317 430.8Z" fill="#323232"/>
</g>
<g clip-path="url(#clip65_17_18227)">
<path d="M361.94 427.79C361.34 428.35 361 429.14 361 429.97V436C361 437.66 362.34 439 364 439H377.68C378.33 439 378.93 438.53 379 437.88C379.08 437.13 378.49 436.5 377.76 436.5H372.5C372.22 436.5 372 436.28 372 436C372 435.72 372.22 435.5 372.5 435.5H379.68C380.33 435.5 380.93 435.03 381 434.38C381.08 433.63 380.49 433 379.76 433H372.5C372.22 433 372 432.78 372 432.5C372 432.22 372.22 432 372.5 432H380.68C381.33 432 381.93 431.53 382 430.88C382.08 430.13 381.49 429.5 380.76 429.5H372.5C372.22 429.5 372 429.28 372 429C372 428.72 372.22 428.5 372.5 428.5H378.68C379.33 428.5 379.93 428.03 380 427.38C380.08 426.63 379.49 426 378.76 426H368.86L370.35 423.39C370.44 423.23 370.49 423.06 370.49 422.86C370.49 422.6 370.4 422.36 370.23 422.16L369.81 421.71C369.43 421.32 368.8 421.3 368.4 421.68L361.94 427.79ZM378.5 424C379.88 424 381 422.88 381 421.5C381 420.25 379.59 418.34 378.89 417.46C378.69 417.21 378.32 417.21 378.12 417.46C377.41 418.34 376 420.25 376 421.5C376 422.88 377.12 424 378.5 424ZM373.5 425C374.33 425 375 424.33 375 423.5C375 422.94 374.33 422.01 373.89 421.46C373.69 421.21 373.31 421.21 373.12 421.46C372.67 422.01 372 422.94 372 423.5C372 424.33 372.67 425 373.5 425Z" fill="#323232"/>
</g>
<g clip-path="url(#clip66_17_18227)">
<path d="M427.33 419.6L418.97 427.13C418.63 427.43 418.84 428 419.3 428H421V435C421 435.55 421.45 436 422 436H434C434.55 436 435 435.55 435 435V428H436.7C437.16 428 437.38 427.43 437.03 427.13L428.67 419.6C428.29 419.26 427.71 419.26 427.33 419.6ZM428 432C426.9 432 426 431.1 426 430C426 429.22 426.99 427.56 427.58 426.64C427.78 426.33 428.22 426.33 428.42 426.64C429.01 427.56 430 429.22 430 430C430 431.1 429.1 432 428 432Z" fill="#323232"/>
</g>
<g clip-path="url(#clip67_17_18227)">
<path d="M476.5 420C476.5 418.89 477.39 418 478.5 418C479.61 418 480.5 418.89 480.5 420C480.5 421.11 479.61 422 478.5 422C477.39 422 476.5 421.11 476.5 420ZM482 426.95V425C482 423.9 481.1 423 480 423H477C475.9 423 475 423.9 475 425V430C475 430.55 475.45 431 476 431H477V437C477 437.55 477.45 438 478 438H480.5V437.89C479.26 436.63 478.5 434.9 478.5 433C478.5 430.42 479.91 428.16 482 426.95ZM488.5 433C488.5 434.65 487.15 436 485.5 436C483.85 436 482.5 434.65 482.5 433C482.5 431.89 483.11 430.94 484 430.42V428.26C481.98 428.9 480.5 430.77 480.5 433C480.5 435.76 482.74 438 485.5 438C488.26 438 490.5 435.76 490.5 433H488.5ZM491 430H487V425C487 424.45 486.55 424 486 424C485.45 424 485 424.45 485 425V431C485 431.55 485.45 432 486 432H490.46L492.38 434.88C492.69 435.34 493.31 435.46 493.77 435.16C494.23 434.85 494.35 434.23 494.05 433.77L491.84 430.45C491.65 430.17 491.33 430 491 430Z" fill="#323232"/>
</g>
<defs>
<clipPath id="clip0_17_18227">
<rect width="24" height="24" fill="white" transform="translate(80 80)"/>
</clipPath>
<clipPath id="clip1_17_18227">
<rect width="24" height="24" fill="white" transform="translate(136 80)"/>
</clipPath>
<clipPath id="clip2_17_18227">
<rect width="24" height="24" fill="white" transform="translate(192 80)"/>
</clipPath>
<clipPath id="clip3_17_18227">
<rect width="24" height="24" fill="white" transform="translate(248 80)"/>
</clipPath>
<clipPath id="clip4_17_18227">
<rect width="24" height="24" fill="white" transform="translate(304 80)"/>
</clipPath>
<clipPath id="clip5_17_18227">
<rect width="24" height="24" fill="white" transform="translate(360 80)"/>
</clipPath>
<clipPath id="clip6_17_18227">
<rect width="24" height="24" fill="white" transform="translate(416 80)"/>
</clipPath>
<clipPath id="clip7_17_18227">
<rect width="24" height="24" fill="white" transform="translate(472 80)"/>
</clipPath>
<clipPath id="clip8_17_18227">
<rect width="24" height="24" fill="white" transform="translate(528 80)"/>
</clipPath>
<clipPath id="clip9_17_18227">
<rect width="24" height="24" fill="white" transform="translate(584 80)"/>
</clipPath>
<clipPath id="clip10_17_18227">
<rect width="24" height="24" fill="white" transform="translate(80 136)"/>
</clipPath>
<clipPath id="clip11_17_18227">
<rect width="24" height="24" fill="white" transform="translate(136 136)"/>
</clipPath>
<clipPath id="clip12_17_18227">
<rect width="24" height="24" fill="white" transform="translate(192 136)"/>
</clipPath>
<clipPath id="clip13_17_18227">
<rect width="24" height="24" fill="white" transform="translate(248 136)"/>
</clipPath>
<clipPath id="clip14_17_18227">
<rect width="24" height="24" fill="white" transform="translate(304 136)"/>
</clipPath>
<clipPath id="clip15_17_18227">
<rect width="24" height="24" fill="white" transform="translate(360 136)"/>
</clipPath>
<clipPath id="clip16_17_18227">
<rect width="24" height="24" fill="white" transform="translate(416 136)"/>
</clipPath>
<clipPath id="clip17_17_18227">
<rect width="24" height="24" fill="white" transform="translate(472 136)"/>
</clipPath>
<clipPath id="clip18_17_18227">
<rect width="24" height="24" fill="white" transform="translate(528 136)"/>
</clipPath>
<clipPath id="clip19_17_18227">
<rect width="24" height="24" fill="white" transform="translate(584 136)"/>
</clipPath>
<clipPath id="clip20_17_18227">
<rect width="24" height="24" fill="white" transform="translate(80 192)"/>
</clipPath>
<clipPath id="clip21_17_18227">
<rect width="24" height="24" fill="white" transform="translate(136 192)"/>
</clipPath>
<clipPath id="clip22_17_18227">
<rect width="24" height="24" fill="white" transform="translate(192 192)"/>
</clipPath>
<clipPath id="clip23_17_18227">
<rect width="24" height="24" fill="white" transform="translate(248 192)"/>
</clipPath>
<clipPath id="clip24_17_18227">
<rect width="24" height="24" fill="white" transform="translate(304 192)"/>
</clipPath>
<clipPath id="clip25_17_18227">
<rect width="24" height="24" fill="white" transform="translate(360 192)"/>
</clipPath>
<clipPath id="clip26_17_18227">
<rect width="24" height="24" fill="white" transform="translate(416 192)"/>
</clipPath>
<clipPath id="clip27_17_18227">
<rect width="24" height="24" fill="white" transform="translate(472 192)"/>
</clipPath>
<clipPath id="clip28_17_18227">
<rect width="24" height="24" fill="white" transform="translate(528 192)"/>
</clipPath>
<clipPath id="clip29_17_18227">
<rect width="24" height="24" fill="white" transform="translate(584 192)"/>
</clipPath>
<clipPath id="clip30_17_18227">
<rect width="24" height="24" fill="white" transform="translate(80 248)"/>
</clipPath>
<clipPath id="clip31_17_18227">
<rect width="24" height="24" fill="white" transform="translate(136 248)"/>
</clipPath>
<clipPath id="clip32_17_18227">
<rect width="24" height="24" fill="white" transform="translate(192 248)"/>
</clipPath>
<clipPath id="clip33_17_18227">
<rect width="24" height="24" fill="white" transform="translate(248 248)"/>
</clipPath>
<clipPath id="clip34_17_18227">
<rect width="24" height="24" fill="white" transform="translate(304 248)"/>
</clipPath>
<clipPath id="clip35_17_18227">
<rect width="24" height="24" fill="white" transform="translate(360 248)"/>
</clipPath>
<clipPath id="clip36_17_18227">
<rect width="24" height="24" fill="white" transform="translate(416 248)"/>
</clipPath>
<clipPath id="clip37_17_18227">
<rect width="24" height="24" fill="white" transform="translate(472 248)"/>
</clipPath>
<clipPath id="clip38_17_18227">
<rect width="24" height="24" fill="white" transform="translate(528 248)"/>
</clipPath>
<clipPath id="clip39_17_18227">
<rect width="24" height="24" fill="white" transform="translate(584 248)"/>
</clipPath>
<clipPath id="clip40_17_18227">
<rect width="24" height="24" fill="white" transform="translate(80 304)"/>
</clipPath>
<clipPath id="clip41_17_18227">
<rect width="24" height="24" fill="white" transform="translate(136 304)"/>
</clipPath>
<clipPath id="clip42_17_18227">
<rect width="24" height="24" fill="white" transform="translate(192 304)"/>
</clipPath>
<clipPath id="clip43_17_18227">
<rect width="24" height="24" fill="white" transform="translate(248 304)"/>
</clipPath>
<clipPath id="clip44_17_18227">
<rect width="24" height="24" fill="white" transform="translate(304 304)"/>
</clipPath>
<clipPath id="clip45_17_18227">
<rect width="24" height="24" fill="white" transform="translate(360 304)"/>
</clipPath>
<clipPath id="clip46_17_18227">
<rect width="24" height="24" fill="white" transform="translate(416 304)"/>
</clipPath>
<clipPath id="clip47_17_18227">
<rect width="24" height="24" fill="white" transform="translate(472 304)"/>
</clipPath>
<clipPath id="clip48_17_18227">
<rect width="24" height="24" fill="white" transform="translate(528 304)"/>
</clipPath>
<clipPath id="clip49_17_18227">
<rect width="24" height="24" fill="white" transform="translate(584 304)"/>
</clipPath>
<clipPath id="clip50_17_18227">
<rect width="24" height="24" fill="white" transform="translate(80 360)"/>
</clipPath>
<clipPath id="clip51_17_18227">
<rect width="24" height="24" fill="white" transform="translate(136 360)"/>
</clipPath>
<clipPath id="clip52_17_18227">
<rect width="24" height="24" fill="white" transform="translate(192 360)"/>
</clipPath>
<clipPath id="clip53_17_18227">
<rect width="24" height="24" fill="white" transform="translate(248 360)"/>
</clipPath>
<clipPath id="clip54_17_18227">
<rect width="24" height="24" fill="white" transform="translate(304 360)"/>
</clipPath>
<clipPath id="clip55_17_18227">
<rect width="24" height="24" fill="white" transform="translate(360 360)"/>
</clipPath>
<clipPath id="clip56_17_18227">
<rect width="24" height="24" fill="white" transform="translate(416 360)"/>
</clipPath>
<clipPath id="clip57_17_18227">
<rect width="24" height="24" fill="white" transform="translate(472 360)"/>
</clipPath>
<clipPath id="clip58_17_18227">
<rect width="24" height="24" fill="white" transform="translate(528 360)"/>
</clipPath>
<clipPath id="clip59_17_18227">
<rect width="24" height="24" fill="white" transform="translate(584 360)"/>
</clipPath>
<clipPath id="clip60_17_18227">
<rect width="24" height="24" fill="white" transform="translate(80 416)"/>
</clipPath>
<clipPath id="clip61_17_18227">
<rect width="24" height="24" fill="white" transform="translate(136 416)"/>
</clipPath>
<clipPath id="clip62_17_18227">
<rect width="24" height="24" fill="white" transform="translate(192 416)"/>
</clipPath>
<clipPath id="clip63_17_18227">
<rect width="24" height="24" fill="white" transform="translate(248 416)"/>
</clipPath>
<clipPath id="clip64_17_18227">
<rect width="24" height="24" fill="white" transform="translate(304 416)"/>
</clipPath>
<clipPath id="clip65_17_18227">
<rect width="24" height="24" fill="white" transform="translate(360 416)"/>
</clipPath>
<clipPath id="clip66_17_18227">
<rect width="24" height="24" fill="white" transform="translate(416 416)"/>
</clipPath>
<clipPath id="clip67_17_18227">
<rect width="24" height="24" fill="white" transform="translate(472 416)"/>
</clipPath>
</defs>
</svg>
