<svg width="688" height="688" viewBox="0 0 688 688" fill="none" xmlns="http://www.w3.org/2000/svg">
<rect x="0.5" y="0.5" width="687" height="687" rx="31.5" stroke="#CCCCCC"/>
<g clip-path="url(#clip0_17_18320)">
<path d="M86 86C87.1 86 88 85.1 88 84C88 82.9 87.1 82 86 82C84.9 82 84 82.9 84 84C84 85.1 84.9 86 86 86ZM90 89.43C90 88.62 89.52 87.9 88.78 87.58C87.93 87.21 86.99 87 86 87C85.01 87 84.07 87.21 83.22 87.58C82.48 87.9 82 88.62 82 89.43V90H90V89.43ZM98 86C99.1 86 100 85.1 100 84C100 82.9 99.1 82 98 82C96.9 82 96 82.9 96 84C96 85.1 96.9 86 98 86ZM102 89.43C102 88.62 101.52 87.9 100.78 87.58C99.93 87.21 98.99 87 98 87C97.01 87 96.07 87.21 95.22 87.58C94.48 87.9 94 88.62 94 89.43V90H102V89.43ZM101.65 94.35L99.86 96.14C99.54 96.46 99 96.24 99 95.79V94.99L85 95V95.79C85 96.24 84.46 96.46 84.15 96.14L82.36 94.35C82.16 94.15 82.16 93.84 82.36 93.64L84.15 91.85C84.46 91.54 85 91.76 85 92.21V93.01L99 93V92.21C99 91.76 99.54 91.54 99.85 91.86L101.64 93.65C101.84 93.84 101.84 94.16 101.65 94.35ZM90 98.5C90 98.22 89.78 98 89.5 98H87.5C87.22 98 87 98.22 87 98.5V101.5C87 101.78 87.22 102 87.5 102H89.5C89.78 102 90 101.78 90 101.5V100C90 99.72 89.78 99.5 89.5 99.5H88V99H89.5C89.78 99 90 98.78 90 98.5ZM89 100.5V101H88V100.5H89ZM97 99H96.5V101.5C96.5 101.78 96.28 102 96 102C95.72 102 95.5 101.78 95.5 101.5V99H95C94.72 99 94.5 98.78 94.5 98.5C94.5 98.22 94.72 98 95 98H97C97.28 98 97.5 98.22 97.5 98.5C97.5 98.78 97.28 99 97 99ZM94 98.5C94 98.78 93.78 99 93.5 99H92.5V99.5H93C93.28 99.5 93.5 99.72 93.5 100C93.5 100.28 93.28 100.5 93 100.5H92.5V101.5C92.5 101.78 92.28 102 92 102C91.72 102 91.5 101.78 91.5 101.5V98.5C91.5 98.22 91.72 98 92 98H93.5C93.78 98 94 98.22 94 98.5Z" fill="#323232"/>
</g>
<g clip-path="url(#clip1_17_18320)">
<path d="M142.36 98.78L142.61 101L144.23 99.46L147 91.86C146.32 91.69 145.72 91.35 145.23 90.88L142.36 98.78Z" fill="#323232"/>
<path d="M150.77 90.88C150.28 91.35 149.67 91.69 149 91.86L151.77 99.46L153.39 101L153.65 98.78L150.77 90.88Z" fill="#323232"/>
<path d="M150.94 88.6C151.24 87.04 150.34 85.66 149 85.18V84C149 83.45 148.55 83 148 83C147.45 83 147 83.45 147 84V85.18C145.84 85.6 145 86.7 145 88C145 89.84 146.66 91.3 148.56 90.95C149.74 90.73 150.71 89.78 150.94 88.6ZM148 89C147.45 89 147 88.55 147 88C147 87.45 147.45 87 148 87C148.55 87 149 87.45 149 88C149 88.55 148.55 89 148 89Z" fill="#323232"/>
</g>
<g clip-path="url(#clip2_17_18320)">
<path d="M204.68 85.88C205.38 85.64 205.9 84.98 205.98 84.24C206.03 83.77 205.93 83.33 205.7 82.97L204.42 80.75C204.23 80.42 203.75 80.42 203.55 80.75L202.27 82.97C202.1 83.27 202 83.62 202 84C202 85.32 203.3 86.35 204.68 85.88ZM208.53 95.92L207.53 94.92L206.45 95.99C205.15 97.29 202.87 97.3 201.56 95.99L200.49 94.92L199.4 95.99C198.75 96.64 197.88 97 196.96 97C196.23 97 195.56 96.77 195 96.39V100C195 101.1 195.9 102 197 102H211C212.1 102 213 101.1 213 100V96.39C212.25 96.9 211.29 97.14 210.26 96.91C209.6 96.77 209.01 96.4 208.53 95.92ZM210 89H205V88C205 87.45 204.55 87 204 87C203.45 87 203 87.45 203 88V89H198C196.34 89 195 90.34 195 92V93.46C195 94.31 195.5 95.13 196.31 95.4C197.04 95.64 197.83 95.46 198.34 94.94L200.48 92.81L202.61 94.94C203.37 95.7 204.62 95.7 205.38 94.94L207.52 92.81L209.65 94.94C210.08 95.37 210.68 95.57 211.3 95.49C212.29 95.36 212.99 94.43 212.99 93.43V92.01C213 90.34 211.66 89 210 89Z" fill="#323232"/>
</g>
<g clip-path="url(#clip3_17_18320)">
<path d="M262.99 87L264.36 86.37L264.99 85L265.62 86.37L266.99 87L265.62 87.63L264.99 89L264.36 87.63L262.99 87ZM268 94C269.1 94 270 93.1 270 92C270 91.22 269.01 89.56 268.42 88.64C268.22 88.33 267.78 88.33 267.58 88.64C266.99 89.56 266 91.22 266 92C266 93.1 266.9 94 268 94ZM257.24 89.5L263 91.65V91C263 88.58 261.28 86.56 259 86.1V84H261C261.35 84 261.68 84.06 262 84.18C262.37 84.31 262.78 84.23 263.05 83.96C263.56 83.45 263.39 82.57 262.72 82.32C262.19 82.11 261.61 82 261 82H256.5C255.95 82 255.5 82.45 255.5 83C255.5 83.55 255.95 84 256.5 84H257V86.11C255.22 86.48 253.8 87.79 253.25 89.5H257.24ZM251 91C249.9 91 249 91.9 249 93V100C249 101.1 249.9 102 251 102C252.1 102 253 101.1 253 100V93C253 91.9 252.1 91 251 91ZM267.99 97H261.16C261.05 97 260.94 96.98 260.83 96.94L259.36 96.43C259.1 96.34 258.97 96.06 259.06 95.8C259.15 95.54 259.44 95.4 259.7 95.5L260.82 95.93C260.93 95.97 261.06 96 261.18 96H263.81C264.46 96 264.99 95.47 264.99 94.82C264.99 94.33 264.68 93.89 264.22 93.71L257.3 91.13C257.08 91.04 256.84 91 256.6 91H255V100.02L261.37 101.83C261.78 101.95 262.22 101.93 262.62 101.78L270 99C270 97.89 269.1 97 267.99 97Z" fill="#323232"/>
</g>
<g clip-path="url(#clip4_17_18320)">
<path d="M311 84C311 82.89 310.11 82 309 82C307.89 82 307 82.89 307 84C307 85.11 307.89 86 309 86C310.11 86 311 85.11 311 84ZM314.19 84.5C313.78 84.5 313.43 84.75 313.27 85.13C312.83 86.23 311.76 87 310.5 87H307.5C306.67 87 306 87.67 306 88.5V91H312V88.74C313.43 88.29 314.58 87.21 315.12 85.83C315.38 85.19 314.88 84.5 314.19 84.5ZM323 97C324.11 97 325 96.11 325 95C325 93.89 324.11 93 323 93C321.89 93 321 93.89 321 95C321 96.11 321.89 97 323 97ZM324.5 98H321.5C320.24 98 319.17 97.23 318.73 96.13C318.58 95.75 318.22 95.5 317.81 95.5C317.12 95.5 316.62 96.19 316.87 96.83C317.42 98.21 318.56 99.29 319.99 99.74V102H325.99V99.5C326 98.67 325.33 98 324.5 98ZM321.25 91.09C321.25 91.09 321.25 91.08 321.26 91.09C320.2 91.36 319.36 92.2 319.09 93.26V93.25C318.98 93.68 318.58 94 318.11 94C317.56 94 317.11 93.55 317.11 93C317.11 92.95 317.13 92.86 317.13 92.86C317.56 91.01 319.02 89.55 320.88 89.13C320.92 89.13 320.96 89.12 321 89.12C321.55 89.12 322 89.57 322 90.12C322 90.58 321.68 90.98 321.25 91.09ZM322 86.06C322 86.57 321.63 86.98 321.14 87.05C317.95 87.44 315.44 89.96 315.05 93.15C314.98 93.63 314.56 94 314.06 94C313.51 94 313.06 93.55 313.06 93C313.06 92.98 313.06 92.96 313.06 92.94C313.06 92.93 313.06 92.92 313.06 92.91C313.56 88.79 316.85 85.53 320.98 85.06H320.99C321.55 85.06 322 85.51 322 86.06Z" fill="#323232"/>
</g>
<g clip-path="url(#clip5_17_18320)">
<path d="M380.99 97.99L376.05 93.05L373.93 95.17L378.87 100.11C379.46 100.7 380.41 100.7 380.99 100.11C381.57 99.52 381.57 98.57 380.99 97.99Z" fill="#323232"/>
<path d="M377.65 90C379.58 90 381.15 88.43 381.15 86.5C381.15 85.92 380.99 85.38 380.74 84.9L378.04 87.6L376.55 86.11L379.25 83.41C378.77 83.16 378.23 83 377.65 83C375.72 83 374.15 84.57 374.15 86.5C374.15 86.91 374.23 87.3 374.36 87.66L372.51 89.51L370.73 87.73C371.12 87.34 371.12 86.71 370.73 86.32L370.02 85.61L372.14 83.49C370.97 82.32 369.07 82.32 367.9 83.49L365.08 86.32C364.69 86.71 364.69 87.34 365.08 87.73L365.79 88.44H363.25C363.06 88.44 362.88 88.51 362.75 88.65C362.47 88.93 362.47 89.37 362.75 89.65L365.29 92.19C365.57 92.47 366.01 92.47 366.29 92.19C366.42 92.06 366.5 91.88 366.5 91.69V89.15L367.2 89.85C367.59 90.24 368.22 90.24 368.61 89.85L370.39 91.63L364.04 97.98C363.45 98.57 363.45 99.52 364.04 100.1C364.63 100.69 365.58 100.69 366.16 100.1L376.48 89.79C376.85 89.92 377.24 90 377.65 90Z" fill="#323232"/>
</g>
<g clip-path="url(#clip6_17_18320)">
<path d="M437.25 90.5C436.84 90.5 436.5 90.84 436.5 91.25H434.96C434.81 89.88 434.27 88.62 433.44 87.6L434.53 86.51L434.54 86.52C434.83 86.81 435.31 86.81 435.6 86.52C435.89 86.23 435.89 85.75 435.6 85.46L434.54 84.4C434.25 84.11 433.77 84.11 433.48 84.4C433.19 84.69 433.19 85.16 433.47 85.45L432.38 86.54C431.36 85.72 430.11 85.18 428.74 85.03V83.5H428.75C429.16 83.5 429.5 83.16 429.5 82.75C429.5 82.34 429.16 82 428.75 82H427.25C426.84 82 426.5 82.34 426.5 82.75C426.5 83.16 426.83 83.49 427.24 83.5V85.05C425.87 85.19 424.62 85.74 423.6 86.56L422.51 85.47L422.52 85.46C422.81 85.17 422.81 84.69 422.52 84.4C422.23 84.11 421.75 84.11 421.46 84.4L420.4 85.46C420.11 85.75 420.11 86.23 420.4 86.52C420.69 86.81 421.16 86.81 421.45 86.53L422.54 87.62C421.72 88.64 421.18 89.88 421.04 91.25H419.5C419.5 90.84 419.16 90.5 418.75 90.5C418.34 90.5 418 90.84 418 91.25V92.75C418 93.16 418.34 93.5 418.75 93.5C419.16 93.5 419.5 93.16 419.5 92.75H421.04C421.19 94.12 421.73 95.36 422.54 96.38L421.45 97.47C421.16 97.18 420.69 97.19 420.4 97.48C420.11 97.77 420.11 98.25 420.4 98.54L421.46 99.6C421.75 99.89 422.23 99.89 422.52 99.6C422.81 99.31 422.81 98.83 422.52 98.54L422.51 98.53L423.6 97.44C424.62 98.26 425.86 98.8 427.23 98.95V100.5C426.82 100.51 426.49 100.84 426.49 101.25C426.49 101.66 426.83 102 427.24 102H428.74C429.15 102 429.49 101.66 429.49 101.25C429.49 100.84 429.15 100.5 428.74 100.5H428.73V98.96C430.1 98.82 431.35 98.27 432.37 97.45L433.46 98.54C433.17 98.83 433.18 99.3 433.47 99.59C433.76 99.88 434.24 99.88 434.53 99.59L435.59 98.53C435.88 98.24 435.88 97.76 435.59 97.47C435.3 97.18 434.82 97.18 434.53 97.47L434.52 97.48L433.43 96.39C434.25 95.37 434.8 94.12 434.95 92.74H436.49C436.49 93.15 436.83 93.49 437.24 93.49C437.65 93.49 437.99 93.15 437.99 92.74V91.24C438 90.84 437.66 90.5 437.25 90.5ZM429.75 88C430.3 88 430.75 88.45 430.75 89C430.75 89.55 430.3 90 429.75 90C429.2 90 428.75 89.55 428.75 89C428.75 88.45 429.2 88 429.75 88ZM428 93C427.45 93 427 92.55 427 92C427 91.45 427.45 91 428 91C428.55 91 429 91.45 429 92C429 92.55 428.55 93 428 93ZM426.25 88C426.8 88 427.25 88.45 427.25 89C427.25 89.55 426.8 90 426.25 90C425.7 90 425.25 89.55 425.25 89C425.25 88.45 425.7 88 426.25 88ZM424.5 93C423.95 93 423.5 92.55 423.5 92C423.5 91.45 423.95 91 424.5 91C425.05 91 425.5 91.45 425.5 92C425.5 92.55 425.05 93 424.5 93ZM426.25 96C425.7 96 425.25 95.55 425.25 95C425.25 94.45 425.7 94 426.25 94C426.8 94 427.25 94.45 427.25 95C427.25 95.55 426.8 96 426.25 96ZM429.75 96C429.2 96 428.75 95.55 428.75 95C428.75 94.45 429.2 94 429.75 94C430.3 94 430.75 94.45 430.75 95C430.75 95.55 430.3 96 429.75 96ZM430.5 92C430.5 91.45 430.95 91 431.5 91C432.05 91 432.5 91.45 432.5 92C432.5 92.55 432.05 93 431.5 93C430.95 93 430.5 92.55 430.5 92Z" fill="#323232"/>
</g>
<g clip-path="url(#clip7_17_18320)">
<path d="M492.41 89C492.9 89 493.1 88.37 492.7 88.09L485.15 82.8C484.46 82.32 483.54 82.32 482.86 82.8L475.3 88.09C474.9 88.37 475.1 89 475.59 89H483V101C483 101.55 483.45 102 484 102C484.55 102 485 101.55 485 101V89H492.41Z" fill="#323232"/>
<path d="M480 96H476.9L476.33 92.98C476.23 92.44 475.71 92.08 475.16 92.18C474.62 92.28 474.26 92.8 474.36 93.35L475 96.74V101C475 101.55 475.45 102 476 102H476.01C476.56 102 477.01 101.56 477.01 101.01L477.02 98H479V101C479 101.55 479.45 102 480 102C480.55 102 481 101.55 481 101V97C481 96.45 480.55 96 480 96Z" fill="#323232"/>
<path d="M492.84 92.18C492.3 92.08 491.78 92.44 491.67 92.98L491.1 96H488C487.45 96 487 96.45 487 97V101C487 101.55 487.45 102 488 102C488.55 102 489 101.55 489 101V98H490.98L491 101.01C491 101.56 491.45 102 492 102C492.55 102 493 101.55 493 101V96.74L493.64 93.35C493.74 92.81 493.38 92.28 492.84 92.18Z" fill="#323232"/>
</g>
<g clip-path="url(#clip8_17_18320)">
<path d="M540 87V85C540 83.9 539.1 83 538 83H532C530.9 83 530 83.9 530 85V99C530 100.1 530.9 101 532 101H548C549.1 101 550 100.1 550 99V89C550 87.9 549.1 87 548 87H540ZM534 99H532V97H534V99ZM534 95H532V93H534V95ZM534 91H532V89H534V91ZM534 87H532V85H534V87ZM538 99H536V97H538V99ZM538 95H536V93H538V95ZM538 91H536V89H538V91ZM538 87H536V85H538V87ZM547 99H540V97H542V95H540V93H542V91H540V89H547C547.55 89 548 89.45 548 90V98C548 98.55 547.55 99 547 99ZM546 91H544V93H546V91ZM546 95H544V97H546V95Z" fill="#323232"/>
</g>
<g clip-path="url(#clip9_17_18320)">
<path d="M595.5 83.5C595.5 82.4 596.4 81.5 597.5 81.5C598.6 81.5 599.5 82.4 599.5 83.5C599.5 84.6 598.6 85.5 597.5 85.5C596.4 85.5 595.5 84.6 595.5 83.5ZM602.53 91C600.96 91.01 599.59 90.1 598.93 88.79L598.14 87.12C597.97 86.77 597.7 86.47 597.34 86.27C596.72 85.91 595.99 85.93 595.4 86.24V86.23L591.01 88.73C590.39 89.08 590 89.74 590 90.46V93C590 93.55 590.45 94 591 94C591.55 94 592 93.55 592 93V90.46L593.5 89.61C593.18 90.71 593 91.85 593 93V98.33L591 101C590.67 101.44 590.76 102.07 591.2 102.4C591.64 102.73 592.27 102.64 592.6 102.2L594.64 99.48C594.87 99.17 595.01 98.79 595.04 98.4L595.22 95.46L597 98V102C597 102.55 597.45 103 598 103C598.55 103 599 102.55 599 102V97.13C599 96.72 598.87 96.32 598.64 95.98L597.04 93.69C597.04 93.69 597.04 93.69 597.04 93.68C596.93 92.52 597.11 91.36 597.5 90.28C598.31 91.51 599.55 92.42 601.01 92.8V92.83V93C601.01 93.28 601.23 93.5 601.51 93.5C601.79 93.5 602 93.28 602 93V92.84V92.5C602 92.22 602.22 92 602.5 92C602.78 92 603 92.22 603 92.5V102.5C603 102.78 603.22 103 603.5 103C603.78 103 604 102.78 604 102.5V92.5C604 91.68 603.34 90.99 602.53 91Z" fill="#323232"/>
</g>
<g clip-path="url(#clip10_17_18320)">
<path d="M91.99 138C86.47 138 82 142.48 82 148C82 153.52 86.47 158 91.99 158C97.52 158 102 153.52 102 148C102 142.48 97.52 138 91.99 138ZM88.5 144C89.33 144 90 144.67 90 145.5C90 146.33 89.33 147 88.5 147C87.67 147 87 146.33 87 145.5C87 144.67 87.67 144 88.5 144ZM96.71 150.72C95.8 152.67 94.04 154 92 154C89.96 154 88.2 152.67 87.29 150.72C87.13 150.39 87.37 150 87.74 150H96.26C96.63 150 96.87 150.39 96.71 150.72ZM95.5 147C94.67 147 94 146.33 94 145.5C94 144.67 94.67 144 95.5 144C96.33 144 97 144.67 97 145.5C97 146.33 96.33 147 95.5 147Z" fill="#323232"/>
</g>
<g clip-path="url(#clip11_17_18320)">
<path d="M155 141H153V140C153 139.45 152.55 139 152 139H144C143.45 139 143 139.45 143 140V141H141C139.9 141 139 141.9 139 143V144C139 146.55 140.92 148.63 143.39 148.94C144.02 150.44 145.37 151.57 147 151.9V155H144C143.45 155 143 155.45 143 156C143 156.55 143.45 157 144 157H152C152.55 157 153 156.55 153 156C153 155.45 152.55 155 152 155H149V151.9C150.63 151.57 151.98 150.44 152.61 148.94C155.08 148.63 157 146.55 157 144V143C157 141.9 156.1 141 155 141ZM141 144V143H143V146.82C141.84 146.4 141 145.3 141 144ZM155 144C155 145.3 154.16 146.4 153 146.82V143H155V144Z" fill="#323232"/>
</g>
<g clip-path="url(#clip12_17_18320)">
<path d="M211 145H206L205.28 143.55C205.11 143.21 204.76 143 204.38 143H199V141.72C199.6 141.38 200 140.74 200 140C200 138.9 199.1 138 198 138C196.9 138 196 138.9 196 140C196 140.74 196.4 141.38 197 141.72V156C197 156.55 197.45 157 198 157C198.55 157 199 156.55 199 156V153H204L204.72 154.45C204.89 154.79 205.24 155 205.61 155H211C211.55 155 212 154.55 212 154V146C212 145.45 211.55 145 211 145ZM210 153H206L205 151H199V145H204L205 147H210V153Z" fill="#323232"/>
</g>
<g clip-path="url(#clip13_17_18320)">
<path d="M267 155H251C250.45 155 250 155.45 250 156C250 156.55 250.45 157 251 157H267C267.55 157 268 156.55 268 156C268 155.45 267.55 155 267 155Z" fill="#323232"/>
<path d="M268 139H257V141.4L258.81 142.85C258.93 142.94 259 143.09 259 143.24V147.5C259 147.78 258.78 148 258.5 148H254.5C254.22 148 254 147.78 254 147.5V143.24C254 143.09 254.07 142.94 254.19 142.85L256 141.4V139H254C252.9 139 252 139.9 252 141V149C252 151.21 253.79 153 256 153H262C264.21 153 266 151.21 266 149V146H268C269.1 146 270 145.1 270 144V141C270 139.9 269.1 139 268 139ZM268 144H266V141H268V144Z" fill="#323232"/>
</g>
<g clip-path="url(#clip14_17_18320)">
<path d="M325.94 140.88C325.76 140.35 325.25 140 324.68 140C324.65 140 324.62 140 324.59 140H323.6L323.29 139.03C323.15 138.43 322.61 138 322 138C321.39 138 320.85 138.43 320.71 139.04L320.4 140H319.42C319.39 140 319.36 140 319.33 140C318.76 140 318.25 140.35 318.07 140.88C317.88 141.44 318.11 142.05 318.63 142.36L319.5 142.88L319.1 144.12C318.87 144.7 319.06 145.37 319.55 145.74C319.78 145.91 320.06 146 320.33 146C320.64 146 320.94 145.89 321.19 145.68L322 144.98L322.81 145.68C323.06 145.89 323.36 146 323.67 146C323.94 146 324.22 145.91 324.45 145.74C324.95 145.37 325.13 144.7 324.9 144.12L324.51 142.88L325.38 142.36C325.89 142.05 326.12 141.44 325.94 140.88ZM322 143C321.45 143 321 142.55 321 142C321 141.45 321.45 141 322 141C322.55 141 323 141.45 323 142C323 142.55 322.55 143 322 143Z" fill="#323232"/>
<path d="M319.5 148H318.41C318.22 147.46 317.92 146.95 317.48 146.51C317.04 146.07 316.54 145.78 316 145.59V144.5C316 144.22 315.78 144 315.5 144C315.22 144 315 144.22 315 144.5V145.38C314.89 145.37 314.77 145.35 314.66 145.35C313.64 145.35 312.61 145.74 311.83 146.52C311.67 146.68 311.53 146.86 311.4 147.05L310 146.52C308.44 145.97 306.72 146.79 306.17 148.34C305.9 149.09 305.94 149.91 306.29 150.63C306.52 151.11 306.87 151.5 307.29 151.79C306.91 153.14 307.23 154.64 308.29 155.7C309.35 156.76 310.86 157.08 312.2 156.7C312.49 157.12 312.88 157.47 313.36 157.7C313.78 157.9 314.21 158 314.65 158C314.99 158 315.33 157.94 315.66 157.83C317.22 157.28 318.04 155.56 317.48 153.98L316.96 152.61C317.14 152.48 317.32 152.34 317.49 152.18C318.36 151.31 318.73 150.14 318.63 149.01H319.51C319.79 149.01 320.01 148.79 320.01 148.51C320 148.22 319.78 148 319.5 148ZM308.67 150.29C308.42 150.2 308.22 150.02 308.1 149.78C307.98 149.54 307.97 149.27 308.06 149.02C308.25 148.5 308.82 148.23 309.32 148.41L312.48 149.6C311.33 150.2 309.85 150.71 308.67 150.29ZM314.99 155.94C314.74 156.03 314.47 156.02 314.23 155.9C313.99 155.79 313.81 155.58 313.72 155.33C313.3 154.15 313.81 152.68 314.42 151.53L315.6 154.66C315.78 155.18 315.51 155.76 314.99 155.94ZM316.2 150.6L315.59 148.99C315.59 148.98 315.58 148.97 315.57 148.96C315.55 148.92 315.53 148.88 315.51 148.84C315.49 148.8 315.47 148.77 315.44 148.73C315.41 148.7 315.38 148.67 315.35 148.64C315.32 148.61 315.29 148.58 315.26 148.55C315.23 148.52 315.19 148.5 315.15 148.48C315.11 148.46 315.08 148.43 315.03 148.42C315.02 148.42 315.01 148.41 315 148.4L313.4 147.8C313.76 147.51 314.19 147.34 314.66 147.34C315.19 147.34 315.7 147.55 316.07 147.93C316.8 148.66 316.84 149.81 316.2 150.6Z" fill="#323232"/>
</g>
<g clip-path="url(#clip15_17_18320)">
<path d="M372 139C371.54 139 371.07 139.04 370.6 139.14C367.84 139.67 365.64 141.9 365.12 144.66C364.64 147.27 365.6 149.67 367.34 151.22C367.77 151.6 368 152.13 368 152.69V155C368 156.1 368.9 157 370 157H370.28C370.63 157.6 371.26 158 372 158C372.74 158 373.38 157.6 373.72 157H374C375.1 157 376 156.1 376 155V152.69C376 152.14 376.22 151.6 376.64 151.23C378.09 149.95 379 148.08 379 146C379 142.13 375.87 139 372 139ZM372.5 150H371.5V147.41L369.67 145.59L370.38 144.88L372 146.5L373.62 144.88L374.33 145.59L372.5 147.42V150ZM373.5 155C373.49 155 373.48 154.99 373.47 154.99V155H370.53V154.99C370.52 154.99 370.51 155 370.5 155C370.22 155 370 154.78 370 154.5C370 154.22 370.22 154 370.5 154C370.51 154 370.52 154.01 370.53 154.01V154H373.47V154.01C373.48 154.01 373.49 154 373.5 154C373.78 154 374 154.22 374 154.5C374 154.78 373.78 155 373.5 155ZM373.5 153H370.5C370.22 153 370 152.78 370 152.5C370 152.22 370.22 152 370.5 152H373.5C373.78 152 374 152.22 374 152.5C374 152.78 373.78 153 373.5 153Z" fill="#323232"/>
</g>
<g clip-path="url(#clip16_17_18320)">
<path d="M428 142C429.105 142 430 141.105 430 140C430 138.895 429.105 138 428 138C426.895 138 426 138.895 426 140C426 141.105 426.895 142 428 142Z" fill="#323232"/>
<path d="M431.89 144.11C431.5 143.72 430.83 143 429.53 143C429.32 143 428.11 143 426.99 143C424.53 142.99 422.48 141.2 422.07 138.85C421.99 138.36 421.58 138 421.09 138C420.48 138 420 138.54 420.09 139.14C420.53 141.8 422.47 143.95 425 144.71V157C425 157.55 425.45 158 426 158C426.55 158 427 157.55 427 157V152H429V157C429 157.55 429.45 158 430 158C430.55 158 431 157.55 431 157V146.05L434.24 149.29C434.63 149.68 435.26 149.68 435.65 149.29C436.04 148.9 436.04 148.27 435.65 147.88L431.89 144.11Z" fill="#323232"/>
</g>
<g clip-path="url(#clip17_17_18320)">
<path d="M482 141H476C475.45 141 475 141.45 475 142C475 142.55 475.45 143 476 143H478V146C478 146.55 478.45 147 479 147C479.55 147 480 146.55 480 146V143H482C482.55 143 483 142.55 483 142C483 141.45 482.55 141 482 141Z" fill="#323232"/>
<path d="M482 138H476C475.45 138 475 138.45 475 139C475 139.55 475.45 140 476 140H482C482.55 140 483 139.55 483 139C483 138.45 482.55 138 482 138Z" fill="#323232"/>
<path d="M492.89 149.11C492.5 148.72 491.87 148.72 491.48 149.11L485.12 155.47C484.73 155.86 484.73 156.49 485.12 156.88C485.51 157.27 486.14 157.27 486.53 156.88L492.89 150.52C493.28 150.13 493.28 149.5 492.89 149.11Z" fill="#323232"/>
<path d="M486.5 152C487.328 152 488 151.328 488 150.5C488 149.672 487.328 149 486.5 149C485.672 149 485 149.672 485 150.5C485 151.328 485.672 152 486.5 152Z" fill="#323232"/>
<path d="M491.5 157C492.328 157 493 156.328 493 155.5C493 154.672 492.328 154 491.5 154C490.672 154 490 154.672 490 155.5C490 156.328 490.672 157 491.5 157Z" fill="#323232"/>
<path d="M487.5 147C488.88 147 490 145.88 490 144.5V140H492C492.55 140 493 139.55 493 139C493 138.45 492.55 138 492 138H490C489.45 138 489 138.45 489 139V142.51C488.58 142.19 488.07 142 487.5 142C486.12 142 485 143.12 485 144.5C485 145.88 486.12 147 487.5 147Z" fill="#323232"/>
<path d="M482.45 154.09C482.84 153.7 482.84 153.07 482.45 152.68C482.06 152.29 481.43 152.29 481.04 152.68L480.33 153.39L479.62 152.68L479.97 152.33C480.95 151.35 480.95 149.77 479.97 148.79C479.48 148.3 478.84 148.06 478.2 148.06C477.56 148.06 476.92 148.3 476.43 148.79C475.45 149.77 475.45 151.35 476.43 152.33L476.78 152.68L475.72 153.74C474.74 154.72 474.74 156.3 475.72 157.28C476.22 157.76 476.86 158 477.5 158C478.14 158 478.78 157.76 479.27 157.27L480.33 156.21L481.04 156.92C481.43 157.31 482.06 157.31 482.45 156.92C482.84 156.53 482.84 155.9 482.45 155.51L481.74 154.8L482.45 154.09ZM477.85 150.2C477.97 150.08 478.11 150.05 478.2 150.05C478.29 150.05 478.43 150.08 478.55 150.2C478.74 150.4 478.74 150.71 478.55 150.91L478.2 151.26L477.85 150.9C477.73 150.78 477.7 150.64 477.7 150.55C477.7 150.46 477.73 150.32 477.85 150.2ZM477.85 155.85C477.73 155.97 477.59 156 477.5 156C477.41 156 477.27 155.97 477.15 155.85C477.03 155.73 477 155.59 477 155.5C477 155.41 477.03 155.27 477.15 155.15L478.21 154.09L478.92 154.8L477.85 155.85Z" fill="#323232"/>
</g>
<g clip-path="url(#clip18_17_18320)">
<path d="M549.99 150.77L548.56 146.66C548.42 146.26 548.04 146 547.59 146H540.4C539.94 146 539.57 146.26 539.42 146.66L538 150.77V156.01C538 156.56 538.45 157 539 157C539.55 157 540 156.55 540 156V155H548V156C548 156.55 548.45 157 549 157C549.55 157 549.99 156.56 550 156.01L549.99 150.77ZM539.61 149.34L540.3 147.34C540.35 147.14 540.54 147 540.76 147H547.24C547.45 147 547.64 147.14 547.71 147.34L548.4 149.34C548.51 149.66 548.27 150 547.93 150H540.08C539.74 150 539.5 149.66 539.61 149.34ZM539.99 153C539.44 153 538.99 152.55 538.99 152C538.99 151.45 539.44 151 539.99 151C540.54 151 540.99 151.45 540.99 152C540.99 152.55 540.54 153 539.99 153ZM547.99 153C547.44 153 546.99 152.55 546.99 152C546.99 151.45 547.44 151 547.99 151C548.54 151 548.99 151.45 548.99 152C548.99 152.55 548.54 153 547.99 153Z" fill="#323232"/>
<path d="M542 140.5V145H543V140C543 139.45 542.55 139 542 139H536C535.45 139 535 139.45 535 140V144H531C530.45 144 530 144.45 530 145V157H531V145.5C531 145.22 531.22 145 531.5 145H535.5C535.78 145 536 144.78 536 144.5V140.5C536 140.22 536.22 140 536.5 140H541.5C541.78 140 542 140.22 542 140.5Z" fill="#323232"/>
<path d="M535 147H533V149H535V147Z" fill="#323232"/>
<path d="M540 141H538V143H540V141Z" fill="#323232"/>
<path d="M535 151H533V153H535V151Z" fill="#323232"/>
<path d="M535 155H533V157H535V155Z" fill="#323232"/>
</g>
<g clip-path="url(#clip19_17_18320)">
<path d="M593 151C590.33 151 585 152.34 585 155V156C585 156.55 585.45 157 586 157H600C600.55 157 601 156.55 601 156V155C601 152.34 595.67 151 593 151Z" fill="#323232"/>
<path d="M588.74 145H597.27C597.54 145 597.76 144.78 597.76 144.51V144.49C597.76 144.22 597.54 144 597.27 144H597C597 142.52 596.19 141.25 595 140.55V141.5C595 141.78 594.78 142 594.5 142C594.22 142 594 141.78 594 141.5V140.14C593.68 140.06 593.35 140 593 140C592.65 140 592.32 140.06 592 140.14V141.5C592 141.78 591.78 142 591.5 142C591.22 142 591 141.78 591 141.5V140.55C589.81 141.25 589 142.52 589 144H588.74C588.47 144 588.25 144.22 588.25 144.49V144.52C588.25 144.78 588.47 145 588.74 145Z" fill="#323232"/>
<path d="M593 149C594.86 149 596.41 147.72 596.86 146H589.14C589.59 147.72 591.14 149 593 149Z" fill="#323232"/>
<path d="M605.98 142.23L606.91 141.4L606.16 140.1L604.97 140.49C604.83 140.38 604.67 140.29 604.5 140.22L604.25 139H602.75L602.5 140.22C602.33 140.29 602.17 140.38 602.02 140.49L600.84 140.1L600.09 141.4L601.02 142.23C601 142.4 601 142.58 601.02 142.75L600.09 143.6L600.84 144.9L602.04 144.52C602.17 144.62 602.32 144.7 602.47 144.77L602.75 146H604.25L604.52 144.78C604.68 144.71 604.82 144.63 604.96 144.53L606.15 144.91L606.9 143.61L605.97 142.76C606 142.57 605.99 142.4 605.98 142.23ZM603.5 143.75C602.81 143.75 602.25 143.19 602.25 142.5C602.25 141.81 602.81 141.25 603.5 141.25C604.19 141.25 604.75 141.81 604.75 142.5C604.75 143.19 604.19 143.75 603.5 143.75Z" fill="#323232"/>
<path d="M603.4 146.79L602.55 147.07C602.45 146.99 602.34 146.93 602.22 146.88L602.04 146H600.97L600.79 146.87C600.67 146.92 600.55 146.99 600.45 147.06L599.61 146.78L599.07 147.71L599.73 148.3C599.72 148.43 599.72 148.55 599.73 148.67L599.07 149.28L599.61 150.21L600.47 149.94C600.57 150.01 600.67 150.07 600.78 150.12L600.96 151H602.03L602.22 150.13C602.33 150.08 602.44 150.02 602.54 149.95L603.39 150.22L603.93 149.29L603.27 148.68C603.28 148.55 603.28 148.43 603.27 148.31L603.93 147.72L603.4 146.79ZM601.5 149.39C601.01 149.39 600.61 148.99 600.61 148.5C600.61 148.01 601.01 147.61 601.5 147.61C601.99 147.61 602.39 148.01 602.39 148.5C602.39 148.99 601.99 149.39 601.5 149.39Z" fill="#323232"/>
</g>
<g clip-path="url(#clip20_17_18320)">
<path d="M102 204C102 198.48 97.52 194 92 194C86.48 194 82 198.48 82 204C82 208.84 85.44 212.87 90 213.8V207H88V204H90V201.5C90 199.57 91.57 198 93.5 198H96V201H94C93.45 201 93 201.45 93 202V204H96V207H93V213.95C98.05 213.45 102 209.19 102 204Z" fill="#323232"/>
</g>
<g clip-path="url(#clip21_17_18320)">
<path d="M156 194H140C138.9 194 138 194.9 138 196V212C138 213.1 138.9 214 140 214H156C157.1 214 158 213.1 158 212V196C158 194.9 157.1 194 156 194ZM156 211C156 211.55 155.55 212 155 212H154V211C154 210.45 153.55 210 153 210H151.85C152.56 209.15 153 208.11 153 207C153 205.11 151.91 204.16 151.15 203.64C149.29 202.37 148.92 200.86 148.9 199.92C148.89 199.52 148.47 199.29 148.13 199.49C142.33 202.92 142.98 206.49 143 207C143.03 207.96 143.49 209.07 144.24 210H143C142.45 210 142 210.45 142 211V212H141C140.45 212 140 211.55 140 211V197C140 196.45 140.45 196 141 196H155C155.55 196 156 196.45 156 197V211ZM149.2 205.74C149.12 205.28 149.13 204.89 149.28 204.46C149.82 205.67 151.43 206.1 151.26 207.64C151.07 209.33 149.15 210.01 147.87 208.96C148.63 208.72 149.27 207.92 149.4 207.33C149.52 206.78 149.29 206.29 149.2 205.74Z" fill="#323232"/>
</g>
<g clip-path="url(#clip22_17_18320)">
<path d="M201.5 197.5C202.6 197.5 203.5 196.6 203.5 195.5C203.5 194.4 202.6 193.5 201.5 193.5C200.4 193.5 199.5 194.4 199.5 195.5C199.5 196.6 200.4 197.5 201.5 197.5ZM197.75 200.9L195.23 213.81C195.11 214.43 195.58 215 196.21 215H196.3C196.77 215 197.18 214.67 197.28 214.21L198.85 207L201 209V214C201 214.55 201.45 215 202 215C202.55 215 203 214.55 203 214V207.86C203 207.59 202.89 207.34 202.71 207.15L200.95 205.4L201.55 202.4C202.62 203.72 204.13 204.63 205.86 204.91C206.46 205.01 207 204.52 207 203.91C207 203.42 206.64 203.01 206.16 202.93C204.67 202.68 203.41 201.78 202.65 200.55L201.7 198.95C201.35 198.35 200.7 198 200 198C199.75 198 199.5 198.05 199.25 198.15L194.62 200.05C194.25 200.2 194 200.57 194 200.97V204C194 204.55 194.45 205 195 205C195.55 205 196 204.55 196 204V201.65L197.75 200.9ZM213 194H206C205.45 194 205 194.45 205 195V200C205 200.55 205.45 201 206 201H208.75V214.25C208.75 214.66 209.09 215 209.5 215C209.91 215 210.25 214.66 210.25 214.25V201H213C213.55 201 214 200.55 214 200V195C214 194.45 213.55 194 213 194ZM212.15 197.85L210.87 199.14C210.56 199.46 210.02 199.23 210.02 198.79V198.25H207.26C206.85 198.25 206.51 197.91 206.51 197.5C206.51 197.09 206.85 196.75 207.26 196.75H210.02V196.21C210.02 195.76 210.56 195.54 210.87 195.86L212.15 197.15C212.34 197.34 212.34 197.66 212.15 197.85Z" fill="#323232"/>
</g>
<g clip-path="url(#clip23_17_18320)">
<path d="M264 203C265.66 203 266.99 201.66 266.99 200C266.99 198.34 265.66 197 264 197C262.34 197 261 198.34 261 200C261 201.66 262.34 203 264 203ZM256 203C257.66 203 258.99 201.66 258.99 200C258.99 198.34 257.66 197 256 197C254.34 197 253 198.34 253 200C253 201.66 254.34 203 256 203ZM256 205C253.67 205 249 206.17 249 208.5V210C249 210.55 249.45 211 250 211H262C262.55 211 263 210.55 263 210V208.5C263 206.17 258.33 205 256 205ZM264 205C263.71 205 263.38 205.02 263.03 205.05C263.05 205.06 263.06 205.08 263.07 205.09C264.21 205.92 265 207.03 265 208.5V210C265 210.35 264.93 210.69 264.82 211H270C270.55 211 271 210.55 271 210V208.5C271 206.17 266.33 205 264 205Z" fill="#323232"/>
</g>
<g clip-path="url(#clip24_17_18320)">
<path d="M316 204.75C317.63 204.75 319.07 205.14 320.24 205.65C321.32 206.13 322 207.21 322 208.38V209C322 209.55 321.55 210 321 210H311C310.45 210 310 209.55 310 209V208.39C310 207.21 310.68 206.13 311.76 205.66C312.93 205.14 314.37 204.75 316 204.75ZM308 205C309.1 205 310 204.1 310 203C310 201.9 309.1 201 308 201C306.9 201 306 201.9 306 203C306 204.1 306.9 205 308 205ZM309.13 206.1C308.76 206.04 308.39 206 308 206C307.01 206 306.07 206.21 305.22 206.58C304.48 206.9 304 207.62 304 208.43V209C304 209.55 304.45 210 305 210H308.5V208.39C308.5 207.56 308.73 206.78 309.13 206.1ZM324 205C325.1 205 326 204.1 326 203C326 201.9 325.1 201 324 201C322.9 201 322 201.9 322 203C322 204.1 322.9 205 324 205ZM328 208.43C328 207.62 327.52 206.9 326.78 206.58C325.93 206.21 324.99 206 324 206C323.61 206 323.24 206.04 322.87 206.1C323.27 206.78 323.5 207.56 323.5 208.39V210H327C327.55 210 328 209.55 328 209V208.43ZM316 198C317.66 198 319 199.34 319 201C319 202.66 317.66 204 316 204C314.34 204 313 202.66 313 201C313 199.34 314.34 198 316 198Z" fill="#323232"/>
</g>
<g clip-path="url(#clip25_17_18320)">
<path d="M367 202H365V200C365 199.45 364.55 199 364 199C363.45 199 363 199.45 363 200V202H361C360.45 202 360 202.45 360 203C360 203.55 360.45 204 361 204H363V206C363 206.55 363.45 207 364 207C364.55 207 365 206.55 365 206V204H367C367.55 204 368 203.55 368 203C368 202.45 367.55 202 367 202ZM378 203C379.66 203 380.99 201.66 380.99 200C380.99 198.34 379.66 197 378 197C377.68 197 377.37 197.05 377.09 197.14C377.66 197.95 377.99 198.93 377.99 200C377.99 201.07 377.65 202.04 377.09 202.86C377.37 202.95 377.68 203 378 203ZM373 203C374.66 203 375.99 201.66 375.99 200C375.99 198.34 374.66 197 373 197C371.34 197 370 198.34 370 200C370 201.66 371.34 203 373 203ZM373 205C371 205 367 206 367 208V209C367 209.55 367.45 210 368 210H378C378.55 210 379 209.55 379 209V208C379 206 375 205 373 205ZM379.62 205.16C380.45 205.89 381 206.82 381 208V209.5C381 209.67 380.98 209.84 380.95 210H383.5C383.78 210 384 209.78 384 209.5V208C384 206.46 381.63 205.51 379.62 205.16Z" fill="#323232"/>
</g>
<g clip-path="url(#clip26_17_18320)">
<path d="M425 197V197.38C424.17 197.05 423.28 196.88 422.39 196.88C420.97 196.88 419.55 197.31 418.34 198.17C417.83 198.53 417.77 199.26 418.21 199.7L420.78 202.27H421.89V203.38C422.75 204.24 423.87 204.69 425 204.74V207H423C422.45 207 422 207.45 422 208V210C422 211.1 422.9 212 424 212H434C435.66 212 437 210.66 437 209V197C437 196.45 436.55 196 436 196H426C425.45 196 425 196.45 425 197ZM423.89 202.41V200.26H421.61L420.57 199.22C421.14 199 421.76 198.88 422.39 198.88C423.73 198.88 424.98 199.4 425.93 200.34L427.34 201.75L427.14 201.95C426.63 202.46 425.95 202.75 425.22 202.75C424.75 202.75 424.29 202.63 423.89 202.41ZM435 209C435 209.55 434.55 210 434 210C433.45 210 433 209.55 433 209V208C433 207.45 432.55 207 432 207H427V204.41C427.57 204.18 428.1 203.84 428.56 203.38L428.76 203.18L431.59 206H433V204.59L427 198.62V198H435V209Z" fill="#323232"/>
</g>
<g clip-path="url(#clip27_17_18320)">
<path d="M492 202V199C492 197.9 491.1 197 490 197H478C476.9 197 476 197.9 476 199V202C474.9 202 474 202.9 474 204V209H475.33L475.84 210.53C475.94 210.81 476.2 211 476.5 211C476.8 211 477.06 210.81 477.16 210.53L477.67 209H490.34L490.85 210.53C490.94 210.81 491.2 211 491.5 211C491.8 211 492.06 210.81 492.16 210.53L492.67 209H494V204C494 202.9 493.1 202 492 202ZM483 202H478V200C478 199.45 478.45 199 479 199H483V202ZM490 202H485V199H489C489.55 199 490 199.45 490 200V202Z" fill="#323232"/>
</g>
<g clip-path="url(#clip28_17_18320)">
<path d="M543 203V197.83C543 197.3 542.79 196.79 542.41 196.42L540.7 194.71C540.31 194.32 539.68 194.32 539.29 194.71L537.59 196.41C537.21 196.79 537 197.3 537 197.83V199H533C531.9 199 531 199.9 531 201V211C531 212.1 531.9 213 533 213H547C548.1 213 549 212.1 549 211V205C549 203.9 548.1 203 547 203H543ZM535 211H533V209H535V211ZM535 207H533V205H535V207ZM535 203H533V201H535V203ZM541 211H539V209H541V211ZM541 207H539V205H541V207ZM541 203H539V201H541V203ZM541 199H539V197H541V199ZM547 211H545V209H547V211ZM547 207H545V205H547V207Z" fill="#323232"/>
</g>
<g clip-path="url(#clip29_17_18320)">
<path d="M601 198H599V195C599 194.45 598.55 194 598 194H594C593.45 194 593 194.45 593 195V198H591C589.9 198 589 198.9 589 200V211C589 212.1 589.9 213 591 213C591 213.55 591.45 214 592 214C592.55 214 593 213.55 593 213H599C599 213.55 599.45 214 600 214C600.55 214 601 213.55 601 213C602.1 213 603 212.1 603 211V200C603 198.9 602.1 198 601 198ZM592.75 210C592.34 210 592 209.66 592 209.25V201.75C592 201.34 592.34 201 592.75 201C593.16 201 593.5 201.34 593.5 201.75V209.25C593.5 209.66 593.16 210 592.75 210ZM596 210C595.59 210 595.25 209.66 595.25 209.25V201.75C595.25 201.34 595.59 201 596 201C596.41 201 596.75 201.34 596.75 201.75V209.25C596.75 209.66 596.41 210 596 210ZM597.5 198H594.5V195.5H597.5V198ZM599.25 210C598.84 210 598.5 209.66 598.5 209.25V201.75C598.5 201.34 598.84 201 599.25 201C599.66 201 600 201.34 600 201.75V209.25C600 209.66 599.66 210 599.25 210Z" fill="#323232"/>
</g>
<g clip-path="url(#clip30_17_18320)">
<path d="M99.5 254C98.19 254 97.13 255.01 97.02 256.3C95.14 255.8 94.18 254.5 92 254.5C89.81 254.5 88.86 255.8 86.98 256.3C86.87 255.02 85.81 254 84.5 254C83.12 254 82 255.12 82 256.5V257C82 263 85.6 264.81 88.52 264.98C89.53 265.62 90.72 266 92 266C93.28 266 94.47 265.62 95.48 264.98C98.4 264.81 102 263 102 257V256.5C102 255.12 100.88 254 99.5 254ZM83.5 257V256.5C83.5 255.95 83.95 255.5 84.5 255.5C85.05 255.5 85.5 255.95 85.5 256.5V259.5C85.5 260.78 85.88 261.97 86.51 262.98C84.99 262.27 83.5 260.65 83.5 257ZM94.3 259.01C93.9 258.84 93.58 258.65 93.29 258.48C92.83 258.2 92.49 258 92 258C91.51 258 91.16 258.2 90.69 258.48C90.41 258.65 90.09 258.83 89.71 258.99C89.37 259.14 89 258.91 89 258.54C89 258.34 89.11 258.16 89.29 258.09C89.63 257.95 89.91 257.78 90.17 257.63C90.72 257.3 91.23 257 92 257C92.77 257 93.27 257.3 93.8 257.62C94.07 257.78 94.35 257.95 94.7 258.1C94.88 258.18 94.99 258.36 94.99 258.55C95 258.91 94.63 259.15 94.3 259.01ZM100.5 257C100.5 260.65 99.01 262.27 97.49 262.98C98.13 261.97 98.5 260.78 98.5 259.5V256.5C98.5 255.95 98.95 255.5 99.5 255.5C100.05 255.5 100.5 255.95 100.5 256.5V257Z" fill="#323232"/>
</g>
<g clip-path="url(#clip31_17_18320)">
<path d="M153 258.43V251C153 250.45 152.55 250 152 250H144C143.45 250 143 250.45 143 251V258.43C143 258.78 143.18 259.11 143.49 259.29L147.67 261.8L146.68 264.14L144.46 264.33C144 264.37 143.82 264.92 144.16 265.21L145.85 266.67L145.34 268.85C145.24 269.28 145.71 269.62 146.09 269.39L148 268.23L149.91 269.38C150.29 269.61 150.76 269.27 150.66 268.84L150.15 266.66L151.84 265.2C152.17 264.91 152 264.36 151.55 264.32L149.33 264.13L148.34 261.79L152.52 259.28C152.82 259.11 153 258.79 153 258.43ZM149 260.23L148 260.83L147 260.23V251H149V260.23Z" fill="#323232"/>
</g>
<g clip-path="url(#clip32_17_18320)">
<path d="M203.99 250C198.47 250 194 254.48 194 260C194 265.52 198.47 270 203.99 270C209.52 270 214 265.52 214 260C214 254.48 209.52 250 203.99 250ZM204 268C199.58 268 196 264.42 196 260C196 255.58 199.58 252 204 252C208.42 252 212 255.58 212 260C212 264.42 208.42 268 204 268ZM207.5 259C208.33 259 209 258.33 209 257.5C209 256.67 208.33 256 207.5 256C206.67 256 206 256.67 206 257.5C206 258.33 206.67 259 207.5 259ZM200.5 259C201.33 259 202 258.33 202 257.5C202 256.67 201.33 256 200.5 256C199.67 256 199 256.67 199 257.5C199 258.33 199.67 259 200.5 259ZM204 265.5C206.03 265.5 207.8 264.39 208.75 262.75C208.94 262.42 208.7 262 208.31 262H199.69C199.31 262 199.06 262.42 199.25 262.75C200.2 264.39 201.97 265.5 204 265.5Z" fill="#323232"/>
</g>
<g clip-path="url(#clip33_17_18320)">
<path d="M259.99 250C254.47 250 250 254.48 250 260C250 265.52 254.47 270 259.99 270C265.52 270 270 265.52 270 260C270 254.48 265.52 250 259.99 250ZM260 268C255.58 268 252 264.42 252 260C252 255.58 255.58 252 260 252C264.42 252 268 255.58 268 260C268 264.42 264.42 268 260 268ZM263.5 259C264.33 259 265 258.33 265 257.5C265 256.67 264.33 256 263.5 256C262.67 256 262 256.67 262 257.5C262 258.33 262.67 259 263.5 259ZM256.5 259C257.33 259 258 258.33 258 257.5C258 256.67 257.33 256 256.5 256C255.67 256 255 256.67 255 257.5C255 258.33 255.67 259 256.5 259ZM260 261.5C257.97 261.5 256.2 262.61 255.25 264.25C255.06 264.58 255.31 265 255.69 265H264.31C264.69 265 264.94 264.58 264.75 264.25C263.8 262.61 262.03 261.5 260 261.5Z" fill="#323232"/>
</g>
<g clip-path="url(#clip34_17_18320)">
<path d="M315.1 260.08C313.1 256.2 314.18 252.72 315.17 250.81C315.36 250.45 315.05 250.04 314.64 250.09C309.62 250.77 305.78 255.16 305.99 260.41C306 260.41 306 260.41 306 260.42C306.62 260.15 307.29 260 308 260C309.66 260 311.18 260.83 312.1 262.15C313.77 262.63 315 264.17 315 266C315 267.52 314.13 268.83 312.88 269.51C313.86 269.83 314.91 270.01 315.99 270.01C319.12 270.01 321.91 268.57 323.75 266.32C324.01 266 323.79 265.53 323.38 265.5C320.89 265.37 317.1 263.97 315.1 260.08Z" fill="#323232"/>
<path d="M311 264H310.82C310.4 262.84 309.3 262 308 262C306.34 262 305 263.34 305 265C305 266.66 306.34 268 308 268C308.62 268 310.49 268 311 268C312.1 268 313 267.1 313 266C313 264.9 312.1 264 311 264Z" fill="#323232"/>
</g>
<g clip-path="url(#clip35_17_18320)">
<path d="M372 270C373.1 270 374 269.1 374 268H370C370 269.1 370.89 270 372 270ZM378 264V259C378 255.93 376.36 253.36 373.5 252.68V252C373.5 251.17 372.83 250.5 372 250.5C371.17 250.5 370.5 251.17 370.5 252V252.68C367.63 253.36 366 255.92 366 259V264L364.71 265.29C364.08 265.92 364.52 267 365.41 267H378.58C379.47 267 379.92 265.92 379.29 265.29L378 264Z" fill="#323232"/>
</g>
<g clip-path="url(#clip36_17_18320)">
<path d="M434 264V259C434 255.93 432.36 253.36 429.5 252.68V252C429.5 251.17 428.82 250.5 427.99 250.5C427.16 250.5 426.5 251.17 426.5 252V252.68C423.63 253.36 422 255.92 422 259V264L420.7 265.29C420.07 265.92 420.51 267 421.4 267H434.57C435.46 267 435.91 265.92 435.28 265.29L434 264ZM427.99 270C429.09 270 429.99 269.1 429.99 268H425.99C425.99 269.1 426.88 270 427.99 270ZM422.77 252.73C423.19 252.35 423.2 251.7 422.8 251.3C422.42 250.92 421.8 250.91 421.41 251.28C419.7 252.84 418.52 254.96 418.14 257.34C418.05 257.95 418.52 258.5 419.14 258.5C419.62 258.5 420.04 258.15 420.12 257.67C420.42 255.73 421.38 254 422.77 252.73ZM434.6 251.28C434.2 250.91 433.58 250.92 433.2 251.3C432.8 251.7 432.82 252.34 433.23 252.72C434.61 253.99 435.58 255.72 435.88 257.66C435.95 258.14 436.37 258.49 436.86 258.49C437.47 258.49 437.95 257.94 437.85 257.33C437.47 254.96 436.3 252.85 434.6 251.28Z" fill="#323232"/>
</g>
<g clip-path="url(#clip37_17_18320)">
<path d="M491.29 265.29L490 264V259C490 255.93 488.36 253.36 485.5 252.68V252C485.5 251.17 484.83 250.5 484 250.5C483.17 250.5 482.5 251.17 482.5 252V252.68C479.63 253.36 478 255.92 478 259V264L476.71 265.29C476.08 265.92 476.52 267 477.41 267H490.58C491.48 267 491.92 265.92 491.29 265.29ZM488 265H480V259C480 256.52 481.51 254.5 484 254.5C486.49 254.5 488 256.52 488 259V265ZM484 270C485.1 270 486 269.1 486 268H482C482 269.1 482.89 270 484 270Z" fill="#323232"/>
</g>
<g clip-path="url(#clip38_17_18320)">
<path d="M540 270C541.1 270 542 269.1 542 268H538C538 269.1 538.89 270 540 270ZM546 259C546 255.93 544.36 253.36 541.5 252.68V252C541.5 251.17 540.83 250.5 540 250.5C539.17 250.5 538.5 251.17 538.5 252V252.68C538.26 252.74 538.03 252.83 537.81 252.91L546 261.1V259ZM533.41 251.35L532 252.76L534.81 255.57C534.29 256.57 534 257.73 534 259V264L532.71 265.29C532.08 265.92 532.52 267 533.41 267H546.24L547.98 268.74L549.39 267.33L533.41 251.35Z" fill="#323232"/>
</g>
<g clip-path="url(#clip39_17_18320)">
<path d="M596 270C597.1 270 598 269.1 598 268H594C594 269.1 594.89 270 596 270ZM603.29 265.29L602 264V259C602 255.93 600.36 253.36 597.5 252.68V252C597.5 251.17 596.83 250.5 596 250.5C595.17 250.5 594.5 251.17 594.5 252V252.68C591.63 253.36 590 255.92 590 259V264L588.71 265.29C588.08 265.92 588.52 267 589.41 267H602.58C603.48 267 603.92 265.92 603.29 265.29ZM598.5 257.33C598.5 257.64 598.39 257.93 598.2 258.17L595.7 261.2H597.6C598.1 261.2 598.5 261.6 598.5 262.1C598.5 262.6 598.1 263 597.6 263H594.82C594.09 263 593.5 262.41 593.5 261.68V261.67C593.5 261.36 593.61 261.07 593.8 260.83L596.3 257.8H594.4C593.9 257.8 593.5 257.4 593.5 256.9C593.5 256.4 593.9 256 594.4 256H597.18C597.91 256 598.5 256.59 598.5 257.33Z" fill="#323232"/>
</g>
<g clip-path="url(#clip40_17_18320)">
<path d="M100.49 324.49L83.5101 307.51C83.1201 307.12 82.4901 307.12 82.1001 307.51C81.7101 307.9 81.7101 308.53 82.1001 308.92L85.0201 311.84C85.0201 311.9 85.0001 311.95 85.0001 312V323C85.0001 324.1 85.9001 325 87.0001 325C87.0001 325.55 87.4501 326 88.0001 326C88.5501 326 89.0001 325.55 89.0001 325H95.0001C95.0001 325.55 95.4501 326 96.0001 326C96.5501 326 97.0001 325.55 97.0001 325C97.3401 325 97.6501 324.91 97.9301 324.76L99.0701 325.9C99.4601 326.29 100.09 326.29 100.48 325.9C100.88 325.51 100.88 324.88 100.49 324.49ZM88.7501 322C88.3401 322 88.0001 321.66 88.0001 321.25V314.83L89.5001 316.33V321.25C89.5001 321.66 89.1601 322 88.7501 322ZM92.0001 322C91.5901 322 91.2501 321.66 91.2501 321.25V318.08L92.7501 319.58V321.25C92.7501 321.66 92.4101 322 92.0001 322ZM92.0001 313C92.4101 313 92.7501 313.34 92.7501 313.75V313.92L94.5001 315.67V313.75C94.5001 313.34 94.8401 313 95.2501 313C95.6601 313 96.0001 313.34 96.0001 313.75V317.17L99.0001 320.17V312C99.0001 310.9 98.1001 310 97.0001 310H95.0001V307C95.0001 306.45 94.5501 306 94.0001 306H90.0001C89.4501 306 89.0001 306.45 89.0001 307V310H88.8301L91.8601 313.03C91.9101 313.02 91.9501 313 92.0001 313ZM90.5001 307.5H93.5001V310H90.5001V307.5Z" fill="#323232"/>
</g>
<g clip-path="url(#clip41_17_18320)">
<path d="M153 326C154.66 326 156 324.66 156 323C156 321.34 154.66 320 153 320C151.7 320 150.6 320.84 150.18 322H145.14L147.13 318.94C147.42 318.98 147.71 319 148 319C148.29 319 148.58 318.98 148.87 318.94L149.89 320.51C150.31 319.98 150.85 319.56 151.49 319.3L150.89 318.37C152.99 317.42 154.53 315.47 154.91 313.13C155.01 312.54 154.52 312 153.92 312C151.31 312 144.69 312 142.08 312C141.48 312 140.99 312.54 141.09 313.14C141.47 315.48 143.02 317.43 145.11 318.38L141.16 324.46C140.86 324.92 140.99 325.54 141.45 325.84C141.91 326.14 142.53 326.01 142.83 325.55L143.83 324H150.17C150.6 325.16 151.7 326 153 326ZM153 322C153.55 322 154 322.45 154 323C154 323.55 153.55 324 153 324C152.45 324 152 323.55 152 323C152 322.45 152.45 322 153 322Z" fill="#323232"/>
<path d="M145.5 310.47C145.48 310.75 145.68 311 145.96 311H146C146.24 311 146.44 310.82 146.46 310.58C146.56 309.71 146.5 309.19 145.52 308.04C145.16 307.61 144.92 307.35 144.99 306.49C145.02 306.23 144.8 306 144.53 306H144.48C144.24 306 144.03 306.19 144.01 306.43C143.93 307.36 144.21 308.17 144.96 308.96C145.15 309.17 145.6 309.52 145.5 310.47Z" fill="#323232"/>
<path d="M147.99 310.47C147.96 310.75 148.17 311 148.45 311H148.48C148.72 311 148.92 310.82 148.94 310.58C149.04 309.71 148.98 309.19 148 308.04C147.64 307.61 147.39 307.35 147.47 306.49C147.5 306.23 147.28 306 147.01 306H146.96C146.72 306 146.51 306.19 146.49 306.43C146.41 307.36 146.69 308.17 147.44 308.96C147.63 309.17 148.08 309.52 147.99 310.47Z" fill="#323232"/>
<path d="M150.5 310.47C150.48 310.75 150.68 311 150.96 311H151C151.24 311 151.44 310.82 151.46 310.58C151.56 309.71 151.5 309.19 150.52 308.04C150.16 307.61 149.91 307.35 149.99 306.49C150.02 306.23 149.8 306 149.53 306H149.48C149.24 306 149.03 306.19 149.01 306.43C148.93 307.36 149.21 308.17 149.96 308.96C150.15 309.17 150.6 309.52 150.5 310.47Z" fill="#323232"/>
</g>
<g clip-path="url(#clip42_17_18320)">
<path d="M195 309V315H200L199.4 312.62C199.22 311.88 199.88 311.22 200.62 311.4L203 312V307H197C195.9 307 195 307.9 195 309ZM200 317H195V323C195 324.1 195.9 325 197 325H203V320L200.62 320.6C199.89 320.78 199.22 320.12 199.41 319.39L200 317ZM207.38 320.6L205 320V325H211C212.1 325 213 324.1 213 323V317H208L208.6 319.38C208.78 320.12 208.12 320.78 207.38 320.6ZM211 307H205V312L207.38 311.4C208.11 311.22 208.78 311.88 208.59 312.61L208 315H213V309C213 307.9 212.1 307 211 307Z" fill="#323232"/>
</g>
<g clip-path="url(#clip43_17_18320)">
<path d="M268 308H264.83L263.59 306.65C263.22 306.24 262.68 306 262.12 306H257.88C257.32 306 256.78 306.24 256.4 306.65L255.17 308H252C250.9 308 250 308.9 250 310V322C250 323.1 250.9 324 252 324H268C269.1 324 270 323.1 270 322V310C270 308.9 269.1 308 268 308ZM260 311C261.63 311 263.06 311.79 263.98 313H260C258.34 313 257 314.34 257 316C257 316.35 257.07 316.69 257.18 317H255.1C255.04 316.68 255 316.34 255 316C255 313.24 257.24 311 260 311ZM260 321C258.37 321 256.94 320.21 256.02 319H260C261.66 319 263 317.66 263 316C263 315.65 262.93 315.31 262.82 315H264.9C264.97 315.32 265 315.66 265 316C265 318.76 262.76 321 260 321Z" fill="#323232"/>
</g>
<g clip-path="url(#clip44_17_18320)">
<path d="M320 315C321.66 315 322.99 313.66 322.99 312C322.99 310.34 321.66 309 320 309C318.34 309 317 310.34 317 312C317 313.66 318.34 315 320 315ZM312 315C313.66 315 314.99 313.66 314.99 312C314.99 310.34 313.66 309 312 309C310.34 309 309 310.34 309 312C309 313.66 310.34 315 312 315ZM312 317C309.67 317 305 318.17 305 320.5V322C305 322.55 305.45 323 306 323H318C318.55 323 319 322.55 319 322V320.5C319 318.17 314.33 317 312 317ZM320 317C319.71 317 319.38 317.02 319.03 317.05C319.05 317.06 319.06 317.08 319.07 317.09C320.21 317.92 321 319.03 321 320.5V322C321 322.35 320.93 322.69 320.82 323H326C326.55 323 327 322.55 327 322V320.5C327 318.17 322.33 317 320 317Z" fill="#323232"/>
</g>
<g clip-path="url(#clip45_17_18320)">
<path fill-rule="evenodd" clip-rule="evenodd" d="M376.67 317.13C378.04 318.06 379 319.32 379 321V324H382C382.55 324 383 323.55 383 323V321C383 318.82 379.43 317.53 376.67 317.13Z" fill="#323232"/>
<path d="M369 316C371.209 316 373 314.209 373 312C373 309.791 371.209 308 369 308C366.791 308 365 309.791 365 312C365 314.209 366.791 316 369 316Z" fill="#323232"/>
<path fill-rule="evenodd" clip-rule="evenodd" d="M375 316C377.21 316 379 314.21 379 312C379 309.79 377.21 308 375 308C374.53 308 374.09 308.1 373.67 308.24C374.5 309.27 375 310.58 375 312C375 313.42 374.5 314.73 373.67 315.76C374.09 315.9 374.53 316 375 316Z" fill="#323232"/>
<path fill-rule="evenodd" clip-rule="evenodd" d="M369 317C366.33 317 361 318.34 361 321V323C361 323.55 361.45 324 362 324H376C376.55 324 377 323.55 377 323V321C377 318.34 371.67 317 369 317Z" fill="#323232"/>
</g>
<g clip-path="url(#clip46_17_18320)">
<path d="M425 316C426.93 316 428.5 314.43 428.5 312.5C428.5 310.57 426.93 309 425 309C423.07 309 421.5 310.57 421.5 312.5C421.5 314.43 423.07 316 425 316ZM425 311C425.83 311 426.5 311.67 426.5 312.5C426.5 313.33 425.83 314 425 314C424.17 314 423.5 313.33 423.5 312.5C423.5 311.67 424.17 311 425 311ZM425 317.75C422.66 317.75 418 318.92 418 321.25V322C418 322.55 418.45 323 419 323H431C431.55 323 432 322.55 432 322V321.25C432 318.92 427.34 317.75 425 317.75ZM420.34 321C421.18 320.42 423.21 319.75 425 319.75C426.79 319.75 428.82 320.42 429.66 321H420.34ZM432.04 317.81C433.2 318.65 434 319.77 434 321.25V323H437C437.55 323 438 322.55 438 322V321.25C438 319.23 434.5 318.08 432.04 317.81ZM431 316C432.93 316 434.5 314.43 434.5 312.5C434.5 310.57 432.93 309 431 309C430.46 309 429.96 309.13 429.5 309.35C430.13 310.24 430.5 311.33 430.5 312.5C430.5 313.67 430.13 314.76 429.5 315.65C429.96 315.87 430.46 316 431 316Z" fill="#323232"/>
</g>
<g clip-path="url(#clip47_17_18320)">
<path d="M484 316C486.21 316 488 314.21 488 312C488 309.79 486.21 308 484 308C481.79 308 480 309.79 480 312C480 314.21 481.79 316 484 316ZM484 318C481.33 318 476 319.34 476 322V323C476 323.55 476.45 324 477 324H491C491.55 324 492 323.55 492 323V322C492 319.34 486.67 318 484 318Z" fill="#323232"/>
</g>
<g clip-path="url(#clip48_17_18320)">
<path d="M543 316C545.21 316 547 314.21 547 312C547 309.79 545.21 308 543 308C540.79 308 539 309.79 539 312C539 314.21 540.79 316 543 316ZM534 314V312C534 311.45 533.55 311 533 311C532.45 311 532 311.45 532 312V314H530C529.45 314 529 314.45 529 315C529 315.55 529.45 316 530 316H532V318C532 318.55 532.45 319 533 319C533.55 319 534 318.55 534 318V316H536C536.55 316 537 315.55 537 315C537 314.45 536.55 314 536 314H534ZM543 318C540.33 318 535 319.34 535 322V323C535 323.55 535.45 324 536 324H550C550.55 324 551 323.55 551 323V322C551 319.34 545.67 318 543 318Z" fill="#323232"/>
</g>
<g clip-path="url(#clip49_17_18320)">
<path d="M593 316C595.209 316 597 314.209 597 312C597 309.791 595.209 308 593 308C590.791 308 589 309.791 589 312C589 314.209 590.791 316 593 316Z" fill="#323232"/>
<path d="M593 318C590.33 318 585 319.34 585 322V323C585 323.55 585.45 324 586 324H600C600.55 324 601 323.55 601 323V322C601 319.34 595.67 318 593 318Z" fill="#323232"/>
<path d="M604 314V311H602V314H599V316H602V319H604V316H607V314H604Z" fill="#323232"/>
</g>
<g clip-path="url(#clip50_17_18320)">
<path d="M92 365.9C93.16 365.9 94.1 366.84 94.1 368C94.1 369.16 93.16 370.1 92 370.1C90.84 370.1 89.9 369.16 89.9 368C89.9 366.84 90.84 365.9 92 365.9ZM92 374.9C94.97 374.9 98.1 376.36 98.1 377V378.1H85.9V377C85.9 376.36 89.03 374.9 92 374.9ZM92 364C89.79 364 88 365.79 88 368C88 370.21 89.79 372 92 372C94.21 372 96 370.21 96 368C96 365.79 94.21 364 92 364ZM92 373C89.33 373 84 374.34 84 377V379C84 379.55 84.45 380 85 380H99C99.55 380 100 379.55 100 379V377C100 374.34 94.67 373 92 373Z" fill="#323232"/>
</g>
<g clip-path="url(#clip51_17_18320)">
<path d="M150 368C150 365.79 148.21 364 146 364C143.79 364 142 365.79 142 368C142 370.21 143.79 372 146 372C148.21 372 150 370.21 150 368ZM138 378V379C138 379.55 138.45 380 139 380H153C153.55 380 154 379.55 154 379V378C154 375.34 148.67 374 146 374C143.33 374 138 375.34 138 378ZM154 370H158C158.55 370 159 370.45 159 371C159 371.55 158.55 372 158 372H154C153.45 372 153 371.55 153 371C153 370.45 153.45 370 154 370Z" fill="#323232"/>
</g>
<g clip-path="url(#clip52_17_18320)">
<path d="M206 368C206 365.79 204.21 364 202 364C199.79 364 198 365.79 198 368C198 370.21 199.79 372 202 372C204.21 372 206 370.21 206 368ZM194 378V379C194 379.55 194.45 380 195 380H209C209.55 380 210 379.55 210 379V378C210 375.34 204.67 374 202 374C199.33 374 194 375.34 194 378ZM210 370H214C214.55 370 215 370.45 215 371C215 371.55 214.55 372 214 372H210C209.45 372 209 371.55 209 371C209 370.45 209.45 370 210 370Z" fill="#323232"/>
</g>
<g clip-path="url(#clip53_17_18320)">
<path d="M257 368C256.45 368 256 368.45 256 369V372H253C252.45 372 252 372.45 252 373C252 373.55 252.45 374 253 374H256V377C256 377.55 256.45 378 257 378C257.55 378 258 377.55 258 377V374H261C261.55 374 262 373.55 262 373C262 372.45 261.55 372 261 372H258V369C258 368.45 257.55 368 257 368ZM262.5 366.79C262.5 367.36 263.02 367.79 263.58 367.68L265 367.4V377C265 377.55 265.45 378 266 378C266.55 378 267 377.55 267 377V366.27C267 365.62 266.4 365.15 265.77 365.3L263.2 365.92C262.79 366.01 262.5 366.38 262.5 366.79Z" fill="#323232"/>
</g>
<g clip-path="url(#clip54_17_18320)">
<path d="M323 363H309C307.9 363 307 363.9 307 365V379C307 380.1 307.9 381 309 381H323C324.1 381 325 380.1 325 379V365C325 363.9 324.1 363 323 363ZM312 377C311.45 377 311 376.55 311 376V371C311 370.45 311.45 370 312 370C312.55 370 313 370.45 313 371V376C313 376.55 312.55 377 312 377ZM316 377C315.45 377 315 376.55 315 376V368C315 367.45 315.45 367 316 367C316.55 367 317 367.45 317 368V376C317 376.55 316.55 377 316 377ZM320 377C319.45 377 319 376.55 319 376V374C319 373.45 319.45 373 320 373C320.55 373 321 373.45 321 374V376C321 376.55 320.55 377 320 377Z" fill="#323232"/>
</g>
<g clip-path="url(#clip55_17_18320)">
<path d="M379.93 368.35L376.33 370.03L374 367.7V366.3L376.33 363.97L379.93 365.65C380.31 365.83 380.75 365.66 380.93 365.29C381.11 364.91 380.94 364.47 380.57 364.29L376.65 362.46C376.27 362.28 375.82 362.36 375.52 362.66L373.78 364.4C373.6 364.16 373.32 364 373 364C372.45 364 372 364.45 372 365V366H368.82C368.34 364.66 366.96 363.75 365.4 364.06C364.23 364.29 363.27 365.25 363.05 366.42C362.8 367.76 363.45 368.96 364.48 369.58L367.08 378H365.5C364.67 378 364 378.67 364 379.5C364 380.33 364.67 381 365.5 381H375.5C376.33 381 377 380.33 377 379.5C377 378.67 376.33 378 375.5 378H373.38L368.41 368.77C368.58 368.53 368.72 368.28 368.82 368H372V369C372 369.55 372.45 370 373 370C373.32 370 373.6 369.84 373.78 369.6L375.52 371.34C375.82 371.64 376.27 371.72 376.65 371.54L380.57 369.71C380.95 369.53 381.11 369.09 380.93 368.71C380.75 368.34 380.31 368.17 379.93 368.35ZM366 368C365.45 368 365 367.55 365 367C365 366.45 365.45 366 366 366C366.55 366 367 366.45 367 367C367 367.55 366.55 368 366 368Z" fill="#323232"/>
</g>
<g clip-path="url(#clip56_17_18320)">
<path d="M429 368.57C428.21 368.57 427.57 369.21 427.57 370C427.57 370.79 428.21 371.43 429 371.43C429.79 371.43 430.43 370.79 430.43 370C430.43 369.21 429.79 368.57 429 368.57Z" fill="#323232"/>
<path d="M429.21 363C425.37 362.89 422.21 365.87 422.02 369.64L420.1 372.2C419.85 372.53 420.09 373 420.5 373H422V376C422 377.1 422.9 378 424 378H425V380C425 380.55 425.45 381 426 381H431C431.55 381 432 380.55 432 380V376.32C434.44 375.16 436.1 372.64 436 369.74C435.86 366.12 432.82 363.11 429.21 363ZM432 370C432 370.13 431.99 370.26 431.98 370.39L432.81 371.05C432.89 371.11 432.91 371.21 432.86 371.3L432.06 372.69C432.01 372.78 431.9 372.81 431.82 372.78L430.83 372.38C430.62 372.54 430.4 372.67 430.16 372.77L430 373.83C429.99 373.93 429.9 374 429.8 374H428.2C428.1 374 428.02 373.93 428 373.83L427.85 372.77C427.6 372.67 427.38 372.54 427.17 372.38L426.18 372.78C426.09 372.81 425.98 372.78 425.93 372.69L425.13 371.3C425.08 371.22 425.1 371.11 425.18 371.05L426.02 370.39C426.01 370.26 426 370.13 426 370C426 369.87 426.02 369.73 426.04 369.61L425.19 368.95C425.11 368.89 425.09 368.79 425.14 368.69L425.94 367.31C425.99 367.22 426.09 367.19 426.18 367.22L427.18 367.62C427.38 367.47 427.61 367.33 427.85 367.23L428 366.17C428.02 366.07 428.1 366 428.2 366H429.8C429.9 366 429.98 366.07 430 366.17L430.15 367.23C430.39 367.33 430.61 367.46 430.82 367.62L431.82 367.22C431.91 367.19 432.02 367.22 432.06 367.31L432.86 368.69C432.91 368.78 432.89 368.89 432.81 368.95L431.96 369.61C431.99 369.73 432 369.86 432 370Z" fill="#323232"/>
</g>
<g clip-path="url(#clip57_17_18320)">
<path d="M484 362C478.48 362 474 366.48 474 372C474 377.52 478.48 382 484 382C489.52 382 494 377.52 494 372C494 366.48 489.52 362 484 362ZM483 379.93C479.05 379.44 476 376.08 476 372C476 371.38 476.08 370.79 476.21 370.21L481 375V376C481 377.1 481.9 378 483 378V379.93ZM489.9 377.39C489.64 376.58 488.9 376 488 376H487V373C487 372.45 486.55 372 486 372H480V370H482C482.55 370 483 369.55 483 369V367H485C486.1 367 487 366.1 487 365V364.59C489.93 365.78 492 368.65 492 372C492 374.08 491.2 375.97 489.9 377.39Z" fill="#323232"/>
</g>
<g clip-path="url(#clip58_17_18320)">
<path d="M539 368.17L534.49 363.66C536.07 362.61 537.96 362 540 362C545.52 362 550 366.48 550 372C550 374.04 549.39 375.93 548.34 377.51L546.88 376.05C547.59 374.87 548 373.48 548 372C548 368.65 545.93 365.78 543 364.59V365C543 366.1 542.1 367 541 367H539V368.17ZM548.49 381.9C548.1 382.29 547.47 382.29 547.08 381.9L545.52 380.34C543.45 381.71 540.84 382.34 538.07 381.82C534.12 381.07 530.94 377.9 530.19 373.94C529.67 371.17 530.29 368.56 531.67 366.49L530.1 364.93C529.71 364.54 529.71 363.91 530.1 363.52C530.49 363.13 531.12 363.13 531.51 363.52L548.48 380.49C548.88 380.88 548.88 381.51 548.49 381.9ZM539 378C537.9 378 537 377.1 537 376V375L532.21 370.21C532.08 370.79 532 371.38 532 372C532 376.08 535.05 379.44 539 379.93V378Z" fill="#323232"/>
</g>
<g clip-path="url(#clip59_17_18320)">
<path d="M600 364C600 362.9 600.9 362 602 362C603.1 362 604 362.9 604 364C604 365.1 603.1 366 602 366C600.9 366 600 365.1 600 364ZM604.78 367.58C603.93 367.21 602.99 367 602 367C601.33 367 600.69 367.1 600.08 367.28C600.66 367.83 601 368.6 601 369.43V370H606V369.43C606 368.62 605.52 367.9 604.78 367.58ZM590 366C591.1 366 592 365.1 592 364C592 362.9 591.1 362 590 362C588.9 362 588 362.9 588 364C588 365.1 588.9 366 590 366ZM591.92 367.28C591.31 367.1 590.67 367 590 367C589.01 367 588.07 367.21 587.22 367.58C586.48 367.9 586 368.62 586 369.43V370H591V369.43C591 368.6 591.34 367.83 591.92 367.28ZM594 364C594 362.9 594.9 362 596 362C597.1 362 598 362.9 598 364C598 365.1 597.1 366 596 366C594.9 366 594 365.1 594 364ZM600 370H592V369.43C592 368.62 592.48 367.9 593.22 367.58C594.07 367.21 595.01 367 596 367C596.99 367 597.93 367.21 598.78 367.58C599.52 367.9 600 368.62 600 369.43V370ZM599 376C599 374.9 599.9 374 601 374C602.1 374 603 374.9 603 376C603 377.1 602.1 378 601 378C599.9 378 599 377.1 599 376ZM605 382H597V381.43C597 380.62 597.48 379.9 598.22 379.58C599.07 379.21 600.01 379 601 379C601.99 379 602.93 379.21 603.78 379.58C604.52 379.9 605 380.62 605 381.43V382ZM589 376C589 374.9 589.9 374 591 374C592.1 374 593 374.9 593 376C593 377.1 592.1 378 591 378C589.9 378 589 377.1 589 376ZM595 382H587V381.43C587 380.62 587.48 379.9 588.22 379.58C589.07 379.21 590.01 379 591 379C591.99 379 592.93 379.21 593.78 379.58C594.52 379.9 595 380.62 595 381.43V382ZM597.79 373H596.75V371.75C596.75 371.34 596.41 371 596 371C595.59 371 595.25 371.34 595.25 371.75V373H594.21C593.76 373 593.54 373.54 593.86 373.85L595.65 375.64C595.85 375.84 596.16 375.84 596.36 375.64L598.15 373.85C598.46 373.54 598.24 373 597.79 373Z" fill="#323232"/>
</g>
<g clip-path="url(#clip60_17_18320)">
<path d="M95.5 422.5C95.5 421.94 96.17 421.01 96.61 420.46C96.81 420.21 97.19 420.21 97.38 420.46C97.82 421.01 98.49 421.94 98.49 422.5C98.5 423.33 97.83 424 97 424C96.17 424 95.5 423.33 95.5 422.5ZM99.5 431C100.88 431 102 429.88 102 428.5C102 427.25 100.59 425.34 99.89 424.46C99.69 424.21 99.32 424.21 99.12 424.46C98.41 425.34 97 427.25 97 428.5C97 429.88 98.12 431 99.5 431ZM92 430H91V429C91 428.45 90.55 428 90 428C89.45 428 89 428.45 89 429V430H88C87.45 430 87 430.45 87 431C87 431.55 87.45 432 88 432H89V433C89 433.55 89.45 434 90 434C90.55 434 91 433.55 91 433V432H92C92.55 432 93 431.55 93 431C93 430.45 92.55 430 92 430ZM96 428V436C96 437.1 95.1 438 94 438H86C84.9 438 84 437.1 84 436V428C84 425.03 86.16 422.57 89 422.09V420H88C87.45 420 87 419.55 87 419C87 418.45 87.45 418 88 418H93C93.61 418 94.19 418.11 94.72 418.31C95.39 418.56 95.55 419.44 95.05 419.95C94.77 420.23 94.36 420.31 94 420.18C93.68 420.06 93.35 420 93 420H91V422.09C93.84 422.57 96 425.03 96 428Z" fill="#323232"/>
</g>
<g clip-path="url(#clip61_17_18320)">
<path d="M141 429.18V431.99C141 432.72 141.4 433.4 142.04 433.75L147.04 436.48C147.64 436.81 148.36 436.81 148.96 436.48L153.96 433.75C154.6 433.4 155 432.72 155 431.99V429.18L148.96 432.48C148.36 432.81 147.64 432.81 147.04 432.48L141 429.18ZM147.04 419.52L138.61 424.12C137.92 424.5 137.92 425.5 138.61 425.88L147.04 430.48C147.64 430.81 148.36 430.81 148.96 430.48L157 426.09V432C157 432.55 157.45 433 158 433C158.55 433 159 432.55 159 432V425.59C159 425.22 158.8 424.89 158.48 424.71L148.96 419.52C148.36 419.2 147.64 419.2 147.04 419.52Z" fill="#323232"/>
</g>
<g clip-path="url(#clip62_17_18320)">
<path d="M211.8 434.4L206 426.67V422.5L207.35 420.81C207.61 420.48 207.38 420 206.96 420H201.04C200.62 420 200.39 420.48 200.65 420.81L202 422.5V426.67L196.2 434.4C195.71 435.06 196.18 436 197 436H211C211.82 436 212.29 435.06 211.8 434.4Z" fill="#323232"/>
</g>
<g clip-path="url(#clip63_17_18320)">
<path d="M260 424C261.105 424 262 423.105 262 422C262 420.895 261.105 420 260 420C258.895 420 258 420.895 258 422C258 423.105 258.895 424 260 424Z" fill="#323232"/>
<path d="M269 430.94C269 430.44 268.64 430.01 268.15 429.96C266.27 429.75 264.66 428.83 263.4 427.33L262.06 425.73C261.68 425.26 261.12 425 260.53 425H259.48C258.89 425 258.33 425.26 257.95 425.72L256.61 427.32C255.36 428.82 253.74 429.74 251.86 429.95C251.36 430.01 251 430.44 251 430.94C251 431.54 251.53 432.01 252.13 431.94C254.43 431.67 256.45 430.55 258 428.75V431L254.24 432.5C253.59 432.76 253.08 433.33 253.01 434.03C252.91 435.1 253.74 436 254.79 436H257V435.5C257 434.12 258.12 433 259.5 433H262.5C262.78 433 263 433.22 263 433.5C263 433.78 262.78 434 262.5 434H259.5C258.67 434 258 434.67 258 435.5V436H265.1C265.95 436 266.75 435.46 266.95 434.63C267.16 433.74 266.68 432.87 265.87 432.55L262 431V428.75C263.56 430.55 265.57 431.66 267.87 431.94C268.47 432 269 431.54 269 430.94Z" fill="#323232"/>
</g>
<g clip-path="url(#clip64_17_18320)">
<path d="M319.5 427C320.328 427 321 426.328 321 425.5C321 424.672 320.328 424 319.5 424C318.672 424 318 424.672 318 425.5C318 426.328 318.672 427 319.5 427Z" fill="#323232"/>
<path d="M312.5 427C313.328 427 314 426.328 314 425.5C314 424.672 313.328 424 312.5 424C311.672 424 311 424.672 311 425.5C311 426.328 311.672 427 312.5 427Z" fill="#323232"/>
<path d="M315.99 418C310.47 418 306 422.48 306 428C306 433.52 310.47 438 315.99 438C321.52 438 326 433.52 326 428C326 422.48 321.52 418 315.99 418ZM316 436C311.58 436 308 432.42 308 428C308 423.58 311.58 420 316 420C320.42 420 324 423.58 324 428C324 432.42 320.42 436 316 436ZM316 430C314.1 430 312.37 430.97 311.35 432.58C311.13 432.93 311.24 433.39 311.59 433.61C311.94 433.83 312.4 433.72 312.62 433.37C313.36 432.19 314.62 431.49 316 431.49C317.38 431.49 318.64 432.19 319.38 433.37C319.52 433.6 319.77 433.72 320.02 433.72C320.16 433.72 320.29 433.68 320.42 433.61C320.77 433.39 320.88 432.93 320.66 432.58C319.63 430.96 317.9 430 316 430Z" fill="#323232"/>
</g>
<g clip-path="url(#clip65_17_18320)">
<path d="M369.75 431.5H374.25C374.66 431.5 375 431.16 375 430.75C375 430.34 374.66 430 374.25 430H369.75C369.34 430 369 430.34 369 430.75C369 431.16 369.34 431.5 369.75 431.5Z" fill="#323232"/>
<path d="M375.5 427C376.328 427 377 426.328 377 425.5C377 424.672 376.328 424 375.5 424C374.672 424 374 424.672 374 425.5C374 426.328 374.672 427 375.5 427Z" fill="#323232"/>
<path d="M368.5 427C369.328 427 370 426.328 370 425.5C370 424.672 369.328 424 368.5 424C367.672 424 367 424.672 367 425.5C367 426.328 367.672 427 368.5 427Z" fill="#323232"/>
<path d="M371.99 418C366.47 418 362 422.48 362 428C362 433.52 366.47 438 371.99 438C377.52 438 382 433.52 382 428C382 422.48 377.52 418 371.99 418ZM372 436C367.58 436 364 432.42 364 428C364 423.58 367.58 420 372 420C376.42 420 380 423.58 380 428C380 432.42 376.42 436 372 436Z" fill="#323232"/>
</g>
<g clip-path="url(#clip66_17_18320)">
<path d="M431.5 427C432.328 427 433 426.328 433 425.5C433 424.672 432.328 424 431.5 424C430.672 424 430 424.672 430 425.5C430 426.328 430.672 427 431.5 427Z" fill="#323232"/>
<path d="M424.5 427C425.328 427 426 426.328 426 425.5C426 424.672 425.328 424 424.5 424C423.672 424 423 424.672 423 425.5C423 426.328 423.672 427 424.5 427Z" fill="#323232"/>
<path d="M427.99 418C422.47 418 418 422.48 418 428C418 433.52 422.47 438 427.99 438C433.52 438 438 433.52 438 428C438 422.48 433.52 418 427.99 418ZM428 436C423.58 436 420 432.42 420 428C420 423.58 423.58 420 428 420C432.42 420 436 423.58 436 428C436 432.42 432.42 436 428 436ZM432.41 429.89C432.06 429.67 431.59 429.78 431.38 430.13C430.64 431.3 429.38 432 428 432C426.62 432 425.36 431.3 424.62 430.12C424.4 429.77 423.94 429.66 423.59 429.88C423.24 430.1 423.13 430.56 423.35 430.91C424.37 432.54 426.1 433.5 428 433.5C429.9 433.5 431.63 432.53 432.65 430.92C432.87 430.57 432.76 430.11 432.41 429.89Z" fill="#323232"/>
</g>
<g clip-path="url(#clip67_17_18320)">
<path d="M484 429.5C481.97 429.5 480.2 430.61 479.25 432.25C479.06 432.58 479.31 433 479.69 433H488.31C488.69 433 488.94 432.58 488.75 432.25C487.8 430.61 486.03 429.5 484 429.5ZM480.35 427.47L480.88 426.94L481.41 427.47C481.7 427.76 482.18 427.76 482.47 427.47C482.76 427.18 482.76 426.7 482.47 426.41L481.94 425.88L482.47 425.35C482.76 425.06 482.76 424.58 482.47 424.29C482.18 424 481.7 424 481.41 424.29L480.88 424.82L480.35 424.29C480.06 424 479.58 424 479.29 424.29C479 424.58 479 425.06 479.29 425.35L479.82 425.88L479.29 426.41C479 426.7 479 427.18 479.29 427.47C479.58 427.76 480.06 427.76 480.35 427.47ZM483.99 418C478.47 418 474 422.47 474 428C474 433.53 478.47 438 483.99 438C489.51 438 494 433.53 494 428C494 422.47 489.52 418 483.99 418ZM484 436C479.58 436 476 432.42 476 428C476 423.58 479.58 420 484 420C488.42 420 492 423.58 492 428C492 432.42 488.42 436 484 436ZM487.65 424.29L487.12 424.82L486.59 424.29C486.3 424 485.82 424 485.53 424.29C485.24 424.58 485.24 425.06 485.53 425.35L486.06 425.88L485.53 426.41C485.24 426.7 485.24 427.18 485.53 427.47C485.82 427.76 486.3 427.76 486.59 427.47L487.12 426.94L487.65 427.47C487.94 427.76 488.42 427.76 488.71 427.47C489 427.18 489 426.7 488.71 426.41L488.18 425.88L488.71 425.35C489 425.06 489 424.58 488.71 424.29C488.42 424 487.94 424 487.65 424.29Z" fill="#323232"/>
</g>
<g clip-path="url(#clip68_17_18320)">
<path d="M536.88 425.94L537.41 426.47C537.7 426.76 538.18 426.76 538.47 426.47C538.76 426.18 538.76 425.7 538.47 425.41L537.59 424.53C537.2 424.14 536.57 424.14 536.18 424.53L535.29 425.41C535 425.7 535 426.18 535.29 426.47C535.58 426.76 536.06 426.76 536.35 426.47L536.88 425.94ZM540 433.5C542.03 433.5 543.8 432.39 544.75 430.75C544.94 430.42 544.7 430 544.31 430H535.69C535.31 430 535.06 430.42 535.25 430.75C536.2 432.39 537.97 433.5 540 433.5ZM541.53 426.47C541.82 426.76 542.3 426.76 542.59 426.47L543.12 425.94L543.65 426.47C543.94 426.76 544.42 426.76 544.71 426.47C545 426.18 545 425.7 544.71 425.41L543.83 424.53C543.44 424.14 542.81 424.14 542.42 424.53L541.54 425.41C541.24 425.7 541.24 426.18 541.53 426.47ZM539.99 418C534.47 418 530 422.47 530 428C530 433.53 534.47 438 539.99 438C545.51 438 550 433.53 550 428C550 422.47 545.52 418 539.99 418ZM540 436C535.58 436 532 432.42 532 428C532 423.58 535.58 420 540 420C544.42 420 548 423.58 548 428C548 432.42 544.42 436 540 436Z" fill="#323232"/>
</g>
<g clip-path="url(#clip69_17_18320)">
<path d="M602 432.08C601.24 432.08 600.56 432.38 600.04 432.85L592.91 428.7C592.96 428.47 593 428.24 593 428C593 427.76 592.96 427.53 592.91 427.3L599.96 423.19C600.5 423.69 601.21 424 602 424C603.66 424 605 422.66 605 421C605 419.34 603.66 418 602 418C600.34 418 599 419.34 599 421C599 421.24 599.04 421.47 599.09 421.7L592.04 425.81C591.5 425.31 590.79 425 590 425C588.34 425 587 426.34 587 428C587 429.66 588.34 431 590 431C590.79 431 591.5 430.69 592.04 430.19L599.16 434.35C599.11 434.56 599.08 434.78 599.08 435C599.08 436.61 600.39 437.92 602 437.92C603.61 437.92 604.92 436.61 604.92 435C604.92 433.39 603.61 432.08 602 432.08Z" fill="#323232"/>
</g>
<g clip-path="url(#clip70_17_18320)">
<path d="M103 479C103 480.1 102.1 481 101 481C99.9 481 99 480.1 99 479C99 478.22 99.99 476.56 100.58 475.64C100.78 475.33 101.22 475.33 101.42 475.64C102.01 476.56 103 478.22 103 479ZM101.86 482.38C101.94 482.91 102 483.45 102 484C102 489.52 97.52 494 91.99 494C86.47 494 82 489.52 82 484C82 478.48 86.47 474 91.99 474C94.44 474 96.68 474.88 98.42 476.34C97.91 477.29 97.5 478.27 97.5 479C97.5 480.93 99.07 482.5 101 482.5C101.3 482.5 101.58 482.45 101.86 482.38ZM94.03 482.03L95.09 483.09C95.38 483.38 95.86 483.38 96.15 483.09C96.44 482.8 96.44 482.32 96.15 482.03L95.62 481.5L96.15 480.97C96.44 480.68 96.44 480.2 96.15 479.91C95.86 479.62 95.38 479.62 95.09 479.91L94.03 480.97C93.74 481.26 93.74 481.74 94.03 482.03ZM88.38 481.5L87.85 482.03C87.56 482.32 87.56 482.8 87.85 483.09C88.14 483.38 88.62 483.38 88.91 483.09L89.97 482.03C90.26 481.74 90.26 481.26 89.97 480.97L88.91 479.91C88.62 479.62 88.14 479.62 87.85 479.91C87.56 480.2 87.56 480.68 87.85 480.97L88.38 481.5ZM96.47 487.8C95.47 486.41 93.85 485.5 92 485.5C91.13 485.5 90.31 485.7 89.57 486.06L85.99 484C85.99 483.48 85.73 482.98 85.25 482.71C84.45 482.25 83.41 482.6 83.08 483.51C82.87 484.08 83.05 484.76 83.52 485.15C84.04 485.59 84.72 485.6 85.24 485.31L88.21 487.03C87.96 487.27 87.73 487.53 87.53 487.81C87.17 488.3 87.53 489 88.15 489C88.38 489 88.61 488.9 88.75 488.7C89.47 487.68 90.65 487 92 487C93.35 487 94.53 487.68 95.25 488.7C95.39 488.89 95.61 489 95.85 489C96.47 489 96.83 488.3 96.47 487.8Z" fill="#323232"/>
</g>
<g clip-path="url(#clip71_17_18320)">
<path d="M154 482V479C154 477.9 153.1 477 152 477H144C142.9 477 142 477.9 142 479V482C140.9 482 140 482.9 140 484V489H141.33L141.84 490.53C141.94 490.81 142.2 491 142.5 491C142.8 491 143.06 490.81 143.16 490.53L143.67 489H152.34L152.85 490.53C152.94 490.81 153.2 491 153.5 491C153.8 491 154.06 490.81 154.16 490.53L154.67 489H156V484C156 482.9 155.1 482 154 482ZM147 482H144V480C144 479.45 144.45 479 145 479H147V482ZM152 482H149V479H151C151.55 479 152 479.45 152 480V482Z" fill="#323232"/>
</g>
<g clip-path="url(#clip72_17_18320)">
<path d="M213 478H203.23C201.57 478 200.01 478.66 198.87 479.73C198.54 478.73 197.61 478 196.5 478C195.12 478 194 479.12 194 480.5C194 481.88 195.12 483 196.5 483C196.71 483 196.91 482.97 197.11 482.92C197.06 483.17 197.02 483.43 197.01 483.7C196.83 487.38 199.96 490.38 203.69 489.97C206.24 489.69 208.37 487.71 208.88 485.2C209.03 484.49 209.03 483.8 208.94 483.14C208.85 482.54 209.32 482.01 209.93 482.01H212.69C213.56 482 214 481.55 214 481V479C214 478.45 213.55 478 213 478ZM196.5 481C196.22 481 196 480.78 196 480.5C196 480.22 196.22 480 196.5 480C196.78 480 197 480.22 197 480.5C197 480.78 196.78 481 196.5 481ZM203 487C201.34 487 200 485.66 200 484C200 482.34 201.34 481 203 481C204.66 481 206 482.34 206 484C206 485.66 204.66 487 203 487Z" fill="#323232"/>
<path d="M203 486C204.105 486 205 485.105 205 484C205 482.895 204.105 482 203 482C201.895 482 201 482.895 201 484C201 485.105 201.895 486 203 486Z" fill="#323232"/>
</g>
<g clip-path="url(#clip73_17_18320)">
<path d="M251.81 478.28C250.67 479.9 250 481.87 250 484C250 486.13 250.67 488.1 251.81 489.72C254.23 488.95 256 486.68 256 484C256 481.32 254.23 479.05 251.81 478.28Z" fill="#323232"/>
<path d="M268.19 478.28C265.77 479.05 264 481.32 264 484C264 486.68 265.77 488.95 268.19 489.72C269.33 488.1 270 486.13 270 484C270 481.87 269.33 479.9 268.19 478.28Z" fill="#323232"/>
<path d="M262 484C262 480.72 263.97 477.91 266.79 476.67C265.01 475.02 262.63 474 260 474C257.37 474 254.99 475.02 253.21 476.67C256.03 477.91 258 480.72 258 484C258 487.28 256.03 490.09 253.21 491.33C254.99 492.98 257.37 494 260 494C262.63 494 265.01 492.98 266.79 491.33C263.97 490.09 262 487.28 262 484Z" fill="#323232"/>
</g>
<g clip-path="url(#clip74_17_18320)">
<path d="M321.09 483H325.95C325.79 481.39 325.24 479.89 324.41 478.6C322.68 479.43 321.42 481.05 321.09 483Z" fill="#323232"/>
<path d="M310.91 483C310.58 481.05 309.32 479.43 307.59 478.6C306.76 479.89 306.21 481.39 306.05 483H310.91Z" fill="#323232"/>
<path d="M319.07 483C319.39 480.41 320.95 478.21 323.13 477C321.53 475.37 319.39 474.29 317 474.05V483H319.07Z" fill="#323232"/>
<path d="M312.93 483H315V474.05C312.61 474.29 310.46 475.37 308.87 477C311.05 478.21 312.61 480.41 312.93 483Z" fill="#323232"/>
<path d="M319.07 485H317V493.95C319.39 493.71 321.54 492.63 323.13 491C320.95 489.79 319.39 487.59 319.07 485Z" fill="#323232"/>
<path d="M307.59 489.4C309.31 488.57 310.58 486.94 310.91 485H306.05C306.21 486.61 306.76 488.11 307.59 489.4Z" fill="#323232"/>
<path d="M321.09 485C321.42 486.95 322.68 488.57 324.41 489.4C325.24 488.11 325.79 486.61 325.95 485H321.09Z" fill="#323232"/>
<path d="M312.93 485C312.61 487.59 311.05 489.79 308.87 491C310.47 492.63 312.61 493.71 315 493.95V485H312.93Z" fill="#323232"/>
</g>
<g clip-path="url(#clip75_17_18320)">
<path d="M375.05 484.81L366.56 476.32C366.17 475.93 365.54 475.93 365.15 476.32L362.32 479.15C361.93 479.54 361.93 480.17 362.32 480.56L370.81 489.05C371.2 489.44 371.83 489.44 372.22 489.05L375.05 486.22C375.44 485.83 375.44 485.2 375.05 484.81Z" fill="#323232"/>
<path d="M374.34 489.76L377.87 493.29C378.26 493.68 378.9 493.68 379.29 493.29C379.68 492.9 379.68 492.26 379.29 491.87L375.76 488.34L374.34 489.76Z" fill="#323232"/>
<path d="M378.5 481C380.433 481 382 479.433 382 477.5C382 475.567 380.433 474 378.5 474C376.567 474 375 475.567 375 477.5C375 479.433 376.567 481 378.5 481Z" fill="#323232"/>
</g>
<g clip-path="url(#clip76_17_18320)">
<path d="M437.58 488.09L436.49 480.43C436.21 478.46 434.52 477 432.53 477H423.47C421.48 477 419.79 478.46 419.51 480.43L418.42 488.09C418.2 489.63 419.39 491 420.94 491C421.62 491 422.26 490.73 422.74 490.25L425 488H431L433.25 490.25C433.73 490.73 434.38 491 435.05 491C436.61 491 437.8 489.63 437.58 488.09ZM427 483H425V485H424V483H422V482H424V480H425V482H427V483ZM431 482C430.45 482 430 481.55 430 481C430 480.45 430.45 480 431 480C431.55 480 432 480.45 432 481C432 481.55 431.55 482 431 482ZM433 485C432.45 485 432 484.55 432 484C432 483.45 432.45 483 433 483C433.55 483 434 483.45 434 484C434 484.55 433.55 485 433 485Z" fill="#323232"/>
</g>
<g clip-path="url(#clip77_17_18320)">
<path d="M475.02 487.62C474.94 490.04 475.34 491.96 475.69 492.31C476.04 492.66 477.97 493.07 480.38 492.98L475.02 487.62Z" fill="#323232"/>
<path d="M485.08 475.28C482.75 475.7 480.29 476.62 478.46 478.46C476.63 480.3 475.7 482.75 475.28 485.08L482.91 492.71C485.25 492.3 487.7 491.37 489.53 489.53C491.36 487.69 492.29 485.24 492.71 482.91L485.08 475.28ZM486.8 482.6L482.6 486.8C482.21 487.19 481.59 487.19 481.2 486.8C480.81 486.41 480.81 485.79 481.2 485.4L485.4 481.2C485.79 480.81 486.41 480.81 486.8 481.2C487.19 481.59 487.19 482.21 486.8 482.6Z" fill="#323232"/>
<path d="M492.98 480.38C493.06 477.96 492.66 476.04 492.31 475.69C491.96 475.34 490.03 474.93 487.62 475.02L492.98 480.38Z" fill="#323232"/>
</g>
<g clip-path="url(#clip78_17_18320)">
<path d="M540 488C543.87 488 547 484.87 547 481C547 477.13 543.87 474 540 474C536.13 474 533 477.13 533 481C533 484.87 536.13 488 540 488ZM540 476C542.76 476 545 478.24 545 481C545 483.76 542.76 486 540 486C537.24 486 535 483.76 535 481C535 478.24 537.24 476 540 476Z" fill="#323232"/>
<path d="M538 481C538.552 481 539 480.552 539 480C539 479.448 538.552 479 538 479C537.448 479 537 479.448 537 480C537 480.552 537.448 481 538 481Z" fill="#323232"/>
<path d="M542 481C542.552 481 543 480.552 543 480C543 479.448 542.552 479 542 479C541.448 479 541 479.448 541 480C541 480.552 541.448 481 542 481Z" fill="#323232"/>
<path d="M540 479C540.552 479 541 478.552 541 478C541 477.448 540.552 477 540 477C539.448 477 539 477.448 539 478C539 478.552 539.448 479 540 479Z" fill="#323232"/>
<path d="M544 489H536C535.45 489 535 489.45 535 490C535 490.55 535.45 491 536 491H537C538.1 491 539 491.9 539 493V494H541V493C541 491.9 541.9 491 543 491H544C544.55 491 545 490.55 545 490C545 489.45 544.55 489 544 489Z" fill="#323232"/>
</g>
<g clip-path="url(#clip79_17_18320)">
<path d="M598.27 478C597.72 478.95 598.05 480.18 599 480.73C599.95 481.28 601.18 480.95 601.73 480C602.28 479.05 601.95 477.82 601 477.27C600.05 476.72 598.82 477.05 598.27 478Z" fill="#323232"/>
<path d="M599.84 482.41C599.84 482.41 598.21 481.47 597.24 480.91C595.11 479.67 594.23 477.08 595.06 474.84C595.23 474.38 595.05 473.87 594.63 473.63C594.1 473.33 593.41 473.56 593.2 474.13C592.25 476.64 592.85 479.48 594.66 481.4L590.01 489.45C589.73 489.93 589.9 490.54 590.38 490.82C590.86 491.1 591.47 490.93 591.75 490.45L592.75 488.72L594.48 489.72L591.98 494.05C591.7 494.53 591.87 495.14 592.35 495.42C592.83 495.7 593.44 495.53 593.72 495.05L599.51 485.03C600.49 486.37 600.77 488.15 600.17 489.75C600 490.2 600.19 490.71 600.6 490.95C601.13 491.26 601.82 491.03 602.04 490.45C603.01 487.83 602.45 484.61 599.84 482.41Z" fill="#323232"/>
<path d="M596.75 475.8C597.47 476.21 598.38 475.97 598.8 475.25C599.21 474.53 598.97 473.62 598.25 473.2C597.53 472.79 596.62 473.03 596.2 473.75C595.79 474.47 596.03 475.39 596.75 475.8Z" fill="#323232"/>
</g>
<g clip-path="url(#clip80_17_18320)">
<path d="M82 545V548H84V544H83C82.45 544 82 544.45 82 545Z" fill="#323232"/>
<path d="M89 544H85V548L89.69 547.99C90.07 547.99 90.41 547.78 90.58 547.44L91.45 545.54L89.86 542.06L89 544Z" fill="#323232"/>
<path d="M101.71 544.29C101.53 544.11 101.28 544 101 544H100V548H102V545C102 544.72 101.89 544.47 101.71 544.29Z" fill="#323232"/>
<path d="M93.6001 540.84L97.6501 532H94.3001L92.5401 535.97L92.0501 537.07L92.0001 537.21L89.7001 532H86.3501L90.4001 540.84L91.9201 544.16L92.0001 544.34L93.4201 547.44C93.5901 547.78 93.9301 547.99 94.3101 547.99L99.0001 548V544H95.0001L93.6001 540.84Z" fill="#323232"/>
</g>
<g clip-path="url(#clip81_17_18320)">
<path d="M152.5 532.38C153.605 532.38 154.5 531.485 154.5 530.38C154.5 529.275 153.605 528.38 152.5 528.38C151.395 528.38 150.5 529.275 150.5 530.38C150.5 531.485 151.395 532.38 152.5 532.38Z" fill="#323232"/>
<path d="M160 538.88V535.18L155.01 533.07C154.03 532.66 152.89 533 152.3 533.88L151.3 535.48C150.63 536.66 149.39 537.54 147.89 537.8L147.95 537.86C148.64 538.55 149.47 538.93 150.41 539.03C151.21 538.61 151.93 538.05 152.5 537.39L153.1 540.39L151.94 541.49L151 542.38V543.14V548.88C151 549.43 151.45 549.88 152 549.88C152.55 549.88 153 549.43 153 548.88V543.88L155.1 541.88L156.72 549.07C156.83 549.54 157.25 549.88 157.74 549.88C158.4 549.88 158.89 549.28 158.76 548.64L156.82 538.88L156.2 535.78L158 536.48V538.88C158 539.43 158.45 539.88 159 539.88C159.55 539.88 160 539.43 160 538.88Z" fill="#323232"/>
<path d="M146.29 536.09C146.51 536.24 146.76 536.33 147.01 536.38C147.14 536.4 147.26 536.42 147.39 536.42C147.52 536.42 147.65 536.41 147.77 536.38C147.9 536.36 148.02 536.32 148.14 536.27C148.38 536.17 148.61 536.03 148.8 535.83C149.29 535.34 149.47 534.66 149.35 534.03C149.28 533.66 149.1 533.29 148.8 533C148.61 532.81 148.38 532.66 148.14 532.56C148.02 532.51 147.9 532.47 147.77 532.45C147.64 532.43 147.52 532.41 147.39 532.41C147.27 532.41 147.16 532.42 147.04 532.44C146.9 532.46 146.76 532.5 146.63 532.55C146.4 532.66 146.17 532.81 145.98 533C145.68 533.29 145.5 533.66 145.43 534.03C145.31 534.66 145.49 535.34 145.98 535.83C146.07 535.93 146.18 536.01 146.29 536.09Z" fill="#323232"/>
<path d="M147.24 538.56L145.24 536.56C145.14 536.46 145.04 536.38 144.93 536.3C144.71 536.16 144.46 536.06 144.21 536.02C144.08 535.99 143.96 535.98 143.83 535.98C143.32 535.98 142.81 536.18 142.42 536.57L139.08 539.91C138.67 540.32 138.46 540.89 138.5 541.45C138.5 541.63 138.54 541.82 138.61 542L139.68 544.95L136.76 547.87C136.37 548.26 136.37 548.89 136.76 549.28C137.15 549.67 137.78 549.67 138.17 549.28L141.71 545.74V543.52L143 544.75V548.88C143 549.43 143.45 549.88 144 549.88C144.55 549.88 145 549.43 145 548.88V543.88L142.88 541.76L145.24 539.4L145.95 540.11C146.97 541.11 148.23 541.8 149.74 542.05C150.38 542.16 150.95 541.6 150.9 540.95C150.87 540.47 150.5 540.08 150.03 540.01C148.9 539.83 147.97 539.29 147.24 538.56Z" fill="#323232"/>
</g>
<g clip-path="url(#clip82_17_18320)">
<path d="M199 548C199 548.55 199.45 549 200 549H208C208.55 549 209 548.55 209 548V545H199V548Z" fill="#323232"/>
<path d="M210 535C209.45 535 209 535.45 209 536V533C209 531.9 208.1 531 207 531H199C197.9 531 197 531.9 197 533V538.8C197 538.93 197.01 539.06 197.04 539.19L197.84 543.19C197.93 543.66 198.34 543.99 198.82 543.99H209.18C209.63 543.99 210.07 543.63 210.16 543.19L210.96 539.19C210.99 539.06 211 538.93 211 538.8V536C211 535.45 210.55 535 210 535ZM206 538H200C199.45 538 199 537.55 199 537V536C199 535.45 199.45 535 200 535H206C206.55 535 207 535.45 207 536V537C207 537.55 206.55 538 206 538Z" fill="#323232"/>
</g>
<g clip-path="url(#clip83_17_18320)">
<path d="M260 539.39C260 538.74 259.61 538.16 259.02 537.91L253.44 535.55C251.96 537.23 251.12 539.25 250.64 541H258.39C259.28 541 260 540.28 260 539.39Z" fill="#323232"/>
<path d="M269.96 539.22C269.55 534.81 265.4 531.73 260.98 532.02C258.47 532.18 256.54 532.96 255.05 534.06L259.79 536.07C261.12 536.64 261.99 537.94 261.99 539.39C261.99 541.38 260.37 543 258.38 543H250.21C250 544.31 250 545.2 250 545.2V546C250 547.1 250.9 548 252 548H262C266.67 548 270.41 543.99 269.96 539.22Z" fill="#323232"/>
</g>
<g clip-path="url(#clip84_17_18320)">
<path d="M324.49 531.51C323.93 530.95 322.34 530.54 320.33 530.54C317.25 530.54 313.18 531.5 310.35 534.33C305.66 539.03 306.1 547.07 307.51 548.49C308.07 549.05 309.66 549.46 311.67 549.46C314.75 549.46 318.82 548.5 321.65 545.67C326.34 540.97 325.9 532.93 324.49 531.51ZM311.76 535.76C314.4 533.12 318.11 532.64 319.79 532.57C317.74 533.51 315.33 535.02 313.18 537.18C311.02 539.34 309.51 541.76 308.57 543.81C308.66 541.33 309.44 538.07 311.76 535.76ZM320.24 544.24C317.6 546.88 313.89 547.36 312.21 547.43C314.26 546.49 316.67 544.98 318.82 542.82C320.98 540.66 322.49 538.24 323.44 536.19C323.34 538.67 322.56 541.93 320.24 544.24Z" fill="#323232"/>
</g>
<g clip-path="url(#clip85_17_18320)">
<path d="M372 530C366.48 530 362 534.48 362 540C362 545.52 366.48 550 372 550C377.52 550 382 545.52 382 540C382 534.48 377.52 530 372 530ZM373 533.3L374.35 532.35C376.17 532.91 377.72 534.11 378.73 535.69L378.34 537.03L376.99 537.49L373 534.7V533.3ZM369.65 532.35L371 533.3V534.7L367.01 537.49L365.66 537.03L365.27 535.69C366.28 534.12 367.83 532.92 369.65 532.35ZM367.08 545.11L365.94 545.21C364.73 543.81 364 541.99 364 540C364 539.88 364.01 539.77 364.02 539.65L365.02 538.92L366.4 539.4L367.86 543.74L367.08 545.11ZM374.5 547.59C373.71 547.85 372.87 548 372 548C371.13 548 370.29 547.85 369.5 547.59L368.81 546.1L369.45 545H374.56L375.2 546.11L374.5 547.59ZM374.27 543H369.73L368.38 538.98L372 536.44L375.63 538.98L374.27 543ZM378.06 545.21L376.92 545.11L376.13 543.74L377.59 539.4L378.98 538.93L379.98 539.66C379.99 539.77 380 539.88 380 540C380 541.99 379.27 543.81 378.06 545.21Z" fill="#323232"/>
</g>
<g clip-path="url(#clip86_17_18320)">
<path d="M435.52 530.49C433.18 528.15 428.9 528.62 425.97 531.55C424.37 533.15 423.45 535.42 423.43 537.01C423.41 538.59 423.69 540.9 422.08 542.51L418.54 546.04C418.15 546.43 418.15 547.06 418.54 547.46C418.93 547.85 419.56 547.85 419.96 547.46L423.49 543.92C425.1 542.31 427.41 542.59 428.99 542.57C430.57 542.55 432.85 541.63 434.45 540.03C437.38 537.11 437.86 532.83 435.52 530.49ZM426.32 539.68C424.79 538.15 425.27 535.07 427.38 532.96C429.49 530.85 432.56 530.37 434.1 531.9C435.63 533.43 435.15 536.51 433.04 538.62C430.93 540.73 427.86 541.21 426.32 539.68Z" fill="#323232"/>
<path d="M434 545C434.53 545 435.04 545.21 435.41 545.59C436.19 546.37 436.19 547.64 435.41 548.42C435.04 548.79 434.53 549 434 549C433.47 549 432.96 548.79 432.59 548.41C431.81 547.63 431.81 546.36 432.59 545.58C432.96 545.21 433.47 545 434 545ZM434 543C432.98 543 431.95 543.39 431.17 544.17C429.61 545.73 429.61 548.26 431.17 549.83C431.95 550.61 432.98 551 434 551C435.02 551 436.05 550.61 436.83 549.83C438.39 548.27 438.39 545.74 436.83 544.17C436.05 543.39 435.02 543 434 543Z" fill="#323232"/>
</g>
<g clip-path="url(#clip87_17_18320)">
<path d="M478 532.01C475.58 533.84 474 536.73 474 540C474 541.46 474.32 542.85 474.89 544.11L478 542.31V532.01Z" fill="#323232"/>
<path d="M483 539.42V530.05C481.94 530.16 480.93 530.43 480 530.84V541.16L483 539.42Z" fill="#323232"/>
<path d="M484 541.15L475.89 545.83C476.5 546.67 477.23 547.42 478.07 548.03L487 542.89L484 541.15Z" fill="#323232"/>
<path d="M485 535.96V539.42L493.11 544.1C493.53 543.17 493.81 542.17 493.93 541.12L485 535.96Z" fill="#323232"/>
<path d="M480.07 549.2C481.28 549.71 482.6 550 484 550C487.34 550 490.29 548.35 492.11 545.84L489 544.04L480.07 549.2Z" fill="#323232"/>
<path d="M493.92 538.81C493.37 534.18 489.66 530.51 485 530.05V533.65L493.92 538.81Z" fill="#323232"/>
</g>
<g clip-path="url(#clip88_17_18320)">
<path d="M538.88 549.94L544.41 544.4C544.78 544.03 544.99 543.52 544.99 542.99V533C544.99 531.9 544.09 531 542.99 531H534C533.2 531 532.48 531.48 532.17 532.21L528.91 539.82C528.06 541.8 529.51 544 531.66 544H537.31L536.36 548.58C536.26 549.08 536.41 549.59 536.77 549.95C537.36 550.53 538.3 550.53 538.88 549.94ZM549 531C547.9 531 547 531.9 547 533V541C547 542.1 547.9 543 549 543C550.1 543 551 542.1 551 541V533C551 531.9 550.1 531 549 531Z" fill="#323232"/>
</g>
<g clip-path="url(#clip89_17_18320)">
<path d="M597.12 530.06L591.58 535.6C591.21 535.97 591 536.48 591 537.01V547C591 548.1 591.9 549 593 549H602C602.8 549 603.52 548.52 603.84 547.79L607.1 540.18C607.94 538.2 606.49 536 604.34 536H598.69L599.64 531.42C599.74 530.92 599.59 530.41 599.23 530.05C598.64 529.47 597.7 529.47 597.12 530.06ZM587 549C588.1 549 589 548.1 589 547V539C589 537.9 588.1 537 587 537C585.9 537 585 537.9 585 539V547C585 548.1 585.9 549 587 549Z" fill="#323232"/>
</g>
<g clip-path="url(#clip90_17_18320)">
<path d="M97.09 588.56C96.39 587.53 95.59 586.57 94.69 585.71C94.34 585.37 93.75 585.69 93.85 586.17C94.04 587.11 94.24 588.35 94.24 589.46C94.24 591.52 92.89 593.19 90.83 593.19C89.29 593.19 88.03 592.26 87.48 590.93C87.38 590.73 87.34 590.61 87.28 590.39C87.17 589.97 86.62 589.84 86.38 590.21C86.2 590.48 86.03 590.75 85.87 591.04C84.68 593.08 84 595.46 84 598C84 602.42 87.58 606 92 606C96.42 606 100 602.42 100 598C100 594.51 98.92 591.27 97.09 588.56ZM91.71 603C89.93 603 88.49 601.6 88.49 599.86C88.49 598.24 89.54 597.1 91.3 596.74C92.77 596.44 94.28 595.81 95.33 594.82C95.61 594.56 96.07 594.68 96.15 595.05C96.38 596.07 96.5 597.13 96.5 598.2C96.51 600.85 94.36 603 91.71 603Z" fill="#323232"/>
</g>
<defs>
<clipPath id="clip0_17_18320">
<rect width="24" height="24" fill="white" transform="translate(80 80)"/>
</clipPath>
<clipPath id="clip1_17_18320">
<rect width="24" height="24" fill="white" transform="translate(136 80)"/>
</clipPath>
<clipPath id="clip2_17_18320">
<rect width="24" height="24" fill="white" transform="translate(192 80)"/>
</clipPath>
<clipPath id="clip3_17_18320">
<rect width="24" height="24" fill="white" transform="translate(248 80)"/>
</clipPath>
<clipPath id="clip4_17_18320">
<rect width="24" height="24" fill="white" transform="translate(304 80)"/>
</clipPath>
<clipPath id="clip5_17_18320">
<rect width="24" height="24" fill="white" transform="translate(360 80)"/>
</clipPath>
<clipPath id="clip6_17_18320">
<rect width="24" height="24" fill="white" transform="translate(416 80)"/>
</clipPath>
<clipPath id="clip7_17_18320">
<rect width="24" height="24" fill="white" transform="translate(472 80)"/>
</clipPath>
<clipPath id="clip8_17_18320">
<rect width="24" height="24" fill="white" transform="translate(528 80)"/>
</clipPath>
<clipPath id="clip9_17_18320">
<rect width="24" height="24" fill="white" transform="translate(584 80)"/>
</clipPath>
<clipPath id="clip10_17_18320">
<rect width="24" height="24" fill="white" transform="translate(80 136)"/>
</clipPath>
<clipPath id="clip11_17_18320">
<rect width="24" height="24" fill="white" transform="translate(136 136)"/>
</clipPath>
<clipPath id="clip12_17_18320">
<rect width="24" height="24" fill="white" transform="translate(192 136)"/>
</clipPath>
<clipPath id="clip13_17_18320">
<rect width="24" height="24" fill="white" transform="translate(248 136)"/>
</clipPath>
<clipPath id="clip14_17_18320">
<rect width="24" height="24" fill="white" transform="translate(304 136)"/>
</clipPath>
<clipPath id="clip15_17_18320">
<rect width="24" height="24" fill="white" transform="translate(360 136)"/>
</clipPath>
<clipPath id="clip16_17_18320">
<rect width="24" height="24" fill="white" transform="translate(416 136)"/>
</clipPath>
<clipPath id="clip17_17_18320">
<rect width="24" height="24" fill="white" transform="translate(472 136)"/>
</clipPath>
<clipPath id="clip18_17_18320">
<rect width="24" height="24" fill="white" transform="translate(528 136)"/>
</clipPath>
<clipPath id="clip19_17_18320">
<rect width="24" height="24" fill="white" transform="translate(584 136)"/>
</clipPath>
<clipPath id="clip20_17_18320">
<rect width="24" height="24" fill="white" transform="translate(80 192)"/>
</clipPath>
<clipPath id="clip21_17_18320">
<rect width="24" height="24" fill="white" transform="translate(136 192)"/>
</clipPath>
<clipPath id="clip22_17_18320">
<rect width="24" height="24" fill="white" transform="translate(192 192)"/>
</clipPath>
<clipPath id="clip23_17_18320">
<rect width="24" height="24" fill="white" transform="translate(248 192)"/>
</clipPath>
<clipPath id="clip24_17_18320">
<rect width="24" height="24" fill="white" transform="translate(304 192)"/>
</clipPath>
<clipPath id="clip25_17_18320">
<rect width="24" height="24" fill="white" transform="translate(360 192)"/>
</clipPath>
<clipPath id="clip26_17_18320">
<rect width="24" height="24" fill="white" transform="translate(416 192)"/>
</clipPath>
<clipPath id="clip27_17_18320">
<rect width="24" height="24" fill="white" transform="translate(472 192)"/>
</clipPath>
<clipPath id="clip28_17_18320">
<rect width="24" height="24" fill="white" transform="translate(528 192)"/>
</clipPath>
<clipPath id="clip29_17_18320">
<rect width="24" height="24" fill="white" transform="translate(584 192)"/>
</clipPath>
<clipPath id="clip30_17_18320">
<rect width="24" height="24" fill="white" transform="translate(80 248)"/>
</clipPath>
<clipPath id="clip31_17_18320">
<rect width="24" height="24" fill="white" transform="translate(136 248)"/>
</clipPath>
<clipPath id="clip32_17_18320">
<rect width="24" height="24" fill="white" transform="translate(192 248)"/>
</clipPath>
<clipPath id="clip33_17_18320">
<rect width="24" height="24" fill="white" transform="translate(248 248)"/>
</clipPath>
<clipPath id="clip34_17_18320">
<rect width="24" height="24" fill="white" transform="translate(304 248)"/>
</clipPath>
<clipPath id="clip35_17_18320">
<rect width="24" height="24" fill="white" transform="translate(360 248)"/>
</clipPath>
<clipPath id="clip36_17_18320">
<rect width="24" height="24" fill="white" transform="translate(416 248)"/>
</clipPath>
<clipPath id="clip37_17_18320">
<rect width="24" height="24" fill="white" transform="translate(472 248)"/>
</clipPath>
<clipPath id="clip38_17_18320">
<rect width="24" height="24" fill="white" transform="translate(528 248)"/>
</clipPath>
<clipPath id="clip39_17_18320">
<rect width="24" height="24" fill="white" transform="translate(584 248)"/>
</clipPath>
<clipPath id="clip40_17_18320">
<rect width="24" height="24" fill="white" transform="translate(80 304)"/>
</clipPath>
<clipPath id="clip41_17_18320">
<rect width="24" height="24" fill="white" transform="translate(136 304)"/>
</clipPath>
<clipPath id="clip42_17_18320">
<rect width="24" height="24" fill="white" transform="translate(192 304)"/>
</clipPath>
<clipPath id="clip43_17_18320">
<rect width="24" height="24" fill="white" transform="translate(248 304)"/>
</clipPath>
<clipPath id="clip44_17_18320">
<rect width="24" height="24" fill="white" transform="translate(304 304)"/>
</clipPath>
<clipPath id="clip45_17_18320">
<rect width="24" height="24" fill="white" transform="translate(360 304)"/>
</clipPath>
<clipPath id="clip46_17_18320">
<rect width="24" height="24" fill="white" transform="translate(416 304)"/>
</clipPath>
<clipPath id="clip47_17_18320">
<rect width="24" height="24" fill="white" transform="translate(472 304)"/>
</clipPath>
<clipPath id="clip48_17_18320">
<rect width="24" height="24" fill="white" transform="translate(528 304)"/>
</clipPath>
<clipPath id="clip49_17_18320">
<rect width="24" height="24" fill="white" transform="translate(584 304)"/>
</clipPath>
<clipPath id="clip50_17_18320">
<rect width="24" height="24" fill="white" transform="translate(80 360)"/>
</clipPath>
<clipPath id="clip51_17_18320">
<rect width="24" height="24" fill="white" transform="translate(136 360)"/>
</clipPath>
<clipPath id="clip52_17_18320">
<rect width="24" height="24" fill="white" transform="translate(192 360)"/>
</clipPath>
<clipPath id="clip53_17_18320">
<rect width="24" height="24" fill="white" transform="translate(248 360)"/>
</clipPath>
<clipPath id="clip54_17_18320">
<rect width="24" height="24" fill="white" transform="translate(304 360)"/>
</clipPath>
<clipPath id="clip55_17_18320">
<rect width="24" height="24" fill="white" transform="translate(360 360)"/>
</clipPath>
<clipPath id="clip56_17_18320">
<rect width="24" height="24" fill="white" transform="translate(416 360)"/>
</clipPath>
<clipPath id="clip57_17_18320">
<rect width="24" height="24" fill="white" transform="translate(472 360)"/>
</clipPath>
<clipPath id="clip58_17_18320">
<rect width="24" height="24" fill="white" transform="translate(528 360)"/>
</clipPath>
<clipPath id="clip59_17_18320">
<rect width="24" height="24" fill="white" transform="translate(584 360)"/>
</clipPath>
<clipPath id="clip60_17_18320">
<rect width="24" height="24" fill="white" transform="translate(80 416)"/>
</clipPath>
<clipPath id="clip61_17_18320">
<rect width="24" height="24" fill="white" transform="translate(136 416)"/>
</clipPath>
<clipPath id="clip62_17_18320">
<rect width="24" height="24" fill="white" transform="translate(192 416)"/>
</clipPath>
<clipPath id="clip63_17_18320">
<rect width="24" height="24" fill="white" transform="translate(248 416)"/>
</clipPath>
<clipPath id="clip64_17_18320">
<rect width="24" height="24" fill="white" transform="translate(304 416)"/>
</clipPath>
<clipPath id="clip65_17_18320">
<rect width="24" height="24" fill="white" transform="translate(360 416)"/>
</clipPath>
<clipPath id="clip66_17_18320">
<rect width="24" height="24" fill="white" transform="translate(416 416)"/>
</clipPath>
<clipPath id="clip67_17_18320">
<rect width="24" height="24" fill="white" transform="translate(472 416)"/>
</clipPath>
<clipPath id="clip68_17_18320">
<rect width="24" height="24" fill="white" transform="translate(528 416)"/>
</clipPath>
<clipPath id="clip69_17_18320">
<rect width="24" height="24" fill="white" transform="translate(584 416)"/>
</clipPath>
<clipPath id="clip70_17_18320">
<rect width="24" height="24" fill="white" transform="translate(80 472)"/>
</clipPath>
<clipPath id="clip71_17_18320">
<rect width="24" height="24" fill="white" transform="translate(136 472)"/>
</clipPath>
<clipPath id="clip72_17_18320">
<rect width="24" height="24" fill="white" transform="translate(192 472)"/>
</clipPath>
<clipPath id="clip73_17_18320">
<rect width="24" height="24" fill="white" transform="translate(248 472)"/>
</clipPath>
<clipPath id="clip74_17_18320">
<rect width="24" height="24" fill="white" transform="translate(304 472)"/>
</clipPath>
<clipPath id="clip75_17_18320">
<rect width="24" height="24" fill="white" transform="translate(360 472)"/>
</clipPath>
<clipPath id="clip76_17_18320">
<rect width="24" height="24" fill="white" transform="translate(416 472)"/>
</clipPath>
<clipPath id="clip77_17_18320">
<rect width="24" height="24" fill="white" transform="translate(472 472)"/>
</clipPath>
<clipPath id="clip78_17_18320">
<rect width="24" height="24" fill="white" transform="translate(528 472)"/>
</clipPath>
<clipPath id="clip79_17_18320">
<rect width="24" height="24" fill="white" transform="translate(584 472)"/>
</clipPath>
<clipPath id="clip80_17_18320">
<rect width="24" height="24" fill="white" transform="translate(80 528)"/>
</clipPath>
<clipPath id="clip81_17_18320">
<rect width="24" height="24" fill="white" transform="translate(136 528)"/>
</clipPath>
<clipPath id="clip82_17_18320">
<rect width="24" height="24" fill="white" transform="translate(192 528)"/>
</clipPath>
<clipPath id="clip83_17_18320">
<rect width="24" height="24" fill="white" transform="translate(248 528)"/>
</clipPath>
<clipPath id="clip84_17_18320">
<rect width="24" height="24" fill="white" transform="translate(304 528)"/>
</clipPath>
<clipPath id="clip85_17_18320">
<rect width="24" height="24" fill="white" transform="translate(360 528)"/>
</clipPath>
<clipPath id="clip86_17_18320">
<rect width="24" height="24" fill="white" transform="translate(416 528)"/>
</clipPath>
<clipPath id="clip87_17_18320">
<rect width="24" height="24" fill="white" transform="translate(472 528)"/>
</clipPath>
<clipPath id="clip88_17_18320">
<rect width="24" height="24" fill="white" transform="translate(528 528)"/>
</clipPath>
<clipPath id="clip89_17_18320">
<rect width="24" height="24" fill="white" transform="translate(584 528)"/>
</clipPath>
<clipPath id="clip90_17_18320">
<rect width="24" height="24" fill="white" transform="translate(80 584)"/>
</clipPath>
</defs>
</svg>
