<svg width="48" height="48" viewBox="0 0 48 48" fill="none" xmlns="http://www.w3.org/2000/svg">
<g clip-path="url(#clip0_17_18372)">
<path d="M24 8V4.42C24 3.52 22.92 3.08 22.3 3.72L16.7 9.3C16.3 9.7 16.3 10.32 16.7 10.72L22.28 16.3C22.92 16.92 24 16.48 24 15.58V12C30.62 12 36 17.38 36 24C36 25.58 35.7 27.12 35.12 28.5C34.82 29.22 35.04 30.04 35.58 30.58C36.6 31.6 38.32 31.24 38.86 29.9C39.6 28.08 40 26.08 40 24C40 15.16 32.84 8 24 8ZM24 36C17.38 36 12 30.62 12 24C12 22.42 12.3 20.88 12.88 19.5C13.18 18.78 12.96 17.96 12.42 17.42C11.4 16.4 9.68 16.76 9.14 18.1C8.4 19.92 8 21.92 8 24C8 32.84 15.16 40 24 40V43.58C24 44.48 25.08 44.92 25.7 44.28L31.28 38.7C31.68 38.3 31.68 37.68 31.28 37.28L25.7 31.7C25.08 31.08 24 31.52 24 32.42V36Z" fill="#323232"/>
</g>
<defs>
<clipPath id="clip0_17_18372">
<rect width="48" height="48" fill="white"/>
</clipPath>
</defs>
</svg>
