<svg width="688" height="240" viewBox="0 0 688 240" fill="none" xmlns="http://www.w3.org/2000/svg">
<rect x="0.5" y="0.5" width="687" height="239" rx="31.5" stroke="#CCCCCC"/>
<g clip-path="url(#clip0_17_18333)">
<path d="M99 83H85C83.9 83 83 83.9 83 85V99C83 100.1 83.9 101 85 101H99C100.1 101 101 100.1 101 99V85C101 83.9 100.1 83 99 83ZM90.71 96.29C90.32 96.68 89.69 96.68 89.3 96.29L85.71 92.7C85.32 92.31 85.32 91.68 85.71 91.29C86.1 90.9 86.73 90.9 87.12 91.29L90 94.17L96.88 87.29C97.27 86.9 97.9 86.9 98.29 87.29C98.68 87.68 98.68 88.31 98.29 88.7L90.71 96.29Z" fill="#323232"/>
</g>
<g clip-path="url(#clip1_17_18333)">
<path d="M154 99H142C141.45 99 141 98.55 141 98V86C141 85.45 141.45 85 142 85H154C154.55 85 155 85.45 155 86V98C155 98.55 154.55 99 154 99ZM155 83H141C139.9 83 139 83.9 139 85V99C139 100.1 139.9 101 141 101H155C156.1 101 157 100.1 157 99V85C157 83.9 156.1 83 155 83Z" fill="#323232"/>
</g>
<g clip-path="url(#clip2_17_18333)">
<path d="M211 83H197C195.9 83 195 83.9 195 85V99C195 100.1 195.9 101 197 101H211C212.1 101 213 100.1 213 99V85C213 83.9 212.1 83 211 83ZM208 93H200C199.45 93 199 92.55 199 92C199 91.45 199.45 91 200 91H208C208.55 91 209 91.45 209 92C209 92.55 208.55 93 208 93Z" fill="#323232"/>
</g>
<g clip-path="url(#clip3_17_18333)">
<path d="M260 82C254.48 82 250 86.48 250 92C250 97.52 254.48 102 260 102C265.52 102 270 97.52 270 92C270 86.48 265.52 82 260 82ZM260 100C255.58 100 252 96.42 252 92C252 87.58 255.58 84 260 84C264.42 84 268 87.58 268 92C268 96.42 264.42 100 260 100Z" fill="#323232"/>
<path d="M260 97C262.761 97 265 94.7614 265 92C265 89.2386 262.761 87 260 87C257.239 87 255 89.2386 255 92C255 94.7614 257.239 97 260 97Z" fill="#323232"/>
</g>
<g clip-path="url(#clip4_17_18333)">
<path d="M316 82C310.48 82 306 86.48 306 92C306 97.52 310.48 102 316 102C321.52 102 326 97.52 326 92C326 86.48 321.52 82 316 82ZM316 100C311.58 100 308 96.42 308 92C308 87.58 311.58 84 316 84C320.42 84 324 87.58 324 92C324 96.42 320.42 100 316 100Z" fill="#323232"/>
</g>
<g clip-path="url(#clip5_17_18333)">
<path d="M372 97.27L376.15 99.78C376.91 100.24 377.84 99.56 377.64 98.7L376.54 93.98L380.21 90.8C380.88 90.22 380.52 89.12 379.64 89.05L374.81 88.64L372.92 84.18C372.58 83.37 371.42 83.37 371.08 84.18L369.19 88.63L364.36 89.04C363.48 89.11 363.12 90.21 363.79 90.79L367.46 93.97L366.36 98.69C366.16 99.55 367.09 100.23 367.85 99.77L372 97.27Z" fill="#323232"/>
</g>
<g clip-path="url(#clip6_17_18333)">
<path d="M435.65 89.04L430.81 88.62L428.92 84.17C428.58 83.36 427.42 83.36 427.08 84.17L425.19 88.63L420.36 89.04C419.48 89.11 419.12 90.21 419.79 90.79L423.46 93.97L422.36 98.69C422.16 99.55 423.09 100.23 423.85 99.77L428 97.27L432.15 99.78C432.91 100.24 433.84 99.56 433.64 98.7L432.54 93.97L436.21 90.79C436.88 90.21 436.53 89.11 435.65 89.04ZM428 95.4L424.24 97.67L425.24 93.39L421.92 90.51L426.3 90.13L428 86.1L429.71 90.14L434.09 90.52L430.77 93.4L431.77 97.68L428 95.4Z" fill="#323232"/>
</g>
<g clip-path="url(#clip7_17_18333)">
<path d="M491.65 89.04L486.81 88.62L484.92 84.17C484.58 83.36 483.42 83.36 483.08 84.17L481.19 88.63L476.36 89.04C475.48 89.11 475.12 90.21 475.79 90.79L479.46 93.97L478.36 98.69C478.16 99.55 479.09 100.23 479.85 99.77L484 97.27L488.15 99.78C488.91 100.24 489.84 99.56 489.64 98.7L488.54 93.97L492.21 90.79C492.88 90.21 492.53 89.11 491.65 89.04ZM484 95.4V86.1L485.71 90.14L490.09 90.52L486.77 93.4L487.77 97.68L484 95.4Z" fill="#323232"/>
</g>
<g clip-path="url(#clip8_17_18333)">
<path d="M547.65 89.04L542.81 88.62L540.92 84.17C540.58 83.36 539.42 83.36 539.08 84.17L537.19 88.63L532.36 89.04C531.48 89.11 531.12 90.21 531.79 90.79L535.46 93.97L534.36 98.69C534.16 99.55 535.09 100.23 535.85 99.77L540 97.27L544.15 99.78C544.91 100.24 545.84 99.56 545.64 98.7L544.54 93.97L548.21 90.79C548.88 90.21 548.53 89.11 547.65 89.04ZM540 95.4L536.24 97.67L537.24 93.39L533.92 90.51L538.3 90.13L540 86.1L541.71 90.14L546.09 90.52L542.77 93.4L543.77 97.68L540 95.4Z" fill="#323232"/>
</g>
<g clip-path="url(#clip9_17_18333)">
<path d="M601 87H591C588.24 87 586 89.24 586 92C586 94.76 588.24 97 591 97H601C603.76 97 606 94.76 606 92C606 89.24 603.76 87 601 87ZM591 95C589.34 95 588 93.66 588 92C588 90.34 589.34 89 591 89C592.66 89 594 90.34 594 92C594 93.66 592.66 95 591 95Z" fill="#323232"/>
</g>
<g clip-path="url(#clip10_17_18333)">
<path d="M97 143H87C84.24 143 82 145.24 82 148C82 150.76 84.24 153 87 153H97C99.76 153 102 150.76 102 148C102 145.24 99.76 143 97 143ZM97 151C95.34 151 94 149.66 94 148C94 146.34 95.34 145 97 145C98.66 145 100 146.34 100 148C100 149.66 98.66 151 97 151Z" fill="#323232"/>
</g>
<defs>
<clipPath id="clip0_17_18333">
<rect width="24" height="24" fill="white" transform="translate(80 80)"/>
</clipPath>
<clipPath id="clip1_17_18333">
<rect width="24" height="24" fill="white" transform="translate(136 80)"/>
</clipPath>
<clipPath id="clip2_17_18333">
<rect width="24" height="24" fill="white" transform="translate(192 80)"/>
</clipPath>
<clipPath id="clip3_17_18333">
<rect width="24" height="24" fill="white" transform="translate(248 80)"/>
</clipPath>
<clipPath id="clip4_17_18333">
<rect width="24" height="24" fill="white" transform="translate(304 80)"/>
</clipPath>
<clipPath id="clip5_17_18333">
<rect width="24" height="24" fill="white" transform="translate(360 80)"/>
</clipPath>
<clipPath id="clip6_17_18333">
<rect width="24" height="24" fill="white" transform="translate(416 80)"/>
</clipPath>
<clipPath id="clip7_17_18333">
<rect width="24" height="24" fill="white" transform="translate(472 80)"/>
</clipPath>
<clipPath id="clip8_17_18333">
<rect width="24" height="24" fill="white" transform="translate(528 80)"/>
</clipPath>
<clipPath id="clip9_17_18333">
<rect width="24" height="24" fill="white" transform="translate(584 80)"/>
</clipPath>
<clipPath id="clip10_17_18333">
<rect width="24" height="24" fill="white" transform="translate(80 136)"/>
</clipPath>
</defs>
</svg>
