<svg width="104" height="67" viewBox="0 0 104 67" fill="none" xmlns="http://www.w3.org/2000/svg">
<path d="M7.09623 31.8893C4.96513 31.8893 3.24686 31.1835 1.94142 29.7717C0.64714 28.3599 0 26.3846 0 23.8458V9.39596C0 6.35888 0.563459 4.03362 1.69038 2.42017C2.82845 0.806724 4.67503 0 7.23012 0C8.62482 0 9.86332 0.272863 10.9456 0.818588C12.0391 1.36431 12.8982 2.1829 13.523 3.27435C14.1478 4.35394 14.4602 5.71825 14.4602 7.36729V12.7771H8.60251V8.15029C8.60251 7.21306 8.49093 6.58429 8.26778 6.26398C8.04463 5.9318 7.69874 5.76571 7.23012 5.76571C6.6834 5.76571 6.3152 5.97925 6.12552 6.40634C5.93584 6.82156 5.841 7.37915 5.841 8.07911V23.7568C5.841 24.6229 5.95816 25.2339 6.19247 25.5898C6.43793 25.9457 6.78382 26.1236 7.23012 26.1236C7.73221 26.1236 8.08368 25.9042 8.28452 25.4652C8.49651 25.0262 8.60251 24.4568 8.60251 23.7568V18.1157H14.5272V24.0416C14.5272 26.7939 13.8745 28.7929 12.569 30.0386C11.2636 31.2724 9.43933 31.8893 7.09623 31.8893Z" fill="#F25790"/>
<path d="M15.6987 31.6046L18.5439 0.284726H28.5356L31.3305 31.6046H25.7573L25.3389 26.5507H21.7908L21.4226 31.6046H15.6987ZM22.2092 21.5502H24.887L23.5983 5.62334H23.3305L22.2092 21.5502Z" fill="#F25790"/>
<path d="M33.1381 31.6046V0.284726H42.1088L44.5858 19.3792L47.046 0.284726H56.1004V31.6046H50.7113V9.04006L47.3305 31.6046H42.0418L38.4602 9.04006V31.6046H33.1381Z" fill="#F25790"/>
<path d="M58.7113 31.6046V0.284726H70.4937V6.33516H64.7029V12.439H70.2594V18.3292H64.7029V25.5008H70.8787V31.6046H58.7113Z" fill="#F25790"/>
<path d="M72.8368 31.6046V0.284726H81.8745C83.3807 0.284726 84.5188 0.652497 85.2887 1.38804C86.0586 2.11172 86.5718 3.13199 86.8284 4.44885C87.0962 5.75384 87.2301 7.29018 87.2301 9.05785C87.2301 10.7662 87.0237 12.1305 86.6109 13.1508C86.2092 14.1711 85.4449 14.8769 84.318 15.2684C85.2441 15.4701 85.8912 15.9625 86.2594 16.7455C86.6388 17.5166 86.8284 18.5191 86.8284 19.7529V31.6046H81.0209V19.3436C81.0209 18.4301 80.8424 17.8666 80.4853 17.653C80.1395 17.4276 79.576 17.3149 78.795 17.3149V31.6046H72.8368ZM78.8284 11.8873H80.251C81.0655 11.8873 81.4728 10.9442 81.4728 9.05785C81.4728 7.8359 81.3835 7.03511 81.205 6.65547C81.0265 6.27584 80.6918 6.08602 80.2008 6.08602H78.8284V11.8873Z" fill="#F25790"/>
<path d="M88.3682 31.6046L91.2134 0.284726H101.205L104 31.6046H98.4268L98.0084 26.5507H94.4602L94.092 31.6046H88.3682ZM94.8786 21.5502H97.5565L96.2678 5.62334H96L94.8786 21.5502Z" fill="#F25790"/>
<path d="M0 66.0322V34.7123H9.03766C10.5439 34.7123 11.682 35.08 12.4519 35.8156C13.2218 36.5393 13.735 37.5595 13.9916 38.8764C14.2594 40.1814 14.3933 41.7177 14.3933 43.4854C14.3933 45.1938 14.1869 46.5581 13.7741 47.5783C13.3724 48.5986 12.6081 49.3045 11.4812 49.696C12.4073 49.8977 13.0544 50.39 13.4226 51.173C13.802 51.9441 13.9916 52.9466 13.9916 54.1804V66.0322H8.1841V53.7711C8.1841 52.8576 8.00558 52.2941 7.64854 52.0806C7.30265 51.8552 6.73919 51.7425 5.95816 51.7425V66.0322H0ZM5.99163 46.3149H7.41423C8.22873 46.3149 8.63599 45.3717 8.63599 43.4854C8.63599 42.2634 8.54672 41.4627 8.3682 41.083C8.18968 40.7034 7.85495 40.5136 7.36402 40.5136H5.99163V46.3149Z" fill="#F25790"/>
<path d="M16.3347 66.0322V34.7123H28.1172V40.7627H22.3264V46.8665H27.8828V52.7568H22.3264V59.9283H28.5021V66.0322H16.3347Z" fill="#F25790"/>
<path d="M29.6569 66.0322L32.5021 34.7123H42.4937L45.2887 66.0322H39.7155L39.2971 60.9783H35.749L35.3807 66.0322H29.6569ZM36.1674 55.9778H38.8452L37.5565 40.0509H37.2887L36.1674 55.9778Z" fill="#F25790"/>
<path d="M47.0962 66.0322V34.7123H52.9874V60.6935H59.046V66.0322H47.0962Z" fill="#F25790"/>
<path d="M66.0236 66.0322H75.8233C76.7486 66.0322 77.5702 65.4292 77.8628 64.5354L79.8374 58.5029C80.1179 57.6461 79.241 56.8716 78.4477 57.2756L77.6838 57.6645C76.8561 58.0859 75.8566 57.9207 75.2023 57.2544L72.4436 54.4452C71.6041 53.5903 70.2429 53.5903 69.4034 54.4452L66.6447 57.2544C65.9904 57.9207 64.9908 58.0859 64.1632 57.6645L63.3993 57.2756C62.6059 56.8716 61.7291 57.6461 62.0096 58.5029L63.9842 64.5354C64.2768 65.4292 65.0984 66.0322 66.0236 66.0322Z" fill="#F25790"/>
</svg>
